<svg width="25" height="10" viewBox="0 0 25 10" fill="none" xmlns="http://www.w3.org/2000/svg">
<path d="M4.50255 1.28668C4.21206 1.62528 3.76511 1.89616 3.31819 1.85102C3.25113 1.39955 3.47462 0.902934 3.74278 0.609481C4.03327 0.270881 4.52491 0.0225734 4.92716 0C4.97183 0.474041 4.79307 0.925509 4.50255 1.28668ZM4.9048 1.94131C4.25676 1.89616 3.69808 2.32506 3.38522 2.32506C3.07236 2.32506 2.60308 1.96388 2.06676 1.98646C1.39635 1.98646 0.770641 2.39277 0.413091 3.00226C-0.302005 4.22122 0.234317 6.04966 0.904723 7.04288C1.23992 7.5395 1.64217 8.08125 2.17849 8.05869C2.67012 8.03613 2.87124 7.72009 3.47462 7.72009C4.07796 7.72009 4.25676 8.05869 4.79307 8.03613C5.32938 8.03613 5.68694 7.5395 6.02216 7.04288C6.40204 6.47856 6.55847 5.93678 6.55847 5.91422C6.55847 5.91422 5.50818 5.50791 5.48581 4.28894C5.48581 3.27312 6.31265 2.77653 6.35734 2.75395C5.9104 2.0316 5.17296 1.96388 4.9048 1.94131ZM8.70376 0.564334V7.99097H9.84345V5.44019H11.4301C12.8826 5.44019 13.8882 4.44694 13.8882 3.00226C13.8882 1.55756 12.8826 0.564334 11.4524 0.564334H8.70376ZM9.84345 1.53499H11.1619C12.1452 1.53499 12.7262 2.07675 12.7262 3.00226C12.7262 3.92775 12.1675 4.46953 11.1619 4.46953H9.84345V1.53499ZM15.9665 8.03613C16.6816 8.03613 17.352 7.67494 17.6425 7.08803H17.6649V7.96841H18.7151V4.28894C18.7151 3.228 17.8659 2.52822 16.5699 2.52822C15.3631 2.52822 14.4692 3.228 14.4245 4.19866H15.4525C15.5419 3.74719 15.9665 3.43116 16.5252 3.43116C17.2179 3.43116 17.6202 3.76975 17.6202 4.35666V4.76297L16.1899 4.85328C14.8715 4.94356 14.1564 5.48531 14.1564 6.43341C14.1564 7.40406 14.8938 8.03613 15.9665 8.03613ZM16.257 7.15575C15.6536 7.15575 15.2737 6.86231 15.2737 6.41084C15.2737 5.93678 15.6536 5.66591 16.3687 5.62078L17.6425 5.53047V5.95937C17.6202 6.65916 17.0391 7.15575 16.257 7.15575ZM20.123 10C21.2403 10 21.7543 9.57109 22.2236 8.26184L24.2348 2.59594H23.0728L21.732 6.97516H21.7096L20.3688 2.59594H19.1844L21.1063 7.99097L20.9945 8.32956C20.8157 8.89391 20.5476 9.09706 20.0336 9.09706C19.9442 9.09706 19.7654 9.09706 19.6984 9.0745V9.95484C19.7654 9.97744 20.0336 10 20.123 10Z" fill="black"/>
</svg>
