<svg width="79" height="32" viewBox="0 0 79 32" fill="none" xmlns="http://www.w3.org/2000/svg">
<path d="M15.0095 4.69962C14.068 5.72742 12.6194 6.54967 11.1709 6.41263C10.9535 5.04222 11.6779 3.53477 12.547 2.644C13.4885 1.61619 15.082 0.862466 16.3857 0.793945C16.5305 2.23288 15.9511 3.60329 15.0095 4.69962ZM16.3132 6.68671C14.2128 6.54967 12.4021 7.85156 11.3881 7.85156C10.3741 7.85156 8.85314 6.75523 7.11485 6.82376C4.94202 6.82376 2.91403 8.05712 1.75517 9.90718C-0.562521 13.6073 1.17575 19.1574 3.3486 22.1723C4.43501 23.6798 5.73873 25.3243 7.477 25.2558C9.07042 25.1873 9.72227 24.228 11.6779 24.228C13.6334 24.228 14.2128 25.2558 15.9511 25.1873C17.6893 25.1873 18.8482 23.6798 19.9347 22.1723C21.1659 20.4594 21.6729 18.8148 21.6729 18.7463C21.6729 18.7463 18.2688 17.513 18.1963 13.8128C18.1963 10.7294 20.8762 9.22198 21.021 9.15345C19.5724 6.9608 17.1823 6.75523 16.3132 6.68671ZM28.626 2.50696V25.0502H32.3198V17.3074H37.4623C42.1701 17.3074 45.4293 14.2924 45.4293 9.90718C45.4293 5.52186 42.1701 2.50696 37.5347 2.50696H28.626ZM32.3198 5.45334H36.5931C39.7799 5.45334 41.6631 7.09784 41.6631 9.90718C41.6631 12.7165 39.8524 14.361 36.5931 14.361H32.3198V5.45334ZM52.1651 25.1873C54.4829 25.1873 56.6557 24.0909 57.5972 22.3094H57.6697V24.9817H61.0738V13.8128C61.0738 10.5924 58.3215 8.46825 54.1208 8.46825C50.2096 8.46825 47.3125 10.5924 47.1676 13.5388H50.4993C50.789 12.1684 52.1651 11.2091 53.9759 11.2091C56.2211 11.2091 57.5248 12.2369 57.5248 14.0184V15.2517L52.8894 15.5259C48.6162 15.7999 46.2985 17.4444 46.2985 20.3223C46.2985 23.2687 48.6886 25.1873 52.1651 25.1873ZM53.1067 22.5149C51.1512 22.5149 49.9199 21.6242 49.9199 20.2538C49.9199 18.8148 51.1512 17.9926 53.4689 17.8556L57.5972 17.5815V18.8834C57.5249 21.0076 55.6417 22.5149 53.1067 22.5149ZM65.6368 31.1486C69.2581 31.1486 70.924 29.8466 72.445 25.8724L78.9635 8.67381H75.1973L70.8516 21.9668H70.7791L66.4335 8.67381H62.5948L68.8236 25.0502L68.4615 26.078C67.882 27.791 67.0129 28.4077 65.347 28.4077C65.0573 28.4077 64.4779 28.4077 64.2607 28.3392V31.0115C64.4779 31.0801 65.347 31.1486 65.6368 31.1486Z" fill="black"/>
</svg>
