<svg width="66" height="66" viewBox="0 0 66 66" fill="none" xmlns="http://www.w3.org/2000/svg">
<g filter="url(#filter0_d_63_10)">
<path d="M33 51C45.7025 51 56 40.7025 56 28C56 15.2975 45.7025 5 33 5C20.2975 5 10 15.2975 10 28C10 40.7025 20.2975 51 33 51Z" fill="#26A69A"/>
<path d="M43.35 15.35H22.65V21.1009H43.35V15.35Z" fill="white"/>
<path d="M33 24.55C27.8745 24.55 19.2 25.3975 19.2 28.575C19.2 31.7524 27.8745 32.6 33 32.6C38.1256 32.6 46.8 31.7524 46.8 28.575C46.8 25.3975 38.1256 24.55 33 24.55ZM33 30.3C26.6486 30.3 21.5 29.2707 21.5 28C21.5 26.7292 26.6486 25.7 33 25.7C39.3515 25.7 44.5 26.7292 44.5 28C44.5 29.2707 39.3515 30.3 33 30.3Z" fill="white"/>
<path d="M33 28C34.2592 28 35.4069 27.9574 36.45 27.8873V15.35H29.55V27.8873C30.593 27.9574 31.7407 28 33 28Z" fill="white"/>
<path d="M34.9814 30.2632C34.8538 30.2678 34.725 30.2712 34.595 30.2747C34.0718 30.2896 33.5428 30.3 33 30.3C32.4572 30.3 31.9282 30.2896 31.4049 30.2758C31.275 30.2724 31.1462 30.2689 31.0185 30.2643C30.5183 30.2471 30.0261 30.2252 29.55 30.1953V41.8H36.45V30.1942C35.9739 30.2241 35.4817 30.2459 34.9814 30.2632Z" fill="white"/>
</g>
<defs>
<filter id="filter0_d_63_10" x="0" y="0" width="66" height="66" filterUnits="userSpaceOnUse" color-interpolation-filters="sRGB">
<feFlood flood-opacity="0" result="BackgroundImageFix"/>
<feColorMatrix in="SourceAlpha" type="matrix" values="0 0 0 0 0 0 0 0 0 0 0 0 0 0 0 0 0 0 127 0" result="hardAlpha"/>
<feOffset dy="5"/>
<feGaussianBlur stdDeviation="5"/>
<feComposite in2="hardAlpha" operator="out"/>
<feColorMatrix type="matrix" values="0 0 0 0 0 0 0 0 0 0 0 0 0 0 0 0 0 0 0.25 0"/>
<feBlend mode="normal" in2="BackgroundImageFix" result="effect1_dropShadow_63_10"/>
<feBlend mode="normal" in="SourceGraphic" in2="effect1_dropShadow_63_10" result="shape"/>
</filter>
</defs>
</svg>
