<svg width="65" height="8" viewBox="0 0 65 8" fill="none" xmlns="http://www.w3.org/2000/svg">
<path d="M14.8394 1.9115V3.0335H17.4374V6.3335H18.5534V3.0335H21.1334V1.9115H14.8394ZM27.0279 3.5675H22.9479V3.0275H28.2339V1.9415H23.3979C23.1939 1.9415 22.9919 1.9735 22.7919 2.0375C22.5959 2.0975 22.4199 2.1875 22.2639 2.3075C22.1079 2.4235 21.9799 2.5675 21.8799 2.7395C21.7839 2.9075 21.7359 3.0995 21.7359 3.3155C21.7359 3.5155 21.7779 3.7015 21.8619 3.8735C21.9459 4.0415 22.0579 4.1875 22.1979 4.3115C22.3379 4.4315 22.4979 4.5255 22.6779 4.5935C22.8619 4.6615 23.0519 4.6955 23.2479 4.6955H27.3879V5.2235H22.0179V6.3335H27.0399C27.2319 6.3335 27.4179 6.2995 27.5979 6.2315C27.7779 6.1635 27.9359 6.0695 28.0719 5.9495C28.2119 5.8295 28.3239 5.6875 28.4079 5.5235C28.4919 5.3555 28.5339 5.1715 28.5339 4.9715C28.5339 4.7795 28.4939 4.5975 28.4139 4.4255C28.3379 4.2535 28.2319 4.1055 28.0959 3.9815C27.9639 3.8535 27.8059 3.7535 27.6219 3.6815C27.4379 3.6055 27.2399 3.5675 27.0279 3.5675ZM29.1363 6.3335H30.4263V5.1395H29.1363V6.3335ZM37.3349 1.9115H32.7089C32.1729 1.9115 31.7589 2.0455 31.4669 2.3135C31.1749 2.5775 31.0289 2.9875 31.0289 3.5435V5.0315C31.0289 5.2235 31.0709 5.3995 31.1549 5.5595C31.2389 5.7155 31.3489 5.8515 31.4849 5.9675C31.6209 6.0835 31.7749 6.1735 31.9469 6.2375C32.1229 6.3015 32.3029 6.3335 32.4869 6.3335H37.3349V5.2295H32.1809V3.0215H37.3349V1.9115ZM39.5091 1.9235C39.3091 1.9235 39.1151 1.9555 38.9271 2.0195C38.7391 2.0835 38.5711 2.1735 38.4231 2.2895C38.2751 2.4055 38.1571 2.5435 38.0691 2.7035C37.9811 2.8635 37.9371 3.0395 37.9371 3.2315V4.9055C37.9371 5.1095 37.9731 5.2975 38.0451 5.4695C38.1171 5.6415 38.2151 5.7915 38.3391 5.9195C38.4671 6.0435 38.6171 6.1415 38.7891 6.2135C38.9611 6.2815 39.1471 6.3155 39.3471 6.3155H42.7611C42.9451 6.3155 43.1211 6.2795 43.2891 6.2075C43.4611 6.1355 43.6111 6.0395 43.7391 5.9195C43.8711 5.7955 43.9751 5.6535 44.0511 5.4935C44.1311 5.3295 44.1711 5.1555 44.1711 4.9715V3.3335C44.1711 3.1495 44.1331 2.9715 44.0571 2.7995C43.9811 2.6275 43.8791 2.4775 43.7511 2.3495C43.6231 2.2215 43.4751 2.1195 43.3071 2.0435C43.1391 1.9635 42.9631 1.9235 42.7791 1.9235H39.5091ZM43.0071 3.0695V5.2055H39.0831V3.0695H43.0071ZM46.0351 6.3335L46.6471 5.1755H48.8431L49.5091 6.3335H50.7331L49.0111 3.0335C48.9191 2.8575 48.8331 2.6995 48.7531 2.5595C48.6731 2.4195 48.5871 2.3015 48.4951 2.2055C48.4031 2.1095 48.2991 2.0355 48.1831 1.9835C48.0671 1.9315 47.9291 1.9055 47.7691 1.9055C47.6051 1.9055 47.4611 1.9315 47.3371 1.9835C47.2171 2.0315 47.1091 2.1035 47.0131 2.1995C46.9171 2.2955 46.8271 2.4115 46.7431 2.5475C46.6631 2.6835 46.5791 2.8355 46.4911 3.0035L44.7691 6.3335H46.0351ZM47.2231 4.0415L47.7511 3.0995L48.2731 4.0415H47.2231ZM57.6376 1.9115H53.0116C52.4756 1.9115 52.0616 2.0455 51.7696 2.3135C51.4776 2.5775 51.3316 2.9875 51.3316 3.5435V5.0315C51.3316 5.2235 51.3736 5.3995 51.4576 5.5595C51.5416 5.7155 51.6516 5.8515 51.7876 5.9675C51.9236 6.0835 52.0776 6.1735 52.2496 6.2375C52.4256 6.3015 52.6056 6.3335 52.7896 6.3335H57.6376V5.2295H52.4836V3.0215H57.6376V1.9115ZM59.3618 1.9055H58.2398V6.3335H59.3618V4.6595H63.4478V6.3335H64.5698V1.9055H63.4478V3.5315H59.3618V1.9055Z" fill="#505050"/>
<rect width="2.56579" height="5.33333" fill="#20EEBC"/>
<rect width="2.56579" height="5.33333" fill="#20EEBC"/>
<rect width="2.56579" height="5.33333" fill="#20EEBC"/>
<rect width="2.56579" height="5.33333" fill="#20EEBC"/>
<rect x="10.2632" width="2.56579" height="5.33333" fill="#20EEBC"/>
<rect x="10.2632" width="2.56579" height="5.33333" fill="#20EEBC"/>
<rect x="10.2632" width="2.56579" height="5.33333" fill="#20EEBC"/>
<rect x="10.2632" width="2.56579" height="5.33333" fill="#20EEBC"/>
<rect x="6.84204" y="4.6665" width="2.56579" height="3.33333" fill="#F25E5E"/>
<rect x="3.42102" width="2.56579" height="4" fill="#20EEBC"/>
<rect x="3.42102" width="2.56579" height="4" fill="#20EEBC"/>
<rect x="3.42102" width="2.56579" height="4" fill="#20EEBC"/>
<rect x="3.42102" width="2.56579" height="4" fill="#20EEBC"/>
<line x1="1.35522" y1="2.5" x2="1.35522" y2="7.5" stroke="#20EEBC" stroke-linecap="square"/>
<line x1="11.6184" y1="2.5" x2="11.6184" y2="7.5" stroke="#20EEBC" stroke-linecap="square"/>
<line x1="8.19739" y1="0.5" x2="8.19739" y2="7.5" stroke="#F25E5E" stroke-linecap="square"/>
<line x1="4.77637" y1="3.8335" x2="4.77637" y2="7.50016" stroke="#20EEBC" stroke-linecap="square"/>
</svg>
