<svg width="25" height="25" viewBox="0 0 25 25" fill="none" xmlns="http://www.w3.org/2000/svg">
<path d="M12.5 0C9.18479 0 6.00537 1.31696 3.66117 3.66117C1.31696 6.00537 0 9.18479 0 12.5C0 15.8152 1.31696 18.9946 3.66117 21.3388C6.00537 23.683 9.18479 25 12.5 25C15.8152 25 18.9946 23.683 21.3388 21.3388C23.683 18.9946 25 15.8152 25 12.5C25 9.18479 23.683 6.00537 21.3388 3.66117C18.9946 1.31696 15.8152 0 12.5 0Z" fill="#03A9F4"/>
<path d="M20 7.45053C19.4487 7.71805 18.7506 7.96916 18.125 8.05263C18.7613 7.63937 19.7706 6.77863 20 6C19.4056 6.38247 18.3306 6.79095 17.6294 6.93874C17.0694 6.28874 16.2706 6 15.3856 6C13.6856 6 12.5 7.57711 12.5 9.42105V10.7895C10 10.7895 7.5625 8.70468 6.04563 6.68421C5.77875 7.17753 5.62875 7.755 5.62875 8.36532C5.62875 9.6099 6.67313 10.8729 7.5 11.4737C6.99563 11.4566 6.04063 11.0351 5.625 10.7895C5.625 10.8004 5.625 10.8141 5.625 10.8285C5.625 12.448 6.66313 13.5475 8.07 13.8541C7.81313 13.9314 7.5 14.2105 6.295 14.2105C6.68625 15.5345 8.65313 16.2344 10 16.2632C8.94625 17.1574 7.0675 17.6316 5.625 17.6316C5.37563 17.6316 5.24062 17.6466 5 17.6158C6.36125 18.5601 8.2625 19 10 19C15.6606 19 18.75 14.2666 18.75 9.8521C18.75 9.70705 18.7456 9.22126 18.7387 9.07895C19.3437 8.61232 19.5888 8.12379 20 7.45053Z" fill="white"/>
</svg>
