<svg width="116" height="20" viewBox="0 0 116 20" fill="none" xmlns="http://www.w3.org/2000/svg">
<path d="M14.3902 6.156V8.4H19.5862V15H21.8182V8.4H26.9782V6.156H14.3902ZM38.7672 9.468H30.6072V8.388H41.1792V6.216H31.5072C31.0992 6.216 30.6952 6.28 30.2952 6.408C29.9032 6.528 29.5512 6.708 29.2392 6.948C28.9272 7.18 28.6712 7.468 28.4712 7.812C28.2792 8.148 28.1832 8.532 28.1832 8.964C28.1832 9.364 28.2672 9.736 28.4352 10.08C28.6032 10.416 28.8272 10.708 29.1072 10.956C29.3872 11.196 29.7072 11.384 30.0672 11.52C30.4352 11.656 30.8152 11.724 31.2072 11.724H39.4872V12.78H28.7472V15H38.7912C39.1752 15 39.5472 14.932 39.9072 14.796C40.2672 14.66 40.5832 14.472 40.8552 14.232C41.1352 13.992 41.3592 13.708 41.5272 13.38C41.6952 13.044 41.7792 12.676 41.7792 12.276C41.7792 11.892 41.6992 11.528 41.5392 11.184C41.3872 10.84 41.1752 10.544 40.9032 10.296C40.6392 10.04 40.3232 9.84 39.9552 9.696C39.5872 9.544 39.1912 9.468 38.7672 9.468ZM42.984 15H45.564V12.612H42.984V15ZM59.3811 6.156H50.1291C49.0571 6.156 48.2291 6.424 47.6451 6.96C47.0611 7.488 46.7691 8.308 46.7691 9.42V12.396C46.7691 12.78 46.8531 13.132 47.0211 13.452C47.1891 13.764 47.4091 14.036 47.6811 14.268C47.9531 14.5 48.2611 14.68 48.6051 14.808C48.9571 14.936 49.3171 15 49.6851 15H59.3811V12.792H49.0731V8.376H59.3811V6.156ZM63.7295 6.18C63.3295 6.18 62.9415 6.244 62.5655 6.372C62.1895 6.5 61.8535 6.68 61.5575 6.912C61.2615 7.144 61.0255 7.42 60.8495 7.74C60.6735 8.06 60.5855 8.412 60.5855 8.796V12.144C60.5855 12.552 60.6575 12.928 60.8015 13.272C60.9455 13.616 61.1415 13.916 61.3895 14.172C61.6455 14.42 61.9455 14.616 62.2895 14.76C62.6335 14.896 63.0055 14.964 63.4055 14.964H70.2335C70.6015 14.964 70.9535 14.892 71.2895 14.748C71.6335 14.604 71.9335 14.412 72.1895 14.172C72.4535 13.924 72.6615 13.64 72.8135 13.32C72.9735 12.992 73.0535 12.644 73.0535 12.276V9C73.0535 8.632 72.9775 8.276 72.8255 7.932C72.6735 7.588 72.4695 7.288 72.2135 7.032C71.9575 6.776 71.6615 6.572 71.3255 6.42C70.9895 6.26 70.6375 6.18 70.2695 6.18H63.7295ZM70.7255 8.472V12.744H62.8775V8.472H70.7255ZM76.7816 15L78.0056 12.684H82.3976L83.7296 15H86.1776L82.7336 8.4C82.5496 8.048 82.3776 7.732 82.2176 7.452C82.0576 7.172 81.8856 6.936 81.7016 6.744C81.5176 6.552 81.3096 6.404 81.0776 6.3C80.8456 6.196 80.5696 6.144 80.2496 6.144C79.9216 6.144 79.6336 6.196 79.3856 6.3C79.1456 6.396 78.9296 6.54 78.7376 6.732C78.5456 6.924 78.3656 7.156 78.1976 7.428C78.0376 7.7 77.8696 8.004 77.6936 8.34L74.2496 15H76.7816ZM79.1576 10.416L80.2136 8.532L81.2576 10.416H79.1576ZM99.9866 6.156H90.7346C89.6626 6.156 88.8346 6.424 88.2506 6.96C87.6666 7.488 87.3746 8.308 87.3746 9.42V12.396C87.3746 12.78 87.4586 13.132 87.6266 13.452C87.7946 13.764 88.0146 14.036 88.2866 14.268C88.5586 14.5 88.8666 14.68 89.2106 14.808C89.5626 14.936 89.9226 15 90.2906 15H99.9866V12.792H89.6786V8.376H99.9866V6.156ZM103.435 6.144H101.191V15H103.435V11.652H111.607V15H113.851V6.144H111.607V9.396H103.435V6.144Z" fill="#505050"/>
<rect y="5" width="2.43357" height="6" fill="#20EEBC"/>
<rect y="5" width="2.43357" height="6" fill="#20EEBC"/>
<rect y="5" width="2.43357" height="6" fill="#20EEBC"/>
<rect y="5" width="2.43357" height="6" fill="#20EEBC"/>
<rect x="9.73425" y="5" width="2.43357" height="6" fill="#20EEBC"/>
<rect x="9.73425" y="5" width="2.43357" height="6" fill="#20EEBC"/>
<rect x="9.73425" y="5" width="2.43357" height="6" fill="#20EEBC"/>
<rect x="9.73425" y="5" width="2.43357" height="6" fill="#20EEBC"/>
<rect x="6.4895" y="12" width="2.43357" height="4" fill="#F25E5E"/>
<rect x="3.24475" y="7" width="2.43357" height="5" fill="#20EEBC"/>
<rect x="3.24475" y="7" width="2.43357" height="5" fill="#20EEBC"/>
<rect x="3.24475" y="7" width="2.43357" height="5" fill="#20EEBC"/>
<rect x="3.24475" y="7" width="2.43357" height="5" fill="#20EEBC"/>
<line x1="1.31122" y1="7.5" x2="1.31122" y2="15.5" stroke="#20EEBC" stroke-linecap="round"/>
<line x1="11.0455" y1="7.5" x2="11.0455" y2="15.5" stroke="#20EEBC" stroke-linecap="round"/>
<line x1="7.80072" y1="5.5" x2="7.80072" y2="15.5" stroke="#F25E5E" stroke-linecap="round"/>
<line x1="4.55597" y1="9.5" x2="4.55597" y2="15.5" stroke="#20EEBC" stroke-linecap="round"/>
</svg>
