<svg width="120" height="90" viewBox="0 0 120 90" fill="none" xmlns="http://www.w3.org/2000/svg">
<g filter="url(#filter0_d_294_7)">
<path d="M22 5C18.7101 5 16 7.87431 16 11.3636V66.5151H10V70.7576C10 73.1015 11.79 75 14 75H106C108.21 75 110 73.1015 110 70.7576V66.5151H104V11.3636C104 7.87431 101.29 5 98 5H22ZM22 9.24242H54C54 10.4133 54.896 11.3636 56 11.3636H64C65.104 11.3636 66 10.4133 66 9.24242H98C99.1301 9.24242 100 10.1651 100 11.3636V66.5151H70C68.72 67.8727 66.9819 68.6364 65.1719 68.6364H54.8281C53.0161 68.6364 51.28 67.8727 50 66.5151H20V11.3636C20 10.1651 20.8699 9.24242 22 9.24242Z" fill="#3AB8FF"/>
</g>
<defs>
<filter id="filter0_d_294_7" x="0" y="0" width="120" height="90" filterUnits="userSpaceOnUse" color-interpolation-filters="sRGB">
<feFlood flood-opacity="0" result="BackgroundImageFix"/>
<feColorMatrix in="SourceAlpha" type="matrix" values="0 0 0 0 0 0 0 0 0 0 0 0 0 0 0 0 0 0 127 0" result="hardAlpha"/>
<feOffset dy="5"/>
<feGaussianBlur stdDeviation="5"/>
<feComposite in2="hardAlpha" operator="out"/>
<feColorMatrix type="matrix" values="0 0 0 0 0.229167 0 0 0 0 0.7225 0 0 0 0 1 0 0 0 0.4 0"/>
<feBlend mode="normal" in2="BackgroundImageFix" result="effect1_dropShadow_294_7"/>
<feBlend mode="normal" in="SourceGraphic" in2="effect1_dropShadow_294_7" result="shape"/>
</filter>
</defs>
</svg>
