<svg width="90" height="90" viewBox="0 0 90 90" fill="none" xmlns="http://www.w3.org/2000/svg">
<g filter="url(#filter0_d_295_13)">
<path d="M28.2955 5C23.4913 5 19.5455 9.13371 19.5455 14.1667V21.6667H15.5682C12.5217 21.6667 10 24.3084 10 27.5V35.8333C10 39.0249 12.5217 41.6667 15.5682 41.6667H19.5455V49.1667C19.5455 54.1996 23.4913 58.3333 28.2955 58.3333H61.7045C66.5087 58.3333 70.4545 54.1996 70.4545 49.1667V41.6667H75.2273V59.1667C75.2273 63.3392 72.051 66.6667 68.0682 66.6667H54.0048C53.5535 65.6698 52.8415 64.8275 51.9516 64.2375C51.0618 63.6475 50.0304 63.334 48.9773 63.3333C47.5005 63.3333 46.0842 63.9479 45.04 65.0419C43.9957 66.1358 43.4091 67.6196 43.4091 69.1667C43.4091 70.7138 43.9957 72.1975 45.04 73.2914C46.0842 74.3854 47.5005 75 48.9773 75C50.0299 74.9987 51.0606 74.6849 51.9498 74.0949C52.8391 73.5049 53.5506 72.663 54.0017 71.6667H68.0682C74.6299 71.6667 80 66.0408 80 59.1667V39.1667V36.25V27.5C80 24.3084 77.4783 21.6667 74.4318 21.6667H70.4545V14.1667C70.4545 9.13371 66.5087 5 61.7045 5H28.2955ZM28.2955 10H61.7045C63.929 10 65.6818 11.8363 65.6818 14.1667V24.1667V39.1667V49.1667C65.6818 51.497 63.929 53.3333 61.7045 53.3333H28.2955C26.071 53.3333 24.3182 51.497 24.3182 49.1667V39.1667V24.1667V14.1667C24.3182 11.8363 26.071 10 28.2955 10ZM33.8636 23.3333C33.0198 23.3333 32.2105 23.6845 31.6138 24.3096C31.017 24.9348 30.6818 25.7826 30.6818 26.6667C30.6818 27.5507 31.017 28.3986 31.6138 29.0237C32.2105 29.6488 33.0198 30 33.8636 30C34.7075 30 35.5168 29.6488 36.1135 29.0237C36.7102 28.3986 37.0455 27.5507 37.0455 26.6667C37.0455 25.7826 36.7102 24.9348 36.1135 24.3096C35.5168 23.6845 34.7075 23.3333 33.8636 23.3333ZM56.1364 23.3333C55.2925 23.3333 54.4832 23.6845 53.8865 24.3096C53.2898 24.9348 52.9545 25.7826 52.9545 26.6667C52.9545 27.5507 53.2898 28.3986 53.8865 29.0237C54.4832 29.6488 55.2925 30 56.1364 30C56.9802 30 57.7895 29.6488 58.3863 29.0237C58.983 28.3986 59.3182 27.5507 59.3182 26.6667C59.3182 25.7826 58.983 24.9348 58.3863 24.3096C57.7895 23.6845 56.9802 23.3333 56.1364 23.3333ZM15.5682 26.6667H19.5455V36.6667H15.5682C15.0988 36.6667 14.7727 36.3251 14.7727 35.8333V27.5C14.7727 27.0083 15.0988 26.6667 15.5682 26.6667ZM70.4545 26.6667H74.4318C74.9012 26.6667 75.2273 27.0083 75.2273 27.5V36.25V36.6667H70.4545V26.6667ZM55.3192 38.2975C54.6889 38.3131 54.0902 38.5893 53.6537 39.0658C53.6537 39.0658 53.2358 39.549 51.839 40.2376C50.4423 40.9262 48.226 41.6667 45 41.6667C41.774 41.6667 39.5577 40.9262 38.161 40.2376C36.7642 39.549 36.3463 39.0658 36.3463 39.0658C36.1239 38.8258 35.8577 38.635 35.5637 38.5047C35.2696 38.3744 34.9535 38.3073 34.6342 38.3073C34.1593 38.3074 33.6952 38.456 33.3013 38.734C32.9075 39.0119 32.6017 39.4067 32.4232 39.8678C32.2447 40.3288 32.2016 40.8352 32.2993 41.3221C32.397 41.809 32.6312 42.2542 32.9719 42.6009C32.9719 42.6009 34.1449 43.7843 36.1288 44.7624C38.1128 45.7404 41.0669 46.6667 45 46.6667C48.9331 46.6667 51.8872 45.7404 53.8712 44.7624C55.8551 43.7843 57.0281 42.6009 57.0281 42.6009C57.3752 42.252 57.6134 41.8013 57.7118 41.3081C57.8101 40.8148 57.7638 40.3019 57.579 39.8367C57.3943 39.3714 57.0796 38.9755 56.6764 38.7009C56.2731 38.4262 55.8 38.2856 55.3192 38.2975Z" fill="#3AB8FF"/>
</g>
<defs>
<filter id="filter0_d_295_13" x="0" y="0" width="90" height="90" filterUnits="userSpaceOnUse" color-interpolation-filters="sRGB">
<feFlood flood-opacity="0" result="BackgroundImageFix"/>
<feColorMatrix in="SourceAlpha" type="matrix" values="0 0 0 0 0 0 0 0 0 0 0 0 0 0 0 0 0 0 127 0" result="hardAlpha"/>
<feOffset dy="5"/>
<feGaussianBlur stdDeviation="5"/>
<feComposite in2="hardAlpha" operator="out"/>
<feColorMatrix type="matrix" values="0 0 0 0 0.229167 0 0 0 0 0.7225 0 0 0 0 1 0 0 0 0.4 0"/>
<feBlend mode="normal" in2="BackgroundImageFix" result="effect1_dropShadow_295_13"/>
<feBlend mode="normal" in="SourceGraphic" in2="effect1_dropShadow_295_13" result="shape"/>
</filter>
</defs>
</svg>

