<svg width="120" height="90" viewBox="0 0 120 90" fill="none" xmlns="http://www.w3.org/2000/svg">
<g filter="url(#filter0_d_295_15)">
<path d="M11.1689 74.6585C11.5634 74.9146 11.9578 75 12.3523 75C13.1411 75 14.0089 74.5732 14.4033 73.7195C17.8743 67.061 23.7909 62.0244 30.654 59.9756C31.9162 59.6341 32.6262 58.1829 32.3107 56.8171C31.9951 55.4512 30.654 54.6829 29.3918 55.0244C21.3454 57.5 14.4033 63.3902 10.3012 71.1585C9.67009 72.439 10.0645 73.9756 11.1689 74.6585ZM90.6082 55.0244C89.346 54.6829 88.0049 55.4512 87.6893 56.8171C87.3738 58.1829 88.0838 59.6341 89.346 59.9756C96.1302 62.0244 102.047 67.061 105.597 73.7195C106.07 74.5732 106.859 75 107.648 75C108.042 75 108.437 74.9146 108.831 74.6585C109.935 73.9756 110.33 72.439 109.699 71.1585C105.597 63.3902 98.6546 57.5 90.6082 55.0244ZM34.835 19.0854C35.7028 18.8293 36.3339 17.9756 36.4917 17.0366V16.9512C36.7283 15.1585 35.2295 13.622 33.5729 14.1341C26.7886 16.1829 21.8187 23.0122 21.8187 30.9512C21.8187 40.5976 29.0763 48.4512 37.9905 48.4512C39.4105 48.4512 40.7516 48.2805 42.0927 47.8537C43.8282 47.3415 44.4593 44.9512 43.1182 43.5854C42.4871 42.9878 41.6982 42.7317 40.8305 42.9878C39.8838 43.2439 39.0161 43.3293 38.0694 43.3293C31.7585 43.3293 26.6308 37.7805 26.6308 30.9512C26.473 25.4024 30.0229 20.622 34.835 19.0854ZM98.2602 31.0366C98.2602 23.0976 93.2903 16.2683 86.506 14.2195C84.9283 13.7073 83.3506 15.2439 83.5872 17.0366V17.122C83.745 18.061 84.3761 18.9146 85.2438 19.1707C90.056 20.6219 93.527 25.4024 93.527 31.0366C93.527 37.8659 88.3993 43.4146 82.0884 43.4146C81.1417 43.4146 80.1951 43.2439 79.3273 43.0732C78.5385 42.8171 77.6707 43.0732 77.0396 43.6707C75.6985 45.0366 76.2507 47.4268 78.0651 47.939C79.4062 48.2805 80.7473 48.5366 82.1673 48.5366C91.0026 48.4512 98.2602 40.6829 98.2602 31.0366ZM60 44.2683C70.0187 44.2683 78.144 35.4756 78.144 24.6341C78.144 13.7927 70.0187 5 60 5C49.9814 5 41.856 13.7927 41.856 24.6341C41.856 35.4756 49.9814 44.2683 60 44.2683ZM60 10.122C67.4154 10.122 73.4108 16.6098 73.4108 24.6341C73.4108 32.6585 67.4154 39.1463 60 39.1463C52.5846 39.1463 46.5892 32.6585 46.5892 24.6341C46.5892 16.6098 52.5846 10.122 60 10.122ZM87.216 73.378C87.8471 74.5732 89.346 75 90.4504 74.3171C91.5548 73.6341 91.9492 72.0976 91.3181 70.8171C84.9283 58.6951 72.9375 51.0976 60 51.0976C47.0625 51.0976 35.0717 58.6951 28.6819 70.8171C28.0508 72.0122 28.4452 73.6341 29.5496 74.3171C29.9441 74.5732 30.3385 74.6585 30.7329 74.6585C31.5218 74.6585 32.3895 74.2317 32.784 73.378C38.385 62.7927 48.798 56.2195 60 56.2195C71.202 56.2195 81.615 62.7927 87.216 73.378Z" fill="#3AB8FF"/>
</g>
<defs>
<filter id="filter0_d_295_15" x="0" y="0" width="120" height="90" filterUnits="userSpaceOnUse" color-interpolation-filters="sRGB">
<feFlood flood-opacity="0" result="BackgroundImageFix"/>
<feColorMatrix in="SourceAlpha" type="matrix" values="0 0 0 0 0 0 0 0 0 0 0 0 0 0 0 0 0 0 127 0" result="hardAlpha"/>
<feOffset dy="5"/>
<feGaussianBlur stdDeviation="5"/>
<feComposite in2="hardAlpha" operator="out"/>
<feColorMatrix type="matrix" values="0 0 0 0 0.229167 0 0 0 0 0.7225 0 0 0 0 1 0 0 0 0.4 0"/>
<feBlend mode="normal" in2="BackgroundImageFix" result="effect1_dropShadow_295_15"/>
<feBlend mode="normal" in="SourceGraphic" in2="effect1_dropShadow_295_15" result="shape"/>
</filter>
</defs>
</svg>
