<svg width="90" height="80" viewBox="0 0 90 80" fill="none" xmlns="http://www.w3.org/2000/svg">
<g filter="url(#filter0_d_294_5)">
<path d="M14.7727 5C12.0682 5 10 6.7707 10 9.08623V44.5002C10 46.8157 12.0682 48.5864 14.7727 48.5864H41.8182C42.7727 48.5864 43.4091 48.0416 43.4091 47.2244C43.4091 46.4071 42.7727 45.8623 41.8182 45.8623H14.7727C13.8182 45.8623 13.1818 45.3175 13.1818 44.5002V9.08623C13.1818 8.26898 13.8182 7.72415 14.7727 7.72415H75.2273C76.1818 7.72415 76.8182 8.26898 76.8182 9.08623V44.5002C76.8182 45.3175 76.1818 45.8623 75.2273 45.8623H72.6824L73.1578 45.4526C73.6351 44.9078 73.6351 44.0921 73.1578 43.6835L71.25 41.7761L71.887 39.3233C72.0461 38.6422 71.5669 37.9622 70.7715 37.6898L68.0682 36.8731L67.2727 34.6943C66.9545 34.0133 66.1603 33.6031 65.3649 33.7393L62.5 34.2846L60.4306 32.6512C59.7942 32.2426 58.8415 32.2426 58.3643 32.6512L56.1364 34.2846L53.2715 33.7393C52.476 33.6031 51.6818 34.0133 51.3636 34.6943L50.4097 37.0088L47.8649 37.6898C47.0694 37.9622 46.5903 38.6422 46.7494 39.3233L47.3864 41.7761L45.4785 43.5478C45.0012 44.0927 45.0012 44.9083 45.4785 45.3169L47.3864 47.0887L46.7494 49.5388C46.5903 50.2199 47.0694 50.9025 47.8649 51.1749L50.5682 51.9916L51.5221 54.3061C51.8403 54.9871 52.6376 55.3974 53.4331 55.2612L56.2948 54.7158L58.3643 56.3492C59.0006 56.7578 59.9533 56.7578 60.4306 56.3492L62.5 54.7158L64.0909 54.9871V61.2548L59.9552 59.4831C59.4779 59.3468 59 59.3468 58.5227 59.4831L54.5455 61.3905V58.121C54.5455 57.3037 53.9091 56.7589 52.9545 56.7589C52 56.7589 51.3636 57.3037 51.3636 58.121V63.5693C51.3636 63.9779 51.6818 64.5233 52.1591 64.7957C52.6364 65.0681 53.2727 65.0681 53.75 64.7957L59.4767 62.3429L65.2033 64.7957C65.2033 64.9319 65.3636 64.9314 65.6818 64.9314C66 64.9314 66.3182 64.7957 66.4773 64.7957C66.9545 64.5233 67.2727 64.1141 67.2727 63.5693V53.8991C67.2727 53.218 66.7942 52.6732 65.9988 52.537L62.3415 51.856C61.8643 51.7198 61.3864 51.8549 60.9091 52.1273L59.1597 53.4894L57.4103 52.1273C57.0922 51.8549 56.4552 51.7198 55.9779 51.856L53.75 52.263L53.113 50.3582C52.9539 49.9496 52.6364 49.675 52.1591 49.5388L49.9312 48.9961L50.4097 47.0887C50.5688 46.6801 50.4078 46.2709 50.0897 45.8623L48.4988 44.3645L50.0897 42.8668C50.4078 42.5944 50.5688 42.049 50.4097 41.6404L49.9312 39.7329L52.1591 39.1876C52.6364 39.0514 52.9539 38.7795 53.113 38.3709L53.75 36.4634L55.9779 36.8731C56.4552 37.0093 56.9331 36.8715 57.4103 36.5991L59.1597 35.237L60.9091 36.5991C61.2273 36.8715 61.8643 37.0093 62.3415 36.8731L64.5694 36.4634L65.2033 38.3709C65.3624 38.7795 65.6831 39.0514 66.1603 39.1876L68.3851 39.7329L67.9097 41.6404C67.7506 42.049 67.9085 42.4582 68.2266 42.8668L69.8176 44.3645L68.2266 45.8623C67.9085 46.1347 67.7506 46.6801 67.9097 47.0887L68.7052 50.2199C68.8643 50.9009 69.6585 51.4468 70.613 51.3106C71.4085 51.1744 72.0461 50.4944 71.887 49.6772L71.5669 48.5864H75.2273C77.9318 48.5864 80 46.8157 80 44.5002V9.08623C80 6.7707 77.9318 5 75.2273 5H14.7727ZM35.4545 10.4483C34.5 10.4483 33.8636 10.9931 33.8636 11.8104C33.8636 12.6276 34.5 13.1725 35.4545 13.1725H54.5455C55.5 13.1725 56.1364 12.6276 56.1364 11.8104C56.1364 10.9931 55.5 10.4483 54.5455 10.4483H35.4545ZM40.2273 15.8966C39.2727 15.8966 38.6364 16.4414 38.6364 17.2587C38.6364 18.0759 39.2727 18.6208 40.2273 18.6208H49.7727C50.7273 18.6208 51.3636 18.0759 51.3636 17.2587C51.3636 16.4414 50.7273 15.8966 49.7727 15.8966H40.2273ZM21.1364 24.0691C20.1818 24.0691 19.5455 24.6139 19.5455 25.4311C19.5455 26.2484 20.1818 26.7932 21.1364 26.7932H45C45.9545 26.7932 46.5909 26.2484 46.5909 25.4311C46.5909 24.6139 45.9545 24.0691 45 24.0691H21.1364ZM51.3636 24.0691C50.4091 24.0691 49.7727 24.6139 49.7727 25.4311C49.7727 26.2484 50.4091 26.7932 51.3636 26.7932H60.9091C61.8636 26.7932 62.5 26.2484 62.5 25.4311C62.5 24.6139 61.8636 24.0691 60.9091 24.0691H51.3636ZM21.1364 29.5174C20.1818 29.5174 19.5455 30.0622 19.5455 30.8794C19.5455 31.6967 20.1818 32.2415 21.1364 32.2415H38.6364C39.5909 32.2415 40.2273 31.6967 40.2273 30.8794C40.2273 30.0622 39.5909 29.5174 38.6364 29.5174H21.1364ZM45 29.5174C44.0455 29.5174 43.4091 30.0622 43.4091 30.8794C43.4091 31.6967 44.0455 32.2415 45 32.2415H49.7727C50.7273 32.2415 51.3636 31.6967 51.3636 30.8794C51.3636 30.0622 50.7273 29.5174 49.7727 29.5174H45ZM24.2591 36.0564C23.0461 36.0564 21.8529 36.4629 20.9779 37.2801L20.024 38.0995C19.3876 38.6444 19.3876 39.4595 20.024 40.0043C20.6603 40.5491 21.6124 40.5491 22.2488 40.0043L23.2058 39.1876C23.8422 38.6427 24.7942 38.6427 25.4306 39.1876L27.0215 40.5497C27.976 41.3669 29.0921 41.7761 30.3649 41.7761H33.8636C34.8182 41.7761 35.4545 41.2312 35.4545 40.414C35.4545 39.5967 34.8182 39.0519 33.8636 39.0519H30.3649C29.8876 39.0519 29.5676 38.9146 29.2494 38.6422L27.6585 37.2801C26.7039 36.4629 25.4722 36.0564 24.2591 36.0564ZM59.3182 39.0519C55.8182 39.0519 52.9545 41.5036 52.9545 44.5002C52.9545 47.4968 55.8182 49.9485 59.3182 49.9485C62.8182 49.9485 65.6818 47.4968 65.6818 44.5002C65.6818 41.5036 62.8182 39.0519 59.3182 39.0519ZM59.3182 41.7761C61.0682 41.7761 62.5 43.0019 62.5 44.5002C62.5 45.9985 61.0682 47.2244 59.3182 47.2244C57.5682 47.2244 56.1364 45.9985 56.1364 44.5002C56.1364 43.0019 57.5682 41.7761 59.3182 41.7761Z" fill="#3AB8FF"/>
</g>
<defs>
<filter id="filter0_d_294_5" x="0" y="0" width="90" height="80" filterUnits="userSpaceOnUse" color-interpolation-filters="sRGB">
<feFlood flood-opacity="0" result="BackgroundImageFix"/>
<feColorMatrix in="SourceAlpha" type="matrix" values="0 0 0 0 0 0 0 0 0 0 0 0 0 0 0 0 0 0 127 0" result="hardAlpha"/>
<feOffset dy="5"/>
<feGaussianBlur stdDeviation="5"/>
<feComposite in2="hardAlpha" operator="out"/>
<feColorMatrix type="matrix" values="0 0 0 0 0.229167 0 0 0 0 0.7225 0 0 0 0 1 0 0 0 0.4 0"/>
<feBlend mode="normal" in2="BackgroundImageFix" result="effect1_dropShadow_294_5"/>
<feBlend mode="normal" in="SourceGraphic" in2="effect1_dropShadow_294_5" result="shape"/>
</filter>
</defs>
</svg>
