<svg width="70" height="80" viewBox="0 0 70 80" fill="none" xmlns="http://www.w3.org/2000/svg">
<g filter="url(#filter0_d_294_3)">
<path d="M16.3492 5C15.0437 5 13.9683 6.31132 13.9683 7.90323V16.6129H13.1746C11.4307 16.6129 10 18.3574 10 20.4839V21.4516H10.1612C10.5234 23.1029 11.7114 24.3548 13.1746 24.3548H13.9683V27.2581H13.1746C11.4307 27.2581 10 29.0026 10 31.129V32.0968H10.1612C10.5234 33.7481 11.7114 35 13.1746 35H13.9683V37.9032H13.1746C11.4307 37.9032 10 39.6477 10 41.7742V42.7419H10.1612C10.5234 44.3933 11.7114 45.6452 13.1746 45.6452H13.9683V48.5484H13.1746C11.4307 48.5484 10 50.2929 10 52.4193V53.3871H10.1612C10.5234 55.0384 11.7114 56.2903 13.1746 56.2903H13.9683V62.0968C13.9683 63.6887 15.0437 65 16.3492 65H52.8571H54.4444C55.75 65 56.8254 63.6887 56.8254 62.0968V60.1613H57.619C58.9246 60.1613 60 58.85 60 57.2581V51.4516C60 50.7078 59.7586 50.0323 59.3753 49.5161C59.7586 49 60 48.3244 60 47.5806V41.7742C60 41.0304 59.7586 40.3549 59.3753 39.8387C59.7586 39.3226 60 38.647 60 37.9032V32.0968C60 31.353 59.7586 30.6774 59.3753 30.1613C59.7586 29.6451 60 28.9696 60 28.2258V22.4194C60 21.6756 59.7586 21 59.3753 20.4839C59.7586 19.9677 60 19.2922 60 18.5484V12.7419C60 11.15 58.9246 9.83871 57.619 9.83871H56.8254V7.90323C56.8254 6.31132 55.75 5 54.4444 5H52.8571H16.3492ZM16.3492 6.93548H52.8571H54.4444C54.8929 6.93548 55.2381 7.35642 55.2381 7.90323V9.83871V19.5161V62.0968C55.2381 62.6436 54.8929 63.0645 54.4444 63.0645H52.8571H16.3492C15.9008 63.0645 15.5556 62.6436 15.5556 62.0968V55.4851C15.5697 55.3806 15.5697 55.274 15.5556 55.1695V53.3871C15.557 53.2589 15.5376 53.1315 15.4984 53.0125C15.4592 52.8935 15.401 52.7852 15.3271 52.6939C15.2533 52.6026 15.1653 52.5301 15.0682 52.4806C14.9712 52.4311 14.8671 52.4056 14.7619 52.4056C14.6567 52.4056 14.5526 52.4311 14.4556 52.4806C14.3585 52.5301 14.2705 52.6026 14.1967 52.6939C14.1229 52.7852 14.0646 52.8935 14.0254 53.0125C13.9862 53.1315 13.9668 53.2589 13.9683 53.3871V54.3548H13.1746C12.2884 54.3548 11.5873 53.5 11.5873 52.4193C11.5873 51.3387 12.2884 50.4839 13.1746 50.4839H16.3492C16.3492 50.9972 16.5164 51.4895 16.8141 51.8525C17.1118 52.2154 17.5155 52.4193 17.9365 52.4193C18.3575 52.4193 18.7612 52.2154 19.0589 51.8525C19.3566 51.4895 19.5238 50.9972 19.5238 50.4839C19.5237 49.9825 19.3639 49.5007 19.0783 49.14C18.7926 48.7793 18.4033 48.5679 17.9923 48.5503C17.9737 48.5489 17.9551 48.5482 17.9365 48.5484H15.5556V44.84C15.5697 44.7355 15.5697 44.6288 15.5556 44.5243V42.7419C15.557 42.6125 15.5371 42.484 15.4971 42.364C15.4571 42.2441 15.3978 42.1351 15.3226 42.0437C15.2474 41.9522 15.158 41.88 15.0596 41.8315C14.9611 41.7829 14.8557 41.7589 14.7495 41.761C14.5393 41.765 14.339 41.8705 14.1925 42.0544C14.046 42.2383 13.9654 42.4856 13.9683 42.7419V43.7097H13.1746C12.2884 43.7097 11.5873 42.8548 11.5873 41.7742C11.5873 40.6935 12.2884 39.8387 13.1746 39.8387H16.3492C16.3492 40.352 16.5164 40.8443 16.8141 41.2073C17.1118 41.5703 17.5155 41.7742 17.9365 41.7742C18.3575 41.7742 18.7612 41.5703 19.0589 41.2073C19.3566 40.8443 19.5238 40.352 19.5238 39.8387C19.5237 39.3373 19.3639 38.8555 19.0783 38.4948C18.7926 38.1342 18.4033 37.9227 17.9923 37.9051C17.9737 37.9037 17.9551 37.9031 17.9365 37.9032H15.5556V34.1948C15.5697 34.0903 15.5697 33.9837 15.5556 33.8792V32.0968C15.557 31.9673 15.5371 31.8388 15.4971 31.7188C15.4571 31.5989 15.3978 31.49 15.3226 31.3985C15.2474 31.307 15.158 31.2349 15.0596 31.1863C14.9611 31.1378 14.8557 31.1138 14.7495 31.1158C14.5393 31.1198 14.339 31.2254 14.1925 31.4093C14.046 31.5932 13.9654 31.8404 13.9683 32.0968V33.0645H13.1746C12.2884 33.0645 11.5873 32.2097 11.5873 31.129C11.5873 30.0484 12.2884 29.1935 13.1746 29.1935H14.6286C14.7143 29.2108 14.8018 29.2108 14.8875 29.1935H16.3492C16.3492 29.7069 16.5164 30.1992 16.8141 30.5621C17.1118 30.9251 17.5155 31.129 17.9365 31.129C18.3575 31.129 18.7612 30.9251 19.0589 30.5621C19.3566 30.1992 19.5238 29.7069 19.5238 29.1935C19.5237 28.6921 19.3639 28.2103 19.0783 27.8497C18.7926 27.489 18.4033 27.2776 17.9923 27.26C17.9737 27.2585 17.9551 27.2579 17.9365 27.2581H15.5556V23.5496C15.5697 23.4451 15.5697 23.3385 15.5556 23.234V21.4516C15.557 21.3221 15.5371 21.1936 15.4971 21.0737C15.4571 20.9537 15.3978 20.8448 15.3226 20.7533C15.2474 20.6619 15.158 20.5897 15.0596 20.5412C14.9611 20.4926 14.8557 20.4686 14.7495 20.4706C14.5393 20.4746 14.339 20.5802 14.1925 20.7641C14.046 20.948 13.9654 21.1953 13.9683 21.4516V22.4194H13.1746C12.2884 22.4194 11.5873 21.5645 11.5873 20.4839C11.5873 19.4032 12.2884 18.5484 13.1746 18.5484H14.6286C14.7143 18.5657 14.8018 18.5657 14.8875 18.5484H16.3492C16.3492 19.0617 16.5164 19.554 16.8141 19.917C17.1118 20.28 17.5155 20.4839 17.9365 20.4839C18.3575 20.4839 18.7612 20.28 19.0589 19.917C19.3566 19.554 19.5238 19.0617 19.5238 18.5484C19.5237 18.047 19.3639 17.5652 19.0783 17.2045C18.7926 16.8438 18.4033 16.6324 17.9923 16.6148C17.9737 16.6134 17.9551 16.6127 17.9365 16.6129H15.5556V7.90323C15.5556 7.35642 15.9008 6.93548 16.3492 6.93548ZM21.1111 8.87097C20.9006 8.87097 20.6988 8.97293 20.5499 9.15441C20.4011 9.3359 20.3175 9.58205 20.3175 9.83871C20.3175 10.0954 20.4011 10.3415 20.5499 10.523C20.6988 10.7045 20.9006 10.8065 21.1111 10.8065C21.3216 10.8065 21.5235 10.7045 21.6723 10.523C21.8211 10.3415 21.9048 10.0954 21.9048 9.83871C21.9048 9.58205 21.8211 9.3359 21.6723 9.15441C21.5235 8.97293 21.3216 8.87097 21.1111 8.87097ZM24.2857 8.87097C24.0752 8.87097 23.8734 8.97293 23.7245 9.15441C23.5757 9.3359 23.4921 9.58205 23.4921 9.83871C23.4921 10.0954 23.5757 10.3415 23.7245 10.523C23.8734 10.7045 24.0752 10.8065 24.2857 10.8065C24.4962 10.8065 24.6981 10.7045 24.8469 10.523C24.9957 10.3415 25.0794 10.0954 25.0794 9.83871C25.0794 9.58205 24.9957 9.3359 24.8469 9.15441C24.6981 8.97293 24.4962 8.87097 24.2857 8.87097ZM27.4603 8.87097C27.2498 8.87097 27.048 8.97293 26.8991 9.15441C26.7503 9.3359 26.6667 9.58205 26.6667 9.83871C26.6667 10.0954 26.7503 10.3415 26.8991 10.523C27.048 10.7045 27.2498 10.8065 27.4603 10.8065C27.6708 10.8065 27.8727 10.7045 28.0215 10.523C28.1704 10.3415 28.254 10.0954 28.254 9.83871C28.254 9.58205 28.1704 9.3359 28.0215 9.15441C27.8727 8.97293 27.6708 8.87097 27.4603 8.87097ZM30.6349 8.87097C30.4244 8.87097 30.2226 8.97293 30.0737 9.15441C29.9249 9.3359 29.8413 9.58205 29.8413 9.83871C29.8413 10.0954 29.9249 10.3415 30.0737 10.523C30.2226 10.7045 30.4244 10.8065 30.6349 10.8065C30.8454 10.8065 31.0473 10.7045 31.1961 10.523C31.345 10.3415 31.4286 10.0954 31.4286 9.83871C31.4286 9.58205 31.345 9.3359 31.1961 9.15441C31.0473 8.97293 30.8454 8.87097 30.6349 8.87097ZM33.8095 8.87097C33.599 8.87097 33.3972 8.97293 33.2483 9.15441C33.0995 9.3359 33.0159 9.58205 33.0159 9.83871C33.0159 10.0954 33.0995 10.3415 33.2483 10.523C33.3972 10.7045 33.599 10.8065 33.8095 10.8065C34.02 10.8065 34.2219 10.7045 34.3707 10.523C34.5196 10.3415 34.6032 10.0954 34.6032 9.83871C34.6032 9.58205 34.5196 9.3359 34.3707 9.15441C34.2219 8.97293 34.02 8.87097 33.8095 8.87097ZM36.9841 8.87097C36.7736 8.87097 36.5718 8.97293 36.4229 9.15441C36.2741 9.3359 36.1905 9.58205 36.1905 9.83871C36.1905 10.0954 36.2741 10.3415 36.4229 10.523C36.5718 10.7045 36.7736 10.8065 36.9841 10.8065C37.1946 10.8065 37.3965 10.7045 37.5453 10.523C37.6942 10.3415 37.7778 10.0954 37.7778 9.83871C37.7778 9.58205 37.6942 9.3359 37.5453 9.15441C37.3965 8.97293 37.1946 8.87097 36.9841 8.87097ZM40.1587 8.87097C39.9482 8.87097 39.7464 8.97293 39.5975 9.15441C39.4487 9.3359 39.3651 9.58205 39.3651 9.83871C39.3651 10.0954 39.4487 10.3415 39.5975 10.523C39.7464 10.7045 39.9482 10.8065 40.1587 10.8065C40.3692 10.8065 40.5711 10.7045 40.7199 10.523C40.8688 10.3415 40.9524 10.0954 40.9524 9.83871C40.9524 9.58205 40.8688 9.3359 40.7199 9.15441C40.5711 8.97293 40.3692 8.87097 40.1587 8.87097ZM43.3333 8.87097C43.1228 8.87097 42.921 8.97293 42.7721 9.15441C42.6233 9.3359 42.5397 9.58205 42.5397 9.83871C42.5397 10.0954 42.6233 10.3415 42.7721 10.523C42.921 10.7045 43.1228 10.8065 43.3333 10.8065C43.5438 10.8065 43.7457 10.7045 43.8945 10.523C44.0434 10.3415 44.127 10.0954 44.127 9.83871C44.127 9.58205 44.0434 9.3359 43.8945 9.15441C43.7457 8.97293 43.5438 8.87097 43.3333 8.87097ZM46.5079 8.87097C46.2974 8.87097 46.0956 8.97293 45.9467 9.15441C45.7979 9.3359 45.7143 9.58205 45.7143 9.83871C45.7143 10.0954 45.7979 10.3415 45.9467 10.523C46.0956 10.7045 46.2974 10.8065 46.5079 10.8065C46.7184 10.8065 46.9203 10.7045 47.0691 10.523C47.218 10.3415 47.3016 10.0954 47.3016 9.83871C47.3016 9.58205 47.218 9.3359 47.0691 9.15441C46.9203 8.97293 46.7184 8.87097 46.5079 8.87097ZM49.6825 8.87097C49.472 8.87097 49.2702 8.97293 49.1213 9.15441C48.9725 9.3359 48.8889 9.58205 48.8889 9.83871C48.8889 10.0954 48.9725 10.3415 49.1213 10.523C49.2702 10.7045 49.472 10.8065 49.6825 10.8065C49.893 10.8065 50.0949 10.7045 50.2437 10.523C50.3926 10.3415 50.4762 10.0954 50.4762 9.83871C50.4762 9.58205 50.3926 9.3359 50.2437 9.15441C50.0949 8.97293 49.893 8.87097 49.6825 8.87097ZM52.8571 8.87097C52.6467 8.87097 52.4448 8.97293 52.2959 9.15441C52.1471 9.3359 52.0635 9.58205 52.0635 9.83871C52.0635 10.0954 52.1471 10.3415 52.2959 10.523C52.4448 10.7045 52.6467 10.8065 52.8571 10.8065C53.0676 10.8065 53.2695 10.7045 53.4183 10.523C53.5672 10.3415 53.6508 10.0954 53.6508 9.83871C53.6508 9.58205 53.5672 9.3359 53.4183 9.15441C53.2695 8.97293 53.0676 8.87097 52.8571 8.87097ZM56.8254 11.7742H57.619C58.0675 11.7742 58.4127 12.1951 58.4127 12.7419V18.5484C58.4127 19.0952 58.0675 19.5161 57.619 19.5161H56.8254V11.7742ZM52.8571 12.7419C52.6467 12.7419 52.4448 12.8439 52.2959 13.0254C52.1471 13.2069 52.0635 13.453 52.0635 13.7097C52.0635 13.9663 52.1471 14.2125 52.2959 14.394C52.4448 14.5755 52.6467 14.6774 52.8571 14.6774C53.0676 14.6774 53.2695 14.5755 53.4183 14.394C53.5672 14.2125 53.6508 13.9663 53.6508 13.7097C53.6508 13.453 53.5672 13.2069 53.4183 13.0254C53.2695 12.8439 53.0676 12.7419 52.8571 12.7419ZM25.0794 16.6129V17.5806V33.0645H45.7143V16.6129H25.0794ZM52.8571 16.6129C52.6467 16.6129 52.4448 16.7149 52.2959 16.8963C52.1471 17.0778 52.0635 17.324 52.0635 17.5806C52.0635 17.8373 52.1471 18.0835 52.2959 18.2649C52.4448 18.4464 52.6467 18.5484 52.8571 18.5484C53.0676 18.5484 53.2695 18.4464 53.4183 18.2649C53.5672 18.0835 53.6508 17.8373 53.6508 17.5806C53.6508 17.324 53.5672 17.0778 53.4183 16.8963C53.2695 16.7149 53.0676 16.6129 52.8571 16.6129ZM26.6667 18.5484H44.127V31.129H26.6667V18.5484ZM52.8571 20.4839C52.6467 20.4839 52.4448 20.5858 52.2959 20.7673C52.1471 20.9488 52.0635 21.195 52.0635 21.4516C52.0635 21.7083 52.1471 21.9544 52.2959 22.1359C52.4448 22.3174 52.6467 22.4194 52.8571 22.4194C53.0676 22.4194 53.2695 22.3174 53.4183 22.1359C53.5672 21.9544 53.6508 21.7083 53.6508 21.4516C53.6508 21.195 53.5672 20.9488 53.4183 20.7673C53.2695 20.5858 53.0676 20.4839 52.8571 20.4839ZM29.0476 21.4516V23.3871H41.746V21.4516H29.0476ZM56.8254 21.4516H57.619C58.0675 21.4516 58.4127 21.8726 58.4127 22.4194V28.2258C58.4127 28.7726 58.0675 29.1935 57.619 29.1935H56.8254V21.4516ZM52.8571 24.3548C52.6467 24.3548 52.4448 24.4568 52.2959 24.6383C52.1471 24.8198 52.0635 25.0659 52.0635 25.3226C52.0635 25.5792 52.1471 25.8254 52.2959 26.0069C52.4448 26.1884 52.6467 26.2903 52.8571 26.2903C53.0676 26.2903 53.2695 26.1884 53.4183 26.0069C53.5672 25.8254 53.6508 25.5792 53.6508 25.3226C53.6508 25.0659 53.5672 24.8198 53.4183 24.6383C53.2695 24.4568 53.0676 24.3548 52.8571 24.3548ZM29.0476 26.2903V28.2258H41.746V26.2903H29.0476ZM52.8571 28.2258C52.6467 28.2258 52.4448 28.3278 52.2959 28.5093C52.1471 28.6907 52.0635 28.9369 52.0635 29.1935C52.0635 29.4502 52.1471 29.6964 52.2959 29.8778C52.4448 30.0593 52.6467 30.1613 52.8571 30.1613C53.0676 30.1613 53.2695 30.0593 53.4183 29.8778C53.5672 29.6964 53.6508 29.4502 53.6508 29.1935C53.6508 28.9369 53.5672 28.6907 53.4183 28.5093C53.2695 28.3278 53.0676 28.2258 52.8571 28.2258ZM56.8254 31.129H57.619C58.0675 31.129 58.4127 31.55 58.4127 32.0968V37.9032C58.4127 38.45 58.0675 38.871 57.619 38.871H56.8254V31.129ZM52.8571 32.0968C52.6467 32.0968 52.4448 32.1987 52.2959 32.3802C52.1471 32.5617 52.0635 32.8079 52.0635 33.0645C52.0635 33.3212 52.1471 33.5673 52.2959 33.7488C52.4448 33.9303 52.6467 34.0323 52.8571 34.0323C53.0676 34.0323 53.2695 33.9303 53.4183 33.7488C53.5672 33.5673 53.6508 33.3212 53.6508 33.0645C53.6508 32.8079 53.5672 32.5617 53.4183 32.3802C53.2695 32.1987 53.0676 32.0968 52.8571 32.0968ZM52.8571 35.9677C52.6467 35.9677 52.4448 36.0697 52.2959 36.2512C52.1471 36.4327 52.0635 36.6788 52.0635 36.9355C52.0635 37.1921 52.1471 37.4383 52.2959 37.6198C52.4448 37.8013 52.6467 37.9032 52.8571 37.9032C53.0676 37.9032 53.2695 37.8013 53.4183 37.6198C53.5672 37.4383 53.6508 37.1921 53.6508 36.9355C53.6508 36.6788 53.5672 36.4327 53.4183 36.2512C53.2695 36.0697 53.0676 35.9677 52.8571 35.9677ZM52.8571 39.8387C52.6467 39.8387 52.4448 39.9407 52.2959 40.1222C52.1471 40.3036 52.0635 40.5498 52.0635 40.8065C52.0635 41.0631 52.1471 41.3093 52.2959 41.4907C52.4448 41.6722 52.6467 41.7742 52.8571 41.7742C53.0676 41.7742 53.2695 41.6722 53.4183 41.4907C53.5672 41.3093 53.6508 41.0631 53.6508 40.8065C53.6508 40.5498 53.5672 40.3036 53.4183 40.1222C53.2695 39.9407 53.0676 39.8387 52.8571 39.8387ZM56.8254 40.8065H57.619C58.0675 40.8065 58.4127 41.2274 58.4127 41.7742V47.5806C58.4127 48.1274 58.0675 48.5484 57.619 48.5484H56.8254V40.8065ZM52.8571 43.7097C52.6467 43.7097 52.4448 43.8116 52.2959 43.9931C52.1471 44.1746 52.0635 44.4208 52.0635 44.6774C52.0635 44.9341 52.1471 45.1802 52.2959 45.3617C52.4448 45.5432 52.6467 45.6452 52.8571 45.6452C53.0676 45.6452 53.2695 45.5432 53.4183 45.3617C53.5672 45.1802 53.6508 44.9341 53.6508 44.6774C53.6508 44.4208 53.5672 44.1746 53.4183 43.9931C53.2695 43.8116 53.0676 43.7097 52.8571 43.7097ZM52.8571 47.5806C52.6467 47.5806 52.4448 47.6826 52.2959 47.8641C52.1471 48.0456 52.0635 48.2917 52.0635 48.5484C52.0635 48.805 52.1471 49.0512 52.2959 49.2327C52.4448 49.4142 52.6467 49.5161 52.8571 49.5161C53.0676 49.5161 53.2695 49.4142 53.4183 49.2327C53.5672 49.0512 53.6508 48.805 53.6508 48.5484C53.6508 48.2917 53.5672 48.0456 53.4183 47.8641C53.2695 47.6826 53.0676 47.5806 52.8571 47.5806ZM56.8254 50.4839H57.619C58.0675 50.4839 58.4127 50.9048 58.4127 51.4516V57.2581C58.4127 57.8049 58.0675 58.2258 57.619 58.2258H56.8254V50.4839ZM52.8571 51.4516C52.6467 51.4516 52.4448 51.5536 52.2959 51.7351C52.1471 51.9165 52.0635 52.1627 52.0635 52.4193C52.0635 52.676 52.1471 52.9222 52.2959 53.1037C52.4448 53.2851 52.6467 53.3871 52.8571 53.3871C53.0676 53.3871 53.2695 53.2851 53.4183 53.1037C53.5672 52.9222 53.6508 52.676 53.6508 52.4193C53.6508 52.1627 53.5672 51.9165 53.4183 51.7351C53.2695 51.5536 53.0676 51.4516 52.8571 51.4516ZM52.8571 55.3226C52.6467 55.3226 52.4448 55.4245 52.2959 55.606C52.1471 55.7875 52.0635 56.0337 52.0635 56.2903C52.0635 56.547 52.1471 56.7931 52.2959 56.9746C52.4448 57.1561 52.6467 57.2581 52.8571 57.2581C53.0676 57.2581 53.2695 57.1561 53.4183 56.9746C53.5672 56.7931 53.6508 56.547 53.6508 56.2903C53.6508 56.0337 53.5672 55.7875 53.4183 55.606C53.2695 55.4245 53.0676 55.3226 52.8571 55.3226ZM21.1111 59.1935C20.9006 59.1935 20.6988 59.2955 20.5499 59.477C20.4011 59.6585 20.3175 59.9046 20.3175 60.1613C20.3175 60.4179 20.4011 60.6641 20.5499 60.8456C20.6988 61.0271 20.9006 61.129 21.1111 61.129C21.3216 61.129 21.5235 61.0271 21.6723 60.8456C21.8211 60.6641 21.9048 60.4179 21.9048 60.1613C21.9048 59.9046 21.8211 59.6585 21.6723 59.477C21.5235 59.2955 21.3216 59.1935 21.1111 59.1935ZM24.2857 59.1935C24.0752 59.1935 23.8734 59.2955 23.7245 59.477C23.5757 59.6585 23.4921 59.9046 23.4921 60.1613C23.4921 60.4179 23.5757 60.6641 23.7245 60.8456C23.8734 61.0271 24.0752 61.129 24.2857 61.129C24.4962 61.129 24.6981 61.0271 24.8469 60.8456C24.9957 60.6641 25.0794 60.4179 25.0794 60.1613C25.0794 59.9046 24.9957 59.6585 24.8469 59.477C24.6981 59.2955 24.4962 59.1935 24.2857 59.1935ZM27.4603 59.1935C27.2498 59.1935 27.048 59.2955 26.8991 59.477C26.7503 59.6585 26.6667 59.9046 26.6667 60.1613C26.6667 60.4179 26.7503 60.6641 26.8991 60.8456C27.048 61.0271 27.2498 61.129 27.4603 61.129C27.6708 61.129 27.8727 61.0271 28.0215 60.8456C28.1704 60.6641 28.254 60.4179 28.254 60.1613C28.254 59.9046 28.1704 59.6585 28.0215 59.477C27.8727 59.2955 27.6708 59.1935 27.4603 59.1935ZM30.6349 59.1935C30.4244 59.1935 30.2226 59.2955 30.0737 59.477C29.9249 59.6585 29.8413 59.9046 29.8413 60.1613C29.8413 60.4179 29.9249 60.6641 30.0737 60.8456C30.2226 61.0271 30.4244 61.129 30.6349 61.129C30.8454 61.129 31.0473 61.0271 31.1961 60.8456C31.345 60.6641 31.4286 60.4179 31.4286 60.1613C31.4286 59.9046 31.345 59.6585 31.1961 59.477C31.0473 59.2955 30.8454 59.1935 30.6349 59.1935ZM33.8095 59.1935C33.599 59.1935 33.3972 59.2955 33.2483 59.477C33.0995 59.6585 33.0159 59.9046 33.0159 60.1613C33.0159 60.4179 33.0995 60.6641 33.2483 60.8456C33.3972 61.0271 33.599 61.129 33.8095 61.129C34.02 61.129 34.2219 61.0271 34.3707 60.8456C34.5196 60.6641 34.6032 60.4179 34.6032 60.1613C34.6032 59.9046 34.5196 59.6585 34.3707 59.477C34.2219 59.2955 34.02 59.1935 33.8095 59.1935ZM36.9841 59.1935C36.7736 59.1935 36.5718 59.2955 36.4229 59.477C36.2741 59.6585 36.1905 59.9046 36.1905 60.1613C36.1905 60.4179 36.2741 60.6641 36.4229 60.8456C36.5718 61.0271 36.7736 61.129 36.9841 61.129C37.1946 61.129 37.3965 61.0271 37.5453 60.8456C37.6942 60.6641 37.7778 60.4179 37.7778 60.1613C37.7778 59.9046 37.6942 59.6585 37.5453 59.477C37.3965 59.2955 37.1946 59.1935 36.9841 59.1935ZM40.1587 59.1935C39.9482 59.1935 39.7464 59.2955 39.5975 59.477C39.4487 59.6585 39.3651 59.9046 39.3651 60.1613C39.3651 60.4179 39.4487 60.6641 39.5975 60.8456C39.7464 61.0271 39.9482 61.129 40.1587 61.129C40.3692 61.129 40.5711 61.0271 40.7199 60.8456C40.8688 60.6641 40.9524 60.4179 40.9524 60.1613C40.9524 59.9046 40.8688 59.6585 40.7199 59.477C40.5711 59.2955 40.3692 59.1935 40.1587 59.1935ZM43.3333 59.1935C43.1228 59.1935 42.921 59.2955 42.7721 59.477C42.6233 59.6585 42.5397 59.9046 42.5397 60.1613C42.5397 60.4179 42.6233 60.6641 42.7721 60.8456C42.921 61.0271 43.1228 61.129 43.3333 61.129C43.5438 61.129 43.7457 61.0271 43.8945 60.8456C44.0434 60.6641 44.127 60.4179 44.127 60.1613C44.127 59.9046 44.0434 59.6585 43.8945 59.477C43.7457 59.2955 43.5438 59.1935 43.3333 59.1935ZM46.5079 59.1935C46.2974 59.1935 46.0956 59.2955 45.9467 59.477C45.7979 59.6585 45.7143 59.9046 45.7143 60.1613C45.7143 60.4179 45.7979 60.6641 45.9467 60.8456C46.0956 61.0271 46.2974 61.129 46.5079 61.129C46.7184 61.129 46.9203 61.0271 47.0691 60.8456C47.218 60.6641 47.3016 60.4179 47.3016 60.1613C47.3016 59.9046 47.218 59.6585 47.0691 59.477C46.9203 59.2955 46.7184 59.1935 46.5079 59.1935ZM49.6825 59.1935C49.472 59.1935 49.2702 59.2955 49.1213 59.477C48.9725 59.6585 48.8889 59.9046 48.8889 60.1613C48.8889 60.4179 48.9725 60.6641 49.1213 60.8456C49.2702 61.0271 49.472 61.129 49.6825 61.129C49.893 61.129 50.0949 61.0271 50.2437 60.8456C50.3926 60.6641 50.4762 60.4179 50.4762 60.1613C50.4762 59.9046 50.3926 59.6585 50.2437 59.477C50.0949 59.2955 49.893 59.1935 49.6825 59.1935ZM52.8571 59.1935C52.6467 59.1935 52.4448 59.2955 52.2959 59.477C52.1471 59.6585 52.0635 59.9046 52.0635 60.1613C52.0635 60.4179 52.1471 60.6641 52.2959 60.8456C52.4448 61.0271 52.6467 61.129 52.8571 61.129C53.0676 61.129 53.2695 61.0271 53.4183 60.8456C53.5672 60.6641 53.6508 60.4179 53.6508 60.1613C53.6508 59.9046 53.5672 59.6585 53.4183 59.477C53.2695 59.2955 53.0676 59.1935 52.8571 59.1935Z" fill="#3AB8FF"/>
</g>
<defs>
<filter id="filter0_d_294_3" x="0" y="0" width="70" height="80" filterUnits="userSpaceOnUse" color-interpolation-filters="sRGB">
<feFlood flood-opacity="0" result="BackgroundImageFix"/>
<feColorMatrix in="SourceAlpha" type="matrix" values="0 0 0 0 0 0 0 0 0 0 0 0 0 0 0 0 0 0 127 0" result="hardAlpha"/>
<feOffset dy="5"/>
<feGaussianBlur stdDeviation="5"/>
<feComposite in2="hardAlpha" operator="out"/>
<feColorMatrix type="matrix" values="0 0 0 0 0.229167 0 0 0 0 0.7225 0 0 0 0 1 0 0 0 0.4 0"/>
<feBlend mode="normal" in2="BackgroundImageFix" result="effect1_dropShadow_294_3"/>
<feBlend mode="normal" in="SourceGraphic" in2="effect1_dropShadow_294_3" result="shape"/>
</filter>
</defs>
</svg>
