<svg width="22" height="8" viewBox="0 0 22 8" fill="none" xmlns="http://www.w3.org/2000/svg">
<path d="M10.3046 3.90471V6.25816H9.5177V0.452999H11.6039C12.098 0.435565 12.5921 0.627329 12.9398 0.958552C13.3058 1.27235 13.5071 1.70817 13.5071 2.17886C13.5254 2.64954 13.3058 3.10281 12.9398 3.4166C12.5738 3.74782 12.1346 3.90471 11.6039 3.90471H10.3046ZM10.3046 1.16775V3.18998H11.6222C11.915 3.18998 12.1895 3.08538 12.3908 2.89361C12.7934 2.51008 12.8117 1.8825 12.4091 1.49897L12.3908 1.48154C12.1895 1.27235 11.915 1.16775 11.6222 1.16775H10.3046Z" fill="#5F6368"/>
<path d="M15.3007 2.15991C15.8864 2.15991 16.3256 2.29937 16.6732 2.59573C17.0026 2.89209 17.1673 3.29305 17.1673 3.79861V6.2392H16.4171V5.68136H16.3804C16.051 6.13461 15.6301 6.36126 15.0811 6.36126C14.6236 6.36126 14.2394 6.2392 13.9283 5.97772C13.6355 5.73367 13.4524 5.385 13.4707 5.00149C13.4707 4.5831 13.6355 4.26931 13.9648 4.02523C14.2942 3.78118 14.7334 3.65915 15.2641 3.65915C15.7216 3.65915 16.106 3.7463 16.4171 3.90321V3.72887C16.4171 3.46739 16.3072 3.24076 16.0876 3.06643C15.8864 2.89209 15.6118 2.78749 15.3374 2.78749C14.8982 2.78749 14.5504 2.96183 14.2942 3.31048L13.5989 2.89209C14.0014 2.40397 14.5504 2.15991 15.3007 2.15991ZM14.2942 5.03635C14.2942 5.22811 14.3858 5.40243 14.5504 5.52448C14.7152 5.6465 14.9348 5.71622 15.1543 5.71622C15.4837 5.71622 15.7949 5.59419 16.0327 5.36757C16.2889 5.14094 16.4171 4.86201 16.4171 4.54822C16.1791 4.35645 15.8314 4.26928 15.3922 4.26928C15.0811 4.26928 14.8067 4.33902 14.6054 4.49593C14.404 4.63539 14.2942 4.80972 14.2942 5.03635Z" fill="#5F6368"/>
<path d="M21.4496 2.28223L18.8327 8.00022H18.0275L18.9974 5.99544L17.2772 2.28223H18.119L19.3634 5.12378H19.3817L20.5895 2.28223H21.4496Z" fill="#5F6368"/>
<path d="M7.15759 3.39743C7.15759 3.1708 7.1393 2.94418 7.10271 2.71753H3.80872V4.00758H5.69361C5.6204 4.42597 5.36421 4.79205 4.99822 5.01867V5.85548H6.1328C6.77331 5.26275 7.15759 4.40854 7.15759 3.39743Z" fill="#4285F4"/>
<path d="M3.79018 6.63887C4.74179 6.63887 5.52868 6.34251 6.11429 5.83695L4.97968 5.00017C4.6686 5.20937 4.266 5.31396 3.79018 5.31396C2.87519 5.31396 2.10659 4.72124 1.8321 3.93677H0.679199V4.79098C1.2648 5.94155 2.4726 6.63887 3.79018 6.63887Z" fill="#34A853"/>
<path d="M1.83207 3.95593C1.68567 3.53754 1.68567 3.1017 1.83207 2.68331V1.8291H0.679168C0.185069 2.77048 0.185069 3.86876 0.679168 4.81014L1.83207 3.95593Z" fill="#FBBC04"/>
<path d="M3.78994 1.30747C4.28403 1.30747 4.77814 1.4818 5.12583 1.81302L6.11403 0.871647C5.47353 0.313792 4.65002 0 3.77162 0C2.45403 0 1.24623 0.714751 0.642334 1.83046L1.79523 2.68468C2.10633 1.90019 2.89322 1.30747 3.78994 1.30747Z" fill="#EA4335"/>
</svg>
