<svg width="82" height="32" viewBox="0 0 82 32" fill="none" xmlns="http://www.w3.org/2000/svg">
<path d="M38.4213 15.608V24.5359H35.4117V2.51392H43.3908C45.2805 2.44778 47.1703 3.17524 48.5002 4.43174C49.9 5.62213 50.6699 7.27543 50.6699 9.06099C50.7399 10.8465 49.9 12.566 48.5002 13.7564C47.1004 15.0129 45.4206 15.608 43.3908 15.608H38.4213ZM38.4213 5.22533V12.8967H43.4607C44.5806 12.8967 45.6305 12.4999 46.4004 11.7724C47.9403 10.3175 48.0102 7.93674 46.4704 6.48183L46.4004 6.41571C45.6305 5.62213 44.5806 5.22533 43.4607 5.22533H38.4213Z" fill="#5F6368"/>
<path d="M57.5298 8.99463C59.7696 8.99463 61.4494 9.52368 62.7793 10.6479C64.0391 11.7722 64.669 13.2932 64.669 15.211V24.4695H61.7994V22.3533H61.6594C60.3995 24.0727 58.7897 24.9325 56.6899 24.9325C54.9401 24.9325 53.4703 24.4695 52.2804 23.4776C51.1605 22.5517 50.4606 21.229 50.5306 19.7742C50.5306 18.187 51.1605 16.9967 52.4204 16.0707C53.6803 15.1449 55.3601 14.682 57.3899 14.682C59.1396 14.682 60.6095 15.0126 61.7994 15.6078V14.9465C61.7994 13.9546 61.3794 13.0949 60.5395 12.4335C59.7696 11.7722 58.7197 11.3754 57.6699 11.3754C55.9901 11.3754 54.6601 12.0367 53.6803 13.3593L51.0206 11.7722C52.5603 9.92048 54.6601 8.99463 57.5298 8.99463ZM53.6803 19.9064C53.6803 20.6339 54.0302 21.2952 54.6601 21.7582C55.2901 22.2211 56.13 22.4855 56.9699 22.4855C58.2298 22.4855 59.4197 22.0226 60.3295 21.1629C61.3094 20.3032 61.7994 19.2451 61.7994 18.0547C60.8894 17.3272 59.5596 16.9966 57.8798 16.9966C56.6899 16.9966 55.6401 17.2611 54.8701 17.8564C54.1002 18.3854 53.6803 19.0467 53.6803 19.9064Z" fill="#5F6368"/>
<path d="M81.0472 9.45703L71.0383 31.1483H67.9587L71.6683 23.5432L65.089 9.45703H68.3087L73.0681 20.2365H73.1381L77.7577 9.45703H81.0472Z" fill="#5F6368"/>
<path d="M26.3842 13.6895C26.3842 12.8298 26.3142 11.9701 26.1743 11.1104H13.5757V16.0042H20.7849C20.5049 17.5913 19.525 18.9801 18.1252 19.8398V23.0142H22.4647C24.9144 20.7657 26.3842 17.5252 26.3842 13.6895Z" fill="#4285F4"/>
<path d="M13.5053 25.9902C17.1449 25.9902 20.1546 24.866 22.3944 22.9481L18.0548 19.7738C16.865 20.5674 15.3252 20.9642 13.5053 20.9642C10.0057 20.9642 7.06605 18.7156 6.01617 15.7397H1.60666V18.9802C3.84641 23.3449 8.4659 25.9902 13.5053 25.9902Z" fill="#34A853"/>
<path d="M6.01583 15.8059C5.45588 14.2188 5.45588 12.5654 6.01583 10.9782V7.73779H1.60631C-0.283483 11.3089 -0.283483 15.4753 1.60631 19.0464L6.01583 15.8059Z" fill="#FBBC04"/>
<path d="M13.5042 5.75385C15.3939 5.75385 17.2838 6.41516 18.6136 7.67167L22.3932 4.10055C19.9435 1.98432 16.7937 0.793945 13.4341 0.793945C8.39472 0.793945 3.77523 3.50536 1.46548 7.73781L5.875 10.9783C7.06487 8.00234 10.0745 5.75385 13.5042 5.75385Z" fill="#EA4335"/>
</svg>
