<svg width="100" height="32" viewBox="0 0 100 32" fill="none" xmlns="http://www.w3.org/2000/svg">
<path d="M30.0706 8.12795H27.5249V6.27393H30.0706V8.12795ZM30.0706 19.9651H27.5249V10.4098H30.0706V19.9651Z" fill="#151920"/>
<path d="M33.834 10.4097L33.9449 11.7432C34.1938 11.3005 34.5475 10.9191 34.9781 10.6293C35.3799 10.3669 35.8567 10.2284 36.3438 10.2328C36.7323 10.2198 37.1181 10.2999 37.4655 10.4659C37.813 10.6318 38.1112 10.8783 38.3325 11.1827C38.8137 11.8082 39.0543 12.7994 39.0543 14.1562V19.965H36.5086V14.1861C36.5086 13.4722 36.4202 12.9667 36.2435 12.6701C36.1677 12.5313 36.0521 12.4158 35.9099 12.3373C35.7677 12.2587 35.6051 12.2203 35.4409 12.2266C35.1743 12.2232 34.912 12.2903 34.6832 12.4206C34.4507 12.5569 34.2552 12.7435 34.1126 12.9653V19.9536H31.4171V10.4097H33.834Z" fill="#151920"/>
<path d="M43.3971 8.12793V10.5524H44.7449V12.2638H43.3971V17.0985C43.3971 17.5036 43.4575 17.7888 43.5783 17.9542C43.6303 18.0343 43.7035 18.1 43.7904 18.1448C43.8774 18.1896 43.9751 18.2119 44.0739 18.2095C44.1743 18.2115 44.2747 18.2039 44.3734 18.1867C44.4712 18.1671 44.5677 18.1423 44.6624 18.1125L44.8616 19.9395C44.6366 20.0178 44.4052 20.0783 44.1698 20.1206C43.9224 20.1605 43.6719 20.1796 43.4211 20.1776C42.5905 20.1776 41.954 19.9314 41.5117 19.4389C41.0695 18.9464 40.8494 18.171 40.8513 17.1128V12.2638H39.5036V10.5524H40.8513V8.12793H43.3971Z" fill="#151920"/>
<path d="M49.4961 20.2003C48.1793 20.2003 47.1585 19.7667 46.4337 18.8996C45.7089 18.0325 45.346 16.9168 45.345 15.5524V15.193C45.345 13.7573 45.6944 12.5883 46.3933 11.686C47.0921 10.7837 48.0744 10.333 49.3403 10.334C50.5143 10.334 51.4153 10.7177 52.0432 11.4849C52.6712 12.2522 52.9842 13.2948 52.9822 14.6126V15.9717H47.9462C47.9895 16.6734 48.1573 17.2339 48.4493 17.6489C48.7413 18.0639 49.1906 18.2735 49.7971 18.2735C50.2357 18.2843 50.6733 18.2265 51.0924 18.1024C51.4871 17.9646 51.8636 17.7832 52.214 17.5619L52.8893 19.1092C52.4661 19.4567 51.9757 19.7221 51.4457 19.8908C50.8201 20.1028 50.16 20.2075 49.4961 20.2003ZM49.3388 12.198C49.1384 12.1913 48.9402 12.2395 48.7677 12.3368C48.5951 12.4341 48.4556 12.5765 48.3654 12.7471C48.1488 13.1141 48.015 13.6184 47.9641 14.2603H50.4365V14.0407C50.4365 13.4602 50.351 13.0096 50.1834 12.6872C50.111 12.5339 49.9915 12.4051 49.8408 12.3178C49.69 12.2305 49.5149 12.1887 49.3388 12.198Z" fill="#151920"/>
<path d="M58.4464 12.5589L57.5764 12.5319C57.3194 12.5237 57.0675 12.602 56.8651 12.7529C56.6626 12.9169 56.5109 13.1305 56.4262 13.3704V19.9651H53.8805V10.4097H56.263L56.3634 11.7603C56.5113 11.3383 56.7574 10.9536 57.0836 10.6351C57.2546 10.4724 57.4656 10.3533 57.6974 10.2885C57.9292 10.2238 58.1743 10.2154 58.4105 10.2643C58.5062 10.2842 58.6066 10.3099 58.7099 10.3384L58.4464 12.5589Z" fill="#151920"/>
<path d="M63.185 15.9719H62.7147V19.9651H60.169V6.27393H62.7147V14.1179H63.134L64.931 10.5524H67.9559L65.2709 14.7967L68.3603 19.9651H65.3742L63.185 15.9719Z" fill="#2CA656"/>
<path d="M73.5853 19.9651C73.483 19.7447 73.4013 19.5161 73.3413 19.282C73.2749 19.0347 73.2249 18.7837 73.1915 18.5304C72.9934 18.973 72.6977 19.3699 72.3245 19.6941C71.9611 19.9987 71.4905 20.1612 71.0067 20.1491C70.1012 20.1491 69.4049 19.8966 68.9176 19.3918C68.4305 18.887 68.1869 18.1948 68.1869 17.3153C68.1869 16.394 68.5068 15.678 69.1467 15.1675C69.7868 14.6569 70.7456 14.4021 72.0235 14.403H73.1975V13.5616C73.1975 13.0606 73.1071 12.6759 72.9264 12.4079C72.843 12.2781 72.7244 12.1722 72.5833 12.1012C72.442 12.0302 72.2833 11.9967 72.1238 12.0043C71.986 11.9969 71.8485 12.0227 71.7239 12.0793C71.5993 12.1358 71.4917 12.2214 71.411 12.328C71.2306 12.6059 71.1453 12.9304 71.1669 13.2564L68.711 13.2464L68.6931 13.1908C68.6683 12.7784 68.7404 12.3659 68.9045 11.9834C69.0684 11.601 69.3201 11.2582 69.641 10.9803C70.3088 10.3746 71.1904 10.0718 72.2855 10.0718C73.3137 10.0718 74.1473 10.3746 74.7863 10.9803C75.4253 11.5859 75.7442 12.4526 75.7432 13.5801V17.5107C75.7412 17.9323 75.7747 18.3535 75.8435 18.77C75.9132 19.174 76.0178 19.5718 76.1565 19.9594L73.5853 19.9651ZM72.6389 17.9371C72.8268 17.7678 72.9674 17.5566 73.0477 17.3224V15.8292H71.9126C71.4768 15.8292 71.1639 15.9633 70.9588 16.2328C70.7487 16.5342 70.6439 16.8911 70.6592 17.2526C70.6456 17.538 70.7337 17.8194 70.9093 18.0512C71.1469 18.3459 71.5003 18.4286 71.9696 18.2993C72.2207 18.2303 72.4504 18.1039 72.6389 17.9314V17.9371Z" fill="#2CA656"/>
<path d="M81.2835 17.4605C81.2849 17.3227 81.2548 17.1863 81.1954 17.0607C81.136 16.9351 81.0484 16.8233 80.9391 16.7331C80.7105 16.5325 80.2667 16.2872 79.6078 15.9972C78.5836 15.6312 77.8134 15.2199 77.2972 14.7636C77.0433 14.5412 76.8429 14.2692 76.7094 13.9662C76.5761 13.6632 76.513 13.3363 76.5245 13.0079C76.5222 12.6266 76.6092 12.2495 76.7791 11.9041C76.9491 11.5587 77.1976 11.2537 77.5069 11.0114C78.1627 10.4608 79.0308 10.1861 80.111 10.187C81.2401 10.187 82.142 10.4723 82.817 11.0427C83.1416 11.3073 83.3977 11.64 83.5647 12.0146C83.7318 12.3893 83.8054 12.7957 83.7798 13.2019L83.7618 13.2561H81.2206C81.2385 12.9122 81.1403 12.5719 80.9406 12.2849C80.8428 12.161 80.7141 12.0622 80.5661 11.9977C80.418 11.9332 80.2554 11.9049 80.093 11.9156C79.9516 11.9126 79.8108 11.9362 79.679 11.9852C79.5472 12.0341 79.4268 12.1075 79.3248 12.2008C79.2245 12.2889 79.145 12.3962 79.0913 12.5156C79.0377 12.6351 79.0111 12.764 79.0133 12.8939C79.0072 13.0224 79.0309 13.1506 79.0826 13.2694C79.1344 13.3882 79.213 13.4947 79.3129 13.5813C79.5175 13.7553 79.9667 13.9963 80.6606 14.3044C81.7228 14.6523 82.513 15.0616 83.031 15.5323C83.2885 15.7687 83.4907 16.054 83.6246 16.3697C83.7586 16.6855 83.8211 17.0246 83.8083 17.365C83.8157 17.7523 83.7264 18.1358 83.5478 18.4839C83.3692 18.832 83.1064 19.1347 82.781 19.3672C82.0951 19.8873 81.1902 20.1478 80.066 20.1488C78.892 20.1488 77.9636 19.8294 77.2808 19.1904C76.5979 18.5515 76.2719 17.827 76.3029 17.0169L76.3313 16.9642H78.7153C78.7273 17.4852 78.8576 17.8594 79.1062 18.0866C79.3868 18.3248 79.7551 18.4475 80.1305 18.4274C80.4396 18.4479 80.7451 18.3544 80.984 18.1664C81.0837 18.0757 81.1619 17.9659 81.2137 17.8442C81.2653 17.7225 81.2891 17.5917 81.2835 17.4605Z" fill="#2CA656"/>
<path d="M89.1366 17.4605C89.1377 17.3226 89.1073 17.1862 89.0477 17.0606C88.9879 16.935 88.9002 16.8232 88.7906 16.7331C88.562 16.5325 88.1183 16.2872 87.4594 15.9972C86.4351 15.6312 85.6649 15.2199 85.1488 14.7636C84.8948 14.5412 84.6943 14.2692 84.561 13.9662C84.4277 13.6632 84.3645 13.3363 84.3761 13.0079C84.3738 12.6266 84.4608 12.2495 84.6307 11.9041C84.8006 11.5587 85.0492 11.2537 85.3584 11.0114C86.0143 10.4608 86.8823 10.1861 87.9625 10.187C89.0926 10.187 89.9946 10.4723 90.6684 11.0427C90.9931 11.3074 91.2491 11.6401 91.4164 12.0147C91.5837 12.3893 91.6578 12.7956 91.6328 13.2019L91.6164 13.2619H89.0797C89.0971 12.9182 88.9997 12.578 88.8011 12.2906C88.7032 12.1668 88.5744 12.0682 88.4264 12.0038C88.2784 11.9393 88.1159 11.9109 87.9536 11.9212C87.8118 11.9181 87.6709 11.9417 87.5388 11.9907C87.4067 12.0396 87.286 12.113 87.1838 12.2065C87.0838 12.2948 87.0044 12.4021 86.9508 12.5215C86.8971 12.6409 86.8704 12.7698 86.8724 12.8996C86.8667 13.0281 86.8905 13.1561 86.9422 13.2749C86.994 13.3936 87.0723 13.5002 87.1719 13.587C87.3765 13.761 87.8257 14.0021 88.5196 14.3101C89.5858 14.6571 90.3765 15.064 90.8916 15.5309C91.1493 15.7671 91.3518 16.0524 91.486 16.3682C91.6202 16.6839 91.6829 17.0231 91.6703 17.3635C91.6775 17.7513 91.5879 18.1352 91.4088 18.4836C91.2295 18.832 90.9661 19.1348 90.64 19.3672C89.9542 19.8873 89.0492 20.1478 87.9251 20.1488C86.751 20.1488 85.8227 19.8294 85.1398 19.1904C84.4569 18.5515 84.131 17.827 84.1619 17.0169L84.1903 16.9642H86.5743C86.5864 17.4852 86.7166 17.8594 86.9653 18.0866C87.2463 18.3251 87.6151 18.4477 87.991 18.4274C88.2996 18.4477 88.6046 18.3542 88.8431 18.1664C88.9416 18.0753 89.0188 17.9652 89.0694 17.8435C89.12 17.7218 89.1429 17.5912 89.1366 17.4605Z" fill="#2CA656"/>
<path d="M97.3959 19.9651C97.2935 19.7447 97.2119 19.5161 97.1518 19.282C97.0855 19.0347 97.0355 18.7837 97.002 18.5304C96.804 18.973 96.5083 19.3699 96.135 19.6941C95.7717 19.9987 95.301 20.1612 94.8172 20.1491C93.9118 20.1491 93.2154 19.8966 92.7282 19.3918C92.2411 18.887 91.9974 18.1948 91.9974 17.3153C91.9974 16.394 92.3174 15.678 92.9573 15.1675C93.5972 14.6569 94.5562 14.4021 95.834 14.403H97.0081V13.5616C97.0081 13.0606 96.9177 12.6759 96.737 12.4079C96.6536 12.2781 96.535 12.1722 96.3937 12.1012C96.2526 12.0302 96.0939 11.9967 95.9343 12.0043C95.7966 11.9969 95.6591 12.0227 95.5345 12.0793C95.4099 12.1358 95.3022 12.2214 95.2215 12.328C95.0412 12.6059 94.9559 12.9304 94.9775 13.2564L92.5216 13.2464L92.5036 13.1908C92.4788 12.7784 92.551 12.3659 92.7151 11.9834C92.879 11.601 93.1307 11.2582 93.4516 10.9803C94.1194 10.3746 95.001 10.0718 96.0961 10.0718C97.1243 10.0718 97.9579 10.3746 98.5968 10.9803C99.2358 11.5859 99.5548 12.4526 99.5538 13.5801V17.5107C99.5518 17.9323 99.5853 18.3535 99.6541 18.77C99.7238 19.174 99.8284 19.5718 99.967 19.9594L97.3959 19.9651ZM96.5993 17.9371C96.7872 17.7678 96.9277 17.5566 97.0081 17.3224V15.8292H95.873C95.4372 15.8292 95.1242 15.9633 94.919 16.2328C94.709 16.5342 94.6042 16.8911 94.6196 17.2526C94.6059 17.538 94.6941 17.8194 94.8696 18.0512C95.1078 18.3464 95.4686 18.4291 95.9313 18.2993C96.1819 18.2299 96.4111 18.1036 96.5993 17.9314V17.9371Z" fill="#2CA656"/>
<path d="M30.0699 24.6718C30.0721 24.8873 30.0423 25.1019 29.9815 25.3093C29.931 25.4914 29.8441 25.6624 29.7255 25.8129C29.6158 25.9492 29.475 26.0599 29.3137 26.1366C29.1399 26.2159 28.9492 26.2555 28.7566 26.2522C28.5375 26.257 28.3199 26.2166 28.1187 26.1338C27.9438 26.0598 27.7899 25.9474 27.6694 25.8057V27.3748H27.37V23.1028H27.6439L27.674 23.5307C27.7886 23.3779 27.9401 23.2537 28.1157 23.1683C28.3141 23.0762 28.5329 23.0312 28.7536 23.0371C28.9477 23.0339 29.14 23.072 29.3166 23.1484C29.4791 23.2216 29.6211 23.33 29.7315 23.465C29.8496 23.6132 29.9366 23.7818 29.9876 23.9614C30.0488 24.1732 30.0785 24.3922 30.0759 24.6118L30.0699 24.6718ZM29.6206 24.6047C29.622 24.4315 29.602 24.2586 29.5608 24.0898C29.5261 23.9416 29.4648 23.8002 29.3796 23.6718C29.3006 23.5577 29.1943 23.4628 29.0696 23.3952C28.9345 23.3256 28.7828 23.2907 28.6293 23.2939C28.5089 23.2922 28.3892 23.3091 28.2744 23.3438C28.1776 23.3745 28.0867 23.4199 28.0049 23.4779C27.9294 23.533 27.8632 23.599 27.8087 23.6733C27.7547 23.7452 27.7094 23.8227 27.674 23.9044V25.4263C27.7135 25.5068 27.7639 25.5821 27.8237 25.6503C27.8827 25.719 27.9524 25.7787 28.0304 25.8272C28.113 25.8796 28.204 25.9192 28.2999 25.9441C28.41 25.9739 28.5239 25.9883 28.6384 25.9869C28.791 25.9911 28.942 25.9561 29.0756 25.8856C29.1996 25.8173 29.3048 25.722 29.3826 25.6075C29.4675 25.479 29.5288 25.3377 29.5638 25.1895C29.6039 25.0197 29.623 24.8459 29.6206 24.6718V24.6047Z" fill="#868B95"/>
<path d="M32.7196 26.2399C32.7002 26.1358 32.6837 26.0701 32.6732 25.9932C32.6611 25.9152 32.6537 25.8366 32.6508 25.7579C32.5955 25.8242 32.5339 25.8853 32.4665 25.9404C32.3895 26.0005 32.3056 26.0522 32.2165 26.0944C32.0111 26.1906 31.785 26.2394 31.5561 26.2371C31.4099 26.239 31.2645 26.2169 31.1263 26.1714C31.0045 26.1312 30.892 26.0687 30.7954 25.9874C30.7065 25.9089 30.6347 25.8144 30.5842 25.7094C30.5305 25.5892 30.5051 25.4592 30.5098 25.3287C30.5145 25.1981 30.5491 25.0701 30.6111 24.9536C30.6836 24.8292 30.7863 24.7232 30.9107 24.6443C31.0525 24.5536 31.2102 24.4879 31.3763 24.4503C31.5803 24.4144 31.7864 24.3901 31.9934 24.3776H32.6163V24.0311C32.6343 23.9367 32.627 23.8395 32.595 23.7486C32.5631 23.6576 32.5076 23.5757 32.4336 23.5106C32.2581 23.3735 32.0341 23.3056 31.8076 23.3209C31.6896 23.3199 31.5719 23.3357 31.4588 23.368C31.3597 23.3974 31.2669 23.4433 31.1847 23.5035C31.1104 23.5563 31.0491 23.6239 31.005 23.7017C30.9613 23.7777 30.9391 23.8632 30.9406 23.9498H30.5797C30.5788 23.829 30.6097 23.7099 30.6696 23.6033C30.7337 23.4931 30.8203 23.3962 30.9242 23.3181C31.0415 23.229 31.1742 23.16 31.3165 23.1141C31.4804 23.0612 31.6525 23.0351 31.8256 23.0372C31.9862 23.0358 32.1462 23.057 32.3004 23.0999C32.4372 23.1378 32.5646 23.2018 32.6747 23.2882C32.7795 23.3744 32.8624 23.4821 32.9173 23.6033C32.9481 23.7482 32.9481 23.8976 32.9173 24.0425V25.5398C32.9603 25.5881 32.9924 25.6445 33.0117 25.7052C33.0117 25.7636 33.0221 25.8177 33.0311 25.872C33.0401 25.9262 33.0505 25.976 33.0626 26.0245C33.0745 26.0731 33.0895 26.1158 33.0626 26.1514V26.2371L32.7196 26.2399ZM31.5681 25.9547C31.6901 25.9557 31.8117 25.9399 31.9289 25.9077C32.0348 25.8783 32.1356 25.8345 32.2285 25.7778C32.3162 25.7249 32.3955 25.6601 32.4635 25.5854C32.5281 25.5135 32.5815 25.4333 32.6222 25.3472V24.6713H32.0068C31.8413 24.6695 31.676 24.6852 31.5142 24.7184C31.3843 24.7436 31.2597 24.7894 31.1457 24.8539C31.052 24.9066 30.9733 24.9806 30.9166 25.0691C30.8632 25.1555 30.8358 25.2542 30.8373 25.3543C30.8364 25.4348 30.8535 25.5145 30.8873 25.5882C30.9212 25.6619 30.9709 25.728 31.0335 25.7821C31.1004 25.8386 31.1782 25.8821 31.2626 25.9105C31.3609 25.9423 31.4643 25.9572 31.5681 25.9547Z" fill="#868B95"/>
<path d="M34.7385 25.6971L35.6863 23.1025H36.0727L34.698 26.6885C34.671 26.7598 34.6351 26.8311 34.5917 26.9267C34.5482 27.0156 34.4918 27.0982 34.4239 27.172C34.3517 27.2511 34.2642 27.3164 34.1664 27.3646C34.0494 27.4201 33.9198 27.4471 33.789 27.4431H33.7202L33.6423 27.433C33.6176 27.4304 33.5931 27.4261 33.5689 27.4202L33.5135 27.4074V27.1221C33.5375 27.1221 33.5704 27.1292 33.6108 27.1335C33.6403 27.1349 33.6698 27.1349 33.6992 27.1335C33.786 27.135 33.8726 27.123 33.9553 27.0978C34.0264 27.0753 34.0921 27.0394 34.1485 26.9923C34.2077 26.9417 34.2582 26.8825 34.2981 26.8168C34.3431 26.7386 34.3812 26.6571 34.412 26.5729L34.5618 26.1649L33.3368 23.1025H33.7291L34.7385 25.6971Z" fill="#868B95"/>
<path d="M36.9994 23.1027L37.0114 23.6131C37.0639 23.5288 37.1261 23.4503 37.197 23.3792C37.2656 23.3086 37.3449 23.248 37.4321 23.1996C37.5207 23.1487 37.6166 23.1102 37.7167 23.0855C37.8245 23.0574 37.9358 23.0436 38.0477 23.0441C38.2573 23.0383 38.4645 23.0877 38.6466 23.1868C38.8224 23.2933 38.9501 23.4586 39.0045 23.6502C39.0565 23.5629 39.1188 23.4816 39.1902 23.4078C39.2624 23.3331 39.345 23.2682 39.4358 23.2152C39.5289 23.1598 39.6297 23.1172 39.7353 23.0883C39.8516 23.0563 39.9721 23.0404 40.0932 23.0413C40.2458 23.0383 40.3978 23.0604 40.5424 23.1069C40.6689 23.1474 40.7822 23.2182 40.8719 23.3123C40.9672 23.4159 41.0376 23.538 41.0785 23.6702C41.1286 23.8399 41.1524 24.0157 41.1489 24.192V26.2397H40.8494V24.2163C40.8533 24.0782 40.8335 23.9405 40.7911 23.8085C40.7573 23.7115 40.6999 23.6234 40.6233 23.5518C40.5503 23.4871 40.4611 23.4415 40.3642 23.4191C40.2565 23.3938 40.1458 23.3814 40.0348 23.3822C39.8933 23.3809 39.7531 23.4076 39.623 23.4605C39.5118 23.5064 39.4103 23.5712 39.3235 23.6516C39.244 23.7263 39.1795 23.8143 39.1333 23.9111C39.0898 23.9982 39.0624 24.0918 39.0524 24.1878V26.2397H38.7529V24.1906C38.7566 24.0596 38.7368 23.9289 38.6945 23.8042C38.6602 23.7097 38.6022 23.6244 38.5254 23.5561C38.4513 23.4926 38.3625 23.4466 38.2662 23.422C38.1574 23.3941 38.0451 23.3806 37.9323 23.3822C37.805 23.3796 37.6785 23.4005 37.5594 23.4434C37.4561 23.4817 37.3608 23.5373 37.2779 23.6074C37.1991 23.6751 37.1324 23.7546 37.0803 23.8427C37.0291 23.9286 36.9874 24.0194 36.956 24.1136V26.2397H36.6565V23.1027H36.9994Z" fill="#868B95"/>
<path d="M43.2275 26.2397C43.0262 26.242 42.8266 26.2036 42.642 26.127C42.4671 26.0541 42.31 25.9472 42.1808 25.8132C42.0491 25.6737 41.9474 25.5109 41.8813 25.3342C41.8216 25.1346 41.778 24.9311 41.751 24.7253V24.6084C41.7475 24.3878 41.786 24.1685 41.8648 23.961C41.9331 23.7789 42.0373 23.611 42.1718 23.4662C42.2968 23.3324 42.4498 23.2251 42.621 23.151C42.7878 23.0764 42.97 23.0384 43.1541 23.0398C43.3448 23.0359 43.5338 23.072 43.7082 23.1453C43.8656 23.2126 44.0049 23.3131 44.1155 23.439C44.2291 23.5714 44.3137 23.7241 44.3641 23.8882C44.423 24.0731 44.4518 24.2655 44.4495 24.4586V24.671H42.049V24.731C42.1109 24.888 42.1644 25.0479 42.2092 25.2101C42.2589 25.3526 42.3366 25.4847 42.4384 25.5994C42.5344 25.7094 42.6538 25.7988 42.7888 25.8617C42.9288 25.9261 43.0825 25.9588 43.238 25.9573C43.4129 25.9609 43.5865 25.9268 43.7456 25.8574C43.9045 25.7787 44.0415 25.6654 44.1455 25.5266L44.3701 25.6906C44.3145 25.7662 44.2518 25.8369 44.183 25.9016C44.1087 25.97 44.025 26.0285 43.9343 26.0757C43.8344 26.1278 43.7277 26.1672 43.6168 26.1925C43.4896 26.2233 43.3588 26.2391 43.2275 26.2397ZM43.2186 23.3364C43.0882 23.3357 42.9591 23.3611 42.8397 23.4106C42.726 23.4618 42.6243 23.5341 42.5402 23.623C42.4473 23.7196 42.3732 23.8311 42.3215 23.9524C42.2623 24.0893 42.2229 24.2332 42.2048 24.3802H44.1514V24.3431C44.1478 24.2153 44.1256 24.0886 44.0856 23.9666C44.0479 23.8506 43.9886 23.7419 43.9104 23.6458C43.8324 23.5522 43.7344 23.4754 43.6229 23.4205C43.4973 23.3616 43.3585 23.3328 43.2186 23.3364Z" fill="#868B95"/>
<path d="M45.3791 23.1025L45.391 23.6387C45.4453 23.5514 45.5091 23.4696 45.5812 23.3949C45.6519 23.3222 45.7325 23.259 45.8208 23.2066C45.9089 23.1535 46.0048 23.1132 46.1053 23.0868C46.2104 23.0579 46.3194 23.0435 46.4288 23.0441C46.5734 23.0421 46.7172 23.0638 46.8541 23.1083C46.9764 23.1495 47.086 23.2192 47.173 23.3107C47.266 23.4148 47.334 23.537 47.3722 23.6686C47.4218 23.8409 47.445 24.0191 47.4411 24.1977V26.2396H47.1416V24.2191C47.1455 24.084 47.1267 23.9493 47.0862 23.8198C47.0547 23.7233 47.0003 23.635 46.9275 23.5617C46.8579 23.495 46.7719 23.4459 46.6774 23.4191C46.5707 23.3907 46.4602 23.3769 46.3494 23.3777C46.2261 23.3758 46.1035 23.3967 45.9886 23.4391C45.8841 23.478 45.7875 23.5335 45.7025 23.6031C45.6195 23.6711 45.5473 23.7504 45.4884 23.8383C45.4268 23.9234 45.3765 24.0154 45.3386 24.1121V26.2396H45.0391V23.1025H45.3791Z" fill="#868B95"/>
<path d="M48.9384 22.2466V23.1024H49.5374V23.3877H48.9384V25.4374C48.9344 25.5261 48.946 25.6149 48.9728 25.7C48.9906 25.7575 49.0224 25.8103 49.0657 25.8539C49.1029 25.8896 49.1494 25.9151 49.2004 25.9281C49.2528 25.9408 49.3066 25.9471 49.3607 25.9467C49.4108 25.9467 49.4609 25.9434 49.5104 25.9367L49.6452 25.9182L49.6601 26.2034C49.6044 26.2216 49.5466 26.2335 49.488 26.2391C49.418 26.2477 49.3474 26.2519 49.2768 26.2519C49.1809 26.2528 49.0856 26.2398 48.9938 26.2134C48.908 26.1888 48.8305 26.143 48.7692 26.0808C48.7002 26.0093 48.649 25.924 48.6194 25.8312C48.6033 25.702 48.6063 25.5714 48.6284 25.4431V23.3877H48.0294V23.1024H48.6284V22.2466H48.9384Z" fill="#868B95"/>
<path d="M54.3282 24.6718C54.3307 24.8869 54.303 25.1013 54.2458 25.3093C54.1985 25.4869 54.1173 25.6548 54.0062 25.8043C53.9047 25.9391 53.772 26.0499 53.6184 26.1281C53.4575 26.2073 53.2784 26.2471 53.0972 26.2436C52.8907 26.2485 52.6857 26.208 52.4983 26.1252C52.3341 26.0489 52.1915 25.9364 52.082 25.7972V27.3662H51.7825V23.1028H52.058L52.082 23.5307C52.1877 23.3799 52.3299 23.2556 52.4968 23.1683C52.6813 23.0764 52.8876 23.0312 53.0957 23.0371C53.2783 23.0339 53.4589 23.072 53.6228 23.1484C53.7776 23.223 53.9116 23.3315 54.0137 23.465C54.1253 23.6148 54.2066 23.7832 54.2533 23.9614C54.3109 24.1738 54.3386 24.3925 54.3356 24.6118L54.3282 24.6718ZM54.0287 24.6047C54.03 24.431 54.0098 24.2577 53.9688 24.0884C53.9338 23.9407 53.8725 23.7998 53.7876 23.6718C53.709 23.5573 53.6026 23.4624 53.4776 23.3952C53.3425 23.3256 53.1908 23.2907 53.0373 23.2939C52.917 23.2922 52.7972 23.3091 52.6824 23.3438C52.4933 23.4015 52.3294 23.5175 52.2167 23.6733C52.1624 23.745 52.1171 23.8225 52.082 23.9044V25.4263C52.1216 25.5068 52.1719 25.582 52.2317 25.6503C52.2907 25.719 52.3603 25.7786 52.4384 25.8272C52.5213 25.8795 52.6122 25.9195 52.7079 25.9456C52.8181 25.9749 52.932 25.9888 53.0463 25.9869C53.1987 25.9908 53.3496 25.9564 53.4836 25.887C53.608 25.8161 53.7131 25.7184 53.7906 25.6017C53.8755 25.4733 53.9368 25.3319 53.9718 25.1838C54.0114 25.0158 54.0305 24.844 54.0287 24.6718V24.6047Z" fill="#868B95"/>
<path d="M56.5582 23.3878C56.4781 23.3749 56.3968 23.3688 56.3155 23.3694C56.203 23.3678 56.0909 23.3852 55.9846 23.4207C55.8922 23.4575 55.8052 23.5055 55.7256 23.5633C55.5907 23.6667 55.4735 23.7893 55.3781 23.9269V26.2398H55.0786V23.1027H55.3781V23.5889C55.4828 23.4329 55.6169 23.2966 55.7735 23.1868C55.9395 23.0862 56.1339 23.0365 56.3306 23.0442C56.3757 23.0446 56.4207 23.0484 56.4653 23.0556C56.5002 23.0599 56.5346 23.0685 56.5671 23.0813L56.5582 23.3878Z" fill="#868B95"/>
<path d="M56.8748 24.5928C56.8729 24.3849 56.9074 24.1782 56.9767 23.9811C57.0383 23.8035 57.1361 23.6393 57.2642 23.4977C57.3877 23.3616 57.5411 23.2531 57.7134 23.1796C57.8964 23.1008 58.0952 23.0615 58.2959 23.0641C58.4991 23.0611 58.7005 23.1005 58.8859 23.1796C59.0585 23.2528 59.2119 23.3614 59.3352 23.4977C59.4633 23.6391 59.5606 23.8034 59.6212 23.9811C59.6901 24.1783 59.7241 24.385 59.7215 24.5928V24.6855C59.7239 24.8928 59.69 25.099 59.6212 25.2958C59.5606 25.4738 59.4633 25.6387 59.3352 25.7806C59.2117 25.9163 59.0583 26.0244 58.8859 26.0971C58.7006 26.1715 58.5015 26.2098 58.3004 26.2098C58.0994 26.2098 57.9003 26.1715 57.7149 26.0971C57.543 26.0238 57.3897 25.9158 57.2657 25.7806C57.1368 25.6387 57.0386 25.4739 56.9767 25.2958C56.9075 25.0991 56.873 24.8929 56.8748 24.6855V24.5928ZM57.1744 24.6869C57.1732 24.8557 57.1979 25.0239 57.2477 25.186C57.2938 25.3354 57.3673 25.4759 57.4649 25.6009C57.5591 25.7192 57.6792 25.8165 57.8167 25.8861C57.9661 25.9582 58.1316 25.9944 58.2989 25.9917C58.4659 25.9946 58.6309 25.9584 58.7796 25.8861C58.9169 25.8165 59.0364 25.7191 59.1301 25.6009C59.2283 25.4763 59.3019 25.3357 59.3472 25.186C59.3971 25.0239 59.4218 24.8557 59.4206 24.6869V24.59C59.4216 24.4234 59.3968 24.2576 59.3472 24.098C59.3015 23.948 59.228 23.8069 59.1301 23.6816C59.0353 23.5633 58.9148 23.466 58.7767 23.3964C58.6272 23.3231 58.461 23.2864 58.293 23.2895C58.1269 23.2864 57.9626 23.3232 57.8153 23.3964C57.6783 23.4665 57.5588 23.5637 57.4649 23.6816C57.3676 23.8072 57.2941 23.9482 57.2477 24.098C57.1981 24.2576 57.1734 24.4234 57.1744 24.59V24.6869Z" fill="#868B95"/>
<path d="M61.5453 25.9543C61.6564 25.9547 61.7671 25.9388 61.8732 25.9073C61.9751 25.8758 62.0704 25.8275 62.1547 25.7646C62.2371 25.7024 62.3058 25.6254 62.3569 25.5379C62.4108 25.4444 62.442 25.3407 62.4482 25.2342H62.7927C62.7855 25.3733 62.7461 25.5091 62.6773 25.632C62.6093 25.7549 62.5167 25.8638 62.4048 25.9529C62.2887 26.0443 62.1563 26.1154 62.0139 26.1625C61.6646 26.2764 61.283 26.2611 60.9447 26.1197C60.7764 26.0435 60.6284 25.9318 60.512 25.7932C60.3909 25.6476 60.3009 25.481 60.247 25.3027C60.1854 25.1058 60.1591 24.9004 60.1691 24.6952V24.5754C60.1591 24.3702 60.1854 24.1648 60.247 23.9679C60.3008 23.7907 60.3903 23.6251 60.5105 23.4802C60.6269 23.3412 60.7749 23.2291 60.9433 23.1523C61.1308 23.0696 61.3357 23.0286 61.5423 23.0325C61.707 23.0311 61.8707 23.057 62.026 23.1095C62.1694 23.1586 62.3017 23.2336 62.4153 23.3306C62.5278 23.428 62.6179 23.5464 62.6804 23.6785C62.7435 23.8097 62.781 23.9508 62.7912 24.0948H62.4467C62.4364 23.9916 62.4075 23.8908 62.3614 23.7968C62.3145 23.7009 62.2484 23.6147 62.1667 23.543C62.0842 23.472 61.9881 23.4168 61.8837 23.3805C61.7737 23.3429 61.6576 23.324 61.5408 23.3248C61.3762 23.3197 61.2131 23.3555 61.0676 23.4289C60.9403 23.4955 60.8319 23.5903 60.7516 23.7056C60.6663 23.8273 60.6059 23.9632 60.5734 24.1063C60.5359 24.2488 60.5179 24.4128 60.467 24.5768V24.6966C60.5179 24.862 60.5359 25.0217 60.5734 25.1729C60.6057 25.3153 60.6656 25.4507 60.7501 25.5721C60.8309 25.6874 60.9398 25.7824 61.0676 25.8488C61.2149 25.9219 61.3792 25.9582 61.5453 25.9543Z" fill="#868B95"/>
<path d="M64.6928 26.2396C64.492 26.2419 64.2929 26.2035 64.1088 26.127C63.9339 26.054 63.7768 25.9472 63.6476 25.8133C63.5159 25.6737 63.4142 25.5109 63.3481 25.3342C63.3045 25.134 63.2935 24.9287 63.3152 24.7253V24.6084C63.312 24.3883 63.3485 24.1694 63.423 23.961C63.4862 23.7804 63.5842 23.6126 63.7119 23.4662C63.8281 23.3342 63.972 23.2268 64.1343 23.151C64.2904 23.0768 64.4629 23.0387 64.6374 23.0398C64.8183 23.0362 64.9977 23.0723 65.1615 23.1454C65.3113 23.2139 65.4424 23.3145 65.5448 23.4391C65.653 23.5732 65.7333 23.7256 65.7815 23.8883C65.8361 24.0739 65.8629 24.2659 65.8609 24.4587V24.6711H63.6131V24.731C63.5972 24.8931 63.6187 25.0567 63.676 25.2101C63.7257 25.3526 63.8034 25.4848 63.9052 25.5994C64.0012 25.7094 64.1206 25.7989 64.2556 25.8618C64.3956 25.9262 64.5493 25.9589 64.7048 25.9574C64.8797 25.9609 65.0533 25.9268 65.2124 25.8575C65.3707 25.7818 65.5081 25.672 65.6138 25.5366L65.8384 25.7006C65.7828 25.7762 65.7201 25.8469 65.6512 25.9117C65.577 25.98 65.4933 26.0386 65.4026 26.0857C65.3027 26.1379 65.196 26.1772 65.0851 26.2025C64.9564 26.2301 64.8247 26.2426 64.6928 26.2396ZM64.633 23.3365C64.5026 23.3358 64.3735 23.361 64.2541 23.4105C64.1404 23.4618 64.0387 23.534 63.9546 23.6231C63.8617 23.7196 63.7876 23.8312 63.7359 23.9525C63.6765 24.0891 63.6376 24.2332 63.6207 24.3802H65.5673V24.3431C65.5637 24.2154 65.5415 24.0887 65.5015 23.9667C65.4638 23.8506 65.4045 23.7419 65.3263 23.6458C65.2483 23.5521 65.1503 23.4753 65.0388 23.4206C64.9127 23.3615 64.7734 23.3326 64.633 23.3365Z" fill="#868B95"/>
<path d="M68.4815 25.4617C68.4812 25.3946 68.4691 25.328 68.4456 25.2648C68.4163 25.1932 68.3696 25.1291 68.3093 25.0779C68.2273 25.0084 68.1337 24.9525 68.0322 24.9124C67.8846 24.8524 67.7305 24.8079 67.5725 24.7798C67.4015 24.7461 67.2329 24.7018 67.0679 24.6472C66.934 24.6046 66.8074 24.5436 66.6921 24.466C66.5955 24.4002 66.5165 24.3137 66.4615 24.2135C66.4071 24.1059 66.3805 23.9876 66.3836 23.8684C66.3831 23.7497 66.4112 23.6326 66.4659 23.526C66.5224 23.4151 66.6042 23.3175 66.7055 23.2408C66.8179 23.1558 66.9459 23.0915 67.0829 23.051C67.2439 23.0018 67.4124 22.9778 67.5816 22.9797C67.7613 22.9769 67.9403 23.002 68.1117 23.0539C68.2563 23.0966 68.3911 23.1654 68.5085 23.2564C68.6138 23.3404 68.6983 23.4456 68.7556 23.5645C68.812 23.6853 68.8406 23.8161 68.8394 23.9483H68.462C68.4618 23.8629 68.4419 23.7786 68.4037 23.7015C68.3634 23.6206 68.3058 23.5487 68.2344 23.4904C68.1513 23.4282 68.0576 23.3799 67.9575 23.3477C67.8365 23.3085 67.7094 23.2892 67.5816 23.2907C67.4542 23.2878 67.3272 23.3052 67.2057 23.342C67.1126 23.3703 67.0263 23.4153 66.9511 23.4746C66.8867 23.5228 66.8354 23.5849 66.8014 23.6559C66.7722 23.7192 66.7569 23.7877 66.7564 23.857C66.7549 23.9241 66.7666 23.9908 66.7909 24.0538C66.819 24.1193 66.8649 24.1764 66.9242 24.2192C67.0084 24.2798 67.1018 24.3279 67.2012 24.3619C67.3529 24.4141 67.508 24.457 67.6654 24.4903C67.8461 24.5292 68.0238 24.5801 68.197 24.6429C68.3302 24.6905 68.455 24.7574 68.5668 24.8412C68.6591 24.9124 68.7333 25.0027 68.784 25.105C68.8326 25.2137 68.8566 25.3307 68.8544 25.4488C68.8557 25.5759 68.8255 25.7015 68.766 25.8154C68.7064 25.9277 68.6203 26.0253 68.5144 26.1006C68.3948 26.1841 68.2604 26.2464 68.1177 26.2847C67.7595 26.3763 67.3817 26.3719 67.026 26.2718C66.874 26.2252 66.7323 26.1522 66.6081 26.0564C66.4994 25.9729 66.4119 25.8672 66.3521 25.747C66.2948 25.6335 66.2651 25.5091 66.2653 25.3832H66.6427C66.6468 25.4961 66.6824 25.6059 66.746 25.7013C66.8044 25.7849 66.8823 25.8547 66.9736 25.9052C67.0661 25.9578 67.1674 25.9949 67.2731 26.0151C67.3805 26.0364 67.4898 26.0474 67.5995 26.0479C67.7271 26.0501 67.8544 26.0337 67.9769 25.9994C68.076 25.9727 68.1694 25.9292 68.2524 25.871C68.3221 25.8218 68.3793 25.7584 68.4202 25.6856C68.4596 25.6169 68.4807 25.5399 68.4815 25.4617Z" fill="#868B95"/>
<path d="M71.483 25.4617C71.4827 25.3946 71.4706 25.328 71.4471 25.2648C71.4177 25.1932 71.371 25.1291 71.3109 25.0779C71.2288 25.0084 71.1352 24.9525 71.0338 24.9124C70.8861 24.8524 70.7319 24.8079 70.5741 24.7798C70.4025 24.7461 70.2334 24.7017 70.0679 24.6472C69.9346 24.6043 69.8085 24.5433 69.6935 24.466C69.5969 24.4002 69.518 24.3137 69.4629 24.2135C69.4087 24.1059 69.382 23.9876 69.3851 23.8684C69.3845 23.7497 69.4127 23.6326 69.4674 23.526C69.5239 23.4151 69.6058 23.3175 69.7071 23.2408C69.8194 23.1558 69.9474 23.0915 70.0843 23.051C70.2455 23.0018 70.4138 22.9778 70.583 22.9797C70.7628 22.9769 70.9418 23.002 71.1132 23.0539C71.2579 23.0966 71.3925 23.1654 71.51 23.2564C71.6154 23.3404 71.6997 23.4456 71.757 23.5645C71.8136 23.6853 71.8421 23.8161 71.841 23.9483H71.4636C71.4634 23.8629 71.4434 23.7786 71.4051 23.7015C71.365 23.6206 71.3074 23.5487 71.236 23.4904C71.1528 23.4282 71.0591 23.3799 70.9589 23.3477C70.8379 23.3085 70.7108 23.2892 70.583 23.2907C70.4556 23.2878 70.3286 23.3052 70.2072 23.342C70.1142 23.3703 70.0277 23.4153 69.9526 23.4746C69.8883 23.5228 69.8369 23.5849 69.8028 23.6559C69.7732 23.7191 69.7575 23.7876 69.7564 23.857C69.7554 23.9242 69.7676 23.9909 69.7924 24.0538C69.8204 24.1193 69.8665 24.1764 69.9256 24.2192C70.01 24.2798 70.1033 24.3279 70.2027 24.3619C70.3544 24.4141 70.5094 24.457 70.6669 24.4903C70.8477 24.5292 71.0253 24.5801 71.1985 24.6429C71.3318 24.6905 71.4564 24.7574 71.5684 24.8412C71.6616 24.9104 71.7373 24.9986 71.7901 25.0993C71.8386 25.208 71.8625 25.3251 71.8604 25.4431C71.8617 25.5702 71.8314 25.6958 71.7721 25.8097C71.7124 25.922 71.6263 26.0196 71.5205 26.0949C71.4008 26.1783 71.2664 26.2407 71.1236 26.279C70.7654 26.3706 70.3876 26.3662 70.0319 26.2661C69.8799 26.2195 69.7383 26.1465 69.6142 26.0507C69.5055 25.9672 69.4179 25.8615 69.3581 25.7412C69.3008 25.6277 69.2711 25.5034 69.2712 25.3775H69.6486C69.6528 25.4903 69.6885 25.6002 69.7519 25.6955C69.8105 25.7792 69.8883 25.849 69.9795 25.8995C70.0721 25.9521 70.1734 25.9892 70.279 26.0094C70.3864 26.0307 70.4958 26.0417 70.6055 26.0422C70.7332 26.0444 70.8604 26.028 70.9829 25.9937C71.0817 25.9672 71.1746 25.9237 71.257 25.8654C71.3273 25.8165 71.3852 25.7531 71.4261 25.6799C71.4631 25.6125 71.4826 25.5377 71.483 25.4617Z" fill="#868B95"/>
<path d="M72.4578 22.1973C72.4567 22.1672 72.462 22.1371 72.4733 22.1089C72.4845 22.0808 72.5017 22.055 72.5236 22.0332C72.5466 22.0104 72.5745 21.9924 72.6055 21.9809C72.6365 21.9693 72.6697 21.9643 72.703 21.9662C72.7364 21.9644 72.7698 21.9695 72.801 21.981C72.8322 21.9926 72.8605 22.0105 72.8838 22.0332C72.9183 22.066 72.9416 22.1079 72.9507 22.1534C72.9597 22.1991 72.9541 22.2461 72.9344 22.2886C72.9149 22.331 72.8823 22.3669 72.8409 22.3913C72.7996 22.4158 72.7515 22.4277 72.703 22.4255C72.6707 22.4275 72.6384 22.4231 72.6081 22.4124C72.5778 22.4017 72.5502 22.3851 72.527 22.3636C72.504 22.342 72.4858 22.3161 72.4739 22.2875C72.462 22.2588 72.4565 22.2281 72.4578 22.1973ZM72.8973 26.2411H72.5983V23.1031H72.8973V26.2411Z" fill="#868B95"/>
<path d="M74.132 23.1026L74.1424 23.6388C74.1967 23.5514 74.2605 23.4696 74.3326 23.3949C74.4036 23.3226 74.4841 23.2594 74.5722 23.2066C74.6604 23.1538 74.7563 23.1135 74.8567 23.0869C74.9618 23.0579 75.0708 23.0435 75.1802 23.0441C75.3248 23.042 75.4686 23.0637 75.6055 23.1083C75.7279 23.1492 75.8377 23.2188 75.9244 23.3108C76.0174 23.4148 76.0853 23.537 76.1236 23.6686C76.1732 23.841 76.1964 24.0191 76.1925 24.1977V26.2396H75.893V24.2191C75.8969 24.084 75.8782 23.9493 75.8376 23.8198C75.806 23.7234 75.7517 23.6351 75.6788 23.5617C75.6093 23.4951 75.5233 23.446 75.4288 23.4191C75.322 23.3907 75.2116 23.3769 75.1008 23.3777C74.9775 23.3758 74.8549 23.3967 74.7399 23.4391C74.6355 23.4781 74.5389 23.5335 74.4539 23.6031C74.3708 23.6715 74.2982 23.7507 74.2383 23.8384C74.1772 23.9238 74.127 24.0156 74.0885 24.1121V26.2396H73.789V23.1026H74.132Z" fill="#868B95"/>
<path d="M76.9404 24.6143C76.9376 24.3948 76.9663 24.176 77.0257 23.9639C77.0749 23.7852 77.1588 23.6168 77.2728 23.4675C77.3758 23.3342 77.5103 23.2258 77.6652 23.1508C77.8287 23.0748 78.0088 23.0367 78.1908 23.0396C78.3992 23.0334 78.6057 23.0791 78.7898 23.1722C78.9565 23.2611 79.0975 23.3881 79.2001 23.5417L79.2181 23.0966H79.4861V26.1292C79.4963 26.3125 79.4673 26.4959 79.4008 26.6683C79.3448 26.8193 79.2554 26.9569 79.1387 27.072C79.0228 27.1842 78.8829 27.2713 78.7285 27.3273C78.557 27.3881 78.3752 27.4181 78.1923 27.4157C78.087 27.4152 77.9822 27.4042 77.8793 27.383C77.7763 27.3596 77.676 27.3266 77.5798 27.2845C77.4804 27.2398 77.3866 27.1848 77.2998 27.1205C77.2109 27.0537 77.1328 26.9748 77.0677 26.8865L77.2698 26.6811C77.3832 26.8207 77.526 26.9359 77.6892 27.0192C77.8402 27.0912 78.007 27.1279 78.1759 27.1262C78.3153 27.1291 78.4542 27.1064 78.5847 27.0592C78.6989 27.0174 78.8014 26.951 78.8842 26.8652C78.968 26.7757 79.0317 26.6709 79.0713 26.557C79.1148 26.4358 79.1912 26.1434 79.1912 26.1434V25.7883C79.0852 25.9306 78.9443 26.0461 78.7809 26.1249C78.5942 26.2105 78.3888 26.252 78.1818 26.2461C78.0008 26.2489 77.8219 26.2091 77.6606 26.1306C77.5064 26.0521 77.3728 25.9414 77.2698 25.8068C77.1564 25.6576 77.0726 25.4898 77.0227 25.3118C76.9645 25.103 76.9368 24.8875 76.9404 24.6713V24.6143ZM77.2399 24.6699C77.2385 24.8446 77.2582 25.0188 77.2983 25.1891C77.332 25.337 77.3928 25.478 77.478 25.6056C77.5531 25.7194 77.6558 25.8144 77.7775 25.8824C77.9114 25.9519 78.0623 25.9864 78.2147 25.9822C78.3313 25.984 78.4473 25.9691 78.5592 25.938C78.6557 25.9113 78.747 25.8704 78.8302 25.8167C78.9068 25.7648 78.9754 25.7029 79.0339 25.6328C79.0932 25.5611 79.1435 25.4831 79.1836 25.4002V23.9197C79.1485 23.8356 79.1033 23.7556 79.0489 23.6814C78.9938 23.6059 78.9271 23.5386 78.8512 23.4817C78.7701 23.4205 78.6791 23.3723 78.5817 23.3391C78.4657 23.303 78.3442 23.2857 78.2223 23.2878C78.0657 23.2829 77.9106 23.3179 77.773 23.389C77.652 23.4586 77.5495 23.5537 77.4735 23.6672C77.3885 23.7955 77.3276 23.9369 77.2938 24.0851C77.2538 24.255 77.2343 24.4287 77.2354 24.6029L77.2399 24.6699Z" fill="#868B95"/>
<path d="M83.7953 25.4617C83.795 25.3946 83.7829 25.328 83.7594 25.2648C83.731 25.193 83.6849 25.1288 83.6245 25.0779C83.5423 25.0087 83.4487 24.9529 83.3475 24.9124C83.1993 24.8524 83.0446 24.8079 82.8863 24.7798C82.7152 24.7459 82.5467 24.7016 82.3816 24.6472C82.2482 24.6046 82.122 24.5436 82.0073 24.466C81.9107 24.3999 81.8313 24.3135 81.7751 24.2135C81.7219 24.106 81.6943 23.9887 81.6943 23.8698C81.6943 23.7509 81.7219 23.6336 81.7751 23.526C81.8316 23.4154 81.9129 23.318 82.0133 23.2408C82.1261 23.1565 82.2539 23.0922 82.3906 23.051C82.5517 23.0018 82.7201 22.9778 82.8892 22.9797C83.069 22.9769 83.248 23.002 83.4194 23.0539C83.5643 23.0959 83.6991 23.1648 83.8162 23.2564C83.9216 23.3404 84.0059 23.4456 84.0633 23.5645C84.1209 23.6849 84.1501 23.8159 84.1487 23.9483H83.7713C83.771 23.8629 83.7511 23.7786 83.7129 23.7015C83.6726 23.6202 83.6144 23.5482 83.5422 23.4904C83.4594 23.4277 83.3656 23.3794 83.2651 23.3477C83.1441 23.3084 83.017 23.2891 82.8892 23.2907C82.7618 23.2879 82.6348 23.3053 82.5133 23.342C82.4206 23.3706 82.3341 23.4155 82.2588 23.4746C82.2 23.5215 82.1526 23.58 82.1198 23.646C82.087 23.7119 82.0695 23.7839 82.0686 23.857C82.0679 23.924 82.0795 23.9906 82.103 24.0538C82.1317 24.119 82.1776 24.176 82.2364 24.2192C82.3208 24.2796 82.4142 24.3277 82.5133 24.3619C82.6651 24.4139 82.8202 24.4568 82.9776 24.4903C83.1584 24.529 83.3361 24.5799 83.5093 24.6429C83.6426 24.6903 83.7674 24.7571 83.8791 24.8412C83.9714 24.9124 84.0456 25.0027 84.0963 25.105C84.1455 25.2135 84.1695 25.3307 84.1667 25.4488C84.1687 25.576 84.1383 25.7018 84.0783 25.8154C84.0186 25.9277 83.9325 26.0253 83.8267 26.1006C83.7075 26.1841 83.5736 26.2465 83.4314 26.2847C83.2624 26.3303 83.0873 26.3524 82.9117 26.3502C82.7179 26.3537 82.5247 26.3272 82.3397 26.2718C82.1871 26.2255 82.0449 26.1524 81.9204 26.0564C81.8125 25.9722 81.7251 25.8666 81.6643 25.747C81.6093 25.6334 81.5817 25.5096 81.5835 25.3846H81.9608C81.9647 25.4977 82.0009 25.6078 82.0657 25.7027C82.1236 25.7863 82.2009 25.8561 82.2918 25.9067C82.3843 25.9593 82.4856 25.9964 82.5913 26.0165C82.6982 26.0378 82.807 26.0488 82.9162 26.0493C83.0438 26.0515 83.1711 26.0352 83.2936 26.0008C83.3927 25.9741 83.4861 25.9306 83.5691 25.8725C83.6392 25.8236 83.6965 25.7602 83.7369 25.687C83.7762 25.6179 83.7964 25.5403 83.7953 25.4617Z" fill="#868B95"/>
<path d="M85.8027 25.6971L86.7507 23.1025H87.1371L85.7624 26.6885C85.7354 26.7598 85.6994 26.8311 85.6561 26.9267C85.6126 27.0156 85.5562 27.0982 85.4883 27.172C85.416 27.2511 85.3286 27.3164 85.2308 27.3646C85.1137 27.4201 84.984 27.4471 84.8534 27.4431H84.7845L84.7066 27.433C84.6819 27.4304 84.6573 27.4261 84.6332 27.4202L84.5778 27.4074V27.1221C84.6018 27.1221 84.6347 27.1292 84.6752 27.1335C84.7046 27.1349 84.7341 27.1349 84.7635 27.1335C84.8504 27.135 84.9368 27.123 85.0197 27.0978C85.0907 27.0753 85.1564 27.0394 85.2128 26.9923C85.272 26.9417 85.3225 26.8825 85.3625 26.8168C85.4074 26.7386 85.4455 26.6571 85.4764 26.5729L85.626 26.1649L84.4011 23.1025H84.7935L85.8027 25.6971Z" fill="#868B95"/>
<path d="M89.5201 25.4615C89.5199 25.3944 89.5073 25.3278 89.4827 25.2647C89.4545 25.1929 89.4082 25.1287 89.3479 25.0779C89.2657 25.0086 89.1721 24.9527 89.0708 24.9124C88.9227 24.8524 88.7681 24.8079 88.6096 24.7798C88.4387 24.7458 88.2701 24.7015 88.105 24.6471C87.9715 24.6046 87.8454 24.5435 87.7307 24.466C87.6341 24.4002 87.5551 24.3137 87.5001 24.2135C87.4452 24.106 87.418 23.9877 87.4207 23.8683C87.4207 23.7496 87.4494 23.6324 87.5045 23.5259C87.561 23.415 87.6428 23.3175 87.7441 23.2407C87.8565 23.1558 87.9845 23.0914 88.1215 23.051C88.2825 23.0017 88.451 22.9776 88.6202 22.9797C88.7999 22.9771 88.9789 23.0022 89.1503 23.0539C89.2946 23.0962 89.429 23.165 89.5456 23.2564C89.6514 23.3399 89.7359 23.4453 89.7927 23.5645C89.8503 23.6849 89.8794 23.8159 89.878 23.9481H89.5006C89.5004 23.8628 89.4805 23.7786 89.4423 23.7014C89.4021 23.6204 89.3444 23.5485 89.273 23.4903C89.1899 23.428 89.0962 23.3798 88.9961 23.3477C88.875 23.3086 88.7479 23.2892 88.6202 23.2906C88.4928 23.2878 88.3658 23.3052 88.2443 23.342C88.1509 23.3705 88.0641 23.4155 87.9882 23.4746C87.9237 23.5226 87.8723 23.5848 87.8385 23.6557C87.8089 23.7191 87.793 23.7875 87.792 23.8569C87.791 23.924 87.8032 23.9908 87.828 24.0537C87.8561 24.1193 87.902 24.1764 87.9613 24.2192C88.0455 24.2797 88.1389 24.3278 88.2383 24.3618C88.39 24.4141 88.5451 24.4569 88.7025 24.4902C88.8833 24.5291 89.0609 24.5801 89.2341 24.6428C89.3672 24.6908 89.4919 24.7577 89.604 24.8411C89.6962 24.9121 89.77 25.0024 89.8196 25.105C89.8694 25.2133 89.8939 25.3305 89.8915 25.4487C89.8975 25.5737 89.8729 25.6982 89.8196 25.8125C89.76 25.9247 89.6738 26.0223 89.5681 26.0978C89.4483 26.1812 89.314 26.2435 89.1712 26.2817C88.813 26.3735 88.4352 26.369 88.0795 26.2689C87.9272 26.2229 87.7855 26.1498 87.6618 26.0536C87.553 25.9697 87.465 25.864 87.4042 25.744C87.3481 25.6302 87.3188 25.506 87.3188 25.3802H87.6962C87.6989 25.4934 87.7347 25.6036 87.7995 25.6983C87.8579 25.7816 87.9352 25.8514 88.0256 25.9023C88.1183 25.9547 88.2196 25.9918 88.3251 26.0122C88.432 26.0334 88.5409 26.0444 88.6501 26.0449C88.7782 26.0472 88.906 26.0309 89.029 25.9964C89.1277 25.9698 89.2205 25.9262 89.303 25.8681C89.3734 25.8193 89.4313 25.7558 89.4722 25.6827C89.5066 25.6137 89.523 25.5378 89.5201 25.4615Z" fill="#868B95"/>
<path d="M91.1675 22.2466V23.1024H91.7665V23.3877H91.1675V25.4374C91.1631 25.5261 91.1743 25.6148 91.2005 25.7C91.2182 25.7575 91.2501 25.8103 91.2933 25.8539C91.3306 25.8896 91.3771 25.9151 91.4281 25.9281C91.4804 25.9408 91.5343 25.9471 91.5883 25.9467C91.6409 25.947 91.6934 25.9437 91.7455 25.9367L91.8803 25.9182L91.8953 26.2034C91.8394 26.2213 91.7817 26.2332 91.723 26.2391C91.6526 26.2476 91.5815 26.2518 91.5104 26.2519C91.4146 26.2528 91.3191 26.2398 91.2274 26.2134C91.142 26.1887 91.065 26.143 91.0043 26.0808C90.9353 26.0093 90.8841 25.924 90.8545 25.8312C90.8387 25.702 90.8422 25.5714 90.8651 25.4431V23.3877H90.266V23.1024H90.8651V22.2466H91.1675Z" fill="#868B95"/>
<path d="M93.6374 26.2397C93.436 26.242 93.2364 26.2036 93.0519 26.127C92.8774 26.054 92.7207 25.9472 92.5921 25.8132C92.4601 25.6739 92.3583 25.5111 92.2926 25.3342C92.2424 25.1347 92.2178 24.9303 92.2193 24.7253V24.6084C92.2158 24.3878 92.2543 24.1685 92.333 23.961C92.3991 23.7794 92.5007 23.6116 92.6325 23.4662C92.7576 23.3324 92.9106 23.2251 93.0818 23.151C93.2485 23.0764 93.4306 23.0384 93.6149 23.0398C93.8054 23.0359 93.9946 23.072 94.169 23.1453C94.3263 23.2126 94.4656 23.3131 94.5763 23.439C94.6898 23.5716 94.7748 23.7243 94.8263 23.8882C94.884 24.0733 94.9123 24.2656 94.9102 24.4586V24.671H92.5157V24.731C92.5327 24.8937 92.5678 25.0544 92.6206 25.2101C92.6696 25.3525 92.7469 25.4846 92.8481 25.5994C92.9442 25.7094 93.0636 25.7988 93.1985 25.8617C93.3386 25.9261 93.4923 25.9588 93.6478 25.9573C93.8228 25.9609 93.9963 25.9268 94.1555 25.8574C94.3139 25.7821 94.4515 25.6722 94.5568 25.5367L94.7814 25.7007C94.7257 25.7762 94.6631 25.8468 94.5942 25.9117C94.5205 25.9801 94.4374 26.0386 94.3472 26.0856C94.2466 26.1376 94.1393 26.1769 94.0282 26.2026C93.9 26.2301 93.7687 26.2425 93.6374 26.2397ZM93.5355 23.3364C93.4051 23.3357 93.2761 23.3611 93.1567 23.4106C93.043 23.4618 92.9412 23.5341 92.8572 23.623C92.7643 23.7196 92.6902 23.8311 92.6385 23.9524C92.5791 24.0891 92.5402 24.2332 92.5232 24.3802H94.4699V24.3431C94.4663 24.2153 94.4441 24.0887 94.4041 23.9666C94.3664 23.8506 94.307 23.7419 94.2288 23.6458C94.1509 23.5522 94.0529 23.4754 93.9414 23.4205C93.8153 23.3614 93.6759 23.3325 93.5355 23.3364Z" fill="#868B95"/>
<path d="M95.8503 23.1027L95.8622 23.6131C95.9147 23.5288 95.9771 23.4503 96.048 23.3792C96.1165 23.3086 96.1957 23.248 96.2831 23.1996C96.3716 23.1487 96.4674 23.1102 96.5676 23.0855C96.6754 23.0574 96.7868 23.0436 96.8985 23.0441C97.1081 23.0383 97.3154 23.0877 97.4975 23.1868C97.6734 23.2933 97.801 23.4586 97.8554 23.6502C97.9074 23.5629 97.9697 23.4816 98.0411 23.4078C98.1132 23.3331 98.1958 23.2682 98.2867 23.2152C98.3797 23.1598 98.4806 23.1172 98.5861 23.0883C98.7024 23.0563 98.823 23.0404 98.944 23.0413C99.0966 23.0383 99.2487 23.0604 99.3933 23.1069C99.5197 23.1474 99.6332 23.2182 99.7227 23.3123C99.8181 23.4156 99.8882 23.5379 99.9279 23.6702C99.9792 23.8397 100.004 24.0156 99.9998 24.192V26.2397H99.7003V24.2163C99.7041 24.0782 99.6845 23.9405 99.6419 23.8085C99.6083 23.7115 99.5507 23.6234 99.4741 23.5518C99.4011 23.4871 99.312 23.4415 99.2151 23.4191C99.1073 23.3938 98.9967 23.3814 98.8856 23.3822C98.7442 23.3809 98.6039 23.4076 98.4738 23.4605C98.3627 23.5064 98.2612 23.5712 98.1743 23.6516C98.0226 23.7959 97.927 23.9849 97.9034 24.1878V26.2397H97.6038V24.1906C97.6074 24.0596 97.5877 23.9289 97.5454 23.8042C97.5111 23.7097 97.453 23.6244 97.3762 23.5561C97.3022 23.4926 97.2133 23.4466 97.1172 23.422C97.0082 23.3942 96.8959 23.3807 96.7832 23.3822C96.6559 23.3796 96.5293 23.4005 96.4104 23.4434C96.307 23.4817 96.2117 23.5373 96.1288 23.6074C96.0496 23.6748 95.9828 23.7543 95.9311 23.8427C95.88 23.9286 95.8383 24.0194 95.8068 24.1136V26.2397H95.5073V23.1027H95.8503Z" fill="#868B95"/>
<path d="M23.0318 11.3479C23.0326 8.93466 22.1648 6.594 20.5731 4.71614C18.9815 2.83827 16.7622 1.53665 14.2851 1.02822C7.36221 -0.385106 0.869141 4.7819 0.869141 11.5249V21.7162C2.56509 22.6228 4.37712 23.3165 6.26006 23.78L6.34542 23.7999V23.7756C6.34542 20.4641 8.8537 17.7857 11.949 17.7857C15.0442 17.7857 17.5525 20.4684 17.5525 23.7756V23.7999L17.638 23.78C19.5209 23.3165 21.3329 22.6228 23.0289 21.7162V11.3479H23.0318ZM11.895 17.1825C11.0758 17.1825 10.275 16.9511 9.59389 16.5176C8.91274 16.0842 8.38185 15.4681 8.06834 14.7473C7.75485 14.0265 7.67281 13.2333 7.83264 12.468C7.99246 11.7029 8.38696 11 8.96623 10.4483C9.5455 9.89659 10.2835 9.52088 11.087 9.36867C11.8905 9.21646 12.7233 9.29459 13.4802 9.59316C14.2371 9.89173 14.8839 10.3974 15.339 11.046C15.7942 11.6947 16.0372 12.4575 16.0372 13.2377C16.0372 14.2839 15.6007 15.2872 14.824 16.027C14.0471 16.7668 12.9936 17.1825 11.895 17.1825Z" fill="#2CA656"/>
<path d="M16.2752 26.0604C13.4272 26.6665 10.4738 26.6665 7.62577 26.0604C7.14209 25.9563 6.64193 25.8365 6.12828 25.6939C4.2959 25.187 2.53114 24.4801 0.869141 23.5874V26.5253C1.45316 27.1585 5.41099 31.149 11.9505 31.149C18.49 31.149 22.4478 27.1557 23.0318 26.5253V23.5874C21.3693 24.4802 19.6041 25.1871 17.7712 25.6939C17.2591 25.8365 16.7589 25.9549 16.2752 26.0604Z" fill="#76B437"/>
</svg>
