<svg width="29" height="8" viewBox="0 0 29 8" fill="none" xmlns="http://www.w3.org/2000/svg">
<path d="M9.11548 1.93363H8.3916V1.44482H9.11548V1.93363ZM9.11548 5.05444H8.3916V2.53522H9.11548V5.05444Z" fill="#151920"/>
<path d="M10.1855 2.5338L10.2171 2.88538C10.2879 2.76866 10.3884 2.66812 10.5109 2.5917C10.6251 2.52252 10.7607 2.48603 10.8992 2.48718C11.0097 2.48374 11.1194 2.50487 11.2182 2.54863C11.317 2.59237 11.4017 2.65737 11.4647 2.7376C11.6015 2.90253 11.6699 3.16385 11.6699 3.52155V5.05302H10.946V3.52946C10.946 3.34121 10.9209 3.20797 10.8707 3.12976C10.8491 3.09315 10.8162 3.06271 10.7758 3.04201C10.7354 3.0213 10.6891 3.01117 10.6424 3.01282C10.5666 3.01192 10.4921 3.02963 10.427 3.06396C10.3609 3.0999 10.3053 3.14912 10.2648 3.20759V5.05002H9.49829V2.5338H10.1855Z" fill="#151920"/>
<path d="M12.9048 1.93262V2.57183H13.2881V3.02302H12.9048V4.29767C12.9048 4.40446 12.922 4.47966 12.9564 4.52328C12.9711 4.54438 12.992 4.56171 13.0167 4.57352C13.0414 4.58532 13.0692 4.5912 13.0973 4.59057C13.1258 4.5911 13.1544 4.5891 13.1824 4.58457C13.2103 4.5794 13.2377 4.57287 13.2646 4.56502L13.3213 5.04669C13.2573 5.06732 13.1915 5.08327 13.1246 5.09443C13.0542 5.10496 12.983 5.10998 12.9116 5.10946C12.6755 5.10946 12.4945 5.04454 12.3687 4.91469C12.243 4.78484 12.1804 4.58042 12.1809 4.30145V3.02302H11.7977V2.57183H12.1809V1.93262H12.9048Z" fill="#151920"/>
<path d="M14.6391 5.11512C14.2647 5.11512 13.9744 5.0008 13.7683 4.7722C13.5622 4.54359 13.459 4.24943 13.4587 3.88973V3.79497C13.4587 3.41646 13.5581 3.10825 13.7568 2.87037C13.9555 2.63248 14.2348 2.51367 14.5948 2.51392C14.9286 2.51392 15.1848 2.61508 15.3634 2.81735C15.5419 3.01965 15.6309 3.29452 15.6304 3.64194V4.00027H14.1984C14.2107 4.18526 14.2584 4.33304 14.3414 4.44245C14.4245 4.55187 14.5522 4.60714 14.7247 4.60714C14.8494 4.60999 14.9738 4.59473 15.093 4.56202C15.2052 4.52568 15.3123 4.47787 15.4119 4.41952L15.604 4.82747C15.4836 4.91907 15.3442 4.98905 15.1935 5.03351C15.0156 5.08941 14.8279 5.11702 14.6391 5.11512ZM14.5944 3.00537C14.5374 3.00359 14.481 3.0163 14.432 3.04195C14.3829 3.06759 14.3432 3.10515 14.3176 3.15012C14.256 3.24688 14.218 3.37985 14.2035 3.54906H14.9065V3.49116C14.9065 3.33814 14.8822 3.21932 14.8345 3.13434C14.8139 3.09392 14.78 3.05996 14.7371 3.03695C14.6942 3.01392 14.6445 3.00292 14.5944 3.00537Z" fill="#151920"/>
<path d="M17.184 3.10055L16.9367 3.09342C16.8636 3.09127 16.792 3.1119 16.7344 3.15169C16.6768 3.19493 16.6337 3.25123 16.6096 3.3145V5.05315H15.8857V2.53392H16.5632L16.5917 2.89C16.6338 2.77874 16.7038 2.6773 16.7965 2.59334C16.8452 2.55045 16.9052 2.51904 16.9711 2.50196C17.037 2.48489 17.1067 2.48269 17.1738 2.49557C17.2011 2.50084 17.2296 2.50761 17.259 2.51512L17.184 3.10055Z" fill="#151920"/>
<path d="M18.5315 4.00164H18.3978V5.05444H17.674V1.44482H18.3978V3.51284H18.517L19.028 2.57283H19.8881L19.1247 3.69181L20.0031 5.05444H19.154L18.5315 4.00164Z" fill="#2CA656"/>
<path d="M21.4888 5.05316C21.4597 4.99504 21.4365 4.93477 21.4194 4.87305C21.4005 4.80785 21.3863 4.74167 21.3768 4.6749C21.3205 4.79159 21.2364 4.89623 21.1303 4.98171C21.0269 5.06201 20.8931 5.10485 20.7555 5.10165C20.4981 5.10165 20.3001 5.0351 20.1615 4.90201C20.023 4.76891 19.9537 4.58642 19.9537 4.35454C19.9537 4.11165 20.0447 3.92288 20.2267 3.78829C20.4087 3.65366 20.6813 3.58649 21.0447 3.58674H21.3785V3.36491C21.3785 3.23281 21.3528 3.1314 21.3014 3.06073C21.2777 3.02651 21.244 2.9986 21.2039 2.97987C21.1637 2.96114 21.1186 2.95231 21.0732 2.95431C21.034 2.95236 20.9949 2.95916 20.9595 2.9741C20.9241 2.989 20.8935 3.01156 20.8705 3.03967C20.8192 3.11294 20.795 3.19848 20.8011 3.28443L20.1028 3.2818L20.0977 3.26715C20.0906 3.15841 20.1111 3.04965 20.1578 2.94881C20.2044 2.848 20.276 2.75762 20.3672 2.68434C20.5571 2.52466 20.8078 2.44482 21.1192 2.44482C21.4116 2.44482 21.6486 2.52466 21.8303 2.68434C22.012 2.84402 22.1027 3.07251 22.1024 3.36979V4.40606C22.1018 4.51722 22.1113 4.62826 22.1309 4.73807C22.1507 4.84459 22.1805 4.94947 22.2199 5.05166L21.4888 5.05316ZM21.2197 4.51847C21.2731 4.47385 21.3131 4.41816 21.3359 4.35641V3.96275H21.0132C20.8892 3.96275 20.8003 3.99808 20.7419 4.06916C20.6822 4.14861 20.6524 4.2427 20.6567 4.33801C20.6529 4.41326 20.6779 4.48746 20.7279 4.54856C20.7954 4.62626 20.8959 4.64807 21.0293 4.61398C21.1008 4.59577 21.1661 4.56246 21.2197 4.51697V4.51847Z" fill="#2CA656"/>
<path d="M23.6778 4.39247C23.6782 4.35613 23.6696 4.32017 23.6527 4.28706C23.6358 4.25395 23.6109 4.22449 23.5799 4.2007C23.5148 4.14781 23.3887 4.08314 23.2013 4.00668C22.9101 3.91018 22.6911 3.80176 22.5443 3.68144C22.4721 3.62282 22.4151 3.5511 22.3771 3.47122C22.3392 3.39134 22.3213 3.30516 22.3246 3.21858C22.3239 3.11804 22.3487 3.01861 22.397 2.92755C22.4453 2.83649 22.516 2.75609 22.6039 2.69219C22.7904 2.54704 23.0372 2.4746 23.3444 2.47485C23.6654 2.47485 23.9219 2.55007 24.1138 2.70044C24.2062 2.77022 24.2789 2.85793 24.3265 2.95669C24.374 3.05547 24.3949 3.16261 24.3876 3.26972L24.3825 3.284H23.6599C23.665 3.19334 23.6371 3.10361 23.5803 3.02796C23.5525 2.99527 23.5159 2.96924 23.4738 2.95223C23.4317 2.93523 23.3854 2.92778 23.3393 2.93058C23.2991 2.9298 23.259 2.93603 23.2216 2.94893C23.1841 2.96184 23.1498 2.98117 23.1208 3.00578C23.0923 3.02901 23.0697 3.0573 23.0544 3.08878C23.0392 3.12027 23.0316 3.15426 23.0323 3.18852C23.0305 3.22238 23.0373 3.25619 23.052 3.2875C23.0667 3.31884 23.089 3.3469 23.1174 3.36973C23.1756 3.41562 23.3034 3.47915 23.5007 3.56038C23.8027 3.65211 24.0274 3.76002 24.1747 3.88412C24.2479 3.94644 24.3054 4.02166 24.3435 4.10489C24.3816 4.18815 24.3994 4.27756 24.3957 4.36729C24.3978 4.4694 24.3724 4.57051 24.3217 4.66229C24.2709 4.75408 24.1961 4.83388 24.1036 4.89518C23.9086 5.0323 23.6512 5.10097 23.3316 5.10122C22.9978 5.10122 22.7338 5.01702 22.5396 4.84856C22.3454 4.68012 22.2527 4.48911 22.2616 4.27553L22.2696 4.26163H22.9475C22.9509 4.39897 22.988 4.49763 23.0587 4.55753C23.1385 4.62035 23.2432 4.65269 23.3499 4.64739C23.4378 4.65279 23.5247 4.62816 23.5926 4.57859C23.621 4.55468 23.6432 4.52572 23.6579 4.49363C23.6726 4.46155 23.6794 4.42706 23.6778 4.39247Z" fill="#2CA656"/>
<path d="M25.9109 4.39247C25.9112 4.35611 25.9025 4.32015 25.8856 4.28703C25.8686 4.25392 25.8436 4.22446 25.8125 4.2007C25.7475 4.14781 25.6213 4.08314 25.4339 4.00668C25.1427 3.91018 24.9237 3.80176 24.7769 3.68144C24.7047 3.62282 24.6477 3.5511 24.6098 3.47122C24.5719 3.39134 24.5539 3.30516 24.5572 3.21858C24.5565 3.11804 24.5813 3.01861 24.6296 2.92755C24.6779 2.83649 24.7486 2.75609 24.8365 2.69219C25.023 2.54704 25.2698 2.4746 25.577 2.47485C25.8983 2.47485 26.1548 2.55007 26.3464 2.70044C26.4388 2.77024 26.5115 2.85795 26.5591 2.95671C26.6067 3.05547 26.6278 3.16258 26.6207 3.26972L26.616 3.28553H25.8947C25.8996 3.19492 25.8719 3.10524 25.8154 3.02946C25.7876 2.99683 25.751 2.97082 25.7089 2.95383C25.6668 2.93683 25.6206 2.92935 25.5744 2.93208C25.5341 2.93125 25.4941 2.93748 25.4565 2.95038C25.419 2.96329 25.3846 2.98262 25.3556 3.00728C25.3271 3.03056 25.3046 3.05885 25.2893 3.09033C25.274 3.12182 25.2665 3.15578 25.267 3.19002C25.2654 3.22388 25.2722 3.25764 25.2869 3.28895C25.3016 3.32027 25.3239 3.34835 25.3522 3.37123C25.4104 3.41712 25.5381 3.48067 25.7354 3.56188C26.0386 3.65338 26.2634 3.76065 26.4099 3.88374C26.4832 3.94601 26.5408 4.02124 26.5789 4.10449C26.6171 4.18772 26.6349 4.27716 26.6313 4.36691C26.6334 4.46915 26.6079 4.57036 26.5569 4.66222C26.506 4.75408 26.4311 4.8339 26.3383 4.89518C26.1433 5.0323 25.886 5.10097 25.5664 5.10122C25.2325 5.10122 24.9685 5.01702 24.7744 4.84856C24.5802 4.68012 24.4875 4.48911 24.4963 4.27553L24.5044 4.26163H25.1823C25.1857 4.39897 25.2227 4.49763 25.2934 4.55753C25.3733 4.62043 25.4782 4.65274 25.5851 4.64739C25.6729 4.65274 25.7596 4.62811 25.8274 4.57859C25.8554 4.55455 25.8774 4.52554 25.8918 4.49346C25.9061 4.46137 25.9126 4.42693 25.9109 4.39247Z" fill="#2CA656"/>
<path d="M28.2594 5.05316C28.2303 4.99504 28.2071 4.93477 28.19 4.87305C28.1711 4.80785 28.1569 4.74167 28.1474 4.6749C28.0911 4.79159 28.007 4.89623 27.9009 4.98171C27.7976 5.06201 27.6637 5.10485 27.5262 5.10165C27.2687 5.10165 27.0707 5.0351 26.9322 4.90201C26.7936 4.76891 26.7244 4.58642 26.7244 4.35454C26.7244 4.11165 26.8153 3.92288 26.9973 3.78829C27.1793 3.65366 27.452 3.58649 27.8153 3.58674H28.1491V3.36491C28.1491 3.23281 28.1234 3.1314 28.0721 3.06073C28.0483 3.02651 28.0146 2.9986 27.9745 2.97987C27.9343 2.96114 27.8892 2.95231 27.8438 2.95431C27.8047 2.95236 27.7655 2.95916 27.7301 2.9741C27.6947 2.989 27.6641 3.01156 27.6411 3.03967C27.5899 3.11294 27.5656 3.19848 27.5717 3.28443L26.8734 3.2818L26.8683 3.26715C26.8612 3.15841 26.8818 3.04965 26.9284 2.94881C26.975 2.848 27.0466 2.75762 27.1378 2.68434C27.3277 2.52466 27.5784 2.44482 27.8898 2.44482C28.1822 2.44482 28.4192 2.52466 28.6009 2.68434C28.7826 2.84402 28.8733 3.07251 28.873 3.36979V4.40606C28.8724 4.51722 28.882 4.62826 28.9015 4.73807C28.9213 4.84459 28.9511 4.94947 28.9905 5.05166L28.2594 5.05316ZM28.0329 4.51847C28.0863 4.47385 28.1263 4.41816 28.1491 4.35641V3.96275H27.8264C27.7025 3.96275 27.6135 3.99808 27.5551 4.06916C27.4954 4.14861 27.4656 4.2427 27.47 4.33801C27.4661 4.41326 27.4911 4.48746 27.5411 4.54856C27.6088 4.62638 27.7114 4.64819 27.843 4.61398C27.9142 4.59567 27.9794 4.56239 28.0329 4.51697V4.51847Z" fill="#2CA656"/>
<path d="M9.11526 6.29197C9.11589 6.3489 9.10741 6.40561 9.09014 6.46044C9.07578 6.50855 9.05106 6.55373 9.01734 6.59352C8.98614 6.62952 8.94609 6.65878 8.90024 6.67906C8.85082 6.70002 8.79658 6.71047 8.74183 6.7096C8.67951 6.71088 8.61765 6.7002 8.56044 6.67831C8.51071 6.65875 8.46695 6.62905 8.43269 6.59161V7.00626H8.34753V5.87735H8.42544L8.43398 5.99042C8.46658 5.95005 8.50965 5.91723 8.55958 5.89467C8.61599 5.87033 8.67823 5.85844 8.74097 5.86C8.79616 5.85915 8.85085 5.8692 8.90107 5.88941C8.94726 5.90874 8.98765 5.93739 9.01903 5.97307C9.05263 6.01223 9.07735 6.05678 9.09185 6.10424C9.10926 6.16022 9.11771 6.21808 9.11697 6.27612L9.11526 6.29197ZM8.98751 6.27424C8.98791 6.22846 8.9822 6.18278 8.9705 6.13818C8.96062 6.099 8.9432 6.06164 8.91897 6.02772C8.8965 5.99756 8.8663 5.97249 8.83081 5.95462C8.79242 5.93624 8.74928 5.92701 8.70563 5.92784C8.6714 5.92741 8.63735 5.93188 8.60472 5.94103C8.5772 5.94915 8.55133 5.96113 8.52807 5.97648C8.5066 5.99104 8.48779 6.00847 8.47229 6.0281C8.45693 6.0471 8.44405 6.06758 8.43398 6.08917V6.49136C8.44522 6.51262 8.45955 6.53252 8.47654 6.55055C8.49333 6.5687 8.51314 6.58447 8.53532 6.59728C8.55881 6.61114 8.58471 6.6216 8.61197 6.62819C8.64326 6.63606 8.67566 6.63988 8.7082 6.6395C8.75159 6.6406 8.79453 6.63135 8.83253 6.61272C8.86778 6.59467 8.8977 6.5695 8.91982 6.53924C8.94397 6.50527 8.96139 6.46794 8.97135 6.42878C8.98274 6.3839 8.98819 6.33797 8.98751 6.29197V6.27424Z" fill="#868B95"/>
<path d="M9.86863 6.70602C9.86309 6.6785 9.85841 6.66116 9.85544 6.64084C9.85198 6.62025 9.84987 6.59947 9.84904 6.57868C9.83334 6.59619 9.81581 6.61233 9.79666 6.62689C9.77476 6.64277 9.7509 6.65643 9.72555 6.66758C9.66717 6.69299 9.60285 6.70589 9.53776 6.70526C9.4962 6.70579 9.45486 6.69993 9.41555 6.68792C9.38092 6.6773 9.34895 6.66079 9.32146 6.63931C9.29619 6.61857 9.27578 6.59361 9.26142 6.56587C9.24615 6.5341 9.23893 6.49977 9.24027 6.46529C9.24158 6.43079 9.25143 6.39696 9.26907 6.36619C9.28969 6.33332 9.31889 6.30531 9.35426 6.28446C9.39457 6.2605 9.43942 6.24316 9.48666 6.23322C9.54467 6.22372 9.60325 6.21731 9.66211 6.214H9.83925V6.12247C9.84436 6.09753 9.84228 6.07185 9.8332 6.04782C9.82412 6.02379 9.80833 6.00217 9.7873 5.98495C9.73739 5.94875 9.67371 5.9308 9.6093 5.93484C9.57573 5.93456 9.54227 5.93875 9.5101 5.94729C9.48192 5.95506 9.45555 5.96716 9.43217 5.98307C9.41104 5.99703 9.3936 6.0149 9.38107 6.03544C9.36865 6.05551 9.36234 6.07811 9.36277 6.10099H9.26014C9.25988 6.06907 9.26867 6.0376 9.28569 6.00943C9.30393 5.98034 9.32854 5.95473 9.35809 5.93409C9.39146 5.91056 9.4292 5.89232 9.46965 5.88021C9.51624 5.86623 9.5652 5.85934 9.61441 5.85989C9.66009 5.85952 9.70556 5.86511 9.74941 5.87646C9.78832 5.88645 9.82455 5.90337 9.85584 5.92619C9.88564 5.94897 9.90922 5.97744 9.92484 6.00943C9.9336 6.04772 9.9336 6.08719 9.92484 6.12547V6.52105C9.93706 6.53382 9.94619 6.54871 9.95167 6.56474C9.95167 6.58018 9.95464 6.59449 9.95718 6.60882C9.95975 6.62313 9.96272 6.63631 9.96614 6.64911C9.96954 6.66194 9.9738 6.67324 9.96614 6.68264V6.70526L9.86863 6.70602ZM9.54119 6.63067C9.57587 6.63094 9.61044 6.62676 9.64379 6.61824C9.67391 6.61047 9.70257 6.59892 9.72897 6.58394C9.75392 6.56996 9.77645 6.55284 9.7958 6.5331C9.81416 6.5141 9.82935 6.49293 9.84094 6.47018V6.2916H9.66594C9.61887 6.29112 9.57188 6.29528 9.52586 6.30405C9.48892 6.31069 9.45349 6.3228 9.42109 6.33983C9.39443 6.35377 9.37204 6.37331 9.35594 6.39671C9.34076 6.41951 9.33296 6.4456 9.33339 6.47206C9.33314 6.49331 9.33799 6.51438 9.34761 6.53385C9.35723 6.55332 9.37139 6.57078 9.38917 6.58507C9.40819 6.6 9.43031 6.6115 9.45432 6.61899C9.48227 6.62739 9.51167 6.63132 9.54119 6.63067Z" fill="#868B95"/>
<path d="M10.4428 6.56283L10.7123 5.8772H10.8222L10.4313 6.8248C10.4236 6.84365 10.4134 6.86251 10.401 6.88775C10.3887 6.91124 10.3726 6.93308 10.3533 6.95258C10.3328 6.97349 10.3079 6.99074 10.2801 7.00348C10.2468 7.01814 10.21 7.02526 10.1728 7.02421H10.1532L10.1311 7.02155C10.124 7.02085 10.1171 7.01972 10.1102 7.01817L10.0944 7.01478V6.9394C10.1013 6.9394 10.1106 6.94128 10.1221 6.94241C10.1305 6.94278 10.1389 6.94278 10.1472 6.94241C10.1719 6.94281 10.1965 6.93962 10.2201 6.93298C10.2403 6.92704 10.259 6.91754 10.275 6.9051C10.2918 6.89171 10.3062 6.87607 10.3176 6.85872C10.3303 6.83806 10.3412 6.8165 10.3499 6.79426L10.3925 6.68646L10.0442 5.8772H10.1558L10.4428 6.56283Z" fill="#868B95"/>
<path d="M11.0857 5.87758L11.0891 6.0122C11.104 5.98996 11.1217 5.96928 11.1419 5.95052C11.1614 5.93188 11.1839 5.91593 11.2087 5.90315C11.2339 5.88971 11.2612 5.87958 11.2896 5.87306C11.3203 5.86565 11.3519 5.862 11.3837 5.86215C11.4433 5.8606 11.5023 5.87363 11.5541 5.89977C11.604 5.92786 11.6404 5.97145 11.6558 6.02198C11.6706 5.99897 11.6883 5.97751 11.7086 5.95805C11.7291 5.93836 11.7526 5.92125 11.7785 5.90727C11.8049 5.89267 11.8336 5.88141 11.8636 5.87381C11.8967 5.86535 11.931 5.86118 11.9654 5.8614C12.0088 5.8606 12.052 5.86645 12.0931 5.87871C12.1291 5.88939 12.1613 5.90805 12.1868 5.93286C12.2139 5.9602 12.2339 5.99239 12.2456 6.02725C12.2598 6.072 12.2666 6.11837 12.2656 6.16487V6.70488H12.1804V6.17127C12.1815 6.13486 12.1759 6.09854 12.1638 6.06372C12.1542 6.03814 12.1379 6.01492 12.1161 5.99604C12.0954 5.97898 12.07 5.96695 12.0424 5.96105C12.0118 5.95437 11.9804 5.95109 11.9488 5.95129C11.9086 5.95097 11.8687 5.958 11.8317 5.97195C11.8001 5.98406 11.7712 6.00114 11.7465 6.02235C11.7239 6.04206 11.7056 6.06525 11.6925 6.09079C11.6801 6.11375 11.6723 6.13843 11.6694 6.16375V6.70488H11.5843V6.1645C11.5853 6.12995 11.5797 6.09549 11.5677 6.0626C11.5579 6.03766 11.5414 6.01517 11.5196 5.99717C11.4985 5.98041 11.4733 5.9683 11.4459 5.9618C11.4149 5.95444 11.383 5.95089 11.3509 5.95129C11.3147 5.95062 11.2788 5.95612 11.2449 5.96745C11.2155 5.97756 11.1884 5.99221 11.1649 6.0107C11.1425 6.02856 11.1235 6.04952 11.1087 6.07275C11.0941 6.09541 11.0823 6.11935 11.0733 6.14419V6.70488H10.9882V5.87758H11.0857Z" fill="#868B95"/>
<path d="M12.8567 6.70477C12.7994 6.70539 12.7427 6.69526 12.6902 6.67505C12.6405 6.65582 12.5958 6.62763 12.559 6.59232C12.5216 6.55552 12.4927 6.51258 12.4739 6.46598C12.4569 6.41335 12.4445 6.35968 12.4368 6.3054V6.27456C12.4358 6.21639 12.4468 6.15856 12.4692 6.10383C12.4886 6.05581 12.5182 6.01154 12.5565 5.97334C12.592 5.93808 12.6355 5.90976 12.6842 5.89023C12.7316 5.87057 12.7835 5.86054 12.8358 5.86091C12.89 5.85989 12.9438 5.86939 12.9934 5.88873C13.0381 5.90649 13.0777 5.93297 13.1092 5.96619C13.1415 6.00111 13.1655 6.04138 13.1799 6.08465C13.1966 6.1334 13.2048 6.18414 13.2042 6.23507V6.2911H12.5216V6.3069C12.5392 6.3483 12.5544 6.39047 12.5671 6.43326C12.5813 6.47083 12.6033 6.50567 12.6323 6.53591C12.6596 6.56493 12.6936 6.58851 12.7319 6.6051C12.7717 6.62208 12.8155 6.63071 12.8597 6.63031C12.9094 6.63126 12.9588 6.62225 13.004 6.60397C13.0492 6.58321 13.0881 6.55332 13.1177 6.51673L13.1816 6.55997C13.1658 6.57991 13.1479 6.59854 13.1284 6.61563C13.1072 6.63366 13.0835 6.64909 13.0576 6.66152C13.0292 6.67528 12.9989 6.68566 12.9674 6.69234C12.9312 6.70044 12.894 6.70462 12.8567 6.70477ZM12.8541 5.93913C12.8171 5.93895 12.7804 5.94563 12.7464 5.95869C12.7141 5.97219 12.6852 5.99125 12.6612 6.01471C12.6348 6.04018 12.6138 6.06959 12.5991 6.10158C12.5822 6.13767 12.571 6.17562 12.5659 6.21438H13.1194V6.2046C13.1184 6.17091 13.1121 6.1375 13.1007 6.10533C13.09 6.07472 13.0731 6.04605 13.0509 6.02072C13.0287 5.99603 13.0008 5.97577 12.9691 5.96131C12.9334 5.94578 12.8939 5.93818 12.8541 5.93913Z" fill="#868B95"/>
<path d="M13.4684 5.87701L13.4718 6.01843C13.4872 5.99539 13.5053 5.97383 13.5258 5.95412C13.546 5.93497 13.5689 5.91828 13.594 5.90448C13.619 5.89047 13.6463 5.87984 13.6749 5.87289C13.7048 5.86526 13.7357 5.86146 13.7669 5.86161C13.808 5.86108 13.8489 5.86681 13.8878 5.87854C13.9226 5.88942 13.9537 5.90778 13.9785 5.93191C14.0049 5.95938 14.0242 5.99159 14.0351 6.02631C14.0492 6.07173 14.0558 6.11873 14.0547 6.16583V6.70433H13.9695V6.17148C13.9707 6.13586 13.9653 6.10032 13.9538 6.06618C13.9448 6.04074 13.9294 6.01745 13.9087 5.99812C13.8889 5.98051 13.8644 5.96758 13.8375 5.9605C13.8072 5.95302 13.7758 5.94937 13.7443 5.9496C13.7092 5.9491 13.6744 5.9546 13.6417 5.96578C13.612 5.97604 13.5845 5.99067 13.5603 6.00903C13.5367 6.02696 13.5162 6.04787 13.4995 6.07106C13.482 6.09349 13.4677 6.11775 13.4569 6.14327V6.70433H13.3717V5.87701H13.4684Z" fill="#868B95"/>
<path d="M14.4805 5.65186V5.87726H14.6508V5.9524H14.4805V6.49225C14.4794 6.51561 14.4827 6.53898 14.4903 6.56139C14.4954 6.57656 14.5044 6.59045 14.5167 6.60194C14.5273 6.61134 14.5405 6.61806 14.555 6.62148C14.5699 6.62483 14.5852 6.62648 14.6006 6.62638C14.6148 6.62638 14.6291 6.62551 14.6432 6.62373L14.6815 6.61886L14.6857 6.694C14.6699 6.69877 14.6535 6.70192 14.6368 6.70339C14.6169 6.70564 14.5968 6.70676 14.5767 6.70676C14.5495 6.70699 14.5224 6.70357 14.4963 6.69662C14.4719 6.69015 14.4498 6.67808 14.4324 6.66169C14.4128 6.64287 14.3982 6.62041 14.3898 6.59595C14.3852 6.56194 14.3861 6.52753 14.3924 6.49375V5.9524H14.222V5.87726H14.3924V5.65186H14.4805Z" fill="#868B95"/>
<path d="M16.0132 6.29197C16.0139 6.3488 16.006 6.40546 15.9897 6.46044C15.9763 6.50738 15.9532 6.55173 15.9216 6.59124C15.8928 6.62686 15.855 6.65615 15.8114 6.6768C15.7656 6.69774 15.7147 6.70824 15.6632 6.70734C15.6044 6.70862 15.5461 6.69791 15.4928 6.67605C15.4462 6.65587 15.4056 6.62616 15.3745 6.58936V7.00398H15.2893V5.87735H15.3676L15.3745 5.99042C15.4045 5.95058 15.445 5.91774 15.4924 5.89467C15.5449 5.87038 15.6036 5.85844 15.6627 5.86C15.7146 5.85915 15.766 5.86922 15.8126 5.88941C15.8566 5.90911 15.8947 5.93779 15.9237 5.97307C15.9555 6.01265 15.9786 6.05715 15.9919 6.10424C16.0083 6.16037 16.0162 6.21816 16.0153 6.27612L16.0132 6.29197ZM15.928 6.27424C15.9284 6.22834 15.9227 6.18253 15.911 6.13781C15.901 6.09877 15.8836 6.06154 15.8595 6.02772C15.8371 5.99746 15.8069 5.97239 15.7713 5.95462C15.7329 5.93624 15.6898 5.92701 15.6461 5.92784C15.6119 5.92741 15.5778 5.93188 15.5452 5.94103C15.4914 5.95629 15.4448 5.98693 15.4128 6.0281C15.3973 6.04705 15.3845 6.06753 15.3745 6.08917V6.49136C15.3857 6.51262 15.4 6.5325 15.4171 6.55055C15.4338 6.5687 15.4536 6.58444 15.4758 6.59728C15.4994 6.61112 15.5253 6.62167 15.5525 6.62857C15.5838 6.63632 15.6162 6.64 15.6487 6.6395C15.692 6.64053 15.7349 6.63143 15.773 6.6131C15.8084 6.59437 15.8383 6.56855 15.8603 6.53771C15.8845 6.50377 15.9019 6.46641 15.9118 6.42728C15.9231 6.38287 15.9285 6.33747 15.928 6.29197V6.27424Z" fill="#868B95"/>
<path d="M16.6471 5.95239C16.6244 5.94899 16.6013 5.94737 16.5781 5.94752C16.5461 5.94712 16.5143 5.95169 16.4841 5.96105C16.4578 5.97075 16.433 5.98341 16.4104 5.99867C16.372 6.02593 16.3387 6.05827 16.3116 6.09456V6.7045H16.2264V5.87718H16.3116V6.00542C16.3414 5.96428 16.3795 5.92833 16.424 5.89937C16.4712 5.87286 16.5265 5.85975 16.5824 5.86178C16.5953 5.86188 16.6081 5.86288 16.6207 5.86478C16.6307 5.8659 16.6404 5.86818 16.6497 5.87156L16.6471 5.95239Z" fill="#868B95"/>
<path d="M16.7373 6.27037C16.7368 6.21555 16.7466 6.16102 16.7663 6.10905C16.7838 6.06222 16.8116 6.0189 16.848 5.98156C16.8831 5.94567 16.9268 5.91705 16.9758 5.89769C17.0278 5.87691 17.0843 5.86653 17.1414 5.86723C17.1992 5.86643 17.2565 5.87683 17.3092 5.89769C17.3583 5.91698 17.4019 5.94562 17.4369 5.98156C17.4734 6.01885 17.501 6.0622 17.5183 6.10905C17.5379 6.16105 17.5475 6.21557 17.5468 6.27037V6.29481C17.5475 6.34949 17.5378 6.40386 17.5183 6.45576C17.501 6.50271 17.4734 6.54618 17.4369 6.58362C17.4018 6.61939 17.3582 6.6479 17.3092 6.66709C17.2565 6.6867 17.1999 6.6968 17.1427 6.6968C17.0855 6.6968 17.0289 6.6867 16.9762 6.66709C16.9273 6.64775 16.8837 6.61927 16.8485 6.58362C16.8118 6.54618 16.7839 6.50273 16.7663 6.45576C16.7466 6.40389 16.7368 6.34951 16.7373 6.29481V6.27037ZM16.8225 6.29519C16.8222 6.33971 16.8292 6.38405 16.8434 6.4268C16.8565 6.46622 16.8774 6.50326 16.9051 6.53623C16.9319 6.56742 16.966 6.59308 17.0052 6.61144C17.0476 6.63045 17.0947 6.64 17.1423 6.63928C17.1897 6.64005 17.2367 6.6305 17.279 6.61144C17.318 6.59308 17.352 6.56739 17.3786 6.53623C17.4065 6.50336 17.4275 6.46629 17.4403 6.4268C17.4545 6.38405 17.4615 6.33971 17.4612 6.29519V6.26962C17.4615 6.2257 17.4544 6.18198 17.4403 6.13989C17.4273 6.10032 17.4064 6.06312 17.3786 6.03006C17.3517 5.99887 17.3174 5.97321 17.2781 5.95485C17.2356 5.93554 17.1883 5.92586 17.1406 5.92666C17.0933 5.92586 17.0466 5.93556 17.0048 5.95485C16.9658 5.97333 16.9318 5.99897 16.9051 6.03006C16.8774 6.0632 16.8565 6.10037 16.8434 6.13989C16.8292 6.18198 16.8222 6.2257 16.8225 6.26962V6.29519Z" fill="#868B95"/>
<path d="M18.0652 6.63064C18.0969 6.63074 18.1283 6.62653 18.1585 6.61821C18.1875 6.60989 18.2146 6.59714 18.2385 6.58052C18.262 6.56409 18.2815 6.54374 18.296 6.52061C18.3114 6.49593 18.3202 6.46852 18.322 6.44038H18.4199C18.4179 6.47714 18.4067 6.51302 18.3871 6.54549C18.3678 6.57794 18.3415 6.60673 18.3096 6.63026C18.2766 6.65442 18.239 6.67318 18.1985 6.68564C18.0992 6.71573 17.9907 6.7117 17.8945 6.67434C17.8466 6.65419 17.8045 6.6247 17.7714 6.58807C17.737 6.5496 17.7114 6.50558 17.6961 6.45847C17.6786 6.40645 17.6711 6.3522 17.6739 6.29798V6.26634C17.6711 6.21211 17.6786 6.15786 17.6961 6.10585C17.7114 6.05901 17.7368 6.01527 17.771 5.977C17.8041 5.94027 17.8462 5.91065 17.8941 5.89036C17.9474 5.86851 18.0056 5.85768 18.0644 5.85871C18.1112 5.85833 18.1578 5.8652 18.2019 5.87906C18.2427 5.89204 18.2803 5.91186 18.3126 5.93746C18.3446 5.9632 18.3702 5.99449 18.388 6.02937C18.406 6.06405 18.4166 6.10131 18.4195 6.13937H18.3216C18.3186 6.11211 18.3104 6.08547 18.2973 6.06064C18.284 6.03531 18.2652 6.01253 18.242 5.99359C18.2185 5.97482 18.1912 5.96024 18.1615 5.95064C18.1302 5.94072 18.0972 5.93573 18.064 5.93593C18.0172 5.93458 17.9708 5.94405 17.9294 5.96345C17.8932 5.98104 17.8624 6.00609 17.8396 6.03654C17.8153 6.06869 17.7981 6.10459 17.7889 6.1424C17.7782 6.18006 17.7731 6.22339 17.7587 6.26671V6.29836C17.7731 6.34206 17.7782 6.38425 17.7889 6.42419C17.7981 6.4618 17.8151 6.49759 17.8391 6.52966C17.8621 6.56013 17.8931 6.58521 17.9294 6.60275C17.9713 6.62207 18.018 6.63166 18.0652 6.63064Z" fill="#868B95"/>
<path d="M18.9603 6.70476C18.9033 6.70536 18.8466 6.69523 18.7943 6.67507C18.7446 6.65581 18.6999 6.62765 18.6631 6.59233C18.6257 6.55551 18.5968 6.51259 18.578 6.46597C18.5656 6.41319 18.5625 6.35904 18.5686 6.30539V6.27458C18.5677 6.21652 18.5781 6.1588 18.5993 6.10385C18.6173 6.05622 18.6451 6.01198 18.6814 5.97336C18.7145 5.93854 18.7554 5.91023 18.8015 5.89024C18.8459 5.87066 18.895 5.8606 18.9446 5.8609C18.996 5.85995 19.047 5.86948 19.0936 5.88874C19.1362 5.90683 19.1735 5.93334 19.2026 5.9662C19.2334 6.00157 19.2562 6.04177 19.2699 6.08466C19.2854 6.13361 19.2931 6.18426 19.2925 6.23508V6.29111H18.6533V6.30692C18.6488 6.34966 18.6549 6.39281 18.6712 6.43325C18.6853 6.47085 18.7074 6.50569 18.7364 6.53593C18.7637 6.56494 18.7977 6.58853 18.836 6.60511C18.8758 6.62209 18.9196 6.63072 18.9638 6.63032C19.0135 6.63125 19.0629 6.62227 19.1081 6.60399C19.1531 6.58403 19.1922 6.55506 19.2222 6.51937L19.2861 6.56262C19.2703 6.58255 19.2525 6.60118 19.2329 6.61827C19.2118 6.6363 19.188 6.65173 19.1622 6.66416C19.1338 6.67792 19.1034 6.6883 19.0719 6.69498C19.0353 6.70226 18.9979 6.70553 18.9603 6.70476ZM18.9433 5.93914C18.9063 5.93897 18.8696 5.94562 18.8356 5.95868C18.8033 5.97221 18.7744 5.99124 18.7504 6.01473C18.724 6.04019 18.703 6.0696 18.6883 6.10159C18.6714 6.13764 18.6603 6.17563 18.6555 6.2144H19.209V6.20462C19.208 6.17093 19.2017 6.13751 19.1903 6.10535C19.1796 6.07473 19.1627 6.04607 19.1405 6.02073C19.1183 5.99602 19.0904 5.97576 19.0587 5.96133C19.0229 5.94574 18.9833 5.93812 18.9433 5.93914Z" fill="#868B95"/>
<path d="M20.0377 6.49914C20.0376 6.48145 20.0341 6.4639 20.0274 6.44724C20.0191 6.42835 20.0058 6.41147 19.9887 6.39796C19.9654 6.37963 19.9388 6.36489 19.9099 6.35434C19.8679 6.33851 19.8241 6.32678 19.7792 6.31937C19.7305 6.31049 19.6826 6.29881 19.6357 6.2844C19.5976 6.27317 19.5616 6.25709 19.5288 6.23663C19.5014 6.2193 19.4789 6.19648 19.4633 6.17007C19.4478 6.14171 19.4402 6.11052 19.4411 6.07907C19.441 6.04778 19.4489 6.01692 19.4645 5.9888C19.4806 5.95956 19.5038 5.93385 19.5327 5.91362C19.5646 5.8912 19.601 5.87425 19.64 5.86359C19.6858 5.85061 19.7337 5.84428 19.7818 5.84478C19.8329 5.84406 19.8838 5.85066 19.9325 5.86434C19.9736 5.8756 20.0119 5.89373 20.0453 5.91774C20.0753 5.93988 20.0993 5.96762 20.1156 5.99896C20.1316 6.0308 20.1398 6.06529 20.1394 6.10014H20.0321C20.0321 6.07762 20.0264 6.05541 20.0155 6.03508C20.0041 6.01374 19.9877 5.99478 19.9674 5.97942C19.9438 5.96302 19.9171 5.95028 19.8886 5.94181C19.8542 5.93147 19.8181 5.92637 19.7818 5.92677C19.7455 5.92602 19.7094 5.9306 19.6749 5.9403C19.6484 5.94776 19.6239 5.95961 19.6025 5.97527C19.5842 5.98798 19.5696 6.00434 19.5599 6.02305C19.5516 6.03975 19.5473 6.05781 19.5471 6.07607C19.5467 6.09376 19.55 6.11134 19.5569 6.12795C19.5649 6.14523 19.578 6.16029 19.5948 6.17157C19.6188 6.18756 19.6453 6.20024 19.6736 6.20919C19.7167 6.22295 19.7608 6.23425 19.8056 6.24303C19.857 6.25329 19.9075 6.26672 19.9567 6.28328C19.9946 6.29584 20.0301 6.31347 20.0619 6.33556C20.0882 6.35434 20.1093 6.37813 20.1237 6.40512C20.1375 6.43375 20.1443 6.46462 20.1437 6.49574C20.144 6.52925 20.1355 6.56237 20.1186 6.59239C20.1016 6.622 20.0771 6.64774 20.047 6.6676C20.013 6.68961 19.9748 6.70602 19.9342 6.71612C19.8323 6.74029 19.7249 6.73911 19.6238 6.71272C19.5806 6.70044 19.5403 6.68118 19.505 6.65594C19.474 6.63393 19.4491 6.60604 19.4322 6.57435C19.4159 6.54444 19.4074 6.51164 19.4075 6.47845H19.5148C19.516 6.50822 19.5261 6.53716 19.5442 6.56232C19.5608 6.58436 19.5829 6.60277 19.6089 6.61607C19.6352 6.62993 19.664 6.63971 19.694 6.64504C19.7246 6.65067 19.7557 6.65357 19.7869 6.65369C19.8231 6.65427 19.8593 6.64994 19.8942 6.64091C19.9224 6.63386 19.9489 6.6224 19.9725 6.60707C19.9923 6.59409 20.0086 6.57738 20.0202 6.55817C20.0314 6.54006 20.0374 6.51977 20.0377 6.49914Z" fill="#868B95"/>
<path d="M20.891 6.49914C20.8909 6.48145 20.8875 6.46389 20.8808 6.44724C20.8724 6.42835 20.8592 6.41147 20.8421 6.39796C20.8187 6.37963 20.7921 6.36489 20.7633 6.35434C20.7213 6.33851 20.6774 6.32678 20.6325 6.31937C20.5838 6.31049 20.5357 6.29879 20.4886 6.2844C20.4507 6.2731 20.4148 6.25702 20.3822 6.23663C20.3547 6.2193 20.3323 6.19648 20.3166 6.17007C20.3012 6.14171 20.2936 6.11052 20.2945 6.07907C20.2943 6.04778 20.3023 6.01692 20.3179 5.9888C20.3339 5.95956 20.3572 5.93385 20.386 5.91362C20.418 5.8912 20.4544 5.87425 20.4933 5.86359C20.5391 5.85061 20.587 5.84428 20.6351 5.84478C20.6862 5.84406 20.7371 5.85066 20.7858 5.86434C20.827 5.8756 20.8653 5.89373 20.8987 5.91774C20.9286 5.93988 20.9526 5.96762 20.9689 5.99896C20.985 6.0308 20.9931 6.06529 20.9928 6.10014H20.8855C20.8854 6.07762 20.8797 6.05541 20.8689 6.03508C20.8574 6.01374 20.8411 5.99478 20.8208 5.97942C20.7971 5.96302 20.7705 5.95028 20.742 5.94181C20.7076 5.93147 20.6714 5.92637 20.6351 5.92677C20.5989 5.92602 20.5627 5.9306 20.5282 5.9403C20.5018 5.94776 20.4772 5.95961 20.4558 5.97527C20.4375 5.98798 20.4229 6.00434 20.4132 6.02305C20.4048 6.03973 20.4003 6.05779 20.4001 6.07607C20.3998 6.09378 20.4032 6.11137 20.4103 6.12795C20.4182 6.14523 20.4313 6.16029 20.4482 6.17157C20.4721 6.18755 20.4987 6.20024 20.5269 6.20919C20.5701 6.22295 20.6142 6.23425 20.659 6.24303C20.7103 6.25329 20.7609 6.26672 20.8101 6.28328C20.848 6.29583 20.8834 6.31347 20.9153 6.33556C20.9418 6.35379 20.9633 6.37705 20.9783 6.40361C20.9921 6.43225 20.9989 6.46312 20.9983 6.49424C20.9987 6.52775 20.9901 6.56087 20.9732 6.59088C20.9562 6.6205 20.9318 6.64624 20.9017 6.6661C20.8676 6.68808 20.8294 6.70452 20.7888 6.71462C20.687 6.73878 20.5795 6.73761 20.4784 6.71122C20.4352 6.69894 20.3949 6.67968 20.3596 6.65444C20.3287 6.63243 20.3038 6.60454 20.2868 6.57283C20.2705 6.54291 20.2621 6.51014 20.2621 6.47695H20.3694C20.3706 6.50669 20.3807 6.53566 20.3988 6.56079C20.4154 6.58286 20.4375 6.60126 20.4635 6.61457C20.4898 6.62843 20.5186 6.63821 20.5486 6.64354C20.5792 6.64916 20.6103 6.65207 20.6415 6.65219C20.6778 6.65277 20.714 6.64844 20.7488 6.63941C20.7769 6.63243 20.8033 6.62095 20.8267 6.60557C20.8467 6.59269 20.8632 6.57598 20.8748 6.55667C20.8853 6.53891 20.8909 6.51917 20.891 6.49914Z" fill="#868B95"/>
<path d="M21.1683 5.63884C21.168 5.63092 21.1695 5.62299 21.1727 5.61557C21.1758 5.60815 21.1807 5.60138 21.1869 5.59563C21.1933 5.58961 21.2012 5.58489 21.21 5.58184C21.2187 5.57879 21.2281 5.57747 21.2375 5.57799C21.247 5.57752 21.2564 5.57884 21.2652 5.58189C21.274 5.58494 21.282 5.58964 21.2886 5.59563C21.2983 5.60425 21.3049 5.6153 21.3075 5.62729C21.31 5.63931 21.3084 5.65171 21.3029 5.6629C21.2974 5.67407 21.2882 5.68351 21.2765 5.68994C21.2648 5.69638 21.2512 5.69953 21.2375 5.69896C21.2284 5.69948 21.2193 5.69831 21.2107 5.69551C21.2022 5.69268 21.1944 5.68831 21.1878 5.68264C21.1813 5.67697 21.1762 5.67015 21.1728 5.6626C21.1695 5.65505 21.1679 5.64696 21.1683 5.63884ZM21.2924 6.70389H21.208V5.87741H21.2924V6.70389Z" fill="#868B95"/>
<path d="M21.6443 5.87704L21.6472 6.01843C21.6627 5.9954 21.6808 5.97384 21.7013 5.95413C21.7215 5.93507 21.7444 5.91839 21.7695 5.90448C21.7945 5.89055 21.8218 5.87992 21.8504 5.87289C21.8802 5.86526 21.9112 5.86146 21.9423 5.86161C21.9834 5.86106 22.0244 5.86679 22.0633 5.87854C22.0981 5.88932 22.1293 5.90768 22.154 5.93194C22.1804 5.95938 22.1997 5.9916 22.2106 6.02631C22.2247 6.07176 22.2313 6.11873 22.2302 6.16583V6.70434H22.145V6.17148C22.1461 6.13586 22.1408 6.10032 22.1293 6.06618C22.1203 6.04074 22.1049 6.01746 22.0841 5.99812C22.0643 5.98054 22.0399 5.96761 22.013 5.96051C21.9827 5.95303 21.9513 5.94938 21.9198 5.9496C21.8847 5.9491 21.8498 5.9546 21.8172 5.96578C21.7875 5.97606 21.76 5.99067 21.7358 6.00903C21.7122 6.02706 21.6915 6.04795 21.6745 6.07108C21.6571 6.09359 21.6429 6.11781 21.6319 6.14327V6.70434H21.5468V5.87704H21.6443Z" fill="#868B95"/>
<path d="M22.4428 6.27662C22.442 6.21861 22.4502 6.1608 22.4671 6.10474C22.4811 6.05753 22.5049 6.01303 22.5374 5.97357C22.5666 5.93834 22.6049 5.90969 22.6489 5.88988C22.6954 5.8698 22.7466 5.85972 22.7984 5.8605C22.8576 5.85887 22.9164 5.87093 22.9687 5.89555C23.0161 5.91904 23.0562 5.95258 23.0854 5.99317L23.0905 5.87556H23.1667V6.67693C23.1696 6.72539 23.1613 6.77385 23.1425 6.81941C23.1265 6.85929 23.1011 6.89567 23.0679 6.92608C23.035 6.95574 22.9952 6.97875 22.9513 6.99355C22.9025 7.00962 22.8508 7.01754 22.7988 7.01691C22.7689 7.01676 22.7391 7.01388 22.7098 7.00826C22.6805 7.00207 22.652 6.99337 22.6247 6.98224C22.5964 6.97043 22.5697 6.95589 22.545 6.93889C22.5197 6.92124 22.4975 6.90041 22.479 6.87707L22.5365 6.82279C22.5687 6.85967 22.6094 6.8901 22.6557 6.91214C22.6987 6.93115 22.7461 6.94085 22.7941 6.9404C22.8338 6.94117 22.8733 6.93518 22.9104 6.9227C22.9429 6.91167 22.972 6.89412 22.9955 6.87143C23.0194 6.84779 23.0375 6.82008 23.0488 6.79C23.0611 6.75796 23.0828 6.68069 23.0828 6.68069V6.58685C23.0527 6.62445 23.0126 6.65499 22.9662 6.6758C22.9131 6.69841 22.8547 6.70939 22.7958 6.70784C22.7444 6.70857 22.6935 6.69806 22.6476 6.6773C22.6038 6.65657 22.5658 6.62731 22.5365 6.59174C22.5042 6.55233 22.4804 6.50798 22.4662 6.46094C22.4497 6.40576 22.4418 6.3488 22.4428 6.29169V6.27662ZM22.528 6.29131C22.5276 6.33747 22.5332 6.3835 22.5446 6.42853C22.5542 6.46759 22.5715 6.50487 22.5957 6.53859C22.6171 6.56865 22.6463 6.59374 22.6809 6.61172C22.7189 6.6301 22.7619 6.6392 22.8052 6.63809C22.8383 6.63857 22.8713 6.63463 22.9031 6.62641C22.9306 6.61937 22.9565 6.60856 22.9802 6.59437C23.002 6.58066 23.0215 6.56428 23.0381 6.54576C23.055 6.52683 23.0693 6.5062 23.0807 6.48431V6.09305C23.0707 6.07084 23.0579 6.04971 23.0424 6.0301C23.0267 6.01014 23.0078 5.99234 22.9862 5.97733C22.9631 5.96116 22.9372 5.94842 22.9095 5.93965C22.8766 5.93009 22.842 5.92553 22.8073 5.92608C22.7628 5.92478 22.7187 5.93403 22.6796 5.95283C22.6452 5.97121 22.616 5.99636 22.5944 6.02634C22.5702 6.06024 22.5529 6.09762 22.5433 6.13678C22.532 6.18168 22.5264 6.22758 22.5267 6.27361L22.528 6.29131Z" fill="#868B95"/>
<path d="M24.392 6.49914C24.3919 6.48145 24.3885 6.4639 24.3818 6.44724C24.3737 6.4283 24.3606 6.41137 24.3435 6.39796C24.3201 6.37973 24.2935 6.365 24.2647 6.35434C24.2225 6.33851 24.1786 6.32678 24.1335 6.31937C24.0849 6.31044 24.037 6.29876 23.99 6.2844C23.9521 6.27317 23.9162 6.25709 23.8836 6.23663C23.8561 6.2192 23.8335 6.19643 23.8176 6.17007C23.8025 6.14173 23.7946 6.11079 23.7946 6.07945C23.7946 6.04811 23.8025 6.01717 23.8176 5.9888C23.8336 5.95966 23.8567 5.93398 23.8853 5.91362C23.9174 5.8914 23.9537 5.87445 23.9926 5.86359C24.0384 5.85061 24.0863 5.84428 24.1344 5.84478C24.1855 5.84406 24.2364 5.85066 24.2851 5.86434C24.3263 5.87542 24.3647 5.89358 24.398 5.91774C24.4279 5.93988 24.4519 5.96762 24.4682 5.99896C24.4846 6.0307 24.4929 6.06524 24.4925 6.10014H24.3852C24.3851 6.07762 24.3795 6.05541 24.3686 6.03508C24.3571 6.01364 24.3406 5.99466 24.32 5.97942C24.2965 5.96289 24.2698 5.95016 24.2413 5.94181C24.2069 5.93145 24.1707 5.92635 24.1344 5.92677C24.0981 5.92605 24.062 5.93062 24.0275 5.9403C24.0011 5.94783 23.9765 5.95969 23.9551 5.97527C23.9384 5.98763 23.9249 6.00304 23.9156 6.02045C23.9063 6.03783 23.9013 6.05681 23.901 6.07607C23.9008 6.09373 23.9041 6.11129 23.9108 6.12795C23.919 6.14516 23.932 6.16019 23.9487 6.17157C23.9727 6.18748 23.9993 6.20016 24.0275 6.20919C24.0707 6.2229 24.1147 6.2342 24.1595 6.24303C24.2109 6.25324 24.2614 6.26667 24.3107 6.28328C24.3486 6.29576 24.3841 6.31339 24.4158 6.33556C24.4421 6.35434 24.4632 6.37813 24.4776 6.40512C24.4916 6.4337 24.4984 6.46462 24.4976 6.49574C24.4982 6.52928 24.4896 6.56245 24.4725 6.59239C24.4555 6.622 24.431 6.64774 24.4009 6.6676C24.3671 6.68961 24.329 6.70604 24.2885 6.71612C24.2405 6.72815 24.1907 6.73398 24.1408 6.73341C24.0856 6.73431 24.0307 6.72733 23.9781 6.71272C23.9347 6.70052 23.8943 6.68126 23.8589 6.65594C23.8282 6.63373 23.8034 6.60589 23.7861 6.57435C23.7704 6.54441 23.7626 6.51177 23.7631 6.47883H23.8704C23.8715 6.50864 23.8818 6.53766 23.9002 6.5627C23.9167 6.58473 23.9387 6.60312 23.9645 6.61647C23.9908 6.63033 24.0196 6.64011 24.0496 6.64541C24.08 6.65104 24.111 6.65394 24.1421 6.65407C24.1783 6.65464 24.2145 6.65034 24.2494 6.64129C24.2775 6.63423 24.3041 6.62278 24.3277 6.60744C24.3476 6.59456 24.3639 6.57785 24.3754 6.55854C24.3866 6.54033 24.3923 6.51987 24.392 6.49914Z" fill="#868B95"/>
<path d="M24.9629 6.56283L25.2324 5.8772H25.3423L24.9514 6.8248C24.9437 6.84365 24.9335 6.86251 24.9212 6.88775C24.9088 6.91124 24.8928 6.93308 24.8735 6.95258C24.8529 6.97349 24.8281 6.99074 24.8002 7.00348C24.767 7.01814 24.7301 7.02526 24.6929 7.02421H24.6734L24.6512 7.02155C24.6442 7.02085 24.6372 7.01972 24.6303 7.01817L24.6146 7.01478V6.9394C24.6214 6.9394 24.6308 6.94128 24.6423 6.94241C24.6506 6.94278 24.659 6.94278 24.6674 6.94241C24.6921 6.94281 24.7167 6.93962 24.7402 6.93298C24.7604 6.92704 24.7791 6.91754 24.7951 6.9051C24.812 6.89171 24.8263 6.87607 24.8377 6.85872C24.8505 6.83806 24.8613 6.8165 24.8701 6.79426L24.9126 6.68646L24.5643 5.8772H24.6759L24.9629 6.56283Z" fill="#868B95"/>
<path d="M26.02 6.49911C26.0199 6.4814 26.0163 6.46384 26.0093 6.4472C26.0013 6.42827 25.9881 6.41136 25.971 6.39796C25.9476 6.3797 25.921 6.36496 25.8922 6.35433C25.8501 6.3385 25.8061 6.32677 25.7611 6.31936C25.7125 6.31041 25.6645 6.29873 25.6176 6.28437C25.5796 6.27317 25.5438 6.25706 25.5111 6.23662C25.4837 6.21929 25.4612 6.19648 25.4456 6.17006C25.43 6.14172 25.4222 6.11053 25.423 6.07904C25.423 6.04775 25.4312 6.01686 25.4468 5.9888C25.4629 5.95956 25.4862 5.93384 25.515 5.91358C25.5469 5.8912 25.5833 5.87424 25.6223 5.86358C25.6681 5.85058 25.716 5.84422 25.7641 5.84477C25.8152 5.8441 25.8661 5.8507 25.9148 5.86433C25.9559 5.87549 25.9941 5.89362 26.0272 5.91774C26.0573 5.93975 26.0813 5.96754 26.0975 5.99895C26.1139 6.03069 26.1221 6.06524 26.1217 6.1001H26.0144C26.0144 6.07762 26.0087 6.05541 25.9979 6.03505C25.9864 6.01371 25.97 5.99475 25.9497 5.97939C25.9261 5.96298 25.8994 5.95028 25.871 5.9418C25.8365 5.93149 25.8004 5.92639 25.7641 5.92674C25.7278 5.92601 25.6917 5.93059 25.6572 5.9403C25.6306 5.94783 25.606 5.95968 25.5844 5.97526C25.566 5.98792 25.5514 6.0043 25.5418 6.02301C25.5334 6.03972 25.5289 6.05776 25.5286 6.07604C25.5283 6.09375 25.5318 6.11136 25.5388 6.12794C25.5468 6.14523 25.5599 6.16028 25.5767 6.17156C25.6007 6.18752 25.6272 6.2002 25.6555 6.20916C25.6986 6.22294 25.7427 6.23425 25.7875 6.24303C25.8389 6.25328 25.8894 6.26671 25.9386 6.28325C25.9765 6.2959 26.012 6.31354 26.0438 6.33552C26.07 6.35426 26.091 6.37804 26.1051 6.40511C26.1193 6.43365 26.1263 6.46456 26.1256 6.49573C26.1273 6.52867 26.1203 6.56149 26.1051 6.59163C26.0882 6.62122 26.0637 6.64696 26.0336 6.66684C25.9996 6.68883 25.9614 6.70526 25.9208 6.71534C25.8189 6.73953 25.7115 6.73835 25.6103 6.71196C25.567 6.69983 25.5267 6.68057 25.4916 6.65519C25.4606 6.63307 25.4356 6.60521 25.4183 6.57357C25.4023 6.54358 25.394 6.51084 25.394 6.47767H25.5014C25.5021 6.50751 25.5123 6.53655 25.5307 6.56154C25.5473 6.5835 25.5693 6.60188 25.595 6.61532C25.6214 6.62912 25.6502 6.6389 25.6802 6.64428C25.7106 6.64988 25.7415 6.65278 25.7726 6.65291C25.809 6.65351 25.8453 6.64921 25.8803 6.64013C25.9084 6.6331 25.9348 6.62162 25.9582 6.60629C25.9783 6.59343 25.9947 6.5767 26.0064 6.55741C26.0161 6.53923 26.0208 6.51922 26.02 6.49911Z" fill="#868B95"/>
<path d="M26.4883 5.65186V5.87726H26.6586V5.9524H26.4883V6.49225C26.487 6.51559 26.4902 6.53895 26.4977 6.56139C26.5027 6.57656 26.5118 6.59045 26.5241 6.60194C26.5347 6.61134 26.5479 6.61806 26.5624 6.62148C26.5772 6.62483 26.5926 6.62648 26.6079 6.62638C26.6229 6.62646 26.6378 6.62558 26.6526 6.62373L26.691 6.61886L26.6952 6.694C26.6793 6.69869 26.6629 6.70184 26.6462 6.70339C26.6262 6.70561 26.606 6.70674 26.5858 6.70676C26.5585 6.70699 26.5314 6.70357 26.5053 6.69662C26.481 6.69012 26.4591 6.67808 26.4419 6.66169C26.4223 6.64287 26.4077 6.62041 26.3993 6.59595C26.3948 6.56194 26.3958 6.52753 26.4023 6.49375V5.9524H26.2319V5.87726H26.4023V5.65186H26.4883Z" fill="#868B95"/>
<path d="M27.1906 6.70477C27.1334 6.70539 27.0766 6.69526 27.0242 6.67505C26.9745 6.6558 26.93 6.62763 26.8934 6.59232C26.8559 6.55557 26.827 6.51263 26.8083 6.46598C26.794 6.41338 26.787 6.35948 26.7874 6.3054V6.27456C26.7864 6.21639 26.7974 6.15856 26.8198 6.10383C26.8385 6.05596 26.8674 6.01169 26.9049 5.97334C26.9405 5.93808 26.984 5.90976 27.0327 5.89023C27.0801 5.87057 27.1319 5.86054 27.1843 5.86091C27.2384 5.85989 27.2922 5.86939 27.3418 5.88873C27.3865 5.90649 27.4262 5.93297 27.4576 5.96619C27.4899 6.00116 27.5141 6.04143 27.5287 6.08465C27.5451 6.13347 27.5532 6.18417 27.5526 6.23507V6.2911H26.8717V6.3069C26.8765 6.34982 26.8865 6.39219 26.9015 6.43326C26.9155 6.47081 26.9375 6.50565 26.9662 6.53591C26.9936 6.56493 27.0275 6.58851 27.0659 6.6051C27.1057 6.62208 27.1494 6.63071 27.1936 6.63031C27.2434 6.63126 27.2927 6.62225 27.338 6.60397C27.383 6.58411 27.4221 6.55512 27.4521 6.51938L27.5159 6.56263C27.5001 6.58254 27.4823 6.60117 27.4627 6.61828C27.4418 6.63631 27.4181 6.65174 27.3925 6.66415C27.3639 6.67786 27.3334 6.68821 27.3018 6.69499C27.2653 6.70224 27.228 6.70552 27.1906 6.70477ZM27.1617 5.93913C27.1246 5.93895 27.0879 5.94563 27.054 5.95869C27.0216 5.97219 26.9927 5.99125 26.9688 6.01471C26.9424 6.04018 26.9213 6.06959 26.9066 6.10158C26.8897 6.13762 26.8787 6.17562 26.8738 6.21438H27.4274V6.2046C27.4264 6.17091 27.4201 6.13752 27.4087 6.10533C27.398 6.07472 27.3811 6.04605 27.3588 6.02072C27.3367 5.99603 27.3088 5.97577 27.2771 5.96131C27.2412 5.94573 27.2016 5.9381 27.1617 5.93913Z" fill="#868B95"/>
<path d="M27.8199 5.87758L27.8233 6.0122C27.8383 5.98996 27.856 5.96928 27.8761 5.95052C27.8956 5.93188 27.9182 5.91593 27.943 5.90315C27.9682 5.88971 27.9954 5.87958 28.0239 5.87306C28.0546 5.86565 28.0862 5.862 28.118 5.86215C28.1776 5.8606 28.2366 5.87363 28.2883 5.89977C28.3383 5.92786 28.3746 5.97145 28.3901 6.02198C28.4049 5.99897 28.4226 5.97751 28.4429 5.95805C28.4634 5.93836 28.4869 5.92125 28.5127 5.90727C28.5392 5.89267 28.5679 5.88141 28.5979 5.87381C28.6309 5.86535 28.6652 5.86118 28.6996 5.8614C28.743 5.8606 28.7863 5.86645 28.8274 5.87871C28.8633 5.88939 28.8956 5.90805 28.9211 5.93286C28.9482 5.96012 28.9681 5.99236 28.9794 6.02725C28.994 6.07195 29.0009 6.11835 28.9999 6.16487V6.70488H28.9147V6.17127C28.9158 6.13486 28.9102 6.09854 28.8981 6.06372C28.8885 6.03814 28.8722 6.01492 28.8504 5.99604C28.8296 5.97898 28.8043 5.96695 28.7767 5.96105C28.7461 5.95437 28.7146 5.95109 28.683 5.95129C28.6428 5.95097 28.6029 5.958 28.5659 5.97195C28.5343 5.98406 28.5055 6.00114 28.4808 6.02235C28.4376 6.0604 28.4105 6.11024 28.4037 6.16375V6.70488H28.3185V6.1645C28.3196 6.12995 28.314 6.09549 28.302 6.0626C28.2922 6.03766 28.2757 6.01517 28.2538 5.99717C28.2328 5.98041 28.2075 5.9683 28.1802 5.9618C28.1492 5.95447 28.1173 5.95092 28.0852 5.95129C28.049 5.95062 28.013 5.95612 27.9792 5.96745C27.9498 5.97756 27.9227 5.99221 27.8991 6.0107C27.8766 6.02848 27.8576 6.04944 27.8429 6.07275C27.8284 6.09541 27.8165 6.11935 27.8076 6.14419V6.70488H27.7224V5.87758H27.8199Z" fill="#868B95"/>
<path d="M7.11396 2.78251C7.11419 2.14626 6.86743 1.52916 6.41484 1.03407C5.96228 0.538976 5.33121 0.195811 4.62683 0.0617665C2.65832 -0.310851 0.812012 1.05141 0.812012 2.82915V5.51606C1.29425 5.75507 1.80951 5.93796 2.34492 6.06015L2.36919 6.0654V6.059C2.36919 5.18594 3.08242 4.47979 3.96256 4.47979C4.8427 4.47979 5.55593 5.18706 5.55593 6.059V6.0654L5.58023 6.06015C6.11563 5.93796 6.63088 5.75507 7.11313 5.51606V2.78251H7.11396ZM3.94723 4.32076C3.71428 4.32076 3.48658 4.25976 3.29289 4.14547C3.09921 4.0312 2.94825 3.86877 2.85911 3.67873C2.76996 3.48869 2.74664 3.27956 2.79208 3.07782C2.83753 2.87609 2.9497 2.69078 3.11442 2.54533C3.27913 2.39987 3.48899 2.30081 3.71745 2.26068C3.94594 2.22056 4.18274 2.24115 4.39796 2.31987C4.61318 2.39859 4.79711 2.5319 4.92652 2.70291C5.05595 2.87394 5.12504 3.07504 5.12504 3.28074C5.12504 3.55656 5.00094 3.82108 4.78007 4.01612C4.55917 4.21117 4.25959 4.32076 3.94723 4.32076Z" fill="#2CA656"/>
<path d="M5.19272 6.65761C4.38289 6.81754 3.5431 6.81754 2.73326 6.65761C2.59572 6.63015 2.4535 6.59854 2.30745 6.56093C1.78641 6.42718 1.2846 6.24067 0.812012 6.00513V6.7803C0.978077 6.94736 2.10349 8.00024 3.96299 8.00024C5.82251 8.00024 6.9479 6.94661 7.11396 6.7803V6.00513C6.64125 6.24069 6.1393 6.4272 5.61811 6.56093C5.47249 6.59854 5.33026 6.62978 5.19272 6.65761Z" fill="#76B437"/>
</svg>
