<svg width="50" height="48" viewBox="0 0 50 48" fill="none" xmlns="http://www.w3.org/2000/svg">
<path d="M24.998 1.90638C24.3958 1.90753 23.7934 2.13392 23.3574 2.58446L21.8691 4.12035C21.7946 4.1973 21.6861 4.21343 21.5898 4.16296L19.6758 3.13842C18.5518 2.53646 17.0889 2.98747 16.5527 4.09997L15.6387 5.99528C15.5912 6.0916 15.4968 6.13864 15.3867 6.11756L13.2324 5.70626C11.9687 5.46481 10.7248 6.32004 10.5762 7.53487L10.3242 9.60619C10.3112 9.71245 10.2345 9.78511 10.125 9.79702C10.1243 9.79702 10.1237 9.79702 10.123 9.79702L7.93943 10.036C6.65789 10.1765 5.75529 11.3573 6.00974 12.5557C6.0104 12.5557 6.01105 12.5557 6.0117 12.5557L6.44529 14.5992C6.46765 14.7043 6.41921 14.7953 6.31639 14.8401L4.31834 15.7071C3.14623 16.2164 2.67246 17.6007 3.30467 18.6659C3.30467 18.6665 3.30467 18.6671 3.30467 18.6677L4.38474 20.4834H4.38279C4.43733 20.5752 4.42149 20.6771 4.33982 20.7483L2.72068 22.1601C1.77084 22.988 1.77084 24.4447 2.72068 25.2726L4.33982 26.6844C4.42149 26.7556 4.43733 26.8593 4.38279 26.9512L3.30467 28.7649C2.67008 29.8311 3.14553 31.2188 4.31834 31.7274L6.31639 32.5945C6.41793 32.6395 6.46751 32.729 6.44529 32.8335L6.0117 34.877C6.01105 34.877 6.0104 34.877 6.00974 34.877C5.75521 36.0757 6.65875 37.2556 7.93943 37.3967C7.94073 37.3967 7.94204 37.3967 7.94334 37.3967L10.125 37.6301C10.237 37.6425 10.3136 37.717 10.3262 37.8209L10.5781 39.8923C10.7252 41.1088 11.9705 41.9642 13.2344 41.7227L15.3887 41.3096C15.4995 41.2884 15.5954 41.3362 15.6426 41.4337L16.5547 43.3272C17.091 44.44 18.5524 44.8887 19.6758 44.2887C19.6764 44.2887 19.6771 44.2887 19.6777 44.2887L21.5918 43.266C21.6886 43.2143 21.796 43.2312 21.8711 43.3086L23.3594 44.8427C24.2321 45.7437 25.7678 45.7437 26.6406 44.8427L28.1289 43.3086C28.2039 43.2312 28.3114 43.2143 28.4082 43.266L30.3222 44.2887C31.4462 44.8907 32.9091 44.4397 33.4453 43.3272L34.3574 41.4337C34.4045 41.3362 34.5005 41.2884 34.6113 41.3096L36.7656 41.7227C38.0293 41.9642 39.2732 41.1071 39.4219 39.8923L39.6738 37.8228V37.8209C39.6874 37.7155 39.764 37.642 39.873 37.6301C39.8737 37.6301 39.8743 37.6301 39.875 37.6301L42.0566 37.3911C43.3391 37.2516 44.2428 36.0722 43.9883 34.8733C43.9876 34.8733 43.987 34.8733 43.9863 34.8733L43.5527 32.8298C43.5303 32.7247 43.5788 32.6336 43.6816 32.5889L45.6797 31.7219C46.8528 31.2131 47.3258 29.8269 46.6933 28.7612L45.6133 26.9456C45.5587 26.8538 45.5765 26.75 45.6582 26.6788L47.2773 25.2689C48.2272 24.441 48.2272 22.9824 47.2773 22.1545L45.6582 20.7446C45.5765 20.6734 45.5587 20.5697 45.6133 20.4778L46.6933 18.6622C47.3279 17.596 46.8525 16.2102 45.6797 15.7016L43.6816 14.8345C43.5788 14.7898 43.5304 14.6988 43.5527 14.5937L43.9863 12.5501C43.987 12.5501 43.9876 12.5501 43.9883 12.5501C44.2428 11.3514 43.3393 10.1733 42.0586 10.0323L39.875 9.79331C39.763 9.78094 39.6864 9.7064 39.6738 9.60249L39.4219 7.53117C39.2748 6.31461 38.0295 5.45922 36.7656 5.7007L34.6113 6.11385C34.5005 6.13506 34.4046 6.08726 34.3574 5.98972L33.4453 4.09627C32.9089 2.98343 31.4476 2.53291 30.3242 3.13286C30.3235 3.13348 30.3229 3.1341 30.3222 3.13472L28.4082 4.15741C28.3114 4.20914 28.2039 4.19226 28.1289 4.11479L26.6406 2.58076C26.6406 2.58014 26.6406 2.57952 26.6406 2.57891C26.204 2.12902 25.6011 1.90522 24.998 1.90638ZM25 3.78687C25.0588 3.78678 25.1177 3.81364 25.1679 3.86468L26.6562 5.39871C27.3532 6.11805 28.4934 6.28948 29.3906 5.81001L31.3047 4.78732C31.4353 4.71757 31.5633 4.75761 31.625 4.88552L32.539 6.78083C32.9679 7.66792 33.9986 8.16528 35.0078 7.97211L37.1621 7.56081C37.3082 7.5329 37.4167 7.60802 37.4336 7.74793C37.4342 7.74794 37.4349 7.74794 37.4355 7.74793L37.6875 9.81925H37.6855C37.803 10.791 38.6225 11.5647 39.6445 11.6775L41.8281 11.9165C41.9774 11.9329 42.0568 12.0371 42.0273 12.1759L41.5918 14.2176C41.3881 15.1749 41.9125 16.1526 42.8476 16.5594C42.8483 16.5594 42.8489 16.5594 42.8496 16.5594L44.8476 17.4264C44.9828 17.4851 45.0246 17.6069 44.9511 17.7303L43.8711 19.5459C43.3656 20.397 43.5463 21.4804 44.3047 22.1415L45.9238 23.5515C46.034 23.6475 46.034 23.776 45.9238 23.872L44.3047 25.2819C43.5463 25.943 43.3656 27.0264 43.8711 27.8775L44.9511 29.6931C45.023 29.8163 44.9817 29.9388 44.8476 29.997L42.8496 30.8641C42.8489 30.8641 42.8483 30.8641 42.8476 30.8641C41.9125 31.2708 41.3881 32.2467 41.5918 33.204C41.5918 33.2046 41.5918 33.2052 41.5918 33.2059L42.0273 35.2475C42.0568 35.3861 41.9756 35.4909 41.8281 35.5069L39.6445 35.7459C38.6209 35.858 37.8064 36.6335 37.6875 37.6023C37.6875 37.6029 37.6875 37.6035 37.6875 37.6042L37.4355 39.6736C37.4182 39.8153 37.3084 39.8906 37.1621 39.8626L35.0078 39.4495C33.9986 39.2563 32.9679 39.7555 32.539 40.6426L31.625 42.5379C31.5632 42.6661 31.4347 42.7057 31.3047 42.6361L29.3906 41.6134C28.4934 41.1339 27.3532 41.3054 26.6562 42.0247L25.1679 43.5587C25.0667 43.6632 24.9332 43.6632 24.832 43.5587L23.3437 42.0247C22.6468 41.3054 21.5065 41.1339 20.6094 41.6134L18.6953 42.6361C18.5647 42.7058 18.4366 42.6658 18.375 42.5379L17.4609 40.6426C17.0321 39.7555 16.0014 39.2563 14.9922 39.4495L12.8379 39.8626C12.6918 39.8905 12.5833 39.8154 12.5664 39.6755C12.5657 39.6755 12.5651 39.6755 12.5644 39.6755L12.3125 37.6042H12.3144C12.197 36.6324 11.3774 35.8588 10.3554 35.7459C10.3541 35.7459 10.3528 35.7459 10.3515 35.7459L8.16795 35.5106C8.02096 35.4929 7.94146 35.3907 7.97068 35.2531L8.40623 33.2096C8.60987 32.2523 8.08555 31.2764 7.15037 30.8696C7.14972 30.869 7.14907 30.8684 7.14842 30.8678L5.15037 30.0007C5.01518 29.9421 4.97344 29.822 5.04685 29.6987C5.04685 29.6981 5.04685 29.6975 5.04685 29.6969L6.12693 27.8812C6.63239 27.0302 6.45167 25.9485 5.69334 25.2874L4.0742 23.8757C3.96404 23.7797 3.96404 23.653 4.0742 23.557L5.69334 22.1453C6.45167 21.4841 6.63239 20.4025 6.12693 19.5515L5.04685 17.7358C4.97332 17.6119 5.01553 17.4905 5.15037 17.432L7.14842 16.5649C7.14907 16.5649 7.14972 16.5649 7.15037 16.5649C8.08555 16.1581 8.60987 15.1804 8.40623 14.2231L7.97068 12.1796C7.94125 12.041 8.02045 11.9381 8.16795 11.9221C8.1686 11.9221 8.16925 11.9221 8.1699 11.9221L10.3535 11.6812C11.3767 11.5687 12.1917 10.7934 12.3105 9.82481L12.5625 7.75349C12.5798 7.61186 12.6896 7.53657 12.8359 7.56452L14.9902 7.97767C15.9994 8.17084 17.0282 7.67347 17.457 6.78638C17.4577 6.78577 17.4583 6.78515 17.459 6.78453L18.373 4.88922C18.4348 4.76098 18.5614 4.72139 18.6914 4.79103C18.692 4.79103 18.6927 4.79103 18.6933 4.79103L20.6074 5.81557C21.5046 6.29504 22.6448 6.12361 23.3418 5.40427L24.8301 3.86838C24.8826 3.81399 24.9412 3.78695 25 3.78687ZM39 15.1773C34.852 16.1809 26.5553 20.1932 23.4433 26.2119C21.3693 24.2057 18.259 21.1967 11 21.1967C11 21.1967 17.8772 24.5218 22.2402 31.9312C22.7932 32.8703 24.1659 32.8163 24.6699 31.8497C27.0459 27.2993 31.222 20.1934 39 15.1773Z" fill="#3AB8FF"/>
</svg>
