<svg width="21" height="15" viewBox="0 0 21 15" fill="none" xmlns="http://www.w3.org/2000/svg">
<path d="M19.4976 0.792725C19.3483 0.792839 19.2021 0.83573 19.0764 0.916321C14.3239 3.88117 10.429 7.86332 7.17914 12.5756C5.53546 10.3225 3.70511 8.35281 1.46625 7.04425C1.37756 6.9886 1.27858 6.95134 1.1752 6.93469C1.07182 6.91805 0.966153 6.92235 0.86447 6.94734C0.762787 6.97234 0.667165 7.01752 0.583287 7.0802C0.499408 7.14288 0.428983 7.22177 0.376197 7.31221C0.323411 7.40264 0.289341 7.50276 0.276011 7.60662C0.26268 7.71047 0.270362 7.81595 0.298598 7.91678C0.326835 8.01761 0.375052 8.11174 0.440382 8.19357C0.505713 8.2754 0.586825 8.34326 0.6789 8.39313C2.93589 9.71228 4.85296 11.7699 6.56574 14.2968C6.63791 14.4029 6.73512 14.4897 6.84879 14.5494C6.96245 14.609 7.08907 14.6398 7.21745 14.6389C7.34582 14.6379 7.47199 14.6054 7.58481 14.5442C7.69762 14.4829 7.7936 14.3948 7.86426 14.2876C11.126 9.3396 15.0713 5.25687 19.9034 2.24231C20.0494 2.15387 20.1624 2.02007 20.2252 1.86135C20.2879 1.70264 20.297 1.52774 20.251 1.36338C20.205 1.19903 20.1064 1.05427 19.9703 0.951216C19.8343 0.848166 19.6682 0.7925 19.4976 0.792725Z" fill="#3AB8FF"/>
</svg>
