<svg width="80" height="10" viewBox="0 0 80 10" fill="none" xmlns="http://www.w3.org/2000/svg">
<path d="M18.2447 2.50766V3.81666H21.2757V7.66666H22.5777V3.81666H25.5877V2.50766H18.2447ZM32.4646 4.43966H27.7046V3.80966H33.8716V2.54266H28.2296C27.9916 2.54266 27.7559 2.57999 27.5226 2.65466C27.2939 2.72466 27.0886 2.82966 26.9066 2.96966C26.7246 3.10499 26.5753 3.27299 26.4586 3.47366C26.3466 3.66966 26.2906 3.89366 26.2906 4.14566C26.2906 4.37899 26.3396 4.59599 26.4376 4.79666C26.5356 4.99266 26.6663 5.16299 26.8296 5.30766C26.9929 5.44766 27.1796 5.55732 27.3896 5.63666C27.6043 5.71599 27.8259 5.75566 28.0546 5.75566H32.8846V6.37166H26.6196V7.66666H32.4786C32.7026 7.66666 32.9196 7.62699 33.1296 7.54766C33.3396 7.46832 33.5239 7.35866 33.6826 7.21866C33.8459 7.07866 33.9766 6.91299 34.0746 6.72166C34.1726 6.52566 34.2216 6.31099 34.2216 6.07766C34.2216 5.85366 34.1749 5.64132 34.0816 5.44066C33.9929 5.23999 33.8693 5.06732 33.7106 4.92266C33.5566 4.77332 33.3723 4.65666 33.1576 4.57266C32.9429 4.48399 32.7119 4.43966 32.4646 4.43966ZM34.9244 7.66666H36.4294V6.27366H34.9244V7.66666ZM44.4894 2.50766H39.0924C38.4671 2.50766 37.9841 2.66399 37.6434 2.97666C37.3027 3.28466 37.1324 3.76299 37.1324 4.41166V6.14766C37.1324 6.37166 37.1814 6.57699 37.2794 6.76366C37.3774 6.94566 37.5057 7.10432 37.6644 7.23966C37.8231 7.37499 38.0027 7.47999 38.2034 7.55466C38.4087 7.62932 38.6187 7.66666 38.8334 7.66666H44.4894V6.37866H38.4764V3.80266H44.4894V2.50766ZM47.026 2.52166C46.7926 2.52166 46.5663 2.55899 46.347 2.63366C46.1276 2.70832 45.9316 2.81332 45.759 2.94866C45.5863 3.08399 45.4486 3.24499 45.346 3.43166C45.2433 3.61832 45.192 3.82366 45.192 4.04766V6.00066C45.192 6.23866 45.234 6.45799 45.318 6.65866C45.402 6.85932 45.5163 7.03432 45.661 7.18366C45.8103 7.32832 45.9853 7.44266 46.186 7.52666C46.3866 7.60599 46.6036 7.64566 46.837 7.64566H50.82C51.0346 7.64566 51.24 7.60366 51.436 7.51966C51.6366 7.43566 51.8116 7.32366 51.961 7.18366C52.115 7.03899 52.2363 6.87332 52.325 6.68666C52.4183 6.49532 52.465 6.29232 52.465 6.07766V4.16666C52.465 3.95199 52.4206 3.74432 52.332 3.54366C52.2433 3.34299 52.1243 3.16799 51.975 3.01866C51.8256 2.86932 51.653 2.75032 51.457 2.66166C51.261 2.56832 51.0556 2.52166 50.841 2.52166H47.026ZM51.107 3.85866V6.35066H46.529V3.85866H51.107ZM54.6397 7.66666L55.3537 6.31566H57.9157L58.6927 7.66666H60.1207L58.1117 3.81666C58.0043 3.61132 57.904 3.42699 57.8107 3.26366C57.7173 3.10032 57.617 2.96266 57.5097 2.85066C57.4023 2.73866 57.281 2.65232 57.1457 2.59166C57.0103 2.53099 56.8493 2.50066 56.6627 2.50066C56.4713 2.50066 56.3033 2.53099 56.1587 2.59166C56.0187 2.64766 55.8927 2.73166 55.7807 2.84366C55.6687 2.95566 55.5637 3.09099 55.4657 3.24966C55.3723 3.40832 55.2743 3.58566 55.1717 3.78166L53.1627 7.66666H54.6397ZM56.0257 4.99266L56.6417 3.89366L57.2507 4.99266H56.0257ZM68.1759 2.50766H62.7789C62.1536 2.50766 61.6706 2.66399 61.3299 2.97666C60.9893 3.28466 60.8189 3.76299 60.8189 4.41166V6.14766C60.8189 6.37166 60.8679 6.57699 60.9659 6.76366C61.0639 6.94566 61.1923 7.10432 61.3509 7.23966C61.5096 7.37499 61.6893 7.47999 61.8899 7.55466C62.0953 7.62932 62.3053 7.66666 62.5199 7.66666H68.1759V6.37866H62.1629V3.80266H68.1759V2.50766ZM70.1875 2.50066H68.8785V7.66666H70.1875V5.71366H74.9545V7.66666H76.2635V2.50066H74.9545V4.39766H70.1875V2.50066Z" fill="#505050"/>
<rect width="3.15789" height="6.66667" fill="#20EEBC"/>
<rect width="3.15789" height="6.66667" fill="#20EEBC"/>
<rect width="3.15789" height="6.66667" fill="#20EEBC"/>
<rect width="3.15789" height="6.66667" fill="#20EEBC"/>
<rect x="12.6316" width="3.15789" height="6.66667" fill="#20EEBC"/>
<rect x="12.6316" width="3.15789" height="6.66667" fill="#20EEBC"/>
<rect x="12.6316" width="3.15789" height="6.66667" fill="#20EEBC"/>
<rect x="12.6316" width="3.15789" height="6.66667" fill="#20EEBC"/>
<rect x="8.42102" y="5.83334" width="3.15789" height="4.16667" fill="#F25E5E"/>
<rect x="4.21051" width="3.15789" height="5" fill="#20EEBC"/>
<rect x="4.21051" width="3.15789" height="5" fill="#20EEBC"/>
<rect x="4.21051" width="3.15789" height="5" fill="#20EEBC"/>
<rect x="4.21051" width="3.15789" height="5" fill="#20EEBC"/>
<line x1="1.55261" y1="3" x2="1.55261" y2="9.5" stroke="#20EEBC" stroke-linecap="square"/>
<line x1="14.1842" y1="3" x2="14.1842" y2="9.5" stroke="#20EEBC" stroke-linecap="square"/>
<line x1="9.97369" y1="0.5" x2="9.97369" y2="9.5" stroke="#F25E5E" stroke-linecap="square"/>
<line x1="5.76318" y1="4.66666" x2="5.76318" y2="9.49999" stroke="#20EEBC" stroke-linecap="square"/>
</svg>
