<svg width="143" height="24" viewBox="0 0 143 24" fill="none" xmlns="http://www.w3.org/2000/svg">
<path d="M17.75 6.945V9.75H24.245V18H27.035V9.75H33.485V6.945H17.75ZM48.2212 11.085H38.0212V9.735H51.2362V7.02H39.1462C38.6362 7.02 38.1312 7.1 37.6312 7.26C37.1412 7.41 36.7012 7.635 36.3112 7.935C35.9212 8.225 35.6012 8.585 35.3512 9.015C35.1112 9.435 34.9912 9.915 34.9912 10.455C34.9912 10.955 35.0962 11.42 35.3062 11.85C35.5162 12.27 35.7962 12.635 36.1462 12.945C36.4962 13.245 36.8962 13.48 37.3462 13.65C37.8062 13.82 38.2812 13.905 38.7712 13.905H49.1212V15.225H35.6962V18H48.2512C48.7312 18 49.1962 17.915 49.6462 17.745C50.0962 17.575 50.4912 17.34 50.8312 17.04C51.1812 16.74 51.4612 16.385 51.6712 15.975C51.8812 15.555 51.9862 15.095 51.9862 14.595C51.9862 14.115 51.8862 13.66 51.6862 13.23C51.4962 12.8 51.2312 12.43 50.8912 12.12C50.5612 11.8 50.1662 11.55 49.7062 11.37C49.2462 11.18 48.7512 11.085 48.2212 11.085ZM53.4922 18H56.7172V15.015H53.4922V18ZM73.9886 6.945H62.4236C61.0836 6.945 60.0486 7.28 59.3186 7.95C58.5886 8.61 58.2236 9.635 58.2236 11.025V14.745C58.2236 15.225 58.3286 15.665 58.5386 16.065C58.7486 16.455 59.0236 16.795 59.3636 17.085C59.7036 17.375 60.0886 17.6 60.5186 17.76C60.9586 17.92 61.4086 18 61.8686 18H73.9886V15.24H61.1036V9.72H73.9886V6.945ZM79.4241 6.975C78.9241 6.975 78.4391 7.055 77.9691 7.215C77.4991 7.375 77.0791 7.6 76.7091 7.89C76.3391 8.18 76.0441 8.525 75.8241 8.925C75.6041 9.325 75.4941 9.765 75.4941 10.245V14.43C75.4941 14.94 75.5841 15.41 75.7641 15.84C75.9441 16.27 76.1891 16.645 76.4991 16.965C76.8191 17.275 77.1941 17.52 77.6241 17.7C78.0541 17.87 78.5191 17.955 79.0191 17.955H87.5541C88.0141 17.955 88.4541 17.865 88.8741 17.685C89.3041 17.505 89.6791 17.265 89.9991 16.965C90.3291 16.655 90.5891 16.3 90.7791 15.9C90.9791 15.49 91.0791 15.055 91.0791 14.595V10.5C91.0791 10.04 90.9841 9.595 90.7941 9.165C90.6041 8.735 90.3491 8.36 90.0291 8.04C89.7091 7.72 89.3391 7.465 88.9191 7.275C88.4991 7.075 88.0591 6.975 87.5991 6.975H79.4241ZM88.1691 9.84V15.18H78.3591V9.84H88.1691ZM95.7392 18L97.2692 15.105H102.759L104.424 18H107.484L103.179 9.75C102.949 9.31 102.734 8.915 102.534 8.565C102.334 8.215 102.119 7.92 101.889 7.68C101.659 7.44 101.399 7.255 101.109 7.125C100.819 6.995 100.474 6.93 100.074 6.93C99.6642 6.93 99.3042 6.995 98.9942 7.125C98.6942 7.245 98.4242 7.425 98.1842 7.665C97.9442 7.905 97.7192 8.195 97.5092 8.535C97.3092 8.875 97.0992 9.255 96.8792 9.675L92.5742 18H95.7392ZM98.7092 12.27L100.029 9.915L101.334 12.27H98.7092ZM124.745 6.945H113.18C111.84 6.945 110.805 7.28 110.075 7.95C109.345 8.61 108.98 9.635 108.98 11.025V14.745C108.98 15.225 109.085 15.665 109.295 16.065C109.505 16.455 109.78 16.795 110.12 17.085C110.46 17.375 110.845 17.6 111.275 17.76C111.715 17.92 112.165 18 112.625 18H124.745V15.24H111.86V9.72H124.745V6.945ZM129.056 6.93H126.251V18H129.056V13.815H139.271V18H142.076V6.93H139.271V10.995H129.056V6.93Z" fill="#505050"/>
<rect y="6" width="3" height="7.2" fill="#20EEBC"/>
<rect y="6" width="3" height="7.2" fill="#20EEBC"/>
<rect y="6" width="3" height="7.2" fill="#20EEBC"/>
<rect y="6" width="3" height="7.2" fill="#20EEBC"/>
<rect x="12" y="6" width="3" height="7.2" fill="#20EEBC"/>
<rect x="12" y="6" width="3" height="7.2" fill="#20EEBC"/>
<rect x="12" y="6" width="3" height="7.2" fill="#20EEBC"/>
<rect x="12" y="6" width="3" height="7.2" fill="#20EEBC"/>
<rect x="8" y="14.4" width="3" height="4.8" fill="#F25E5E"/>
<rect x="4" y="8.40001" width="3" height="6" fill="#20EEBC"/>
<rect x="4" y="8.40001" width="3" height="6" fill="#20EEBC"/>
<rect x="4" y="8.40001" width="3" height="6" fill="#20EEBC"/>
<rect x="4" y="8.40001" width="3" height="6" fill="#20EEBC"/>
<line x1="1.5" y1="8.90001" x2="1.5" y2="18.7" stroke="#20EEBC" stroke-linecap="round"/>
<line x1="13.5" y1="8.90001" x2="13.5" y2="18.7" stroke="#20EEBC" stroke-linecap="round"/>
<line x1="9.5" y1="6.5" x2="9.5" y2="18.7" stroke="#F25E5E" stroke-linecap="round"/>
<line x1="5.5" y1="11.3" x2="5.5" y2="18.7" stroke="#20EEBC" stroke-linecap="round"/>
</svg>
