<svg width="47" height="45" viewBox="0 0 47 45" fill="none" xmlns="http://www.w3.org/2000/svg">
<path d="M23.5196 0C23.1476 0 22.7952 -1.74623e-08 22.4231 0.01875C9.46172 0.6 -0.562827 11.1188 0.0245489 23.5312C0.611925 35.6063 11.0085 45 23.4804 45C23.8524 45 24.2049 45 24.5769 44.9813C37.5383 44.4 47.5628 33.8812 46.9755 21.4688C46.3881 9.39375 35.9915 0 23.5196 0ZM18.6248 24.1313L18.6835 24.1688L21.3659 25.4437L21.4246 25.4625L22.6189 26.0437C23.1672 26.325 23.8328 26.325 24.3811 26.0437L25.4971 25.5L25.5558 25.4813L28.5514 24.0562L28.571 24.0375L34.9538 20.9812L37.2054 19.9125V30C37.2054 31.0312 36.3244 31.875 35.2475 31.875H11.7525C10.6756 31.875 9.79457 31.0312 9.79457 30V19.9125L12.1049 21.0187L18.6248 24.1313ZM36.1286 16.2375L29.687 19.3125L29.6674 19.3313L23.5 22.275L17.5675 19.4438L17.5479 19.425L10.8714 16.2375C10.2057 15.9187 9.79457 15.2625 9.79457 14.55V13.125H37.2054V14.55C37.2054 15.2812 36.7943 15.9187 36.1286 16.2375Z" fill="#3AB8FF"/>
</svg>
