<svg width="42" height="7" viewBox="0 0 42 7" fill="none" xmlns="http://www.w3.org/2000/svg">
<path d="M3.57649 7C5.55175 7 7.15302 5.43299 7.15302 3.5C7.15302 1.567 5.55175 0 3.57649 0C1.60126 0 0 1.567 0 3.5C0 5.43299 1.60126 7 3.57649 7Z" fill="#EB001B"/>
<path d="M7.90172 7C9.87698 7 11.4782 5.43299 11.4782 3.5C11.4782 1.567 9.87698 0 7.90172 0C5.92646 0 4.3252 1.567 4.3252 3.5C4.3252 5.43299 5.92646 7 7.90172 7Z" fill="#F79E1B"/>
<path d="M5.73917 0.712158C6.59171 1.34346 7.15314 2.36169 7.15314 3.50209C7.15314 4.64252 6.59171 5.64038 5.73917 6.29206C4.88663 5.66075 4.3252 4.64252 4.3252 3.50209C4.3252 2.36169 4.88663 1.34346 5.73917 0.712158Z" fill="#FF5F00"/>
<path d="M11.2499 5.81982V5.84016H11.1875V6.02311H11.1459V5.86047H11.0836V5.81982H11.2499ZM11.4995 5.81982V6.02311H11.4578V5.86047L11.3955 6.00277H11.3539L11.2915 5.86047V6.02311H11.2499V5.81982H11.2915L11.3539 5.96213L11.4163 5.81982H11.4995Z" fill="#F79E1B"/>
<path d="M41.0257 3.62438V3.64476H40.9632V3.80766H40.9217V3.64476H40.8591V3.62438H41.0257ZM41.2752 3.62438V3.82804H41.2336V3.6651L41.1711 3.80766H41.1295L41.0673 3.6651V3.82804H41.0257V3.62438H41.0673L41.1295 3.76694L41.192 3.62438H41.2752ZM16.6138 1.40464C17.1545 1.40464 17.5496 1.7712 17.5496 2.30068V3.70582H17.0505V2.4636C17.0505 2.07667 16.8426 1.87302 16.5099 1.87302C16.1772 1.87302 15.9069 2.07667 15.9069 2.4636V3.70582H15.4078V2.4636C15.4078 2.07667 15.1999 1.87302 14.8672 1.87302C14.5345 1.87302 14.2642 2.07667 14.2642 2.4636V3.70582H13.7651V1.46573H14.2642V1.75084C14.4513 1.4861 14.7424 1.42501 14.9711 1.42501C15.3247 1.42501 15.6158 1.56756 15.7613 1.8323C15.9693 1.4861 16.3227 1.40464 16.6138 1.40464ZM20.4815 1.46573V3.70582H19.9824V3.4411C19.8161 3.64476 19.5874 3.76694 19.2546 3.76694C18.61 3.76694 18.111 3.27817 18.111 2.58578C18.111 1.89339 18.61 1.40464 19.2546 1.40464C19.5874 1.40464 19.8161 1.52683 19.9824 1.73047V1.46573H20.4815ZM19.317 1.87302C18.8804 1.87302 18.6309 2.19886 18.6309 2.58578C18.6309 2.9727 18.9011 3.29854 19.317 3.29854C19.7329 3.29854 20.0032 2.99308 20.0032 2.58578C20.0032 2.17849 19.7329 1.87302 19.317 1.87302ZM22.9975 1.64901L22.7896 2.03594C22.644 1.95448 22.3737 1.85266 22.0826 1.85266C21.8123 1.85266 21.6459 1.95448 21.6459 2.1174C21.6459 2.28032 21.8123 2.32104 22.0202 2.34141L22.2489 2.38214C22.748 2.44323 23.0391 2.66724 23.0391 3.05417C23.0391 3.48182 22.6648 3.78729 21.9994 3.78729C21.7707 3.78729 21.3548 3.74657 21.0221 3.5022L21.2508 3.13564C21.4172 3.25782 21.6251 3.35964 21.9994 3.35964C22.3321 3.35964 22.5192 3.25782 22.5192 3.09489C22.5192 2.9727 22.3945 2.89125 22.1242 2.85052L21.8747 2.83016C21.3756 2.76907 21.1053 2.52469 21.1053 2.17849C21.1053 1.73047 21.4796 1.46573 22.0618 1.46573C22.4153 1.40464 22.748 1.50646 22.9975 1.64901ZM25.16 1.46573V1.91375H24.2867V2.89125C24.2867 3.19673 24.4531 3.31892 24.661 3.31892C24.8065 3.31892 24.9937 3.25782 25.1185 3.17636L25.3264 3.56329C25.1393 3.68547 24.9105 3.78729 24.6194 3.78729C24.0996 3.78729 23.7877 3.52254 23.7877 2.91162V1.91375H23.3302V1.46573H23.7877V0.793701H24.2867V1.46573H25.16ZM26.6988 1.40464C27.3434 1.40464 27.78 1.89339 27.78 2.58578C27.78 2.64688 27.78 2.70797 27.78 2.76907H26.075C26.1373 3.17636 26.4285 3.33926 26.7612 3.33926C26.9899 3.33926 27.2394 3.25782 27.4266 3.09489L27.6761 3.4411C27.4057 3.68547 27.0731 3.76694 26.7403 3.76694C26.0542 3.76694 25.5551 3.29854 25.5551 2.58578C25.5551 1.89339 26.0334 1.40464 26.6988 1.40464ZM26.6988 1.85266C26.3453 1.85266 26.1373 2.07667 26.0958 2.4025H27.281C27.2186 2.05631 27.0107 1.85266 26.6988 1.85266ZM29.5267 1.40464C29.6723 1.40464 29.797 1.425 29.9218 1.46573L29.797 1.95448C29.693 1.89339 29.5475 1.87302 29.4228 1.87302C29.1108 1.87302 28.8821 2.09703 28.8821 2.48396V3.72619H28.3831V1.4861H28.8821V1.73047C29.0276 1.50646 29.2564 1.40464 29.5267 1.40464ZM31.606 1.40464C32.2506 1.40464 32.7498 1.89339 32.7498 2.58578C32.7498 3.27817 32.2506 3.76694 31.606 3.76694C31.2734 3.76694 31.0446 3.64476 30.8783 3.4411V4.64262H30.3791V1.46573H30.8783V1.73047C31.0446 1.54719 31.2734 1.40464 31.606 1.40464ZM31.5438 1.87302C31.1278 1.87302 30.8574 2.17849 30.8574 2.58578C30.8574 2.99308 31.1278 3.29854 31.5438 3.29854C31.9805 3.29854 32.2299 2.9727 32.2299 2.58578C32.2299 2.19886 31.9805 1.87302 31.5438 1.87302ZM35.5361 1.46573V3.70582H35.037V3.4411C34.8707 3.64476 34.6419 3.76694 34.3093 3.76694C33.6647 3.76694 33.1655 3.27817 33.1655 2.58578C33.1655 1.89339 33.6647 1.40464 34.3093 1.40464C34.6419 1.40464 34.8707 1.52683 35.037 1.73047V1.46573H35.5361ZM34.3718 1.87302C33.9351 1.87302 33.6853 2.19886 33.6853 2.58578C33.6853 2.9727 33.9557 3.29854 34.3718 3.29854C34.7875 3.29854 35.0579 2.99308 35.0579 2.58578C35.0579 2.17849 34.7875 1.87302 34.3718 1.87302ZM38.0521 1.64901L37.8443 2.03594C37.6986 1.95448 37.4282 1.85266 37.1372 1.85266C36.8668 1.85266 36.7005 1.95448 36.7005 2.1174C36.7005 2.28032 36.8668 2.32104 37.0747 2.34141L37.3035 2.38214C37.8027 2.44323 38.0937 2.66724 38.0937 3.05417C38.0937 3.48182 37.7195 3.78729 37.0541 3.78729C36.8252 3.78729 36.4095 3.74657 36.0766 3.5022L36.3054 3.13564C36.4717 3.25782 36.6796 3.35964 37.0541 3.35964C37.3867 3.35964 37.5739 3.25782 37.5739 3.09489C37.5739 2.9727 37.4492 2.89125 37.1788 2.85052L36.9293 2.83016C36.4301 2.76907 36.1598 2.52469 36.1598 2.17849C36.1598 1.73047 36.5342 1.46573 37.1163 1.46573C37.4907 1.40464 37.8233 1.50646 38.0521 1.64901ZM40.4434 1.64901L40.2355 2.03594C40.0899 1.95448 39.8195 1.85266 39.5285 1.85266C39.2581 1.85266 39.0918 1.95448 39.0918 2.1174C39.0918 2.28032 39.2581 2.32104 39.466 2.34141L39.6948 2.38214C40.194 2.44323 40.485 2.66724 40.485 3.05417C40.485 3.48182 40.1108 3.78729 39.4453 3.78729C39.2165 3.78729 38.8008 3.74657 38.4679 3.5022L38.6967 3.13564C38.863 3.25782 39.0709 3.35964 39.4453 3.35964C39.7779 3.35964 39.9652 3.25782 39.9652 3.09489C39.9652 2.9727 39.8404 2.89125 39.57 2.85052L39.3206 2.83016C38.8214 2.76907 38.551 2.52469 38.551 2.17849C38.551 1.73047 38.9255 1.46573 39.5075 1.46573C39.8611 1.40464 40.2146 1.50646 40.4434 1.64901ZM14.3889 4.92771C14.7008 4.92771 14.9296 5.15171 14.9296 5.47755C14.9296 5.80339 14.7008 6.02738 14.3889 6.02738C14.2434 6.02738 14.1186 5.96629 14.0562 5.86448V5.98666H13.8275V4.39822H14.0562V5.04989C14.1186 4.9888 14.2226 4.92771 14.3889 4.92771ZM14.3474 5.15171C14.1602 5.15171 14.0146 5.29427 14.0146 5.49792C14.0146 5.70157 14.1394 5.8441 14.3474 5.8441C14.5553 5.8441 14.68 5.6812 14.68 5.49792C14.68 5.31464 14.5553 5.15171 14.3474 5.15171ZM16.1772 4.96843L15.3247 6.47541H15.0543L15.4494 5.80338L14.9711 4.96843H15.2415L15.595 5.57939L15.9277 4.96843H16.1772ZM18.1942 4.92771C18.4437 4.92771 18.6309 5.09061 18.6309 5.35536V6.02738H18.4021V5.43683C18.4021 5.25355 18.2981 5.15171 18.1526 5.15171C18.007 5.15171 17.8823 5.25355 17.8823 5.43683V6.02738H17.6535V5.43683C17.6535 5.25355 17.5703 5.15171 17.404 5.15171C17.2585 5.15171 17.1337 5.25355 17.1337 5.43683V6.02738H16.905V4.96843H17.1337V5.09061C17.2169 4.96843 17.3624 4.92771 17.4664 4.92771C17.6327 4.92771 17.7575 5.00918 17.8407 5.11099C17.8823 4.96843 18.0486 4.92771 18.1942 4.92771ZM19.9824 4.96843V6.02738H19.7537V5.9052C19.6705 6.00704 19.5665 6.06813 19.421 6.06813C19.1091 6.06813 18.8804 5.8441 18.8804 5.51829C18.8804 5.19246 19.1091 4.96843 19.421 4.96843C19.5665 4.96843 19.6913 5.02952 19.7537 5.13136V5.00918H19.9824V4.96843ZM19.421 5.15171C19.2131 5.15171 19.0883 5.31464 19.0883 5.49792C19.0883 5.6812 19.2131 5.8441 19.421 5.8441C19.6081 5.8441 19.7537 5.70157 19.7537 5.49792C19.7537 5.29427 19.6289 5.15171 19.421 5.15171ZM21.1469 5.04989L21.0429 5.23317C20.9805 5.19246 20.835 5.15171 20.7102 5.15171C20.5854 5.15171 20.5023 5.19245 20.5023 5.27389C20.5023 5.35536 20.5854 5.37573 20.6894 5.37573L20.7934 5.39611C21.0221 5.43683 21.1677 5.51829 21.1677 5.70157C21.1677 5.9052 20.9805 6.04776 20.6686 6.04776C20.5647 6.04776 20.3567 6.02738 20.2112 5.9052L20.3151 5.74229C20.3983 5.80339 20.5023 5.8441 20.6686 5.8441C20.835 5.8441 20.9181 5.80339 20.9181 5.72192C20.9181 5.66083 20.8558 5.62011 20.731 5.59973L20.627 5.57939C20.3983 5.53864 20.2528 5.43683 20.2528 5.27389C20.2528 5.07027 20.4191 4.92771 20.6894 4.92771C20.8766 4.92771 21.0221 4.96843 21.1469 5.04989ZM22.1242 4.96843V5.17208H21.7083V5.62011C21.7083 5.76267 21.7915 5.82376 21.8747 5.82376C21.9578 5.82376 22.0202 5.78301 22.0826 5.74229L22.1658 5.92557C22.0826 5.98666 21.9786 6.02738 21.8331 6.02738C21.5836 6.02738 21.438 5.9052 21.438 5.62011V5.15171H21.2301V4.94808H21.438V4.62224H21.6667V4.94808H22.1242V4.96843ZM22.8312 4.92771C23.1431 4.92771 23.3302 5.15171 23.351 5.47755C23.351 5.49792 23.351 5.53864 23.351 5.55901H22.5608C22.6024 5.74229 22.7272 5.82376 22.8727 5.82376C22.9767 5.82376 23.1015 5.78301 23.1846 5.72192L23.3094 5.88485C23.1846 5.98666 23.0183 6.02738 22.8727 6.02738C22.5401 6.02738 22.3113 5.80339 22.3113 5.47755C22.2905 5.15171 22.5192 4.92771 22.8312 4.92771ZM22.8312 5.13136C22.6648 5.13136 22.5608 5.23317 22.54 5.39611H23.1015C23.0807 5.23317 22.9767 5.13136 22.8312 5.13136ZM24.1411 4.92771C24.2035 4.92771 24.2659 4.92771 24.3283 4.94808L24.2659 5.17208C24.2243 5.15171 24.1411 5.13136 24.0788 5.13136C23.9332 5.13136 23.8293 5.23317 23.8293 5.41645V6.00704H23.6005V4.94808H23.8293V5.07027C23.8916 4.9888 24.0164 4.92771 24.1411 4.92771ZM24.9729 4.92771C25.1393 4.92771 25.2848 4.9888 25.368 5.09061L25.2224 5.25355C25.1393 5.19245 25.0769 5.15171 24.9521 5.15171C24.765 5.15171 24.6402 5.29427 24.6402 5.49792C24.6402 5.70157 24.7858 5.8441 24.9521 5.8441C25.0561 5.8441 25.1393 5.80339 25.2224 5.74229L25.368 5.9052C25.264 6.00704 25.1184 6.06813 24.9729 6.06813C24.6194 6.06813 24.4115 5.82376 24.4115 5.51829C24.3907 5.17208 24.6194 4.92771 24.9729 4.92771ZM26.5948 4.96843V6.02738H26.3661V5.9052C26.2829 6.00704 26.1789 6.06813 26.0334 6.06813C25.7215 6.06813 25.4927 5.8441 25.4927 5.51829C25.4927 5.19246 25.7215 4.96843 26.0334 4.96843C26.1789 4.96843 26.3037 5.02952 26.3661 5.13136V5.00918H26.5948V4.96843ZM26.0542 5.15171C25.8462 5.15171 25.7215 5.31464 25.7215 5.49792C25.7215 5.6812 25.8462 5.8441 26.0542 5.8441C26.2413 5.8441 26.3869 5.70157 26.3869 5.49792C26.3869 5.29427 26.2621 5.15171 26.0542 5.15171ZM27.4681 4.92771C27.5305 4.92771 27.5929 4.92771 27.6553 4.94808L27.5929 5.17208C27.5513 5.15171 27.4681 5.13136 27.4058 5.13136C27.2602 5.13136 27.1562 5.23317 27.1562 5.41645V6.00704H26.9275V4.94808H27.1562V5.07027C27.2394 4.9888 27.3434 4.92771 27.4681 4.92771ZM28.3207 4.92771C28.4662 4.92771 28.591 4.9888 28.6534 5.09061V4.43897H28.8821V6.02738H28.6534V5.9052C28.5702 6.00704 28.4662 6.06813 28.3207 6.06813C28.0088 6.06813 27.78 5.8441 27.78 5.51829C27.78 5.19246 28.0088 4.92771 28.3207 4.92771ZM28.3415 5.15171C28.1335 5.15171 28.0088 5.31464 28.0088 5.49792C28.0088 5.6812 28.1335 5.8441 28.3415 5.8441C28.5286 5.8441 28.6742 5.70157 28.6742 5.49792C28.6742 5.29427 28.5494 5.15171 28.3415 5.15171Z" fill="black"/>
</svg>
