<svg width="15" height="10" viewBox="0 0 15 10" fill="none" xmlns="http://www.w3.org/2000/svg">
<path d="M2.90363 9.9667V9.29797C2.90363 9.04719 2.73826 8.88001 2.44425 8.88001C2.29725 8.88001 2.13187 8.93015 2.03999 9.06392C1.94812 8.94688 1.83787 8.88001 1.65411 8.88001C1.52548 8.88001 1.41523 8.91345 1.32335 9.03047V8.91345H1.0661V9.9667H1.32335V9.38157C1.32335 9.19766 1.43361 9.09734 1.59899 9.09734C1.76436 9.09734 1.85624 9.19766 1.85624 9.38157V9.9667H2.1135V9.38157C2.1135 9.19766 2.24212 9.09734 2.38912 9.09734C2.5545 9.09734 2.64638 9.19766 2.64638 9.38157V9.9667H2.90363ZM6.67057 8.91345H6.26632V8.57908H6.00908V8.91345H5.77019V9.13079H6.00908V9.6156C6.00908 9.86638 6.11931 10.0001 6.41333 10.0001C6.52358 10.0001 6.65219 9.9667 6.72569 9.91653L6.65219 9.71592C6.57871 9.76607 6.48683 9.76607 6.4317 9.76607C6.30307 9.76607 6.26632 9.6992 6.26632 9.58218V9.11406H6.67057V8.91345ZM8.8205 8.88001C8.67349 8.88001 8.58161 8.94688 8.5081 9.03047V8.89673H8.25086V9.94998H8.5081V9.34812C8.5081 9.16421 8.59998 9.06392 8.74699 9.06392C8.80212 9.06392 8.85725 9.08062 8.91238 9.08062L8.98586 8.86328C8.9491 8.88001 8.87563 8.88001 8.8205 8.88001ZM5.56805 8.99705C5.43944 8.91345 5.27406 8.88001 5.09029 8.88001C4.7963 8.88001 4.61254 9.01375 4.61254 9.21438C4.61254 9.39827 4.75955 9.49858 5.01679 9.51531L5.14542 9.53201C5.27406 9.54873 5.34756 9.58218 5.34756 9.64905C5.34756 9.73264 5.25568 9.78279 5.07192 9.78279C4.90653 9.78279 4.75955 9.73264 4.68605 9.66577L4.55741 9.84966C4.68605 9.93325 4.86981 9.98342 5.05354 9.98342C5.38431 9.98342 5.58642 9.83296 5.58642 9.64905C5.58642 9.46514 5.42107 9.36484 5.18218 9.3314L5.05354 9.31467C4.94328 9.29797 4.85143 9.28125 4.85143 9.21438C4.85143 9.13079 4.94328 9.09734 5.07192 9.09734C5.21893 9.09734 5.36594 9.14751 5.43944 9.18093L5.56805 8.99705ZM12.3302 8.88001C12.1832 8.88001 12.0913 8.94688 12.0178 9.03047V8.89673H11.7606V9.94998H12.0178V9.34812C12.0178 9.16421 12.1097 9.06392 12.2567 9.06392C12.3118 9.06392 12.3669 9.08062 12.422 9.08062L12.4955 8.86328C12.4588 8.88001 12.3853 8.88001 12.3302 8.88001ZM9.07774 9.43171C9.07774 9.74937 9.31663 9.98342 9.7025 9.98342C9.86789 9.98342 9.99652 9.94998 10.1068 9.86638L9.97814 9.6825C9.88626 9.74937 9.77601 9.78279 9.66575 9.78279C9.46364 9.78279 9.31663 9.64905 9.31663 9.44844C9.31663 9.2478 9.46364 9.11406 9.66575 9.11406C9.77601 9.11406 9.86789 9.14751 9.97814 9.21438L10.1068 9.03047C9.97814 8.94688 9.86789 8.91345 9.7025 8.91345C9.31663 8.88001 9.07774 9.11406 9.07774 9.43171ZM11.4298 9.43171V8.91345H11.1725V9.04719C11.0807 8.94688 10.9704 8.89673 10.805 8.89673C10.4743 8.89673 10.217 9.13079 10.217 9.44844C10.217 9.76607 10.4743 10.0001 10.805 10.0001C10.9704 10.0001 11.099 9.94998 11.1725 9.84966V9.98342H11.4298V9.43171ZM10.4927 9.43171C10.4927 9.2478 10.6213 9.09734 10.8418 9.09734C11.0439 9.09734 11.1909 9.2478 11.1909 9.43171C11.1909 9.6156 11.0439 9.76607 10.8418 9.76607C10.6397 9.76607 10.4927 9.6156 10.4927 9.43171ZM7.46071 8.88001C7.12997 8.88001 6.8727 9.09734 6.8727 9.43171C6.8727 9.76607 7.11159 9.98342 7.46071 9.98342C7.6261 9.98342 7.79146 9.93325 7.93847 9.83296L7.80983 9.66577C7.71798 9.73264 7.58935 9.78279 7.47909 9.78279C7.3137 9.78279 7.16672 9.71592 7.12997 9.53201H7.9936C7.9936 9.49858 7.9936 9.48186 7.9936 9.44844C8.01197 9.09734 7.79146 8.88001 7.46071 8.88001ZM7.46071 9.08062C7.6261 9.08062 7.73636 9.16421 7.75473 9.3314H7.14835C7.16672 9.19766 7.27695 9.08062 7.46071 9.08062ZM13.7634 9.43171V8.47876H13.5062V9.03047C13.4143 8.93015 13.3041 8.88001 13.1387 8.88001C12.8079 8.88001 12.5507 9.11406 12.5507 9.43171C12.5507 9.74937 12.8079 9.98342 13.1387 9.98342C13.3041 9.98342 13.4327 9.93325 13.5062 9.83296V9.9667H13.7634V9.43171ZM12.8447 9.43171C12.8447 9.2478 12.9733 9.09734 13.1938 9.09734C13.396 9.09734 13.543 9.2478 13.543 9.43171C13.543 9.6156 13.396 9.76607 13.1938 9.76607C12.9733 9.76607 12.8447 9.6156 12.8447 9.43171ZM4.3369 9.43171V8.91345H4.07966V9.04719C3.98778 8.94688 3.87752 8.89673 3.71216 8.89673C3.38139 8.89673 3.12415 9.13079 3.12415 9.44844C3.12415 9.76607 3.38139 10.0001 3.71216 10.0001C3.87752 10.0001 4.00615 9.94998 4.07966 9.84966V9.98342H4.3369V9.43171ZM3.38139 9.43171C3.38139 9.2478 3.51002 9.09734 3.73051 9.09734C3.93265 9.09734 4.07966 9.2478 4.07966 9.43171C4.07966 9.6156 3.93265 9.76607 3.73051 9.76607C3.5284 9.76607 3.38139 9.6156 3.38139 9.43171Z" fill="black"/>
<path d="M9.29779 0.884766H5.47571V7.11013H9.29779V0.884766Z" fill="#FF5A00"/>
<path d="M5.7331 3.98882C5.7331 2.72038 6.39462 1.60215 7.38688 0.867792C6.65186 0.333711 5.71473 0.0166016 4.70409 0.0166016C2.29691 0.0166016 0.349121 1.78574 0.349121 3.97212C0.349121 6.1585 2.29691 7.92765 4.70409 7.92765C5.71473 7.92765 6.65186 7.61054 7.38688 7.07646C6.39462 6.39217 5.7331 5.25725 5.7331 3.98882Z" fill="#EB001B"/>
<path d="M14.443 3.9889C14.443 6.17528 12.4952 7.94443 10.0881 7.94443C9.07743 7.94443 8.14029 7.62731 7.40527 7.09323C8.41591 6.35888 9.05905 5.24066 9.05905 3.97223C9.05905 2.70377 8.39753 1.58555 7.40527 0.85119C8.14029 0.317109 9.07743 0 10.0881 0C12.4952 0.03338 14.443 1.81921 14.443 3.9889Z" fill="#F79E1B"/>
</svg>
