<svg width="139" height="24" viewBox="0 0 139 24" fill="none" xmlns="http://www.w3.org/2000/svg">
<path d="M12.005 23.3538C18.6352 23.3538 24.01 18.2575 24.01 11.9709C24.01 5.68422 18.6352 0.587891 12.005 0.587891C5.37482 0.587891 0 5.68422 0 11.9709C0 18.2575 5.37482 23.3538 12.005 23.3538Z" fill="#EB001B"/>
<path d="M26.5231 23.3538C33.1533 23.3538 38.5281 18.2575 38.5281 11.9709C38.5281 5.68422 33.1533 0.587891 26.5231 0.587891C19.8929 0.587891 14.5181 5.68422 14.5181 11.9709C14.5181 18.2575 19.8929 23.3538 26.5231 23.3538Z" fill="#F79E1B"/>
<path d="M19.2643 2.9043C22.1259 4.95588 24.0104 8.26488 24.0104 11.9709C24.0104 15.6771 22.1259 18.9199 19.2643 21.0377C16.4026 18.9861 14.5181 15.6771 14.5181 11.9709C14.5181 8.26488 16.4026 4.95588 19.2643 2.9043Z" fill="#FF5F00"/>
<path d="M37.7615 19.5156V19.5819H37.552V20.1783H37.4125V19.6481H37.2031V19.5156H37.7615ZM38.5991 19.5156V20.1783H38.4594V19.6481L38.2501 20.112H38.1104L37.9011 19.6481V20.1783H37.7615V19.5156H37.9011L38.1104 19.9795L38.3199 19.5156H38.5991Z" fill="#F79E1B"/>
<path d="M137.708 12.3675V12.4337H137.498V12.9631H137.359V12.4337H137.149V12.3675H137.708ZM138.545 12.3675V13.0293H138.406V12.4998L138.196 12.9631H138.057L137.848 12.4998V13.0293H137.708V12.3675H137.848L138.057 12.8308L138.266 12.3675H138.545ZM55.7665 5.15387C57.5812 5.15387 58.9073 6.34511 58.9073 8.06579V12.6322H57.2322V8.59524C57.2322 7.3378 56.5343 6.67601 55.4175 6.67601C54.3008 6.67601 53.3934 7.3378 53.3934 8.59524V12.6322H51.7183V8.59524C51.7183 7.3378 51.0204 6.67601 49.9036 6.67601C48.7869 6.67601 47.8795 7.3378 47.8795 8.59524V12.6322H46.2044V5.3524H47.8795V6.27892C48.5077 5.41859 49.4848 5.22005 50.2525 5.22005C51.4391 5.22005 52.4163 5.68331 52.9049 6.54365C53.6028 5.41859 54.7893 5.15387 55.7665 5.15387ZM68.7487 5.3524V12.6322H67.0736V11.7719C66.5152 12.4337 65.7474 12.8308 64.6306 12.8308C62.4669 12.8308 60.7918 11.2424 60.7918 8.99231C60.7918 6.74219 62.4669 5.15387 64.6306 5.15387C65.7474 5.15387 66.5152 5.55094 67.0736 6.21275V5.3524H68.7487ZM64.8401 6.67601C63.3743 6.67601 62.5368 7.73489 62.5368 8.99231C62.5368 10.2497 63.4441 11.3086 64.8401 11.3086C66.236 11.3086 67.1433 10.3159 67.1433 8.99231C67.1433 7.66871 66.236 6.67601 64.8401 6.67601ZM77.194 5.94803L76.4961 7.20545C76.0075 6.94073 75.1002 6.60983 74.123 6.60983C73.2156 6.60983 72.6572 6.94073 72.6572 7.47017C72.6572 7.99961 73.2156 8.13197 73.9136 8.19815L74.6813 8.33051C76.3565 8.52905 77.3337 9.25703 77.3337 10.5145C77.3337 11.9042 76.0773 12.8969 73.8438 12.8969C73.0761 12.8969 71.6801 12.7646 70.5634 11.9704L71.3311 10.7792C71.8895 11.1763 72.5875 11.5072 73.8438 11.5072C74.9605 11.5072 75.5887 11.1763 75.5887 10.6468C75.5887 10.2497 75.1699 9.98501 74.2626 9.85266L73.4251 9.78647C71.7499 9.58794 70.8426 8.79377 70.8426 7.66871C70.8426 6.21275 72.0988 5.3524 74.0531 5.3524C75.2397 5.15387 76.3565 5.48476 77.194 5.94803ZM84.4529 5.3524V6.80836H81.5214V9.98501C81.5214 10.9777 82.0798 11.3748 82.7778 11.3748C83.2663 11.3748 83.8945 11.1763 84.3133 10.9115L85.0113 12.169C84.3831 12.5661 83.6153 12.8969 82.6381 12.8969C80.8933 12.8969 79.8463 12.0366 79.8463 10.0512V6.80836H78.3108V5.3524H79.8463V3.16846H81.5214V5.3524H84.4529ZM89.6178 5.15387C91.7815 5.15387 93.2472 6.74219 93.2472 8.99231C93.2472 9.19085 93.2472 9.3894 93.2472 9.58794H87.524C87.7333 10.9115 88.7104 11.4409 89.8272 11.4409C90.595 11.4409 91.4326 11.1763 92.0607 10.6468L92.8982 11.7719C91.9909 12.5661 90.8742 12.8308 89.7574 12.8308C87.4541 12.8308 85.779 11.3086 85.779 8.99231C85.779 6.74219 87.3843 5.15387 89.6178 5.15387ZM89.6178 6.60983C88.4312 6.60983 87.7333 7.33781 87.5937 8.39669H91.5721C91.3628 7.27163 90.6647 6.60983 89.6178 6.60983ZM99.1102 5.15387C99.5987 5.15387 100.018 5.22004 100.436 5.3524L100.018 6.94073C99.6685 6.74219 99.18 6.67601 98.7612 6.67601C97.7142 6.67601 96.9465 7.40399 96.9465 8.66141V12.6984H95.2714V5.41859H96.9465V6.21275C97.435 5.48477 98.2028 5.15387 99.1102 5.15387ZM106.09 5.15387C108.253 5.15387 109.929 6.74219 109.929 8.99231C109.929 11.2424 108.253 12.8308 106.09 12.8308C104.973 12.8308 104.205 12.4337 103.647 11.7719V15.6765H101.971V5.3524H103.647V6.21275C104.205 5.61713 104.973 5.15387 106.09 5.15387ZM105.881 6.67601C104.484 6.67601 103.577 7.66871 103.577 8.99231C103.577 10.3159 104.484 11.3086 105.881 11.3086C107.347 11.3086 108.184 10.2497 108.184 8.99231C108.184 7.73489 107.347 6.67601 105.881 6.67601ZM119.282 5.3524V12.6322H117.606V11.7719C117.048 12.4337 116.28 12.8308 115.163 12.8308C113 12.8308 111.324 11.2424 111.324 8.99231C111.324 6.74219 113 5.15387 115.163 5.15387C116.28 5.15387 117.048 5.55094 117.606 6.21275V5.3524H119.282ZM115.373 6.67601C113.907 6.67601 113.069 7.73489 113.069 8.99231C113.069 10.2497 113.977 11.3086 115.373 11.3086C116.769 11.3086 117.676 10.3159 117.676 8.99231C117.676 7.66871 116.769 6.67601 115.373 6.67601ZM127.727 5.94803L127.029 7.20545C126.54 6.94073 125.633 6.60983 124.656 6.60983C123.748 6.60983 123.19 6.94073 123.19 7.47017C123.19 7.99961 123.748 8.13197 124.446 8.19815L125.214 8.33051C126.89 8.52905 127.866 9.25703 127.866 10.5145C127.866 11.9042 126.61 12.8969 124.377 12.8969C123.609 12.8969 122.213 12.7646 121.096 11.9704L121.864 10.7792C122.422 11.1763 123.12 11.5072 124.377 11.5072C125.493 11.5072 126.122 11.1763 126.122 10.6468C126.122 10.2497 125.703 9.98501 124.795 9.85266L123.958 9.78647C122.282 9.58794 121.375 8.79377 121.375 7.66871C121.375 6.21275 122.632 5.3524 124.585 5.3524C125.842 5.15387 126.959 5.48476 127.727 5.94803ZM135.753 5.94803L135.056 7.20545C134.567 6.94073 133.659 6.60983 132.682 6.60983C131.775 6.60983 131.217 6.94073 131.217 7.47017C131.217 7.99961 131.775 8.13197 132.473 8.19815L133.241 8.33051C134.916 8.52905 135.893 9.25703 135.893 10.5145C135.893 11.9042 134.637 12.8969 132.403 12.8969C131.635 12.8969 130.24 12.7646 129.122 11.9704L129.89 10.7792C130.449 11.1763 131.146 11.5072 132.403 11.5072C133.52 11.5072 134.148 11.1763 134.148 10.6468C134.148 10.2497 133.729 9.98501 132.822 9.85266L131.985 9.78647C130.309 9.58794 129.401 8.79377 129.401 7.66871C129.401 6.21275 130.658 5.3524 132.612 5.3524C133.799 5.15387 134.985 5.48476 135.753 5.94803ZM48.2983 16.603C49.3452 16.603 50.113 17.331 50.113 18.3899C50.113 19.4488 49.3452 20.1767 48.2983 20.1767C47.8097 20.1767 47.3909 19.9782 47.1816 19.6473V20.0444H46.4137V14.8823H47.1816V17.0001C47.3909 16.8016 47.7399 16.603 48.2983 16.603ZM48.1587 17.331C47.5305 17.331 47.0419 17.7943 47.0419 18.4561C47.0419 19.1179 47.4608 19.5811 48.1587 19.5811C48.8566 19.5811 49.2754 19.0517 49.2754 18.4561C49.2754 17.8605 48.8566 17.331 48.1587 17.331ZM54.3008 16.7354L51.4391 21.6327H50.5317L51.8579 19.4488L50.2525 16.7354H51.1599L52.3465 18.7208L53.4632 16.7354H54.3008ZM61.071 16.603C61.9086 16.603 62.5368 17.1324 62.5368 17.9928V20.1767H61.769V18.2575C61.769 17.6619 61.42 17.331 60.9315 17.331C60.4429 17.331 60.0241 17.6619 60.0241 18.2575V20.1767H59.2563V18.2575C59.2563 17.6619 58.9771 17.331 58.4188 17.331C57.9302 17.331 57.5114 17.6619 57.5114 18.2575V20.1767H56.7436V16.7354H57.5114V17.1324C57.7906 16.7354 58.2791 16.603 58.6281 16.603C59.1865 16.603 59.6053 16.8678 59.8845 17.1986C60.0241 16.7354 60.5824 16.603 61.071 16.603ZM67.0736 16.7354V20.1767H66.3057V19.7796C66.0265 20.1106 65.6776 20.3091 65.189 20.3091C64.1421 20.3091 63.3743 19.5811 63.3743 18.5223C63.3743 17.4634 64.1421 16.7354 65.189 16.7354C65.6776 16.7354 66.0964 16.9339 66.3057 17.2649V16.8678H67.0736V16.7354ZM65.189 17.331C64.4911 17.331 64.0722 17.8605 64.0722 18.4561C64.0722 19.0517 64.4911 19.5811 65.189 19.5811C65.8172 19.5811 66.3057 19.1179 66.3057 18.4561C66.3057 17.7943 65.887 17.331 65.189 17.331ZM70.9821 17.0001L70.6332 17.5957C70.4238 17.4634 69.9352 17.331 69.5164 17.331C69.0976 17.331 68.8184 17.4634 68.8184 17.728C68.8184 17.9928 69.0976 18.059 69.4466 18.059L69.7956 18.1252C70.5634 18.2575 71.0519 18.5223 71.0519 19.1179C71.0519 19.7796 70.4238 20.2429 69.3768 20.2429C69.0279 20.2429 68.3299 20.1767 67.8413 19.7796L68.1903 19.2502C68.4695 19.4488 68.8184 19.5811 69.3768 19.5811C69.9352 19.5811 70.2143 19.4488 70.2143 19.184C70.2143 18.9855 70.005 18.8532 69.5863 18.7869L69.2372 18.7208C68.4695 18.5884 67.9809 18.2575 67.9809 17.728C67.9809 17.0663 68.5392 16.603 69.4466 16.603C70.0748 16.603 70.5634 16.7354 70.9821 17.0001ZM74.2626 16.7354V17.3972H72.8667V18.8532C72.8667 19.3164 73.1459 19.515 73.4251 19.515C73.7042 19.515 73.9136 19.3826 74.123 19.2502L74.4022 19.8459C74.123 20.0444 73.774 20.1767 73.2854 20.1767C72.4479 20.1767 71.9593 19.7796 71.9593 18.8532V17.331H71.2613V16.6692H71.9593V15.6103H72.727V16.6692H74.2626V16.7354ZM76.6357 16.603C77.6826 16.603 78.3108 17.331 78.3806 18.3899C78.3806 18.4561 78.3806 18.5884 78.3806 18.6546H75.7283C75.8679 19.2502 76.2866 19.515 76.7753 19.515C77.1242 19.515 77.543 19.3826 77.8222 19.184L78.241 19.7135C77.8222 20.0444 77.2639 20.1767 76.7753 20.1767C75.6586 20.1767 74.8907 19.4488 74.8907 18.3899C74.821 17.331 75.5887 16.603 76.6357 16.603ZM76.6357 17.2649C76.0773 17.2649 75.7283 17.5957 75.6585 18.1252H77.543C77.4732 17.5957 77.1242 17.2649 76.6357 17.2649ZM81.0328 16.603C81.2422 16.603 81.4517 16.603 81.661 16.6692L81.4517 17.3972C81.312 17.331 81.0328 17.2649 80.8235 17.2649C80.3349 17.2649 79.9859 17.5957 79.9859 18.1913V20.1106H79.2182V16.6692H79.9859V17.0663C80.1953 16.8016 80.6141 16.603 81.0328 16.603ZM83.8247 16.603C84.3831 16.603 84.8716 16.8016 85.1508 17.1324L84.6623 17.6619C84.3831 17.4634 84.1737 17.331 83.7549 17.331C83.1268 17.331 82.708 17.7943 82.708 18.4561C82.708 19.1179 83.1965 19.5811 83.7549 19.5811C84.1039 19.5811 84.3831 19.4488 84.6623 19.2502L85.1508 19.7796C84.8019 20.1106 84.3132 20.3091 83.8247 20.3091C82.6381 20.3091 81.9402 19.515 81.9402 18.5223C81.8704 17.3972 82.6381 16.603 83.8247 16.603ZM89.2688 16.7354V20.1767H88.5011V19.7796C88.2219 20.1106 87.8729 20.3091 87.3843 20.3091C86.3374 20.3091 85.5696 19.5811 85.5696 18.5223C85.5696 17.4634 86.3374 16.7354 87.3843 16.7354C87.8729 16.7354 88.2917 16.9339 88.5011 17.2649V16.8678H89.2688V16.7354ZM87.4541 17.331C86.7562 17.331 86.3374 17.8605 86.3374 18.4561C86.3374 19.0517 86.7562 19.5811 87.4541 19.5811C88.0823 19.5811 88.5709 19.1179 88.5709 18.4561C88.5709 17.7943 88.1521 17.331 87.4541 17.331ZM92.2003 16.603C92.4097 16.603 92.619 16.603 92.8285 16.6692L92.619 17.3972C92.4795 17.331 92.2003 17.2649 91.991 17.2649C91.5023 17.2649 91.1534 17.5957 91.1534 18.1913V20.1106H90.3855V16.6692H91.1534V17.0663C91.4326 16.8016 91.7815 16.603 92.2003 16.603ZM95.0619 16.603C95.5506 16.603 95.9693 16.8016 96.1787 17.1324V15.0147H96.9465V20.1767H96.1787V19.7796C95.8995 20.1106 95.5506 20.3091 95.0619 20.3091C94.015 20.3091 93.2472 19.5811 93.2472 18.5223C93.2472 17.4634 94.015 16.603 95.0619 16.603ZM95.1317 17.331C94.4338 17.331 94.015 17.8605 94.015 18.4561C94.015 19.0517 94.4338 19.5811 95.1317 19.5811C95.7599 19.5811 96.2485 19.1179 96.2485 18.4561C96.2485 17.7943 95.8297 17.331 95.1317 17.331Z" fill="black"/>
</svg>
