<svg width="53" height="38" viewBox="0 0 53 38" fill="none" xmlns="http://www.w3.org/2000/svg">
<path d="M10.2332 37.8178V35.2836C10.2332 34.3333 9.62062 33.6997 8.53158 33.6997C7.98707 33.6997 7.37449 33.8898 7.03416 34.3967C6.69384 33.9531 6.28545 33.6997 5.6048 33.6997C5.12835 33.6997 4.71996 33.8265 4.37963 34.2699V33.8265H3.42673V37.8178H4.37963V35.6004C4.37963 34.9035 4.78803 34.5233 5.40061 34.5233C6.01319 34.5233 6.35351 34.9035 6.35351 35.6004V37.8178H7.30642V35.6004C7.30642 34.9035 7.78288 34.5233 8.32739 34.5233C8.93997 34.5233 9.28029 34.9035 9.28029 35.6004V37.8178H10.2332ZM24.1864 33.8265H22.689V32.5594H21.7362V33.8265H20.8513V34.6501H21.7362V36.4873C21.7362 37.4376 22.1445 37.9444 23.2336 37.9444C23.642 37.9444 24.1184 37.8178 24.3906 37.6277L24.1184 36.8674C23.8462 37.0575 23.5059 37.0575 23.3017 37.0575C22.8252 37.0575 22.689 36.8041 22.689 36.3606V34.5867H24.1864V33.8265ZM32.1501 33.6997C31.6055 33.6997 31.2652 33.9531 30.9929 34.2699V33.7631H30.0401V37.7544H30.9929V35.4737C30.9929 34.7767 31.3333 34.3967 31.8778 34.3967C32.082 34.3967 32.2862 34.4599 32.4904 34.4599L32.7626 33.6364C32.6265 33.6997 32.3543 33.6997 32.1501 33.6997ZM20.1026 34.1433C19.6262 33.8265 19.0136 33.6997 18.3329 33.6997C17.2439 33.6997 16.5632 34.2065 16.5632 34.9668C16.5632 35.6637 17.1078 36.0438 18.0606 36.1072L18.5371 36.1705C19.0136 36.2339 19.2858 36.3606 19.2858 36.614C19.2858 36.9308 18.9455 37.1208 18.2648 37.1208C17.6522 37.1208 17.1078 36.9308 16.8355 36.6774L16.359 37.3743C16.8355 37.691 17.5162 37.8812 18.1968 37.8812C19.422 37.8812 20.1706 37.311 20.1706 36.614C20.1706 35.9171 19.5581 35.537 18.6732 35.4103L18.1968 35.3469C17.7884 35.2836 17.4481 35.2203 17.4481 34.9668C17.4481 34.6501 17.7884 34.5233 18.2648 34.5233C18.8094 34.5233 19.3539 34.7134 19.6262 34.8401L20.1026 34.1433ZM45.1505 33.6997C44.6059 33.6997 44.2656 33.9531 43.9933 34.2699V33.7631H43.0405V37.7544H43.9933V35.4737C43.9933 34.7767 44.3337 34.3967 44.8782 34.3967C45.0824 34.3967 45.2866 34.4599 45.4907 34.4599L45.763 33.6364C45.6268 33.6997 45.3547 33.6997 45.1505 33.6997ZM33.1029 35.7904C33.1029 36.9942 33.9878 37.8812 35.4172 37.8812C36.0298 37.8812 36.5062 37.7544 36.9146 37.4376L36.4382 36.7408C36.0978 36.9942 35.6894 37.1208 35.281 37.1208C34.5324 37.1208 33.9878 36.614 33.9878 35.8538C33.9878 35.0935 34.5324 34.5867 35.281 34.5867C35.6894 34.5867 36.0298 34.7134 36.4382 34.9668L36.9146 34.2699C36.4382 33.9531 36.0298 33.8265 35.4172 33.8265C33.9878 33.6997 33.1029 34.5867 33.1029 35.7904ZM41.8152 35.7904V33.8265H40.8624V34.3333C40.522 33.9531 40.1136 33.7631 39.501 33.7631C38.2759 33.7631 37.323 34.6501 37.323 35.8538C37.323 37.0575 38.2759 37.9444 39.501 37.9444C40.1136 37.9444 40.5901 37.7544 40.8624 37.3743V37.8812H41.8152V35.7904ZM38.344 35.7904C38.344 35.0935 38.8205 34.5233 39.6372 34.5233C40.3859 34.5233 40.9305 35.0935 40.9305 35.7904C40.9305 36.4873 40.3859 37.0575 39.6372 37.0575C38.8885 37.0575 38.344 36.4873 38.344 35.7904ZM27.1133 33.6997C25.8881 33.6997 24.9352 34.5233 24.9352 35.7904C24.9352 37.0575 25.8201 37.8812 27.1133 37.8812C27.7259 37.8812 28.3384 37.691 28.8829 37.311L28.4065 36.6774C28.0662 36.9308 27.5897 37.1208 27.1813 37.1208C26.5687 37.1208 26.0243 36.8674 25.8881 36.1705H29.0871C29.0871 36.0438 29.0871 35.9805 29.0871 35.8538C29.1552 34.5233 28.3384 33.6997 27.1133 33.6997ZM27.1133 34.4599C27.7259 34.4599 28.1343 34.7767 28.2024 35.4103H25.9562C26.0243 34.9035 26.4326 34.4599 27.1133 34.4599ZM50.4595 35.7904V32.1792H49.5066V34.2699C49.1663 33.8898 48.7579 33.6997 48.1453 33.6997C46.9201 33.6997 45.9672 34.5867 45.9672 35.7904C45.9672 36.9942 46.9201 37.8812 48.1453 37.8812C48.7579 37.8812 49.2343 37.691 49.5066 37.311V37.8178H50.4595V35.7904ZM47.0563 35.7904C47.0563 35.0935 47.5327 34.5233 48.3495 34.5233C49.0982 34.5233 49.6428 35.0935 49.6428 35.7904C49.6428 36.4873 49.0982 37.0575 48.3495 37.0575C47.5327 37.0575 47.0563 36.4873 47.0563 35.7904ZM15.5422 35.7904V33.8265H14.5894V34.3333C14.249 33.9531 13.8406 33.7631 13.2281 33.7631C12.0029 33.7631 11.05 34.6501 11.05 35.8538C11.05 37.0575 12.0029 37.9444 13.2281 37.9444C13.8406 37.9444 14.3171 37.7544 14.5894 37.3743V37.8812H15.5422V35.7904ZM12.0029 35.7904C12.0029 35.0935 12.4794 34.5233 13.2961 34.5233C14.0448 34.5233 14.5894 35.0935 14.5894 35.7904C14.5894 36.4873 14.0448 37.0575 13.2961 37.0575C12.5474 37.0575 12.0029 36.4873 12.0029 35.7904Z" fill="black"/>
<path d="M33.9181 3.35742H19.7605V26.9849H33.9181V3.35742Z" fill="#FF5A00"/>
<path d="M20.7138 15.1394C20.7138 10.3253 23.1641 6.08119 26.8396 3.29404C24.117 1.26702 20.6457 0.0634766 16.9022 0.0634766C7.98562 0.0634766 0.770752 6.77797 0.770752 15.0761C0.770752 23.3742 7.98562 30.0887 16.9022 30.0887C20.6457 30.0887 24.117 28.8851 26.8396 26.8581C23.1641 24.261 20.7138 19.9536 20.7138 15.1394Z" fill="#EB001B"/>
<path d="M52.9767 15.1393C52.9767 23.4374 45.7618 30.1519 36.8453 30.1519C33.1017 30.1519 29.6305 28.9483 26.9079 26.9213C30.6514 24.1342 33.0337 19.8901 33.0337 15.076C33.0337 10.2618 30.5833 6.01772 26.9079 3.23057C29.6305 1.20354 33.1017 0 36.8453 0C45.7618 0.126689 52.9767 6.90454 52.9767 15.1393Z" fill="#F79E1B"/>
</svg>
