<svg width="520" height="451" viewBox="0 0 520 451" fill="none" xmlns="http://www.w3.org/2000/svg">
<path d="M88.1616 59.8585V79.3145C88.1616 80.7423 88.8766 82.0176 89.9478 82.5043L108.119 90.7408C109.885 91.5413 111.75 89.9031 111.75 87.551V51.4066C111.75 49.0426 109.868 47.4045 108.099 48.2269L89.9275 56.6788C88.8658 57.174 88.1616 58.4408 88.1616 59.8585Z" fill="#21A366"/>
<path d="M208.333 2.5H369.444C381.871 2.5 391.944 12.5736 391.944 25V425.516C391.944 437.942 381.871 448.016 369.444 448.016H208.333C195.907 448.016 185.833 437.942 185.833 425.516V25C185.833 12.5736 195.907 2.5 208.333 2.5Z" fill="#F9F9F9" stroke="url(#paint0_linear_0_1)" stroke-width="5"/>
<path d="M246.667 7.35872C246.667 4.59729 248.905 2.35872 251.667 2.35872H326.111C328.873 2.35872 331.111 4.5973 331.111 7.35872V15.0491C331.111 17.8106 328.873 20.0491 326.111 20.0491H251.667C248.905 20.0491 246.667 17.8106 246.667 15.0491V7.35872Z" fill="#E1E1E1"/>
<g filter="url(#filter0_i_0_1)">
<rect x="211.111" y="48.3538" width="66.6667" height="11.7936" rx="2" fill="#F4F4F4"/>
</g>
<g filter="url(#filter1_i_0_1)">
<rect x="211.111" y="64.8649" width="66.6667" height="11.7936" rx="2" fill="#F4F4F4"/>
</g>
<g filter="url(#filter2_i_0_1)">
<rect x="211.111" y="178.084" width="66.6667" height="11.7936" rx="2" fill="#F4F4F4"/>
</g>
<g filter="url(#filter3_i_0_1)">
<rect x="300" y="48.3538" width="66.6667" height="82.5553" rx="3" fill="#F4F4F4"/>
</g>
<g filter="url(#filter4_i_0_1)">
<rect x="211.111" y="148.6" width="20" height="21.2285" rx="2" fill="#F4F4F4"/>
</g>
<g filter="url(#filter5_i_0_1)">
<rect x="257.778" y="148.6" width="20" height="21.2285" rx="2" fill="#F4F4F4"/>
</g>
<g filter="url(#filter6_i_0_1)">
<rect x="234.444" y="148.6" width="20" height="21.2285" rx="2" fill="#F4F4F4"/>
</g>
<g filter="url(#filter7_i_0_1)">
<rect x="211.111" y="343.194" width="155.556" height="23.5872" rx="2" fill="#F2F2F2"/>
</g>
<g filter="url(#filter8_i_0_1)">
<rect x="211.111" y="373.857" width="155.556" height="23.5872" rx="2" fill="#F2F2F2"/>
</g>
<line x1="221.111" y1="301.666" x2="376.667" y2="301.666" stroke="#F2F2F2" stroke-width="0.5"/>
<line x1="221.111" y1="230.905" x2="376.667" y2="230.905" stroke="#F2F2F2" stroke-width="0.5"/>
<line x1="221.111" y1="242.698" x2="376.667" y2="242.698" stroke="#F2F2F2" stroke-width="0.5"/>
<line x1="221.111" y1="313.46" x2="376.667" y2="313.46" stroke="#F2F2F2" stroke-width="0.5"/>
<line x1="221.111" y1="254.492" x2="376.667" y2="254.492" stroke="#F2F2F2" stroke-width="0.5"/>
<line x1="221.111" y1="266.286" x2="376.667" y2="266.286" stroke="#F2F2F2" stroke-width="0.5"/>
<line x1="221.111" y1="278.079" x2="376.667" y2="278.079" stroke="#F2F2F2" stroke-width="0.5"/>
<line x1="221.111" y1="289.873" x2="376.667" y2="289.873" stroke="#F2F2F2" stroke-width="0.5"/>
<path d="M211.111 267.341L223.911 241.913L240.862 289.202L252.854 267.341L260.58 282.184L280.413 225.689L302.323 282.184L315.814 256.756L333.457 294.84L366.667 219.361" stroke="url(#paint1_linear_0_1)" stroke-width="2" stroke-linecap="round"/>
<g filter="url(#filter9_d_0_1)">
<rect x="354.444" y="150.958" width="155.556" height="47.1744" rx="5" fill="#F9F9F9"/>
</g>
<g filter="url(#filter10_d_0_1)">
<path d="M460.25 169.013V179H458.603V170.968L456.162 171.795V170.435L460.052 169.013H460.25ZM465.35 177.414L465.343 178.59C465.343 179.055 465.227 179.533 464.994 180.025C464.762 180.518 464.454 180.923 464.071 181.242L463.189 180.729C463.317 180.524 463.433 180.317 463.538 180.107C463.643 179.898 463.727 179.674 463.791 179.438C463.855 179.201 463.887 178.938 463.887 178.651V177.414H465.35ZM473.512 177.688V179H466.84V177.872L470.08 174.338C470.436 173.937 470.716 173.59 470.921 173.299C471.126 173.007 471.27 172.745 471.352 172.513C471.438 172.276 471.481 172.046 471.481 171.822C471.481 171.508 471.422 171.232 471.304 170.995C471.19 170.754 471.021 170.564 470.798 170.428C470.575 170.286 470.303 170.216 469.984 170.216C469.615 170.216 469.305 170.296 469.055 170.455C468.804 170.615 468.615 170.836 468.487 171.118C468.36 171.396 468.296 171.715 468.296 172.075H466.648C466.648 171.496 466.781 170.968 467.045 170.489C467.309 170.006 467.692 169.623 468.193 169.341C468.695 169.054 469.299 168.91 470.005 168.91C470.67 168.91 471.235 169.022 471.7 169.245C472.165 169.468 472.518 169.785 472.76 170.195C473.006 170.605 473.129 171.091 473.129 171.651C473.129 171.961 473.079 172.269 472.979 172.574C472.878 172.88 472.735 173.185 472.548 173.49C472.366 173.791 472.149 174.094 471.898 174.399C471.648 174.7 471.372 175.006 471.071 175.315L468.918 177.688H473.512ZM476.123 177.701H476.26C476.889 177.701 477.413 177.619 477.832 177.455C478.256 177.286 478.593 177.054 478.844 176.758C479.094 176.462 479.274 176.113 479.384 175.712C479.493 175.311 479.548 174.876 479.548 174.406V172.69C479.548 172.285 479.505 171.929 479.418 171.624C479.336 171.314 479.217 171.057 479.062 170.852C478.912 170.642 478.737 170.485 478.536 170.38C478.34 170.275 478.128 170.223 477.9 170.223C477.65 170.223 477.424 170.28 477.224 170.394C477.028 170.503 476.861 170.656 476.725 170.852C476.592 171.043 476.49 171.269 476.417 171.528C476.349 171.784 476.314 172.057 476.314 172.349C476.314 172.622 476.346 172.886 476.41 173.142C476.479 173.392 476.579 173.616 476.711 173.812C476.843 174.007 477.009 174.162 477.21 174.276C477.41 174.39 477.645 174.447 477.914 174.447C478.169 174.447 478.404 174.399 478.618 174.304C478.832 174.203 479.019 174.069 479.179 173.9C479.338 173.732 479.464 173.543 479.555 173.333C479.646 173.123 479.696 172.909 479.705 172.69L480.334 172.882C480.334 173.228 480.261 173.57 480.115 173.907C479.974 174.24 479.776 174.545 479.521 174.823C479.27 175.097 478.976 175.315 478.639 175.479C478.306 175.644 477.944 175.726 477.552 175.726C477.078 175.726 476.659 175.637 476.294 175.459C475.934 175.277 475.633 175.031 475.392 174.721C475.155 174.411 474.977 174.055 474.858 173.654C474.74 173.253 474.681 172.832 474.681 172.39C474.681 171.911 474.754 171.462 474.899 171.043C475.045 170.624 475.257 170.255 475.535 169.936C475.813 169.612 476.15 169.361 476.547 169.184C476.948 169.001 477.401 168.91 477.907 168.91C478.445 168.91 478.917 169.015 479.322 169.225C479.728 169.434 480.07 169.724 480.348 170.093C480.626 170.462 480.835 170.89 480.977 171.378C481.118 171.866 481.188 172.39 481.188 172.95V173.531C481.188 174.119 481.136 174.687 481.031 175.233C480.926 175.776 480.756 176.279 480.519 176.744C480.286 177.204 479.979 177.61 479.596 177.961C479.217 178.307 478.753 178.578 478.201 178.774C477.654 178.966 477.012 179.062 476.273 179.062H476.123V177.701ZM482.686 171.487V170.961C482.686 170.583 482.768 170.239 482.932 169.929C483.096 169.619 483.335 169.37 483.649 169.184C483.964 168.997 484.342 168.903 484.784 168.903C485.24 168.903 485.623 168.997 485.933 169.184C486.247 169.37 486.486 169.619 486.65 169.929C486.814 170.239 486.896 170.583 486.896 170.961V171.487C486.896 171.856 486.814 172.196 486.65 172.506C486.491 172.816 486.254 173.064 485.939 173.251C485.63 173.438 485.249 173.531 484.798 173.531C484.351 173.531 483.968 173.438 483.649 173.251C483.335 173.064 483.096 172.816 482.932 172.506C482.768 172.196 482.686 171.856 482.686 171.487ZM483.827 170.961V171.487C483.827 171.67 483.861 171.843 483.93 172.007C484.003 172.171 484.112 172.303 484.258 172.403C484.404 172.504 484.584 172.554 484.798 172.554C485.017 172.554 485.194 172.504 485.331 172.403C485.472 172.303 485.577 172.171 485.646 172.007C485.714 171.843 485.748 171.67 485.748 171.487V170.961C485.748 170.774 485.712 170.599 485.639 170.435C485.57 170.266 485.465 170.132 485.324 170.031C485.183 169.931 485.003 169.881 484.784 169.881C484.575 169.881 484.397 169.931 484.251 170.031C484.11 170.132 484.003 170.266 483.93 170.435C483.861 170.599 483.827 170.774 483.827 170.961ZM487.484 177.093V176.56C487.484 176.186 487.566 175.844 487.73 175.534C487.899 175.224 488.141 174.976 488.455 174.789C488.77 174.602 489.148 174.509 489.59 174.509C490.046 174.509 490.428 174.602 490.738 174.789C491.053 174.976 491.29 175.224 491.449 175.534C491.613 175.844 491.695 176.186 491.695 176.56V177.093C491.695 177.466 491.613 177.808 491.449 178.118C491.29 178.428 491.055 178.676 490.745 178.863C490.435 179.05 490.057 179.144 489.61 179.144C489.159 179.144 488.774 179.05 488.455 178.863C488.141 178.676 487.899 178.428 487.73 178.118C487.566 177.808 487.484 177.466 487.484 177.093ZM488.633 176.56V177.093C488.633 177.275 488.669 177.448 488.742 177.612C488.82 177.776 488.931 177.911 489.077 178.016C489.223 178.116 489.398 178.166 489.604 178.166C489.836 178.166 490.023 178.116 490.164 178.016C490.305 177.911 490.406 177.779 490.465 177.619C490.529 177.455 490.561 177.28 490.561 177.093V176.56C490.561 176.373 490.524 176.197 490.451 176.033C490.383 175.869 490.276 175.737 490.13 175.637C489.989 175.536 489.809 175.486 489.59 175.486C489.376 175.486 489.198 175.536 489.057 175.637C488.915 175.737 488.808 175.869 488.735 176.033C488.667 176.197 488.633 176.373 488.633 176.56ZM490 170.469L485.14 178.248L484.299 177.763L489.159 169.983L490 170.469Z" fill="#20EEBC"/>
</g>
<g filter="url(#filter11_d_0_1)">
<path d="M405.526 178.64V180H400.242V178.64H405.526ZM400.728 170.047V180H399.012V170.047H400.728ZM404.836 174.203V175.543H400.242V174.203H404.836ZM405.492 170.047V171.414H400.242V170.047H405.492ZM411.159 170.047V180H409.457V170.047H411.159ZM414.283 170.047V171.414H406.36V170.047H414.283ZM422.172 174.203V175.563H416.888V174.203H422.172ZM417.312 170.047V180H415.596V170.047H417.312ZM423.491 170.047V180H421.782V170.047H423.491Z" fill="black"/>
</g>
<g filter="url(#filter12_d_0_1)">
<path d="M370 174.608L380 160L390 174.608L380 179.92L370 174.608Z" fill="#7880E7"/>
</g>
<g filter="url(#filter13_d_0_1)">
<path d="M380 160L390 174.608L380 179.92V160Z" fill="#5C64C7"/>
</g>
<g filter="url(#filter14_d_0_1)">
<path d="M370 177.074L380 182.267L390 177.074L380 189.406L370 177.074Z" fill="#7880E7"/>
</g>
<g filter="url(#filter15_d_0_1)">
<path d="M380 182.292L390 177.074L380 189.406V182.292ZM370 174.5L380 170.434L390 174.5L380 179.92L370 174.5Z" fill="#5C64C7"/>
</g>
<g filter="url(#filter16_d_0_1)">
<path d="M380 170.434L390 174.5L380 179.92V170.434Z" fill="#2A3192"/>
</g>
<g filter="url(#filter17_d_0_1)">
<path d="M33 230C20.2937 230 10 240.294 10 253C10 265.706 20.2937 276 33 276C45.7063 276 56 265.706 56 253C56 240.294 45.7063 230 33 230Z" fill="#ECEFF1"/>
<path d="M33 233.45C22.2475 233.45 13.45 242.247 13.45 253C13.45 263.752 22.2475 272.55 33 272.55C43.7525 272.55 52.55 263.752 52.55 253C52.55 242.247 43.7525 233.45 33 233.45Z" fill="#1E88E5"/>
<path d="M44.0204 241.5H40.59L35.99 253H30.01L25.41 241.5H21.9795L24.375 247.25H20.35V250.7H25.87L26.79 253H20.35V256.45H28.17L33 267.95L37.83 256.45H45.65V253H39.21L40.13 250.7H45.65V247.25H41.625L44.0204 241.5ZM33 260.59L31.39 256.45H34.61L33 260.59Z" fill="#ECEFF1"/>
</g>
<g filter="url(#filter18_d_0_1)">
<path d="M510 374.445C510 387.146 499.701 397.445 487 397.445C474.299 397.445 464 387.146 464 374.445C464 361.744 474.299 351.445 487 351.445C499.701 351.445 510 361.744 510 374.445Z" fill="#FFC107"/>
<path d="M478.95 385.945V362.945H488.379C491.15 362.945 493.248 363.48 494.681 364.549C496.114 365.619 496.828 367.186 496.828 369.248C496.828 370.375 496.54 371.369 495.97 372.227C495.395 373.085 494.596 373.714 493.571 374.114C494.74 374.411 495.66 375.003 496.333 375.902C497.008 376.794 497.35 377.886 497.35 379.184C497.35 381.394 496.65 383.07 495.248 384.206C493.846 385.342 491.852 385.922 489.26 385.945H478.95ZM483.55 372.145H488.567C490.94 372.105 492.13 371.197 492.13 369.333C492.13 368.291 491.829 367.54 491.227 367.083C490.626 366.625 489.677 366.395 488.379 366.395H483.55V372.145ZM483.55 375.595V382.495H489.121C490.226 382.495 492.75 381.956 492.75 379.495C492.75 377.034 491.465 375.626 489.3 375.595H483.55Z" fill="#FFF8E1"/>
<path d="M482.4 359.495H485.85V365.245H482.4V359.495ZM488.15 359.495H491.6V365.245H488.15V359.495ZM482.4 383.645H485.85V389.395H482.4V383.645ZM488.15 383.645H491.6V389.395H488.15V383.645Z" fill="#FFF8E1"/>
</g>
<g filter="url(#filter19_d_0_1)">
<path d="M399 86C411.703 86 422 75.7025 422 63C422 50.2975 411.703 40 399 40C386.297 40 376 50.2975 376 63C376 75.7025 386.297 86 399 86Z" fill="#26A69A"/>
<path d="M409.35 50.35H388.65V56.1009H409.35V50.35Z" fill="white"/>
<path d="M399 59.55C393.874 59.55 385.2 60.3975 385.2 63.575C385.2 66.7524 393.874 67.6 399 67.6C404.126 67.6 412.8 66.7524 412.8 63.575C412.8 60.3975 404.126 59.55 399 59.55ZM399 65.3C392.649 65.3 387.5 64.2707 387.5 63C387.5 61.7292 392.649 60.7 399 60.7C405.351 60.7 410.5 61.7292 410.5 63C410.5 64.2707 405.351 65.3 399 65.3Z" fill="white"/>
<path d="M399 63C400.259 63 401.407 62.9574 402.45 62.8873V50.35H395.55V62.8873C396.593 62.9574 397.741 63 399 63Z" fill="white"/>
<path d="M400.981 65.2632C400.854 65.2678 400.725 65.2712 400.595 65.2747C400.072 65.2896 399.543 65.3 399 65.3C398.457 65.3 397.928 65.2896 397.405 65.2758C397.275 65.2724 397.146 65.2689 397.019 65.2643C396.518 65.2471 396.026 65.2252 395.55 65.1953V76.8H402.45V65.1942C401.974 65.2241 401.482 65.2459 400.981 65.2632Z" fill="white"/>
</g>
<g filter="url(#filter20_d_0_1)">
<rect x="102" y="300" width="116.667" height="109.681" rx="5" fill="#F9F9F9"/>
</g>
<path d="M112.843 386.831L114.526 381.602H115.744L113.45 388H112.628L112.843 386.831ZM111.288 381.602L112.958 386.831L113.186 388H112.36L110.075 381.602H111.288ZM117.638 381.602V388H116.535V381.602H117.638ZM121.58 382.454L119.668 388H118.512L120.92 381.602H121.659L121.58 382.454ZM123.179 388L121.263 382.454L121.18 381.602H121.922L124.339 388H123.179ZM123.087 385.627V386.501H119.606V385.627H123.087Z" fill="#DAD9D9"/>
<path d="M115.195 374.104V375.163H110.322V374.104H115.195ZM113.33 372.111V377.287H112.192V372.111H113.33ZM116.045 372.634V372.258C116.045 371.988 116.104 371.742 116.221 371.521C116.338 371.299 116.509 371.122 116.733 370.988C116.958 370.855 117.228 370.788 117.544 370.788C117.869 370.788 118.143 370.855 118.364 370.988C118.589 371.122 118.76 371.299 118.877 371.521C118.994 371.742 119.053 371.988 119.053 372.258V372.634C119.053 372.897 118.994 373.14 118.877 373.361C118.763 373.583 118.594 373.76 118.369 373.894C118.148 374.027 117.876 374.094 117.554 374.094C117.235 374.094 116.961 374.027 116.733 373.894C116.509 373.76 116.338 373.583 116.221 373.361C116.104 373.14 116.045 372.897 116.045 372.634ZM116.86 372.258V372.634C116.86 372.764 116.885 372.888 116.934 373.005C116.986 373.122 117.064 373.216 117.168 373.288C117.272 373.36 117.401 373.396 117.554 373.396C117.71 373.396 117.837 373.36 117.935 373.288C118.035 373.216 118.11 373.122 118.159 373.005C118.208 372.888 118.232 372.764 118.232 372.634V372.258C118.232 372.124 118.206 371.999 118.154 371.882C118.105 371.761 118.031 371.665 117.93 371.594C117.829 371.522 117.7 371.486 117.544 371.486C117.394 371.486 117.267 371.522 117.163 371.594C117.062 371.665 116.986 371.761 116.934 371.882C116.885 371.999 116.86 372.124 116.86 372.258ZM119.473 376.638V376.257C119.473 375.99 119.531 375.746 119.648 375.524C119.769 375.303 119.941 375.126 120.166 374.992C120.391 374.859 120.661 374.792 120.977 374.792C121.302 374.792 121.576 374.859 121.797 374.992C122.021 375.126 122.191 375.303 122.305 375.524C122.422 375.746 122.48 375.99 122.48 376.257V376.638C122.48 376.905 122.422 377.149 122.305 377.37C122.191 377.591 122.023 377.769 121.802 377.902C121.58 378.036 121.31 378.103 120.991 378.103C120.669 378.103 120.394 378.036 120.166 377.902C119.941 377.769 119.769 377.591 119.648 377.37C119.531 377.149 119.473 376.905 119.473 376.638ZM120.293 376.257V376.638C120.293 376.768 120.319 376.892 120.371 377.009C120.426 377.126 120.506 377.222 120.61 377.297C120.715 377.368 120.84 377.404 120.986 377.404C121.152 377.404 121.286 377.368 121.387 377.297C121.488 377.222 121.559 377.128 121.602 377.014C121.647 376.896 121.67 376.771 121.67 376.638V376.257C121.67 376.123 121.644 375.998 121.592 375.881C121.543 375.764 121.466 375.669 121.362 375.598C121.261 375.526 121.133 375.49 120.977 375.49C120.824 375.49 120.697 375.526 120.596 375.598C120.495 375.669 120.418 375.764 120.366 375.881C120.317 375.998 120.293 376.123 120.293 376.257ZM121.27 371.906L117.798 377.463L117.197 377.116L120.669 371.56L121.27 371.906ZM126.67 370.866V378H125.493V372.263L123.75 372.854V371.882L126.528 370.866H126.67ZM130.312 376.867L130.308 377.707C130.308 378.039 130.225 378.381 130.059 378.732C129.893 379.084 129.673 379.374 129.399 379.602L128.77 379.235C128.861 379.089 128.944 378.941 129.019 378.791C129.093 378.641 129.154 378.482 129.199 378.312C129.245 378.143 129.268 377.956 129.268 377.751V376.867H130.312ZM132.612 374.694L131.675 374.465L132.061 370.891H135.894V371.887H133.037L132.842 373.63C132.952 373.565 133.105 373.501 133.301 373.439C133.496 373.374 133.719 373.342 133.97 373.342C134.305 373.342 134.604 373.397 134.868 373.508C135.135 373.615 135.361 373.773 135.547 373.981C135.732 374.187 135.874 374.437 135.972 374.733C136.069 375.026 136.118 375.357 136.118 375.725C136.118 376.053 136.069 376.361 135.972 376.647C135.877 376.934 135.734 377.186 135.542 377.404C135.35 377.622 135.107 377.793 134.814 377.917C134.525 378.037 134.181 378.098 133.784 378.098C133.488 378.098 133.203 378.055 132.93 377.971C132.66 377.883 132.417 377.754 132.202 377.585C131.987 377.412 131.815 377.201 131.685 376.95C131.554 376.696 131.479 376.405 131.46 376.076H132.612C132.642 376.307 132.705 376.504 132.803 376.667C132.904 376.826 133.037 376.949 133.203 377.033C133.369 377.118 133.561 377.16 133.779 377.16C133.978 377.16 134.149 377.126 134.292 377.058C134.435 376.986 134.554 376.885 134.648 376.755C134.746 376.621 134.818 376.465 134.863 376.286C134.912 376.107 134.937 375.909 134.937 375.69C134.937 375.482 134.909 375.292 134.854 375.119C134.801 374.947 134.722 374.797 134.614 374.67C134.51 374.543 134.378 374.445 134.219 374.377C134.059 374.305 133.875 374.27 133.667 374.27C133.387 374.27 133.172 374.31 133.022 374.392C132.876 374.473 132.739 374.574 132.612 374.694ZM138.442 373.913H139.146C139.419 373.913 139.645 373.866 139.824 373.771C140.007 373.677 140.142 373.547 140.229 373.381C140.317 373.215 140.361 373.024 140.361 372.81C140.361 372.585 140.321 372.393 140.239 372.233C140.161 372.071 140.041 371.945 139.878 371.857C139.718 371.77 139.515 371.726 139.268 371.726C139.059 371.726 138.87 371.768 138.701 371.853C138.535 371.934 138.403 372.051 138.306 372.204C138.208 372.354 138.159 372.533 138.159 372.741H136.978C136.978 372.364 137.077 372.028 137.275 371.735C137.474 371.442 137.744 371.213 138.086 371.047C138.431 370.878 138.818 370.793 139.248 370.793C139.707 370.793 140.107 370.869 140.449 371.022C140.794 371.172 141.063 371.397 141.255 371.696C141.447 371.996 141.543 372.367 141.543 372.81C141.543 373.011 141.496 373.216 141.401 373.425C141.307 373.633 141.167 373.824 140.981 373.996C140.796 374.165 140.565 374.304 140.288 374.411C140.011 374.515 139.691 374.567 139.326 374.567H138.442V373.913ZM138.442 374.831V374.187H139.326C139.743 374.187 140.098 374.235 140.391 374.333C140.687 374.431 140.928 374.566 141.113 374.738C141.299 374.908 141.434 375.101 141.519 375.319C141.606 375.537 141.65 375.769 141.65 376.013C141.65 376.345 141.59 376.641 141.47 376.901C141.353 377.159 141.185 377.377 140.967 377.556C140.749 377.735 140.493 377.87 140.2 377.961C139.91 378.052 139.595 378.098 139.253 378.098C138.947 378.098 138.654 378.055 138.374 377.971C138.094 377.886 137.843 377.761 137.622 377.595C137.401 377.425 137.225 377.215 137.095 376.965C136.968 376.711 136.904 376.418 136.904 376.086H138.081C138.081 376.298 138.13 376.485 138.228 376.647C138.328 376.807 138.468 376.932 138.647 377.023C138.83 377.115 139.038 377.16 139.272 377.16C139.52 377.16 139.733 377.116 139.912 377.028C140.091 376.94 140.228 376.81 140.322 376.638C140.42 376.465 140.469 376.257 140.469 376.013C140.469 375.736 140.415 375.511 140.308 375.339C140.2 375.166 140.047 375.039 139.849 374.958C139.65 374.873 139.416 374.831 139.146 374.831H138.442Z" fill="#20EEBC"/>
<path d="M113.364 339.753V341.213H112.612V339.753H113.364ZM113.271 347.727V349.035H112.524V347.727H113.271ZM114.009 346.149C114.009 345.961 113.97 345.796 113.892 345.656C113.817 345.513 113.693 345.384 113.521 345.271C113.348 345.153 113.117 345.044 112.827 344.943C112.41 344.797 112.046 344.632 111.733 344.45C111.424 344.265 111.183 344.037 111.011 343.767C110.841 343.493 110.757 343.153 110.757 342.746C110.757 342.346 110.848 341.999 111.03 341.706C111.216 341.413 111.473 341.187 111.802 341.027C112.131 340.868 112.515 340.788 112.954 340.788C113.293 340.788 113.597 340.839 113.867 340.939C114.141 341.04 114.373 341.188 114.565 341.384C114.757 341.579 114.904 341.82 115.005 342.106C115.109 342.39 115.161 342.715 115.161 343.083H113.989C113.989 342.875 113.965 342.689 113.916 342.526C113.87 342.36 113.802 342.22 113.711 342.106C113.62 341.989 113.509 341.9 113.379 341.838C113.252 341.776 113.107 341.745 112.944 341.745C112.713 341.745 112.523 341.789 112.373 341.877C112.223 341.962 112.113 342.079 112.041 342.229C111.973 342.378 111.938 342.549 111.938 342.741C111.938 342.927 111.974 343.09 112.046 343.229C112.118 343.369 112.24 343.496 112.412 343.61C112.588 343.721 112.829 343.833 113.135 343.947C113.555 344.097 113.918 344.265 114.224 344.45C114.533 344.632 114.771 344.859 114.937 345.129C115.106 345.396 115.19 345.733 115.19 346.14C115.19 346.56 115.093 346.916 114.897 347.209C114.705 347.502 114.435 347.725 114.087 347.878C113.742 348.028 113.34 348.103 112.881 348.103C112.591 348.103 112.303 348.065 112.017 347.99C111.733 347.912 111.476 347.785 111.245 347.609C111.014 347.434 110.83 347.201 110.693 346.911C110.557 346.618 110.488 346.26 110.488 345.837H111.67C111.67 346.091 111.704 346.302 111.772 346.472C111.841 346.641 111.934 346.774 112.051 346.872C112.168 346.97 112.298 347.04 112.441 347.082C112.588 347.124 112.734 347.146 112.881 347.146C113.125 347.146 113.33 347.105 113.496 347.023C113.665 346.939 113.792 346.822 113.877 346.672C113.965 346.519 114.009 346.345 114.009 346.149ZM119.434 340.866V348H118.257V342.263L116.514 342.854V341.882L119.292 340.866H119.434ZM125.117 340.866V348H123.94V342.263L122.197 342.854V341.882L124.976 340.866H125.117ZM128.76 346.867L128.755 347.707C128.755 348.039 128.672 348.381 128.506 348.732C128.34 349.084 128.12 349.374 127.847 349.602L127.217 349.235C127.308 349.089 127.391 348.941 127.466 348.791C127.541 348.641 127.601 348.482 127.646 348.312C127.692 348.143 127.715 347.956 127.715 347.751V346.867H128.76ZM131.06 344.694L130.122 344.465L130.508 340.891H134.341V341.887H131.484L131.289 343.63C131.4 343.565 131.553 343.501 131.748 343.439C131.943 343.374 132.166 343.342 132.417 343.342C132.752 343.342 133.052 343.397 133.315 343.508C133.582 343.615 133.809 343.773 133.994 343.981C134.18 344.187 134.321 344.437 134.419 344.733C134.517 345.026 134.565 345.357 134.565 345.725C134.565 346.053 134.517 346.361 134.419 346.647C134.325 346.934 134.181 347.186 133.989 347.404C133.797 347.622 133.555 347.793 133.262 347.917C132.972 348.037 132.629 348.098 132.231 348.098C131.935 348.098 131.65 348.055 131.377 347.971C131.107 347.883 130.864 347.754 130.649 347.585C130.435 347.412 130.262 347.201 130.132 346.95C130.002 346.696 129.927 346.405 129.907 346.076H131.06C131.089 346.307 131.152 346.504 131.25 346.667C131.351 346.826 131.484 346.949 131.65 347.033C131.816 347.118 132.008 347.16 132.227 347.16C132.425 347.16 132.596 347.126 132.739 347.058C132.882 346.986 133.001 346.885 133.096 346.755C133.193 346.621 133.265 346.465 133.311 346.286C133.359 346.107 133.384 345.909 133.384 345.69C133.384 345.482 133.356 345.292 133.301 345.119C133.249 344.947 133.169 344.797 133.062 344.67C132.957 344.543 132.826 344.445 132.666 344.377C132.507 344.305 132.323 344.27 132.114 344.27C131.834 344.27 131.619 344.31 131.47 344.392C131.323 344.473 131.187 344.574 131.06 344.694ZM140.229 340.891V341.535L137.388 348H136.147L138.984 341.828H135.303V340.891H140.229ZM145.84 346.062C145.84 346.504 145.737 346.877 145.532 347.18C145.327 347.482 145.047 347.712 144.692 347.868C144.341 348.021 143.944 348.098 143.501 348.098C143.058 348.098 142.66 348.021 142.305 347.868C141.95 347.712 141.67 347.482 141.465 347.18C141.26 346.877 141.157 346.504 141.157 346.062C141.157 345.769 141.214 345.503 141.328 345.266C141.442 345.025 141.603 344.818 141.812 344.646C142.023 344.47 142.271 344.335 142.554 344.24C142.84 344.146 143.153 344.099 143.491 344.099C143.94 344.099 144.342 344.182 144.697 344.348C145.052 344.514 145.33 344.743 145.532 345.036C145.737 345.329 145.84 345.671 145.84 346.062ZM144.658 346.003C144.658 345.765 144.609 345.557 144.512 345.378C144.414 345.199 144.277 345.061 144.102 344.963C143.926 344.865 143.722 344.816 143.491 344.816C143.257 344.816 143.053 344.865 142.881 344.963C142.708 345.061 142.573 345.199 142.476 345.378C142.381 345.557 142.334 345.765 142.334 346.003C142.334 346.244 142.381 346.452 142.476 346.628C142.57 346.8 142.705 346.932 142.881 347.023C143.057 347.115 143.263 347.16 143.501 347.16C143.739 347.16 143.944 347.115 144.116 347.023C144.289 346.932 144.422 346.8 144.517 346.628C144.611 346.452 144.658 346.244 144.658 346.003ZM145.679 342.761C145.679 343.116 145.584 343.431 145.396 343.708C145.21 343.985 144.953 344.203 144.624 344.362C144.295 344.519 143.921 344.597 143.501 344.597C143.078 344.597 142.7 344.519 142.368 344.362C142.039 344.203 141.781 343.985 141.592 343.708C141.406 343.431 141.313 343.116 141.313 342.761C141.313 342.338 141.406 341.981 141.592 341.691C141.781 341.398 142.039 341.175 142.368 341.022C142.697 340.869 143.073 340.793 143.496 340.793C143.919 340.793 144.295 340.869 144.624 341.022C144.953 341.175 145.21 341.398 145.396 341.691C145.584 341.981 145.679 342.338 145.679 342.761ZM144.502 342.8C144.502 342.588 144.46 342.403 144.375 342.243C144.294 342.08 144.178 341.953 144.028 341.862C143.879 341.771 143.701 341.726 143.496 341.726C143.291 341.726 143.114 341.77 142.964 341.857C142.814 341.945 142.699 342.069 142.617 342.229C142.536 342.388 142.495 342.578 142.495 342.8C142.495 343.018 142.536 343.208 142.617 343.371C142.699 343.531 142.814 343.656 142.964 343.747C143.117 343.838 143.296 343.884 143.501 343.884C143.706 343.884 143.883 343.838 144.033 343.747C144.183 343.656 144.299 343.531 144.38 343.371C144.461 343.208 144.502 343.018 144.502 342.8ZM146.992 347.414C146.992 347.232 147.054 347.079 147.178 346.955C147.301 346.828 147.469 346.765 147.681 346.765C147.896 346.765 148.063 346.828 148.184 346.955C148.307 347.079 148.369 347.232 148.369 347.414C148.369 347.596 148.307 347.749 148.184 347.873C148.063 347.997 147.896 348.059 147.681 348.059C147.469 348.059 147.301 347.997 147.178 347.873C147.054 347.749 146.992 347.596 146.992 347.414ZM150.605 347.072H150.703C151.152 347.072 151.527 347.014 151.826 346.896C152.129 346.776 152.37 346.61 152.549 346.398C152.728 346.187 152.856 345.938 152.935 345.651C153.013 345.365 153.052 345.054 153.052 344.719V343.493C153.052 343.203 153.021 342.95 152.959 342.731C152.9 342.51 152.816 342.326 152.705 342.18C152.598 342.03 152.472 341.918 152.329 341.843C152.189 341.768 152.038 341.73 151.875 341.73C151.696 341.73 151.535 341.771 151.392 341.853C151.252 341.931 151.133 342.04 151.035 342.18C150.941 342.316 150.868 342.478 150.815 342.663C150.767 342.845 150.742 343.041 150.742 343.249C150.742 343.444 150.765 343.633 150.811 343.815C150.859 343.994 150.931 344.154 151.025 344.294C151.12 344.434 151.239 344.545 151.382 344.626C151.525 344.707 151.693 344.748 151.885 344.748C152.067 344.748 152.235 344.714 152.388 344.646C152.541 344.574 152.674 344.478 152.788 344.357C152.902 344.237 152.992 344.102 153.057 343.952C153.122 343.802 153.158 343.649 153.164 343.493L153.613 343.63C153.613 343.877 153.561 344.121 153.457 344.362C153.356 344.6 153.215 344.818 153.032 345.017C152.853 345.212 152.643 345.368 152.402 345.485C152.165 345.603 151.906 345.661 151.626 345.661C151.287 345.661 150.988 345.598 150.728 345.471C150.47 345.34 150.256 345.165 150.083 344.943C149.914 344.722 149.787 344.468 149.702 344.182C149.618 343.895 149.575 343.594 149.575 343.278C149.575 342.937 149.627 342.616 149.731 342.316C149.836 342.017 149.987 341.753 150.186 341.525C150.384 341.294 150.625 341.115 150.908 340.988C151.195 340.858 151.519 340.793 151.88 340.793C152.264 340.793 152.601 340.868 152.891 341.018C153.18 341.167 153.424 341.374 153.623 341.638C153.822 341.901 153.971 342.207 154.072 342.556C154.173 342.904 154.224 343.278 154.224 343.679V344.094C154.224 344.514 154.186 344.919 154.111 345.31C154.036 345.697 153.914 346.057 153.745 346.389C153.579 346.717 153.359 347.007 153.086 347.258C152.816 347.505 152.484 347.699 152.09 347.839C151.699 347.976 151.24 348.044 150.713 348.044H150.605V347.072ZM158.555 340.866V348H157.378V342.263L155.635 342.854V341.882L158.413 340.866H158.555Z" fill="#00A3FF"/>
<path d="M139.12 321.921L141.215 315.891H142.235L139.604 323H138.876L139.12 321.921ZM137.162 315.891L139.237 321.921L139.496 323H138.769L136.142 315.891H137.162ZM144.037 317.717V323H143.129V317.717H144.037ZM143.061 316.315C143.061 316.169 143.104 316.045 143.192 315.944C143.284 315.843 143.417 315.793 143.593 315.793C143.765 315.793 143.897 315.843 143.988 315.944C144.083 316.045 144.13 316.169 144.13 316.315C144.13 316.455 144.083 316.576 143.988 316.677C143.897 316.774 143.765 316.823 143.593 316.823C143.417 316.823 143.284 316.774 143.192 316.677C143.104 316.576 143.061 316.455 143.061 316.315ZM148.603 322.097V319.377C148.603 319.169 148.56 318.988 148.476 318.835C148.394 318.679 148.271 318.558 148.104 318.474C147.938 318.389 147.733 318.347 147.489 318.347C147.261 318.347 147.061 318.386 146.889 318.464C146.719 318.542 146.586 318.645 146.488 318.771C146.394 318.898 146.347 319.035 146.347 319.182H145.443C145.443 318.993 145.492 318.806 145.59 318.62C145.688 318.435 145.827 318.267 146.01 318.117C146.195 317.964 146.417 317.844 146.674 317.756C146.934 317.665 147.224 317.619 147.543 317.619C147.927 317.619 148.266 317.684 148.559 317.814C148.855 317.945 149.086 318.142 149.252 318.405C149.421 318.666 149.506 318.993 149.506 319.387V321.848C149.506 322.023 149.521 322.211 149.55 322.409C149.582 322.608 149.63 322.779 149.691 322.922V323H148.749C148.703 322.896 148.668 322.757 148.642 322.585C148.616 322.409 148.603 322.246 148.603 322.097ZM148.759 319.797L148.769 320.432H147.855C147.598 320.432 147.369 320.453 147.167 320.495C146.965 320.534 146.796 320.594 146.659 320.676C146.522 320.757 146.418 320.86 146.347 320.983C146.275 321.104 146.239 321.245 146.239 321.408C146.239 321.574 146.277 321.726 146.352 321.862C146.426 321.999 146.539 322.108 146.688 322.189C146.841 322.268 147.029 322.307 147.25 322.307C147.527 322.307 147.771 322.248 147.982 322.131C148.194 322.014 148.362 321.87 148.485 321.701C148.612 321.532 148.681 321.368 148.69 321.208L149.076 321.643C149.053 321.779 148.992 321.931 148.891 322.097C148.79 322.263 148.655 322.422 148.485 322.575C148.319 322.725 148.121 322.85 147.89 322.951C147.662 323.049 147.405 323.098 147.118 323.098C146.76 323.098 146.446 323.028 146.176 322.888C145.909 322.748 145.701 322.561 145.551 322.326C145.404 322.089 145.331 321.823 145.331 321.53C145.331 321.247 145.386 320.998 145.497 320.783C145.608 320.565 145.767 320.384 145.976 320.241C146.184 320.095 146.435 319.984 146.728 319.909C147.021 319.834 147.348 319.797 147.709 319.797H148.759ZM153.041 322.355C153.256 322.355 153.454 322.312 153.637 322.224C153.819 322.136 153.969 322.015 154.086 321.862C154.203 321.706 154.27 321.529 154.286 321.33H155.146C155.129 321.643 155.023 321.934 154.828 322.204C154.636 322.471 154.384 322.688 154.071 322.854C153.759 323.016 153.415 323.098 153.041 323.098C152.644 323.098 152.297 323.028 152.001 322.888C151.708 322.748 151.464 322.556 151.269 322.312C151.076 322.067 150.932 321.787 150.834 321.472C150.74 321.153 150.692 320.816 150.692 320.461V320.256C150.692 319.901 150.74 319.566 150.834 319.25C150.932 318.931 151.076 318.649 151.269 318.405C151.464 318.161 151.708 317.969 152.001 317.829C152.297 317.689 152.644 317.619 153.041 317.619C153.454 317.619 153.816 317.704 154.125 317.873C154.434 318.039 154.677 318.267 154.853 318.557C155.032 318.843 155.129 319.169 155.146 319.533H154.286C154.27 319.315 154.208 319.118 154.101 318.942C153.996 318.767 153.853 318.627 153.671 318.522C153.492 318.415 153.282 318.361 153.041 318.361C152.764 318.361 152.532 318.417 152.343 318.527C152.157 318.635 152.009 318.781 151.898 318.967C151.791 319.149 151.713 319.353 151.664 319.577C151.618 319.799 151.596 320.025 151.596 320.256V320.461C151.596 320.692 151.618 320.92 151.664 321.145C151.71 321.369 151.786 321.573 151.894 321.755C152.004 321.937 152.152 322.084 152.338 322.194C152.527 322.302 152.761 322.355 153.041 322.355ZM155.922 320.417V320.305C155.922 319.924 155.977 319.571 156.088 319.245C156.199 318.916 156.358 318.632 156.566 318.391C156.775 318.146 157.027 317.958 157.323 317.824C157.619 317.688 157.951 317.619 158.319 317.619C158.69 317.619 159.024 317.688 159.32 317.824C159.62 317.958 159.874 318.146 160.082 318.391C160.294 318.632 160.455 318.916 160.565 319.245C160.676 319.571 160.731 319.924 160.731 320.305V320.417C160.731 320.798 160.676 321.151 160.565 321.477C160.455 321.802 160.294 322.087 160.082 322.331C159.874 322.572 159.621 322.761 159.325 322.897C159.032 323.031 158.7 323.098 158.329 323.098C157.958 323.098 157.624 323.031 157.328 322.897C157.032 322.761 156.778 322.572 156.566 322.331C156.358 322.087 156.199 321.802 156.088 321.477C155.977 321.151 155.922 320.798 155.922 320.417ZM156.825 320.305V320.417C156.825 320.681 156.856 320.93 156.918 321.164C156.98 321.395 157.073 321.6 157.196 321.779C157.323 321.958 157.481 322.1 157.67 322.204C157.859 322.305 158.078 322.355 158.329 322.355C158.576 322.355 158.793 322.305 158.979 322.204C159.167 322.1 159.324 321.958 159.447 321.779C159.571 321.6 159.664 321.395 159.726 321.164C159.791 320.93 159.823 320.681 159.823 320.417V320.305C159.823 320.044 159.791 319.799 159.726 319.567C159.664 319.333 159.569 319.126 159.442 318.947C159.319 318.765 159.162 318.622 158.974 318.518C158.788 318.413 158.57 318.361 158.319 318.361C158.072 318.361 157.854 318.413 157.665 318.518C157.479 318.622 157.323 318.765 157.196 318.947C157.073 319.126 156.98 319.333 156.918 319.567C156.856 319.799 156.825 320.044 156.825 320.305ZM162.846 317.717V323H161.938V317.717H162.846ZM161.869 316.315C161.869 316.169 161.913 316.045 162.001 315.944C162.092 315.843 162.226 315.793 162.401 315.793C162.574 315.793 162.706 315.843 162.797 315.944C162.891 316.045 162.938 316.169 162.938 316.315C162.938 316.455 162.891 316.576 162.797 316.677C162.706 316.774 162.574 316.823 162.401 316.823C162.226 316.823 162.092 316.774 162.001 316.677C161.913 316.576 161.869 316.455 161.869 316.315ZM165.199 318.845V323H164.296V317.717H165.15L165.199 318.845ZM164.984 320.158L164.608 320.144C164.612 319.782 164.665 319.449 164.77 319.143C164.874 318.833 165.02 318.565 165.209 318.337C165.398 318.109 165.622 317.933 165.883 317.81C166.146 317.683 166.438 317.619 166.757 317.619C167.017 317.619 167.252 317.655 167.46 317.727C167.668 317.795 167.846 317.906 167.992 318.059C168.142 318.212 168.256 318.41 168.334 318.654C168.412 318.895 168.451 319.19 168.451 319.538V323H167.543V319.528C167.543 319.252 167.502 319.03 167.421 318.864C167.34 318.695 167.221 318.573 167.064 318.498C166.908 318.42 166.716 318.381 166.488 318.381C166.264 318.381 166.059 318.428 165.873 318.522C165.691 318.617 165.533 318.747 165.399 318.913C165.269 319.079 165.167 319.27 165.092 319.484C165.02 319.696 164.984 319.921 164.984 320.158Z" fill="black"/>
<rect x="110" y="310" width="20" height="20" rx="3" fill="#DAD9D9"/>
<path fill-rule="evenodd" clip-rule="evenodd" d="M120.058 311C120.497 311.005 120.935 311.037 121.369 311.104C122.173 311.226 122.961 311.46 123.702 311.795C124.591 312.198 125.415 312.747 126.129 313.412C126.869 314.101 127.492 314.915 127.965 315.807C128.368 316.571 128.66 317.394 128.828 318.242C129.021 319.214 129.051 320.218 128.92 321.201C128.798 322.118 128.532 323.016 128.134 323.852C127.677 324.815 127.048 325.694 126.285 326.438C125.483 327.222 124.535 327.855 123.502 328.292C122.415 328.752 121.238 328.992 120.058 329C118.875 329.007 117.695 328.781 116.599 328.335C115.56 327.91 114.604 327.288 113.793 326.513C113.021 325.778 112.381 324.906 111.911 323.95C111.506 323.12 111.23 322.228 111.095 321.314C110.955 320.351 110.97 319.366 111.141 318.407C111.291 317.573 111.56 316.761 111.936 316.001C112.387 315.096 112.99 314.268 113.715 313.562C114.438 312.854 115.282 312.27 116.199 311.841C116.934 311.497 117.716 311.254 118.519 311.122C118.951 311.05 119.387 311.011 119.826 311.002C119.904 311 119.98 311 120.058 311ZM119.946 311.783C119.546 311.787 119.146 311.816 118.748 311.877C118.014 311.989 117.296 312.203 116.621 312.509C115.792 312.883 115.029 313.395 114.368 314.019C113.697 314.652 113.131 315.398 112.705 316.217C112.348 316.902 112.09 317.637 111.94 318.395C111.763 319.283 111.736 320.2 111.856 321.097C111.968 321.935 112.209 322.753 112.572 323.515C112.997 324.41 113.583 325.226 114.297 325.912C115.034 326.624 115.904 327.198 116.85 327.591C117.845 328.005 118.921 328.217 120 328.217C121.079 328.217 122.155 328.005 123.15 327.591C124.096 327.198 124.966 326.624 125.703 325.912C126.416 325.226 127.003 324.41 127.428 323.515C127.79 322.753 128.032 321.935 128.144 321.097C128.264 320.2 128.237 319.283 128.059 318.395C127.904 317.605 127.628 316.839 127.248 316.128C126.82 315.33 126.259 314.603 125.596 313.985C124.943 313.377 124.192 312.877 123.379 312.509C122.704 312.203 121.985 311.989 121.252 311.877C120.854 311.816 120.454 311.787 120.053 311.783C120.018 311.783 119.982 311.783 119.946 311.783ZM122.03 321.174L119.992 326.261L117.953 321.174H114.913V320.391H117.64L117.013 318.826H114.913V318.043H116.7L115.289 314.522H116.087L118.435 320.391H121.565L123.913 314.522H124.695L123.285 318.043H125.087V318.826H122.971L122.343 320.391H125.087V321.174H122.03ZM121.252 321.174H118.748L120 324.304L121.252 321.174Z" fill="black"/>
<g filter="url(#filter21_d_0_1)">
<rect x="75.5556" y="63.6855" width="155.556" height="47.1744" rx="5" fill="#F9F9F9"/>
</g>
<g filter="url(#filter22_d_0_1)">
<path d="M177.424 89.6875V91H170.752V89.8721L173.992 86.3379C174.348 85.9368 174.628 85.5905 174.833 85.2988C175.038 85.0072 175.182 84.7451 175.264 84.5127C175.35 84.2757 175.394 84.0456 175.394 83.8223C175.394 83.5078 175.334 83.2321 175.216 82.9951C175.102 82.7536 174.933 82.5645 174.71 82.4277C174.487 82.2865 174.215 82.2158 173.896 82.2158C173.527 82.2158 173.217 82.2956 172.967 82.4551C172.716 82.6146 172.527 82.8356 172.399 83.1182C172.272 83.3962 172.208 83.7152 172.208 84.0752H170.561C170.561 83.4964 170.693 82.9678 170.957 82.4893C171.221 82.0062 171.604 81.6234 172.105 81.3408C172.607 81.0537 173.211 80.9102 173.917 80.9102C174.582 80.9102 175.147 81.0218 175.612 81.2451C176.077 81.4684 176.43 81.7852 176.672 82.1953C176.918 82.6055 177.041 83.0908 177.041 83.6514C177.041 83.9613 176.991 84.2689 176.891 84.5742C176.79 84.8796 176.647 85.1849 176.46 85.4902C176.278 85.791 176.061 86.0941 175.811 86.3994C175.56 86.7002 175.284 87.0055 174.983 87.3154L172.83 89.6875H177.424ZM180.35 89.4141L180.343 90.5898C180.343 91.0547 180.227 91.5332 179.994 92.0254C179.762 92.5176 179.454 92.9232 179.071 93.2422L178.189 92.7295C178.317 92.5244 178.433 92.3171 178.538 92.1074C178.643 91.8978 178.727 91.6745 178.791 91.4375C178.855 91.2005 178.887 90.9385 178.887 90.6514V89.4141H180.35ZM183.774 85.2783H184.759C185.142 85.2783 185.458 85.2122 185.709 85.0801C185.964 84.9479 186.153 84.7656 186.276 84.5332C186.399 84.3008 186.461 84.0342 186.461 83.7334C186.461 83.4189 186.404 83.1501 186.29 82.9268C186.181 82.6989 186.012 82.5234 185.784 82.4004C185.561 82.2773 185.276 82.2158 184.93 82.2158C184.638 82.2158 184.374 82.2751 184.137 82.3936C183.904 82.5075 183.72 82.6715 183.583 82.8857C183.446 83.0954 183.378 83.346 183.378 83.6377H181.724C181.724 83.109 181.863 82.6396 182.141 82.2295C182.419 81.8193 182.797 81.498 183.275 81.2656C183.758 81.0286 184.301 80.9102 184.902 80.9102C185.545 80.9102 186.105 81.0173 186.584 81.2314C187.067 81.4411 187.443 81.7555 187.712 82.1748C187.981 82.5941 188.115 83.1136 188.115 83.7334C188.115 84.016 188.049 84.3031 187.917 84.5947C187.785 84.8864 187.589 85.153 187.329 85.3945C187.069 85.6315 186.746 85.8252 186.358 85.9756C185.971 86.1214 185.522 86.1943 185.012 86.1943H183.774V85.2783ZM183.774 86.5635V85.6611H185.012C185.595 85.6611 186.092 85.7295 186.502 85.8662C186.917 86.0029 187.254 86.1921 187.514 86.4336C187.773 86.6706 187.963 86.9417 188.081 87.2471C188.204 87.5524 188.266 87.876 188.266 88.2178C188.266 88.6826 188.181 89.0973 188.013 89.4619C187.849 89.8219 187.614 90.1273 187.309 90.3779C187.003 90.6286 186.646 90.8177 186.235 90.9453C185.83 91.0729 185.388 91.1367 184.909 91.1367C184.481 91.1367 184.071 91.0775 183.679 90.959C183.287 90.8405 182.936 90.665 182.626 90.4326C182.316 90.1956 182.07 89.9017 181.888 89.5508C181.71 89.1953 181.621 88.7852 181.621 88.3203H183.269C183.269 88.6165 183.337 88.8786 183.474 89.1064C183.615 89.3298 183.811 89.5052 184.062 89.6328C184.317 89.7604 184.608 89.8242 184.937 89.8242C185.283 89.8242 185.581 89.7627 185.832 89.6396C186.083 89.5166 186.274 89.3343 186.406 89.0928C186.543 88.8512 186.611 88.5596 186.611 88.2178C186.611 87.8304 186.536 87.516 186.386 87.2744C186.235 87.0329 186.021 86.8551 185.743 86.7412C185.465 86.6227 185.137 86.5635 184.759 86.5635H183.774ZM196.653 87.4521V88.7646H189.476L189.421 87.7734L193.714 81.0469H195.033L193.604 83.4941L191.137 87.4521H196.653ZM195.409 81.0469V91H193.762V81.0469H195.409ZM197.686 83.4873V82.9609C197.686 82.5827 197.768 82.2386 197.932 81.9287C198.096 81.6188 198.335 81.3704 198.649 81.1836C198.964 80.9967 199.342 80.9033 199.784 80.9033C200.24 80.9033 200.623 80.9967 200.933 81.1836C201.247 81.3704 201.486 81.6188 201.65 81.9287C201.814 82.2386 201.896 82.5827 201.896 82.9609V83.4873C201.896 83.8564 201.814 84.196 201.65 84.5059C201.491 84.8158 201.254 85.0641 200.939 85.251C200.63 85.4378 200.249 85.5312 199.798 85.5312C199.351 85.5312 198.968 85.4378 198.649 85.251C198.335 85.0641 198.096 84.8158 197.932 84.5059C197.768 84.196 197.686 83.8564 197.686 83.4873ZM198.827 82.9609V83.4873C198.827 83.6696 198.861 83.8428 198.93 84.0068C199.003 84.1709 199.112 84.3031 199.258 84.4033C199.404 84.5036 199.584 84.5537 199.798 84.5537C200.017 84.5537 200.194 84.5036 200.331 84.4033C200.472 84.3031 200.577 84.1709 200.646 84.0068C200.714 83.8428 200.748 83.6696 200.748 83.4873V82.9609C200.748 82.7741 200.712 82.5986 200.639 82.4346C200.57 82.266 200.465 82.1315 200.324 82.0312C200.183 81.931 200.003 81.8809 199.784 81.8809C199.575 81.8809 199.397 81.931 199.251 82.0312C199.11 82.1315 199.003 82.266 198.93 82.4346C198.861 82.5986 198.827 82.7741 198.827 82.9609ZM202.484 89.0928V88.5596C202.484 88.1859 202.566 87.8441 202.73 87.5342C202.899 87.2243 203.141 86.9759 203.455 86.7891C203.77 86.6022 204.148 86.5088 204.59 86.5088C205.046 86.5088 205.428 86.6022 205.738 86.7891C206.053 86.9759 206.29 87.2243 206.449 87.5342C206.613 87.8441 206.695 88.1859 206.695 88.5596V89.0928C206.695 89.4665 206.613 89.8083 206.449 90.1182C206.29 90.4281 206.055 90.6764 205.745 90.8633C205.435 91.0501 205.057 91.1436 204.61 91.1436C204.159 91.1436 203.774 91.0501 203.455 90.8633C203.141 90.6764 202.899 90.4281 202.73 90.1182C202.566 89.8083 202.484 89.4665 202.484 89.0928ZM203.633 88.5596V89.0928C203.633 89.2751 203.669 89.4482 203.742 89.6123C203.82 89.7764 203.931 89.9108 204.077 90.0156C204.223 90.1159 204.398 90.166 204.604 90.166C204.836 90.166 205.023 90.1159 205.164 90.0156C205.305 89.9108 205.406 89.7786 205.465 89.6191C205.529 89.4551 205.561 89.2796 205.561 89.0928V88.5596C205.561 88.3727 205.524 88.1973 205.451 88.0332C205.383 87.8691 205.276 87.737 205.13 87.6367C204.989 87.5365 204.809 87.4863 204.59 87.4863C204.376 87.4863 204.198 87.5365 204.057 87.6367C203.915 87.737 203.808 87.8691 203.735 88.0332C203.667 88.1973 203.633 88.3727 203.633 88.5596ZM205 82.4688L200.14 90.248L199.299 89.7627L204.159 81.9834L205 82.4688Z" fill="#20EEBC"/>
</g>
<g filter="url(#filter23_d_0_1)">
<path d="M123.744 87.502H121.208L121.194 86.251H123.409C123.783 86.251 124.1 86.1963 124.359 86.0869C124.624 85.973 124.824 85.8112 124.961 85.6016C125.098 85.3874 125.166 85.1299 125.166 84.8291C125.166 84.4964 125.102 84.2253 124.975 84.0156C124.847 83.806 124.651 83.6533 124.387 83.5576C124.127 83.4619 123.794 83.4141 123.389 83.4141H121.728V92H120.012V82.0469H123.389C123.936 82.0469 124.423 82.0993 124.852 82.2041C125.285 82.3089 125.651 82.473 125.952 82.6963C126.257 82.915 126.488 83.193 126.643 83.5303C126.802 83.8675 126.882 84.2686 126.882 84.7334C126.882 85.1436 126.784 85.5195 126.588 85.8613C126.392 86.1986 126.103 86.4743 125.72 86.6885C125.337 86.9027 124.861 87.0303 124.291 87.0713L123.744 87.502ZM123.669 92H120.668L121.44 90.6396H123.669C124.056 90.6396 124.38 90.5758 124.64 90.4482C124.899 90.3161 125.093 90.1361 125.221 89.9082C125.353 89.6758 125.419 89.4046 125.419 89.0947C125.419 88.7712 125.362 88.4909 125.248 88.2539C125.134 88.0124 124.954 87.8278 124.708 87.7002C124.462 87.568 124.141 87.502 123.744 87.502H121.816L121.83 86.251H124.339L124.729 86.7227C125.275 86.7409 125.724 86.8617 126.075 87.085C126.431 87.3083 126.695 87.5977 126.868 87.9531C127.041 88.3086 127.128 88.6914 127.128 89.1016C127.128 89.735 126.989 90.266 126.711 90.6943C126.438 91.1227 126.043 91.4486 125.528 91.6719C125.013 91.8906 124.394 92 123.669 92ZM132.761 82.0469V92H131.059V82.0469H132.761ZM135.885 82.0469V83.4141H127.962V82.0469H135.885ZM142.885 88.7598H144.594C144.539 89.4115 144.357 89.9925 144.047 90.5029C143.737 91.0088 143.302 91.4076 142.741 91.6992C142.181 91.9909 141.499 92.1367 140.697 92.1367C140.082 92.1367 139.528 92.0273 139.036 91.8086C138.544 91.5853 138.122 91.2708 137.771 90.8652C137.421 90.4551 137.152 89.9606 136.965 89.3818C136.783 88.8031 136.691 88.1559 136.691 87.4404V86.6133C136.691 85.8978 136.785 85.2507 136.972 84.6719C137.163 84.0931 137.437 83.5986 137.792 83.1885C138.147 82.7738 138.574 82.457 139.07 82.2383C139.572 82.0195 140.134 81.9102 140.759 81.9102C141.552 81.9102 142.222 82.056 142.769 82.3477C143.315 82.6393 143.739 83.0426 144.04 83.5576C144.345 84.0726 144.532 84.6628 144.601 85.3281H142.892C142.846 84.8997 142.746 84.5329 142.591 84.2275C142.44 83.9222 142.217 83.6898 141.921 83.5303C141.625 83.3662 141.237 83.2842 140.759 83.2842C140.367 83.2842 140.025 83.3571 139.733 83.5029C139.442 83.6488 139.198 83.863 139.002 84.1455C138.806 84.4281 138.658 84.7767 138.558 85.1914C138.462 85.6016 138.414 86.071 138.414 86.5996V87.4404C138.414 87.9417 138.457 88.3975 138.544 88.8076C138.635 89.2132 138.772 89.5618 138.954 89.8535C139.141 90.1452 139.378 90.3708 139.665 90.5303C139.952 90.6898 140.296 90.7695 140.697 90.7695C141.185 90.7695 141.579 90.6921 141.88 90.5371C142.185 90.3822 142.415 90.1566 142.57 89.8604C142.73 89.5596 142.835 89.1927 142.885 88.7598Z" fill="black"/>
</g>
<g filter="url(#filter24_d_0_1)">
<path d="M97.5 75C90.5969 75 85 80.3091 85 86.8573C85 93.4054 90.5969 98.7145 97.5 98.7145C104.403 98.7145 110 93.4054 110 86.8573C110 80.3091 104.403 75 97.5 75ZM96.4583 79.9405H98.5417V81.9245C100.479 81.9669 101.636 82.8892 101.636 84.3812C101.636 85.4286 100.821 86.3404 99.7522 86.4906V86.6141C101.131 86.7099 102.135 87.6968 102.135 88.9705C102.135 90.6997 100.759 91.7929 98.5417 91.7959V93.774H96.4583V91.7978H93.8542V81.9167H96.4583V79.9405ZM96.0352 83.4993V86.012H97.6729C98.85 86.012 99.4918 85.5539 99.4918 84.7595C99.4918 83.972 98.8936 83.4993 97.854 83.4993H96.0352ZM96.0352 87.4092V90.2153H97.9761C99.2323 90.2153 99.9109 89.7149 99.9109 88.791C99.9109 87.8869 99.2096 87.4092 97.9252 87.4092H96.0352Z" fill="black"/>
</g>
<path d="M54.4445 48.8464V96.3477C54.4445 98.0277 55.2344 99.5277 56.4215 100.106L76.3624 109.792C78.3259 110.746 80.4038 108.814 80.4038 106.034V60.7843C80.4038 59.1123 81.1862 57.6183 82.3644 57.0343L100.787 47.9324C103.429 46.6265 103.392 41.6425 100.731 40.4066L83.9201 32.5967C83.2611 32.2907 82.5419 32.2987 81.8874 32.6187L56.414 45.0925C55.2299 45.6725 54.4445 47.1725 54.4445 48.8464Z" fill="#33C481"/>
<defs>
<filter id="filter0_i_0_1" x="211.111" y="48.3538" width="67.6667" height="12.7936" filterUnits="userSpaceOnUse" color-interpolation-filters="sRGB">
<feFlood flood-opacity="0" result="BackgroundImageFix"/>
<feBlend mode="normal" in="SourceGraphic" in2="BackgroundImageFix" result="shape"/>
<feColorMatrix in="SourceAlpha" type="matrix" values="0 0 0 0 0 0 0 0 0 0 0 0 0 0 0 0 0 0 127 0" result="hardAlpha"/>
<feOffset dx="1" dy="1"/>
<feGaussianBlur stdDeviation="0.5"/>
<feComposite in2="hardAlpha" operator="arithmetic" k2="-1" k3="1"/>
<feColorMatrix type="matrix" values="0 0 0 0 0 0 0 0 0 0 0 0 0 0 0 0 0 0 0.02 0"/>
<feBlend mode="normal" in2="shape" result="effect1_innerShadow_0_1"/>
</filter>
<filter id="filter1_i_0_1" x="211.111" y="64.8649" width="67.6667" height="12.7936" filterUnits="userSpaceOnUse" color-interpolation-filters="sRGB">
<feFlood flood-opacity="0" result="BackgroundImageFix"/>
<feBlend mode="normal" in="SourceGraphic" in2="BackgroundImageFix" result="shape"/>
<feColorMatrix in="SourceAlpha" type="matrix" values="0 0 0 0 0 0 0 0 0 0 0 0 0 0 0 0 0 0 127 0" result="hardAlpha"/>
<feOffset dx="1" dy="1"/>
<feGaussianBlur stdDeviation="0.5"/>
<feComposite in2="hardAlpha" operator="arithmetic" k2="-1" k3="1"/>
<feColorMatrix type="matrix" values="0 0 0 0 0 0 0 0 0 0 0 0 0 0 0 0 0 0 0.02 0"/>
<feBlend mode="normal" in2="shape" result="effect1_innerShadow_0_1"/>
</filter>
<filter id="filter2_i_0_1" x="211.111" y="178.084" width="67.6667" height="12.7936" filterUnits="userSpaceOnUse" color-interpolation-filters="sRGB">
<feFlood flood-opacity="0" result="BackgroundImageFix"/>
<feBlend mode="normal" in="SourceGraphic" in2="BackgroundImageFix" result="shape"/>
<feColorMatrix in="SourceAlpha" type="matrix" values="0 0 0 0 0 0 0 0 0 0 0 0 0 0 0 0 0 0 127 0" result="hardAlpha"/>
<feOffset dx="1" dy="1"/>
<feGaussianBlur stdDeviation="0.5"/>
<feComposite in2="hardAlpha" operator="arithmetic" k2="-1" k3="1"/>
<feColorMatrix type="matrix" values="0 0 0 0 0 0 0 0 0 0 0 0 0 0 0 0 0 0 0.02 0"/>
<feBlend mode="normal" in2="shape" result="effect1_innerShadow_0_1"/>
</filter>
<filter id="filter3_i_0_1" x="300" y="48.3538" width="67.6667" height="83.5553" filterUnits="userSpaceOnUse" color-interpolation-filters="sRGB">
<feFlood flood-opacity="0" result="BackgroundImageFix"/>
<feBlend mode="normal" in="SourceGraphic" in2="BackgroundImageFix" result="shape"/>
<feColorMatrix in="SourceAlpha" type="matrix" values="0 0 0 0 0 0 0 0 0 0 0 0 0 0 0 0 0 0 127 0" result="hardAlpha"/>
<feOffset dx="1" dy="1"/>
<feGaussianBlur stdDeviation="2.5"/>
<feComposite in2="hardAlpha" operator="arithmetic" k2="-1" k3="1"/>
<feColorMatrix type="matrix" values="0 0 0 0 0 0 0 0 0 0 0 0 0 0 0 0 0 0 0.02 0"/>
<feBlend mode="normal" in2="shape" result="effect1_innerShadow_0_1"/>
</filter>
<filter id="filter4_i_0_1" x="211.111" y="148.6" width="21" height="22.2285" filterUnits="userSpaceOnUse" color-interpolation-filters="sRGB">
<feFlood flood-opacity="0" result="BackgroundImageFix"/>
<feBlend mode="normal" in="SourceGraphic" in2="BackgroundImageFix" result="shape"/>
<feColorMatrix in="SourceAlpha" type="matrix" values="0 0 0 0 0 0 0 0 0 0 0 0 0 0 0 0 0 0 127 0" result="hardAlpha"/>
<feOffset dx="1" dy="1"/>
<feGaussianBlur stdDeviation="2"/>
<feComposite in2="hardAlpha" operator="arithmetic" k2="-1" k3="1"/>
<feColorMatrix type="matrix" values="0 0 0 0 0 0 0 0 0 0 0 0 0 0 0 0 0 0 0.02 0"/>
<feBlend mode="normal" in2="shape" result="effect1_innerShadow_0_1"/>
</filter>
<filter id="filter5_i_0_1" x="257.778" y="148.6" width="21" height="22.2285" filterUnits="userSpaceOnUse" color-interpolation-filters="sRGB">
<feFlood flood-opacity="0" result="BackgroundImageFix"/>
<feBlend mode="normal" in="SourceGraphic" in2="BackgroundImageFix" result="shape"/>
<feColorMatrix in="SourceAlpha" type="matrix" values="0 0 0 0 0 0 0 0 0 0 0 0 0 0 0 0 0 0 127 0" result="hardAlpha"/>
<feOffset dx="1" dy="1"/>
<feGaussianBlur stdDeviation="2"/>
<feComposite in2="hardAlpha" operator="arithmetic" k2="-1" k3="1"/>
<feColorMatrix type="matrix" values="0 0 0 0 0 0 0 0 0 0 0 0 0 0 0 0 0 0 0.02 0"/>
<feBlend mode="normal" in2="shape" result="effect1_innerShadow_0_1"/>
</filter>
<filter id="filter6_i_0_1" x="234.444" y="148.6" width="21" height="22.2285" filterUnits="userSpaceOnUse" color-interpolation-filters="sRGB">
<feFlood flood-opacity="0" result="BackgroundImageFix"/>
<feBlend mode="normal" in="SourceGraphic" in2="BackgroundImageFix" result="shape"/>
<feColorMatrix in="SourceAlpha" type="matrix" values="0 0 0 0 0 0 0 0 0 0 0 0 0 0 0 0 0 0 127 0" result="hardAlpha"/>
<feOffset dx="1" dy="1"/>
<feGaussianBlur stdDeviation="2"/>
<feComposite in2="hardAlpha" operator="arithmetic" k2="-1" k3="1"/>
<feColorMatrix type="matrix" values="0 0 0 0 0 0 0 0 0 0 0 0 0 0 0 0 0 0 0.02 0"/>
<feBlend mode="normal" in2="shape" result="effect1_innerShadow_0_1"/>
</filter>
<filter id="filter7_i_0_1" x="211.111" y="343.194" width="156.556" height="24.5872" filterUnits="userSpaceOnUse" color-interpolation-filters="sRGB">
<feFlood flood-opacity="0" result="BackgroundImageFix"/>
<feBlend mode="normal" in="SourceGraphic" in2="BackgroundImageFix" result="shape"/>
<feColorMatrix in="SourceAlpha" type="matrix" values="0 0 0 0 0 0 0 0 0 0 0 0 0 0 0 0 0 0 127 0" result="hardAlpha"/>
<feOffset dx="1" dy="1"/>
<feGaussianBlur stdDeviation="2"/>
<feComposite in2="hardAlpha" operator="arithmetic" k2="-1" k3="1"/>
<feColorMatrix type="matrix" values="0 0 0 0 0 0 0 0 0 0 0 0 0 0 0 0 0 0 0.03 0"/>
<feBlend mode="normal" in2="shape" result="effect1_innerShadow_0_1"/>
</filter>
<filter id="filter8_i_0_1" x="211.111" y="373.857" width="156.556" height="24.5872" filterUnits="userSpaceOnUse" color-interpolation-filters="sRGB">
<feFlood flood-opacity="0" result="BackgroundImageFix"/>
<feBlend mode="normal" in="SourceGraphic" in2="BackgroundImageFix" result="shape"/>
<feColorMatrix in="SourceAlpha" type="matrix" values="0 0 0 0 0 0 0 0 0 0 0 0 0 0 0 0 0 0 127 0" result="hardAlpha"/>
<feOffset dx="1" dy="1"/>
<feGaussianBlur stdDeviation="2"/>
<feComposite in2="hardAlpha" operator="arithmetic" k2="-1" k3="1"/>
<feColorMatrix type="matrix" values="0 0 0 0 0 0 0 0 0 0 0 0 0 0 0 0 0 0 0.03 0"/>
<feBlend mode="normal" in2="shape" result="effect1_innerShadow_0_1"/>
</filter>
<filter id="filter9_d_0_1" x="344.444" y="145.958" width="175.556" height="67.1745" filterUnits="userSpaceOnUse" color-interpolation-filters="sRGB">
<feFlood flood-opacity="0" result="BackgroundImageFix"/>
<feColorMatrix in="SourceAlpha" type="matrix" values="0 0 0 0 0 0 0 0 0 0 0 0 0 0 0 0 0 0 127 0" result="hardAlpha"/>
<feOffset dy="5"/>
<feGaussianBlur stdDeviation="5"/>
<feComposite in2="hardAlpha" operator="out"/>
<feColorMatrix type="matrix" values="0 0 0 0 0 0 0 0 0 0 0 0 0 0 0 0 0 0 0.25 0"/>
<feBlend mode="normal" in2="BackgroundImageFix" result="effect1_dropShadow_0_1"/>
<feBlend mode="normal" in="SourceGraphic" in2="effect1_dropShadow_0_1" result="shape"/>
</filter>
<filter id="filter10_d_0_1" x="450.162" y="168.903" width="47.5332" height="24.3389" filterUnits="userSpaceOnUse" color-interpolation-filters="sRGB">
<feFlood flood-opacity="0" result="BackgroundImageFix"/>
<feColorMatrix in="SourceAlpha" type="matrix" values="0 0 0 0 0 0 0 0 0 0 0 0 0 0 0 0 0 0 127 0" result="hardAlpha"/>
<feOffset dy="6"/>
<feGaussianBlur stdDeviation="3"/>
<feComposite in2="hardAlpha" operator="out"/>
<feColorMatrix type="matrix" values="0 0 0 0 0 0 0 0 0 0 0 0 0 0 0 0 0 0 0.1 0"/>
<feBlend mode="normal" in2="BackgroundImageFix" result="effect1_dropShadow_0_1"/>
<feBlend mode="normal" in="SourceGraphic" in2="effect1_dropShadow_0_1" result="shape"/>
</filter>
<filter id="filter11_d_0_1" x="393.012" y="170.047" width="36.4795" height="21.9531" filterUnits="userSpaceOnUse" color-interpolation-filters="sRGB">
<feFlood flood-opacity="0" result="BackgroundImageFix"/>
<feColorMatrix in="SourceAlpha" type="matrix" values="0 0 0 0 0 0 0 0 0 0 0 0 0 0 0 0 0 0 127 0" result="hardAlpha"/>
<feOffset dy="6"/>
<feGaussianBlur stdDeviation="3"/>
<feComposite in2="hardAlpha" operator="out"/>
<feColorMatrix type="matrix" values="0 0 0 0 0 0 0 0 0 0 0 0 0 0 0 0 0 0 0.15 0"/>
<feBlend mode="normal" in2="BackgroundImageFix" result="effect1_dropShadow_0_1"/>
<feBlend mode="normal" in="SourceGraphic" in2="effect1_dropShadow_0_1" result="shape"/>
</filter>
<filter id="filter12_d_0_1" x="365" y="160" width="30" height="29.9202" filterUnits="userSpaceOnUse" color-interpolation-filters="sRGB">
<feFlood flood-opacity="0" result="BackgroundImageFix"/>
<feColorMatrix in="SourceAlpha" type="matrix" values="0 0 0 0 0 0 0 0 0 0 0 0 0 0 0 0 0 0 127 0" result="hardAlpha"/>
<feOffset dy="5"/>
<feGaussianBlur stdDeviation="2.5"/>
<feComposite in2="hardAlpha" operator="out"/>
<feColorMatrix type="matrix" values="0 0 0 0 0 0 0 0 0 0 0 0 0 0 0 0 0 0 0.15 0"/>
<feBlend mode="normal" in2="BackgroundImageFix" result="effect1_dropShadow_0_1"/>
<feBlend mode="normal" in="SourceGraphic" in2="effect1_dropShadow_0_1" result="shape"/>
</filter>
<filter id="filter13_d_0_1" x="375" y="160" width="20" height="29.9202" filterUnits="userSpaceOnUse" color-interpolation-filters="sRGB">
<feFlood flood-opacity="0" result="BackgroundImageFix"/>
<feColorMatrix in="SourceAlpha" type="matrix" values="0 0 0 0 0 0 0 0 0 0 0 0 0 0 0 0 0 0 127 0" result="hardAlpha"/>
<feOffset dy="5"/>
<feGaussianBlur stdDeviation="2.5"/>
<feComposite in2="hardAlpha" operator="out"/>
<feColorMatrix type="matrix" values="0 0 0 0 0 0 0 0 0 0 0 0 0 0 0 0 0 0 0.15 0"/>
<feBlend mode="normal" in2="BackgroundImageFix" result="effect1_dropShadow_0_1"/>
<feBlend mode="normal" in="SourceGraphic" in2="effect1_dropShadow_0_1" result="shape"/>
</filter>
<filter id="filter14_d_0_1" x="365" y="177.074" width="30" height="22.3316" filterUnits="userSpaceOnUse" color-interpolation-filters="sRGB">
<feFlood flood-opacity="0" result="BackgroundImageFix"/>
<feColorMatrix in="SourceAlpha" type="matrix" values="0 0 0 0 0 0 0 0 0 0 0 0 0 0 0 0 0 0 127 0" result="hardAlpha"/>
<feOffset dy="5"/>
<feGaussianBlur stdDeviation="2.5"/>
<feComposite in2="hardAlpha" operator="out"/>
<feColorMatrix type="matrix" values="0 0 0 0 0 0 0 0 0 0 0 0 0 0 0 0 0 0 0.15 0"/>
<feBlend mode="normal" in2="BackgroundImageFix" result="effect1_dropShadow_0_1"/>
<feBlend mode="normal" in="SourceGraphic" in2="effect1_dropShadow_0_1" result="shape"/>
</filter>
<filter id="filter15_d_0_1" x="365" y="170.434" width="30" height="28.9716" filterUnits="userSpaceOnUse" color-interpolation-filters="sRGB">
<feFlood flood-opacity="0" result="BackgroundImageFix"/>
<feColorMatrix in="SourceAlpha" type="matrix" values="0 0 0 0 0 0 0 0 0 0 0 0 0 0 0 0 0 0 127 0" result="hardAlpha"/>
<feOffset dy="5"/>
<feGaussianBlur stdDeviation="2.5"/>
<feComposite in2="hardAlpha" operator="out"/>
<feColorMatrix type="matrix" values="0 0 0 0 0 0 0 0 0 0 0 0 0 0 0 0 0 0 0.15 0"/>
<feBlend mode="normal" in2="BackgroundImageFix" result="effect1_dropShadow_0_1"/>
<feBlend mode="normal" in="SourceGraphic" in2="effect1_dropShadow_0_1" result="shape"/>
</filter>
<filter id="filter16_d_0_1" x="375" y="170.434" width="20" height="19.4858" filterUnits="userSpaceOnUse" color-interpolation-filters="sRGB">
<feFlood flood-opacity="0" result="BackgroundImageFix"/>
<feColorMatrix in="SourceAlpha" type="matrix" values="0 0 0 0 0 0 0 0 0 0 0 0 0 0 0 0 0 0 127 0" result="hardAlpha"/>
<feOffset dy="5"/>
<feGaussianBlur stdDeviation="2.5"/>
<feComposite in2="hardAlpha" operator="out"/>
<feColorMatrix type="matrix" values="0 0 0 0 0 0 0 0 0 0 0 0 0 0 0 0 0 0 0.15 0"/>
<feBlend mode="normal" in2="BackgroundImageFix" result="effect1_dropShadow_0_1"/>
<feBlend mode="normal" in="SourceGraphic" in2="effect1_dropShadow_0_1" result="shape"/>
</filter>
<filter id="filter17_d_0_1" x="0" y="225" width="66" height="66" filterUnits="userSpaceOnUse" color-interpolation-filters="sRGB">
<feFlood flood-opacity="0" result="BackgroundImageFix"/>
<feColorMatrix in="SourceAlpha" type="matrix" values="0 0 0 0 0 0 0 0 0 0 0 0 0 0 0 0 0 0 127 0" result="hardAlpha"/>
<feOffset dy="5"/>
<feGaussianBlur stdDeviation="5"/>
<feComposite in2="hardAlpha" operator="out"/>
<feColorMatrix type="matrix" values="0 0 0 0 0 0 0 0 0 0 0 0 0 0 0 0 0 0 0.25 0"/>
<feBlend mode="normal" in2="BackgroundImageFix" result="effect1_dropShadow_0_1"/>
<feBlend mode="normal" in="SourceGraphic" in2="effect1_dropShadow_0_1" result="shape"/>
</filter>
<filter id="filter18_d_0_1" x="454" y="346.445" width="66" height="66" filterUnits="userSpaceOnUse" color-interpolation-filters="sRGB">
<feFlood flood-opacity="0" result="BackgroundImageFix"/>
<feColorMatrix in="SourceAlpha" type="matrix" values="0 0 0 0 0 0 0 0 0 0 0 0 0 0 0 0 0 0 127 0" result="hardAlpha"/>
<feOffset dy="5"/>
<feGaussianBlur stdDeviation="5"/>
<feComposite in2="hardAlpha" operator="out"/>
<feColorMatrix type="matrix" values="0 0 0 0 0 0 0 0 0 0 0 0 0 0 0 0 0 0 0.25 0"/>
<feBlend mode="normal" in2="BackgroundImageFix" result="effect1_dropShadow_0_1"/>
<feBlend mode="normal" in="SourceGraphic" in2="effect1_dropShadow_0_1" result="shape"/>
</filter>
<filter id="filter19_d_0_1" x="366" y="35" width="66" height="66" filterUnits="userSpaceOnUse" color-interpolation-filters="sRGB">
<feFlood flood-opacity="0" result="BackgroundImageFix"/>
<feColorMatrix in="SourceAlpha" type="matrix" values="0 0 0 0 0 0 0 0 0 0 0 0 0 0 0 0 0 0 127 0" result="hardAlpha"/>
<feOffset dy="5"/>
<feGaussianBlur stdDeviation="5"/>
<feComposite in2="hardAlpha" operator="out"/>
<feColorMatrix type="matrix" values="0 0 0 0 0 0 0 0 0 0 0 0 0 0 0 0 0 0 0.25 0"/>
<feBlend mode="normal" in2="BackgroundImageFix" result="effect1_dropShadow_0_1"/>
<feBlend mode="normal" in="SourceGraphic" in2="effect1_dropShadow_0_1" result="shape"/>
</filter>
<filter id="filter20_d_0_1" x="92" y="295" width="136.667" height="129.681" filterUnits="userSpaceOnUse" color-interpolation-filters="sRGB">
<feFlood flood-opacity="0" result="BackgroundImageFix"/>
<feColorMatrix in="SourceAlpha" type="matrix" values="0 0 0 0 0 0 0 0 0 0 0 0 0 0 0 0 0 0 127 0" result="hardAlpha"/>
<feOffset dy="5"/>
<feGaussianBlur stdDeviation="5"/>
<feComposite in2="hardAlpha" operator="out"/>
<feColorMatrix type="matrix" values="0 0 0 0 0 0 0 0 0 0 0 0 0 0 0 0 0 0 0.25 0"/>
<feBlend mode="normal" in2="BackgroundImageFix" result="effect1_dropShadow_0_1"/>
<feBlend mode="normal" in="SourceGraphic" in2="effect1_dropShadow_0_1" result="shape"/>
</filter>
<filter id="filter21_d_0_1" x="65.5556" y="58.6855" width="175.556" height="67.1744" filterUnits="userSpaceOnUse" color-interpolation-filters="sRGB">
<feFlood flood-opacity="0" result="BackgroundImageFix"/>
<feColorMatrix in="SourceAlpha" type="matrix" values="0 0 0 0 0 0 0 0 0 0 0 0 0 0 0 0 0 0 127 0" result="hardAlpha"/>
<feOffset dy="5"/>
<feGaussianBlur stdDeviation="5"/>
<feComposite in2="hardAlpha" operator="out"/>
<feColorMatrix type="matrix" values="0 0 0 0 0 0 0 0 0 0 0 0 0 0 0 0 0 0 0.25 0"/>
<feBlend mode="normal" in2="BackgroundImageFix" result="effect1_dropShadow_0_1"/>
<feBlend mode="normal" in="SourceGraphic" in2="effect1_dropShadow_0_1" result="shape"/>
</filter>
<filter id="filter22_d_0_1" x="164.561" y="80.9033" width="48.1348" height="24.3389" filterUnits="userSpaceOnUse" color-interpolation-filters="sRGB">
<feFlood flood-opacity="0" result="BackgroundImageFix"/>
<feColorMatrix in="SourceAlpha" type="matrix" values="0 0 0 0 0 0 0 0 0 0 0 0 0 0 0 0 0 0 127 0" result="hardAlpha"/>
<feOffset dy="6"/>
<feGaussianBlur stdDeviation="3"/>
<feComposite in2="hardAlpha" operator="out"/>
<feColorMatrix type="matrix" values="0 0 0 0 0 0 0 0 0 0 0 0 0 0 0 0 0 0 0.1 0"/>
<feBlend mode="normal" in2="BackgroundImageFix" result="effect1_dropShadow_0_1"/>
<feBlend mode="normal" in="SourceGraphic" in2="effect1_dropShadow_0_1" result="shape"/>
</filter>
<filter id="filter23_d_0_1" x="110.012" y="76.9102" width="44.5889" height="30.2266" filterUnits="userSpaceOnUse" color-interpolation-filters="sRGB">
<feFlood flood-opacity="0" result="BackgroundImageFix"/>
<feColorMatrix in="SourceAlpha" type="matrix" values="0 0 0 0 0 0 0 0 0 0 0 0 0 0 0 0 0 0 127 0" result="hardAlpha"/>
<feOffset dy="5"/>
<feGaussianBlur stdDeviation="5"/>
<feComposite in2="hardAlpha" operator="out"/>
<feColorMatrix type="matrix" values="0 0 0 0 0 0 0 0 0 0 0 0 0 0 0 0 0 0 0.15 0"/>
<feBlend mode="normal" in2="BackgroundImageFix" result="effect1_dropShadow_0_1"/>
<feBlend mode="normal" in="SourceGraphic" in2="effect1_dropShadow_0_1" result="shape"/>
</filter>
<filter id="filter24_d_0_1" x="75" y="70" width="45" height="43.7145" filterUnits="userSpaceOnUse" color-interpolation-filters="sRGB">
<feFlood flood-opacity="0" result="BackgroundImageFix"/>
<feColorMatrix in="SourceAlpha" type="matrix" values="0 0 0 0 0 0 0 0 0 0 0 0 0 0 0 0 0 0 127 0" result="hardAlpha"/>
<feOffset dy="5"/>
<feGaussianBlur stdDeviation="5"/>
<feComposite in2="hardAlpha" operator="out"/>
<feColorMatrix type="matrix" values="0 0 0 0 0 0 0 0 0 0 0 0 0 0 0 0 0 0 0.15 0"/>
<feBlend mode="normal" in2="BackgroundImageFix" result="effect1_dropShadow_0_1"/>
<feBlend mode="normal" in="SourceGraphic" in2="effect1_dropShadow_0_1" result="shape"/>
</filter>
<linearGradient id="paint0_linear_0_1" x1="288.889" y1="0" x2="288.889" y2="450.516" gradientUnits="userSpaceOnUse">
<stop stop-color="#DEDEDE"/>
<stop offset="1" stop-color="#D7D5D5"/>
</linearGradient>
<linearGradient id="paint1_linear_0_1" x1="215.556" y1="260.639" x2="366.667" y2="260.115" gradientUnits="userSpaceOnUse">
<stop stop-color="#20EEBC"/>
<stop offset="1" stop-color="#00A3FF"/>
</linearGradient>
</defs>
</svg>

