<svg width="300" height="275" viewBox="0 0 300 275" fill="none" xmlns="http://www.w3.org/2000/svg">
<path d="M82.5 20C82.5 13.0964 88.0964 7.5 95 7.5H205C211.904 7.5 217.5 13.0964 217.5 20V260C217.5 266.904 211.904 272.5 205 272.5H95C88.0964 272.5 82.5 266.904 82.5 260V20Z" fill="#F9F9F9" stroke="url(#paint0_linear_816_23)" stroke-width="5"/>
<path d="M122 11.4136C122 8.65219 124.239 6.41361 127 6.41361H173C175.761 6.41361 178 8.65219 178 11.4136V12.0157C178 14.7771 175.761 17.0157 173 17.0157H127C124.239 17.0157 122 14.7771 122 12.0157V11.4136Z" fill="#E1E1E1"/>
<g filter="url(#filter0_i_816_23)">
<rect x="100" y="35" width="40" height="7" rx="2" fill="#F4F4F4"/>
</g>
<g filter="url(#filter1_i_816_23)">
<rect x="100" y="45" width="40" height="7" rx="2" fill="#F4F4F4"/>
</g>
<g filter="url(#filter2_i_816_23)">
<rect x="100" y="109" width="40" height="6" rx="2" fill="#F4F4F4"/>
</g>
<g filter="url(#filter3_i_816_23)">
<rect x="160" y="35" width="40" height="50" rx="3" fill="#F4F4F4"/>
</g>
<g filter="url(#filter4_i_816_23)">
<rect x="100" y="95" width="10" height="10" rx="2" fill="#F4F4F4"/>
</g>
<g filter="url(#filter5_i_816_23)">
<rect x="130" y="95" width="10" height="10" rx="2" fill="#F4F4F4"/>
</g>
<g filter="url(#filter6_i_816_23)">
<rect x="115" y="95" width="10" height="10" rx="2" fill="#F4F4F4"/>
</g>
<g filter="url(#filter7_i_816_23)">
<rect x="100" y="213" width="100" height="12" rx="2" fill="#F2F2F2"/>
</g>
<g filter="url(#filter8_i_816_23)">
<rect x="100" y="233" width="100" height="12" rx="2" fill="#F2F2F2"/>
</g>
<line x1="105.053" y1="185.692" x2="208.211" y2="185.692" stroke="#F2F2F2" stroke-width="0.5"/>
<line x1="105.053" y1="143.284" x2="208.211" y2="143.284" stroke="#F2F2F2" stroke-width="0.5"/>
<line x1="105.053" y1="150.352" x2="208.211" y2="150.352" stroke="#F2F2F2" stroke-width="0.5"/>
<line x1="105.053" y1="192.76" x2="208.211" y2="192.76" stroke="#F2F2F2" stroke-width="0.5"/>
<line x1="105.053" y1="157.42" x2="208.211" y2="157.42" stroke="#F2F2F2" stroke-width="0.5"/>
<line x1="105.053" y1="164.488" x2="208.211" y2="164.488" stroke="#F2F2F2" stroke-width="0.5"/>
<line x1="105.053" y1="171.556" x2="208.211" y2="171.556" stroke="#F2F2F2" stroke-width="0.5"/>
<line x1="105.053" y1="178.624" x2="208.211" y2="178.624" stroke="#F2F2F2" stroke-width="0.5"/>
<path d="M98.4213 165.221L106.909 149.982L118.151 178.323L126.103 165.221L131.227 174.116L144.38 140.259L158.909 174.116L167.856 158.877L179.556 181.702L201.579 136.466" stroke="url(#paint1_linear_816_23)" stroke-width="2" stroke-linecap="round"/>
<g filter="url(#filter9_d_816_23)">
<rect x="200" y="95" width="90" height="29.931" rx="4" fill="#F9F9F9"/>
</g>
<g filter="url(#filter10_d_816_23)">
<path d="M263.297 107.006V112H262.474V107.984L261.253 108.397V107.717L263.198 107.006H263.297ZM265.847 111.207L265.844 111.795C265.844 112.027 265.786 112.267 265.669 112.513C265.553 112.759 265.399 112.962 265.208 113.121L264.767 112.865C264.831 112.762 264.889 112.659 264.941 112.554C264.994 112.449 265.036 112.337 265.068 112.219C265.1 112.1 265.116 111.969 265.116 111.826V111.207H265.847ZM269.928 111.344V112H266.592V111.436L268.212 109.669C268.39 109.468 268.53 109.295 268.633 109.149C268.735 109.004 268.807 108.873 268.848 108.756C268.891 108.638 268.913 108.523 268.913 108.411C268.913 108.254 268.883 108.116 268.824 107.998C268.767 107.877 268.683 107.782 268.571 107.714C268.46 107.643 268.324 107.608 268.165 107.608C267.98 107.608 267.825 107.648 267.7 107.728C267.574 107.807 267.48 107.918 267.416 108.059C267.352 108.198 267.32 108.358 267.32 108.538H266.497C266.497 108.248 266.563 107.984 266.695 107.745C266.827 107.503 267.018 107.312 267.269 107.17C267.52 107.027 267.822 106.955 268.175 106.955C268.507 106.955 268.79 107.011 269.022 107.123C269.255 107.234 269.431 107.393 269.552 107.598C269.675 107.803 269.737 108.045 269.737 108.326C269.737 108.481 269.712 108.634 269.662 108.787C269.611 108.94 269.54 109.092 269.446 109.245C269.355 109.396 269.247 109.547 269.122 109.7C268.996 109.85 268.858 110.003 268.708 110.158L267.631 111.344H269.928ZM271.234 111.351H271.302C271.617 111.351 271.879 111.31 272.088 111.228C272.3 111.143 272.469 111.027 272.594 110.879C272.72 110.731 272.81 110.556 272.864 110.356C272.919 110.155 272.946 109.938 272.946 109.703V108.845C272.946 108.642 272.925 108.465 272.881 108.312C272.84 108.157 272.781 108.028 272.704 107.926C272.628 107.821 272.541 107.742 272.44 107.69C272.342 107.638 272.236 107.611 272.123 107.611C271.997 107.611 271.884 107.64 271.784 107.697C271.686 107.751 271.603 107.828 271.535 107.926C271.469 108.021 271.417 108.134 271.381 108.264C271.347 108.392 271.33 108.528 271.33 108.674C271.33 108.811 271.346 108.943 271.377 109.071C271.412 109.196 271.462 109.308 271.528 109.406C271.594 109.504 271.677 109.581 271.777 109.638C271.878 109.695 271.995 109.724 272.129 109.724C272.257 109.724 272.374 109.7 272.481 109.652C272.589 109.602 272.682 109.535 272.762 109.45C272.841 109.366 272.904 109.271 272.95 109.167C272.995 109.062 273.02 108.955 273.025 108.845L273.339 108.941C273.339 109.114 273.303 109.285 273.23 109.454C273.159 109.62 273.06 109.773 272.933 109.912C272.807 110.048 272.66 110.158 272.492 110.24C272.325 110.322 272.144 110.363 271.948 110.363C271.711 110.363 271.502 110.318 271.319 110.229C271.139 110.138 270.989 110.015 270.868 109.86C270.75 109.705 270.661 109.528 270.602 109.327C270.542 109.127 270.513 108.916 270.513 108.695C270.513 108.456 270.549 108.231 270.622 108.021C270.695 107.812 270.801 107.627 270.94 107.468C271.079 107.306 271.248 107.181 271.446 107.092C271.646 107.001 271.873 106.955 272.126 106.955C272.395 106.955 272.631 107.007 272.833 107.112C273.036 107.217 273.207 107.362 273.346 107.546C273.485 107.731 273.59 107.945 273.661 108.189C273.731 108.433 273.767 108.695 273.767 108.975V109.266C273.767 109.56 273.74 109.843 273.688 110.117C273.636 110.388 273.55 110.64 273.432 110.872C273.315 111.102 273.162 111.305 272.97 111.48C272.781 111.654 272.549 111.789 272.273 111.887C272 111.983 271.678 112.031 271.309 112.031H271.234V111.351ZM274.515 108.244V107.98C274.515 107.791 274.556 107.619 274.638 107.464C274.72 107.309 274.84 107.185 274.997 107.092C275.154 106.998 275.343 106.952 275.564 106.952C275.792 106.952 275.984 106.998 276.139 107.092C276.296 107.185 276.416 107.309 276.498 107.464C276.58 107.619 276.621 107.791 276.621 107.98V108.244C276.621 108.428 276.58 108.598 276.498 108.753C276.418 108.908 276.299 109.032 276.142 109.125C275.987 109.219 275.797 109.266 275.571 109.266C275.348 109.266 275.157 109.219 274.997 109.125C274.84 109.032 274.72 108.908 274.638 108.753C274.556 108.598 274.515 108.428 274.515 108.244ZM275.086 107.98V108.244C275.086 108.335 275.103 108.421 275.137 108.503C275.174 108.585 275.228 108.652 275.301 108.702C275.374 108.752 275.464 108.777 275.571 108.777C275.681 108.777 275.77 108.752 275.838 108.702C275.909 108.652 275.961 108.585 275.995 108.503C276.029 108.421 276.046 108.335 276.046 108.244V107.98C276.046 107.887 276.028 107.799 275.992 107.717C275.958 107.633 275.905 107.566 275.834 107.516C275.764 107.465 275.674 107.44 275.564 107.44C275.46 107.44 275.371 107.465 275.298 107.516C275.227 107.566 275.174 107.633 275.137 107.717C275.103 107.799 275.086 107.887 275.086 107.98ZM276.915 111.046V110.78C276.915 110.593 276.956 110.422 277.038 110.267C277.122 110.112 277.243 109.988 277.4 109.895C277.557 109.801 277.746 109.754 277.967 109.754C278.195 109.754 278.387 109.801 278.542 109.895C278.699 109.988 278.817 110.112 278.897 110.267C278.979 110.422 279.02 110.593 279.02 110.78V111.046C279.02 111.233 278.979 111.404 278.897 111.559C278.817 111.714 278.7 111.838 278.545 111.932C278.39 112.025 278.201 112.072 277.978 112.072C277.752 112.072 277.559 112.025 277.4 111.932C277.243 111.838 277.122 111.714 277.038 111.559C276.956 111.404 276.915 111.233 276.915 111.046ZM277.489 110.78V111.046C277.489 111.138 277.507 111.224 277.543 111.306C277.582 111.388 277.638 111.455 277.711 111.508C277.784 111.558 277.872 111.583 277.974 111.583C278.09 111.583 278.184 111.558 278.254 111.508C278.325 111.455 278.375 111.389 278.405 111.31C278.437 111.228 278.453 111.14 278.453 111.046V110.78C278.453 110.686 278.434 110.599 278.398 110.517C278.364 110.435 278.31 110.368 278.237 110.318C278.167 110.268 278.077 110.243 277.967 110.243C277.86 110.243 277.771 110.268 277.701 110.318C277.63 110.368 277.576 110.435 277.54 110.517C277.506 110.599 277.489 110.686 277.489 110.78ZM278.172 107.734L275.742 111.624L275.322 111.381L277.752 107.492L278.172 107.734Z" fill="#20EEBC"/>
</g>
<g filter="url(#filter11_d_816_23)">
<path d="M228.132 111.32V112H225.49V111.32H228.132ZM225.733 107.023V112H224.875V107.023H225.733ZM227.787 109.102V109.771H225.49V109.102H227.787ZM228.115 107.023V107.707H225.49V107.023H228.115ZM230.949 107.023V112H230.098V107.023H230.949ZM232.511 107.023V107.707H228.549V107.023H232.511ZM236.455 109.102V109.782H233.813V109.102H236.455ZM234.025 107.023V112H233.167V107.023H234.025ZM237.115 107.023V112H236.26V107.023H237.115Z" fill="black"/>
</g>
<g filter="url(#filter12_d_816_23)">
<path d="M210 109.977L215.063 100L220.125 109.977L215.063 113.095L210 109.977Z" fill="#7880E7"/>
</g>
<g filter="url(#filter13_d_816_23)">
<path d="M215.063 100L220.125 109.977L215.063 113.095V100Z" fill="#5C64C7"/>
</g>
<g filter="url(#filter14_d_816_23)">
<path d="M210 111.224L215.063 114.375L220.125 111.224L215.063 118.707L210 111.224Z" fill="#7880E7"/>
</g>
<g filter="url(#filter15_d_816_23)">
<path d="M215.063 114.342L220.125 111.224L215.063 118.707V114.342ZM210 109.977L215.063 107.483L220.125 109.977L215.063 113.095L210 109.977Z" fill="#5C64C7"/>
</g>
<g filter="url(#filter16_d_816_23)">
<path d="M215.063 107.483L220.125 109.977L215.063 113.095V107.483Z" fill="#2A3192"/>
</g>
<g filter="url(#filter17_d_816_23)">
<path d="M25 115C16.7133 115 10 121.713 10 130C10 138.287 16.7133 145 25 145C33.2868 145 40 138.287 40 130C40 121.713 33.2868 115 25 115Z" fill="#ECEFF1"/>
<path d="M25.0001 117.25C17.9876 117.25 12.2501 122.987 12.2501 130C12.2501 137.012 17.9876 142.75 25.0001 142.75C32.0126 142.75 37.7501 137.012 37.7501 130C37.7501 122.987 32.0126 117.25 25.0001 117.25Z" fill="#1E88E5"/>
<path d="M32.1872 122.5H29.9499L26.9499 130H23.0499L20.0499 122.5H17.8127L19.3749 126.25H16.7499V128.5H20.3499L20.9499 130H16.7499V132.25H21.8499L24.9999 139.75L28.1499 132.25H33.2499V130H29.0499L29.6499 128.5H33.2499V126.25H30.6249L32.1872 122.5ZM24.9999 134.95L23.9499 132.25H26.0499L24.9999 134.95Z" fill="#ECEFF1"/>
</g>
<g filter="url(#filter18_d_816_23)">
<path d="M260 240C260 248.283 253.283 255 245 255C236.717 255 230 248.283 230 240C230 231.717 236.717 225 245 225C253.283 225 260 231.717 260 240Z" fill="#FFC107"/>
<path d="M239.75 247.5V232.5H245.899C247.706 232.5 249.074 232.849 250.009 233.546C250.943 234.244 251.409 235.266 251.409 236.611C251.409 237.346 251.222 237.994 250.85 238.553C250.475 239.113 249.953 239.523 249.285 239.784C250.047 239.977 250.647 240.364 251.087 240.95C251.527 241.532 251.75 242.244 251.75 243.091C251.75 244.532 251.293 245.625 250.379 246.366C249.464 247.107 248.164 247.485 246.473 247.5H239.75ZM242.75 238.5H246.022C247.569 238.474 248.345 237.882 248.345 236.666C248.345 235.987 248.149 235.497 247.757 235.198C247.364 234.9 246.746 234.75 245.899 234.75H242.75V238.5ZM242.75 240.75V245.25H246.383C247.103 245.25 248.75 244.898 248.75 243.293C248.75 241.688 247.912 240.77 246.5 240.75H242.75Z" fill="#FFF8E1"/>
<path d="M242 230.25H244.25V234H242V230.25ZM245.75 230.25H248V234H245.75V230.25ZM242 246H244.25V249.75H242V246ZM245.75 246H248V249.75H245.75V246Z" fill="#FFF8E1"/>
</g>
<g filter="url(#filter19_d_816_23)">
<path d="M255 35C263.284 35 270 28.2843 270 20C270 11.7157 263.284 5 255 5C246.716 5 240 11.7157 240 20C240 28.2843 246.716 35 255 35Z" fill="#26A69A"/>
<path d="M261.75 11.75H248.25V15.5029H261.75V11.75Z" fill="white"/>
<path d="M255 17.75C251.657 17.75 246 18.3032 246 20.377C246 22.4509 251.657 23.004 255 23.004C258.342 23.004 264 22.4509 264 20.377C264 18.3032 258.342 17.75 255 17.75ZM255 21.5029C250.857 21.5029 247.5 20.8311 247.5 20.0017C247.5 19.1723 250.857 18.5006 255 18.5006C259.142 18.5006 262.5 19.1723 262.5 20.0017C262.5 20.8311 259.142 21.5029 255 21.5029Z" fill="white"/>
<path d="M255 20.0064C255.821 20.0064 256.57 19.9786 257.25 19.9328V11.75H252.75V19.9328C253.43 19.9786 254.179 20.0064 255 20.0064Z" fill="white"/>
<path d="M256.292 21.476C256.209 21.479 256.125 21.4813 256.04 21.4835C255.699 21.4933 255.354 21.5 255 21.5C254.646 21.5 254.301 21.4933 253.96 21.4843C253.875 21.482 253.791 21.4798 253.708 21.4768C253.381 21.4655 253.06 21.4512 252.75 21.4317V29.0058H257.25V21.431C256.939 21.4505 256.618 21.4648 256.292 21.476Z" fill="white"/>
</g>
<g filter="url(#filter20_d_816_23)">
<path d="M40 189C40 186.791 41.7909 185 44 185H106.258C108.467 185 110.258 186.791 110.258 189V241.172C110.258 243.382 108.467 245.172 106.258 245.172H44C41.7909 245.172 40 243.382 40 241.172V189Z" fill="#F9F9F9"/>
</g>
<path d="M52.5781 233.351L53.5132 230.445H54.1895L52.915 234H52.4585L52.5781 233.351ZM51.7139 230.445L52.6416 233.351L52.7686 234H52.3096L51.04 230.445H51.7139ZM55.2417 230.445V234H54.6289V230.445H55.2417ZM57.4316 230.919L56.3696 234H55.7275L57.0654 230.445H57.4756L57.4316 230.919ZM58.3203 234L57.2559 230.919L57.2095 230.445H57.6221L58.9648 234H58.3203ZM58.269 232.682V233.167H56.3354V232.682H58.269Z" fill="#DAD9D9"/>
<path d="M53.0459 225.052V225.582H50.6094V225.052H53.0459ZM52.1133 224.056V226.644H51.5444V224.056H52.1133ZM53.4707 224.317V224.129C53.4707 223.994 53.5 223.871 53.5586 223.76C53.6172 223.65 53.7026 223.561 53.8149 223.494C53.9272 223.427 54.0623 223.394 54.2202 223.394C54.383 223.394 54.5197 223.427 54.6304 223.494C54.7427 223.561 54.8281 223.65 54.8867 223.76C54.9453 223.871 54.9746 223.994 54.9746 224.129V224.317C54.9746 224.449 54.9453 224.57 54.8867 224.681C54.8298 224.791 54.7451 224.88 54.6328 224.947C54.5221 225.014 54.3862 225.047 54.2251 225.047C54.0656 225.047 53.9289 225.014 53.8149 224.947C53.7026 224.88 53.6172 224.791 53.5586 224.681C53.5 224.57 53.4707 224.449 53.4707 224.317ZM53.8784 224.129V224.317C53.8784 224.382 53.8906 224.444 53.915 224.502C53.9411 224.561 53.9801 224.608 54.0322 224.644C54.0843 224.68 54.1486 224.698 54.2251 224.698C54.3032 224.698 54.3667 224.68 54.4155 224.644C54.466 224.608 54.5034 224.561 54.5278 224.502C54.5522 224.444 54.5645 224.382 54.5645 224.317V224.129C54.5645 224.062 54.5514 224 54.5254 223.941C54.501 223.881 54.4635 223.833 54.4131 223.797C54.3626 223.761 54.2983 223.743 54.2202 223.743C54.1453 223.743 54.0819 223.761 54.0298 223.797C53.9793 223.833 53.9411 223.881 53.915 223.941C53.8906 224 53.8784 224.062 53.8784 224.129ZM55.1846 226.319V226.128C55.1846 225.995 55.2139 225.873 55.2725 225.762C55.3327 225.652 55.4189 225.563 55.5312 225.496C55.6436 225.429 55.7786 225.396 55.9365 225.396C56.0993 225.396 56.236 225.429 56.3467 225.496C56.459 225.563 56.5436 225.652 56.6006 225.762C56.6592 225.873 56.6885 225.995 56.6885 226.128V226.319C56.6885 226.452 56.6592 226.574 56.6006 226.685C56.5436 226.796 56.4598 226.884 56.3491 226.951C56.2384 227.018 56.1034 227.051 55.9438 227.051C55.7827 227.051 55.6452 227.018 55.5312 226.951C55.4189 226.884 55.3327 226.796 55.2725 226.685C55.2139 226.574 55.1846 226.452 55.1846 226.319ZM55.5947 226.128V226.319C55.5947 226.384 55.6077 226.446 55.6338 226.504C55.6615 226.563 55.7013 226.611 55.7534 226.648C55.8055 226.684 55.8682 226.702 55.9414 226.702C56.0244 226.702 56.0911 226.684 56.1416 226.648C56.1921 226.611 56.2279 226.564 56.249 226.507C56.2718 226.448 56.2832 226.386 56.2832 226.319V226.128C56.2832 226.062 56.2702 225.999 56.2441 225.94C56.2197 225.882 56.1815 225.835 56.1294 225.799C56.0789 225.763 56.0146 225.745 55.9365 225.745C55.86 225.745 55.7965 225.763 55.7461 225.799C55.6956 225.835 55.6574 225.882 55.6313 225.94C55.6069 225.999 55.5947 226.062 55.5947 226.128ZM56.083 223.953L54.3472 226.731L54.0469 226.558L55.7827 223.78L56.083 223.953ZM58.7832 223.433V227H58.1948V224.131L57.3232 224.427V223.941L58.7124 223.433H58.7832ZM60.6045 226.434L60.6021 226.854C60.6021 227.02 60.5605 227.19 60.4775 227.366C60.3945 227.542 60.2847 227.687 60.1479 227.801L59.833 227.618C59.8786 227.544 59.9201 227.47 59.9575 227.396C59.995 227.321 60.0251 227.241 60.0479 227.156C60.0706 227.072 60.082 226.978 60.082 226.875V226.434H60.6045ZM61.7544 225.347L61.2856 225.232L61.4785 223.445H63.395V223.943H61.9668L61.8691 224.815C61.9245 224.782 62.001 224.751 62.0986 224.72C62.1963 224.687 62.3078 224.671 62.4331 224.671C62.6007 224.671 62.7505 224.699 62.8823 224.754C63.0158 224.808 63.1289 224.887 63.2217 224.991C63.3145 225.093 63.3853 225.219 63.4341 225.367C63.4829 225.513 63.5073 225.678 63.5073 225.862C63.5073 226.027 63.4829 226.181 63.4341 226.324C63.3869 226.467 63.3153 226.593 63.2192 226.702C63.1232 226.811 63.002 226.897 62.8555 226.958C62.7106 227.019 62.5389 227.049 62.3403 227.049C62.1922 227.049 62.0498 227.028 61.9131 226.985C61.778 226.941 61.6567 226.877 61.5493 226.792C61.4419 226.706 61.3556 226.6 61.2905 226.475C61.2254 226.348 61.188 226.202 61.1782 226.038H61.7544C61.769 226.154 61.8008 226.252 61.8496 226.333C61.9001 226.413 61.9668 226.474 62.0498 226.517C62.1328 226.559 62.2288 226.58 62.3379 226.58C62.4372 226.58 62.5226 226.563 62.5942 226.529C62.6659 226.493 62.7253 226.443 62.7725 226.377C62.8213 226.311 62.8571 226.233 62.8799 226.143C62.9043 226.054 62.9165 225.954 62.9165 225.845C62.9165 225.741 62.9027 225.646 62.875 225.56C62.849 225.473 62.8091 225.398 62.7554 225.335C62.7033 225.271 62.6374 225.223 62.5576 225.188C62.4779 225.153 62.3859 225.135 62.2817 225.135C62.1418 225.135 62.0343 225.155 61.9595 225.196C61.8862 225.236 61.8179 225.287 61.7544 225.347ZM64.6694 224.957H65.021C65.1577 224.957 65.2708 224.933 65.3604 224.886C65.4515 224.839 65.519 224.773 65.563 224.69C65.6069 224.607 65.6289 224.512 65.6289 224.405C65.6289 224.292 65.6086 224.196 65.5679 224.117C65.5288 224.035 65.4686 223.973 65.3872 223.929C65.3075 223.885 65.2057 223.863 65.082 223.863C64.9779 223.863 64.8835 223.884 64.7988 223.926C64.7158 223.967 64.6499 224.026 64.6011 224.102C64.5522 224.177 64.5278 224.266 64.5278 224.371H63.937C63.937 224.182 63.9867 224.014 64.0859 223.868C64.1852 223.721 64.3203 223.606 64.4912 223.523C64.6637 223.439 64.8574 223.396 65.0723 223.396C65.3018 223.396 65.502 223.435 65.6729 223.511C65.8454 223.586 65.9797 223.698 66.0757 223.848C66.1717 223.998 66.2197 224.183 66.2197 224.405C66.2197 224.506 66.1961 224.608 66.1489 224.712C66.1017 224.817 66.0317 224.912 65.939 224.998C65.8462 225.083 65.7306 225.152 65.5923 225.206C65.4539 225.258 65.2936 225.284 65.1113 225.284H64.6694V224.957ZM64.6694 225.416V225.093H65.1113C65.3197 225.093 65.4971 225.118 65.6436 225.167C65.7917 225.215 65.9121 225.283 66.0049 225.369C66.0977 225.454 66.1652 225.551 66.2075 225.66C66.2515 225.769 66.2734 225.884 66.2734 226.006C66.2734 226.172 66.2433 226.32 66.1831 226.451C66.1245 226.579 66.0407 226.688 65.9316 226.778C65.8226 226.867 65.6948 226.935 65.5483 226.98C65.4035 227.026 65.2456 227.049 65.0747 227.049C64.9217 227.049 64.7752 227.028 64.6353 226.985C64.4953 226.943 64.37 226.88 64.2593 226.797C64.1486 226.713 64.0607 226.608 63.9956 226.482C63.9321 226.355 63.9004 226.209 63.9004 226.043H64.4888C64.4888 226.149 64.5132 226.242 64.562 226.324C64.6125 226.403 64.6825 226.466 64.772 226.512C64.8631 226.557 64.9673 226.58 65.0845 226.58C65.2082 226.58 65.3148 226.558 65.4043 226.514C65.4938 226.47 65.5622 226.405 65.6094 226.319C65.6582 226.233 65.6826 226.128 65.6826 226.006C65.6826 225.868 65.6558 225.756 65.6021 225.669C65.5483 225.583 65.4718 225.52 65.3726 225.479C65.2733 225.437 65.1561 225.416 65.021 225.416H64.6694Z" fill="#20EEBC"/>
<path d="M52.0601 209.876V210.606H51.6841V209.876H52.0601ZM52.0137 213.863V214.518H51.6401V213.863H52.0137ZM52.3823 213.075C52.3823 212.98 52.3628 212.898 52.3237 212.828C52.2863 212.757 52.2244 212.692 52.1382 212.635C52.0519 212.577 51.9364 212.522 51.7915 212.472C51.5832 212.398 51.4009 212.316 51.2446 212.225C51.09 212.132 50.9696 212.018 50.8833 211.883C50.7987 211.747 50.7563 211.576 50.7563 211.373C50.7563 211.173 50.8019 211 50.8931 210.853C50.9858 210.707 51.1144 210.593 51.2788 210.514C51.4432 210.434 51.6353 210.394 51.855 210.394C52.0243 210.394 52.1764 210.419 52.3115 210.47C52.4482 210.52 52.5646 210.594 52.6606 210.692C52.7567 210.79 52.8299 210.91 52.8804 211.053C52.9325 211.195 52.9585 211.358 52.9585 211.542H52.3726C52.3726 211.437 52.3604 211.345 52.3359 211.263C52.3132 211.18 52.279 211.11 52.2334 211.053C52.1878 210.995 52.1325 210.95 52.0674 210.919C52.0039 210.888 51.9315 210.873 51.8501 210.873C51.7345 210.873 51.6393 210.895 51.5645 210.938C51.4896 210.981 51.4342 211.039 51.3984 211.114C51.3643 211.189 51.3472 211.275 51.3472 211.371C51.3472 211.463 51.3651 211.545 51.4009 211.615C51.4367 211.685 51.4977 211.748 51.584 211.805C51.6719 211.861 51.7923 211.917 51.9453 211.974C52.1553 212.049 52.3368 212.132 52.4897 212.225C52.6444 212.316 52.7632 212.429 52.8462 212.564C52.9308 212.698 52.9731 212.866 52.9731 213.07C52.9731 213.28 52.9243 213.458 52.8267 213.604C52.7306 213.751 52.5955 213.862 52.4214 213.939C52.2489 214.014 52.0479 214.051 51.8184 214.051C51.6735 214.051 51.5295 214.033 51.3862 213.995C51.2446 213.956 51.116 213.893 51.0005 213.805C50.8849 213.717 50.793 213.6 50.7246 213.456C50.6562 213.309 50.6221 213.13 50.6221 212.918H51.2129C51.2129 213.045 51.23 213.151 51.2642 213.236C51.2983 213.32 51.3447 213.387 51.4033 213.436C51.4619 213.485 51.527 213.52 51.5986 213.541C51.6719 213.562 51.7451 213.573 51.8184 213.573C51.9404 213.573 52.043 213.552 52.126 213.512C52.2106 213.469 52.2741 213.411 52.3164 213.336C52.3604 213.259 52.3823 213.172 52.3823 213.075ZM55.0947 210.433V214H54.5063V211.131L53.6348 211.427V210.941L55.0239 210.433H55.0947ZM57.9365 210.433V214H57.3481V211.131L56.4766 211.427V210.941L57.8657 210.433H57.9365ZM59.7578 213.434L59.7554 213.854C59.7554 214.02 59.7139 214.19 59.6309 214.366C59.5479 214.542 59.438 214.687 59.3013 214.801L58.9863 214.618C59.0319 214.544 59.0734 214.47 59.1108 214.396C59.1483 214.321 59.1784 214.241 59.2012 214.156C59.224 214.072 59.2354 213.978 59.2354 213.875V213.434H59.7578ZM60.9077 212.347L60.439 212.232L60.6318 210.445H62.5483V210.943H61.1201L61.0225 211.815C61.0778 211.782 61.1543 211.751 61.252 211.72C61.3496 211.687 61.4611 211.671 61.5864 211.671C61.7541 211.671 61.9038 211.699 62.0356 211.754C62.1691 211.808 62.2822 211.887 62.375 211.991C62.4678 212.093 62.5386 212.219 62.5874 212.367C62.6362 212.513 62.6606 212.678 62.6606 212.862C62.6606 213.027 62.6362 213.181 62.5874 213.324C62.5402 213.467 62.4686 213.593 62.3726 213.702C62.2765 213.811 62.1553 213.897 62.0088 213.958C61.8639 214.019 61.6922 214.049 61.4937 214.049C61.3455 214.049 61.2031 214.028 61.0664 213.985C60.9313 213.941 60.8101 213.877 60.7026 213.792C60.5952 213.706 60.509 213.6 60.4438 213.475C60.3787 213.348 60.3413 213.202 60.3315 213.038H60.9077C60.9224 213.154 60.9541 213.252 61.0029 213.333C61.0534 213.413 61.1201 213.474 61.2031 213.517C61.2861 213.559 61.3822 213.58 61.4912 213.58C61.5905 213.58 61.6759 213.563 61.7476 213.529C61.8192 213.493 61.8786 213.443 61.9258 213.377C61.9746 213.311 62.0104 213.233 62.0332 213.143C62.0576 213.054 62.0698 212.954 62.0698 212.845C62.0698 212.741 62.056 212.646 62.0283 212.56C62.0023 212.473 61.9624 212.398 61.9087 212.335C61.8566 212.271 61.7907 212.223 61.7109 212.188C61.6312 212.153 61.5392 212.135 61.4351 212.135C61.2951 212.135 61.1877 212.155 61.1128 212.196C61.0396 212.236 60.9712 212.287 60.9077 212.347ZM65.4927 210.445V210.768L64.0718 214H63.4517L64.8701 210.914H63.0293V210.445H65.4927ZM68.2979 213.031C68.2979 213.252 68.2466 213.438 68.144 213.59C68.0415 213.741 67.9015 213.856 67.7241 213.934C67.5483 214.011 67.3498 214.049 67.1284 214.049C66.9071 214.049 66.7077 214.011 66.5303 213.934C66.3529 213.856 66.2129 213.741 66.1104 213.59C66.0078 213.438 65.9565 213.252 65.9565 213.031C65.9565 212.884 65.985 212.752 66.042 212.633C66.099 212.512 66.1795 212.409 66.2837 212.323C66.3895 212.235 66.5132 212.167 66.6548 212.12C66.798 212.073 66.9543 212.049 67.1235 212.049C67.3481 212.049 67.5492 212.091 67.7266 212.174C67.904 212.257 68.0431 212.372 68.144 212.518C68.2466 212.665 68.2979 212.835 68.2979 213.031ZM67.707 213.001C67.707 212.883 67.6826 212.778 67.6338 212.689C67.585 212.599 67.5166 212.53 67.4287 212.481C67.3408 212.433 67.2391 212.408 67.1235 212.408C67.0063 212.408 66.9046 212.433 66.8184 212.481C66.7321 212.53 66.6646 212.599 66.6157 212.689C66.5685 212.778 66.5449 212.883 66.5449 213.001C66.5449 213.122 66.5685 213.226 66.6157 213.314C66.6629 213.4 66.7305 213.466 66.8184 213.512C66.9062 213.557 67.0096 213.58 67.1284 213.58C67.2472 213.58 67.3498 213.557 67.436 213.512C67.5223 213.466 67.589 213.4 67.6362 213.314C67.6834 213.226 67.707 213.122 67.707 213.001ZM68.2173 211.38C68.2173 211.558 68.1701 211.716 68.0757 211.854C67.9829 211.992 67.8543 212.101 67.6899 212.181C67.5256 212.259 67.3384 212.298 67.1284 212.298C66.9168 212.298 66.728 212.259 66.562 212.181C66.3976 212.101 66.2682 211.992 66.1738 211.854C66.0811 211.716 66.0347 211.558 66.0347 211.38C66.0347 211.169 66.0811 210.991 66.1738 210.846C66.2682 210.699 66.3976 210.588 66.562 210.511C66.7264 210.435 66.9144 210.396 67.126 210.396C67.3376 210.396 67.5256 210.435 67.6899 210.511C67.8543 210.588 67.9829 210.699 68.0757 210.846C68.1701 210.991 68.2173 211.169 68.2173 211.38ZM67.6289 211.4C67.6289 211.294 67.6077 211.201 67.5654 211.122C67.5247 211.04 67.467 210.977 67.3921 210.931C67.3172 210.886 67.2285 210.863 67.126 210.863C67.0234 210.863 66.9347 210.885 66.8599 210.929C66.785 210.973 66.7272 211.035 66.6865 211.114C66.6458 211.194 66.6255 211.289 66.6255 211.4C66.6255 211.509 66.6458 211.604 66.6865 211.686C66.7272 211.765 66.785 211.828 66.8599 211.874C66.9364 211.919 67.0259 211.942 67.1284 211.942C67.231 211.942 67.3197 211.919 67.3945 211.874C67.4694 211.828 67.5272 211.765 67.5679 211.686C67.6086 211.604 67.6289 211.509 67.6289 211.4ZM68.874 213.707C68.874 213.616 68.9049 213.539 68.9668 213.478C69.0286 213.414 69.1125 213.382 69.2183 213.382C69.3257 213.382 69.4095 213.414 69.4697 213.478C69.5316 213.539 69.5625 213.616 69.5625 213.707C69.5625 213.798 69.5316 213.875 69.4697 213.937C69.4095 213.998 69.3257 214.029 69.2183 214.029C69.1125 214.029 69.0286 213.998 68.9668 213.937C68.9049 213.875 68.874 213.798 68.874 213.707ZM70.6807 213.536H70.7295C70.9541 213.536 71.1413 213.507 71.291 213.448C71.4424 213.388 71.5628 213.305 71.6523 213.199C71.7419 213.093 71.8062 212.969 71.8452 212.826C71.8843 212.682 71.9038 212.527 71.9038 212.359V211.747C71.9038 211.602 71.8883 211.475 71.8574 211.366C71.8281 211.255 71.7858 211.163 71.7305 211.09C71.6768 211.015 71.6141 210.959 71.5425 210.921C71.4725 210.884 71.3968 210.865 71.3154 210.865C71.2259 210.865 71.1453 210.886 71.0737 210.926C71.0037 210.965 70.9443 211.02 70.8955 211.09C70.8483 211.158 70.8117 211.239 70.7856 211.332C70.7612 211.423 70.749 211.52 70.749 211.625C70.749 211.722 70.7604 211.817 70.7832 211.908C70.8076 211.997 70.8434 212.077 70.8906 212.147C70.9378 212.217 70.9972 212.272 71.0688 212.313C71.1405 212.354 71.2243 212.374 71.3203 212.374C71.4115 212.374 71.4953 212.357 71.5718 212.323C71.6483 212.287 71.715 212.239 71.772 212.179C71.8289 212.118 71.8737 212.051 71.9062 211.976C71.9388 211.901 71.9567 211.825 71.96 211.747L72.1846 211.815C72.1846 211.939 72.1585 212.061 72.1064 212.181C72.056 212.3 71.9852 212.409 71.894 212.508C71.8045 212.606 71.6995 212.684 71.5791 212.743C71.4603 212.801 71.3309 212.831 71.1909 212.831C71.0216 212.831 70.8719 212.799 70.7417 212.735C70.6131 212.67 70.5057 212.582 70.4194 212.472C70.3348 212.361 70.2713 212.234 70.229 212.091C70.1867 211.948 70.1655 211.797 70.1655 211.639C70.1655 211.468 70.1916 211.308 70.2437 211.158C70.2957 211.008 70.3714 210.877 70.4707 210.763C70.57 210.647 70.6904 210.558 70.832 210.494C70.9753 210.429 71.1372 210.396 71.3179 210.396C71.5099 210.396 71.6784 210.434 71.8232 210.509C71.9681 210.584 72.0902 210.687 72.1895 210.819C72.2887 210.951 72.3636 211.104 72.4141 211.278C72.4645 211.452 72.4897 211.639 72.4897 211.839V212.047C72.4897 212.257 72.471 212.459 72.4336 212.655C72.3962 212.848 72.3351 213.028 72.2505 213.194C72.1675 213.359 72.0576 213.504 71.9209 213.629C71.7858 213.753 71.6198 213.849 71.4229 213.919C71.2275 213.988 70.998 214.022 70.7344 214.022H70.6807V213.536ZM74.6553 210.433V214H74.0669V211.131L73.1953 211.427V210.941L74.5845 210.433H74.6553Z" fill="#00A3FF"/>
<path d="M67.0869 201.245L68.5532 197.023H69.2676L67.4253 202H66.916L67.0869 201.245ZM65.7163 197.023L67.1689 201.245L67.3501 202H66.8408L65.002 197.023H65.7163ZM70.5288 198.302V202H69.8931V198.302H70.5288ZM69.8452 197.321C69.8452 197.218 69.876 197.132 69.9375 197.061C70.0013 196.99 70.0947 196.955 70.2178 196.955C70.3385 196.955 70.4308 196.99 70.4946 197.061C70.5607 197.132 70.5938 197.218 70.5938 197.321C70.5938 197.419 70.5607 197.503 70.4946 197.574C70.4308 197.642 70.3385 197.676 70.2178 197.676C70.0947 197.676 70.0013 197.642 69.9375 197.574C69.876 197.503 69.8452 197.419 69.8452 197.321ZM73.7246 201.368V199.464C73.7246 199.318 73.695 199.192 73.6357 199.084C73.5788 198.975 73.4922 198.891 73.376 198.832C73.2598 198.772 73.1162 198.743 72.9453 198.743C72.7858 198.743 72.6457 198.77 72.5249 198.825C72.4064 198.879 72.313 198.951 72.2446 199.04C72.1785 199.129 72.1455 199.225 72.1455 199.327H71.5132C71.5132 199.195 71.5474 199.064 71.6157 198.934C71.6841 198.804 71.7821 198.687 71.9097 198.582C72.0396 198.475 72.1945 198.391 72.3745 198.329C72.5568 198.265 72.7596 198.233 72.9829 198.233C73.2518 198.233 73.4888 198.279 73.6938 198.37C73.9012 198.461 74.063 198.599 74.1792 198.784C74.2977 198.966 74.3569 199.195 74.3569 199.471V201.193C74.3569 201.316 74.3672 201.447 74.3877 201.586C74.4105 201.725 74.4435 201.845 74.4868 201.945V202H73.8271C73.7952 201.927 73.7702 201.83 73.752 201.709C73.7337 201.586 73.7246 201.472 73.7246 201.368ZM73.834 199.758L73.8408 200.202H73.2017C73.0216 200.202 72.861 200.217 72.7197 200.247C72.5785 200.274 72.46 200.316 72.3643 200.373C72.2686 200.43 72.1956 200.502 72.1455 200.588C72.0954 200.673 72.0703 200.772 72.0703 200.886C72.0703 201.002 72.0965 201.108 72.1489 201.204C72.2013 201.299 72.2799 201.376 72.3848 201.433C72.4919 201.487 72.6229 201.515 72.7778 201.515C72.9715 201.515 73.1424 201.474 73.2905 201.392C73.4386 201.31 73.556 201.209 73.6426 201.091C73.7314 200.972 73.7793 200.857 73.7861 200.746L74.0562 201.05C74.0402 201.146 73.9969 201.251 73.9263 201.368C73.8556 201.484 73.7611 201.596 73.6426 201.703C73.5264 201.807 73.3874 201.895 73.2256 201.966C73.0661 202.034 72.8861 202.068 72.6855 202.068C72.4349 202.068 72.215 202.019 72.0259 201.921C71.839 201.823 71.6932 201.692 71.5884 201.528C71.4858 201.362 71.4346 201.176 71.4346 200.971C71.4346 200.773 71.4733 200.599 71.5508 200.448C71.6283 200.296 71.7399 200.169 71.8857 200.069C72.0316 199.966 72.207 199.889 72.4121 199.836C72.6172 199.784 72.8462 199.758 73.0991 199.758H73.834ZM76.8315 201.549C76.9819 201.549 77.1209 201.518 77.2485 201.457C77.3761 201.395 77.481 201.311 77.563 201.204C77.645 201.094 77.6917 200.97 77.7031 200.831H78.3047C78.2933 201.05 78.2192 201.254 78.0825 201.443C77.9481 201.63 77.7715 201.781 77.5527 201.897C77.334 202.011 77.0936 202.068 76.8315 202.068C76.5535 202.068 76.3109 202.019 76.1035 201.921C75.8984 201.823 75.7275 201.689 75.5908 201.518C75.4564 201.347 75.355 201.151 75.2866 200.93C75.2205 200.707 75.1875 200.471 75.1875 200.223V200.079C75.1875 199.831 75.2205 199.596 75.2866 199.375C75.355 199.152 75.4564 198.955 75.5908 198.784C75.7275 198.613 75.8984 198.478 76.1035 198.38C76.3109 198.282 76.5535 198.233 76.8315 198.233C77.1209 198.233 77.3739 198.293 77.5903 198.411C77.8068 198.527 77.9766 198.687 78.0996 198.89C78.2249 199.09 78.2933 199.318 78.3047 199.573H77.7031C77.6917 199.421 77.6484 199.283 77.5732 199.16C77.5003 199.037 77.4001 198.939 77.2725 198.866C77.1471 198.791 77.0002 198.753 76.8315 198.753C76.6379 198.753 76.4749 198.792 76.3428 198.869C76.2129 198.944 76.1092 199.047 76.0317 199.177C75.9565 199.304 75.9019 199.447 75.8677 199.604C75.8358 199.759 75.8198 199.917 75.8198 200.079V200.223C75.8198 200.384 75.8358 200.544 75.8677 200.701C75.8996 200.858 75.9531 201.001 76.0283 201.128C76.1058 201.256 76.2095 201.359 76.3394 201.436C76.4715 201.511 76.6356 201.549 76.8315 201.549ZM78.8481 200.192V200.113C78.8481 199.847 78.8869 199.599 78.9644 199.372C79.0418 199.141 79.1535 198.942 79.2993 198.773C79.4451 198.603 79.6217 198.47 79.8291 198.377C80.0365 198.281 80.2689 198.233 80.5264 198.233C80.7861 198.233 81.0197 198.281 81.2271 198.377C81.4367 198.47 81.6144 198.603 81.7603 198.773C81.9084 198.942 82.0212 199.141 82.0986 199.372C82.1761 199.599 82.2148 199.847 82.2148 200.113V200.192C82.2148 200.458 82.1761 200.706 82.0986 200.934C82.0212 201.161 81.9084 201.361 81.7603 201.532C81.6144 201.7 81.4378 201.833 81.2305 201.928C81.0254 202.022 80.793 202.068 80.5332 202.068C80.2734 202.068 80.0399 202.022 79.8325 201.928C79.6252 201.833 79.4474 201.7 79.2993 201.532C79.1535 201.361 79.0418 201.161 78.9644 200.934C78.8869 200.706 78.8481 200.458 78.8481 200.192ZM79.4805 200.113V200.192C79.4805 200.376 79.5021 200.551 79.5454 200.715C79.5887 200.877 79.6536 201.02 79.7402 201.146C79.8291 201.271 79.9396 201.37 80.0718 201.443C80.2039 201.514 80.3577 201.549 80.5332 201.549C80.7064 201.549 80.8579 201.514 80.9878 201.443C81.12 201.37 81.2293 201.271 81.3159 201.146C81.4025 201.02 81.4674 200.877 81.5107 200.715C81.5563 200.551 81.5791 200.376 81.5791 200.192V200.113C81.5791 199.931 81.5563 199.759 81.5107 199.597C81.4674 199.433 81.4014 199.288 81.3125 199.163C81.2259 199.035 81.1165 198.935 80.9844 198.862C80.8545 198.789 80.7018 198.753 80.5264 198.753C80.3532 198.753 80.2005 198.789 80.0684 198.862C79.9385 198.935 79.8291 199.035 79.7402 199.163C79.6536 199.288 79.5887 199.433 79.5454 199.597C79.5021 199.759 79.4805 199.931 79.4805 200.113ZM83.6948 198.302V202H83.0591V198.302H83.6948ZM83.0112 197.321C83.0112 197.218 83.042 197.132 83.1035 197.061C83.1673 196.99 83.2607 196.955 83.3838 196.955C83.5046 196.955 83.5968 196.99 83.6606 197.061C83.7267 197.132 83.7598 197.218 83.7598 197.321C83.7598 197.419 83.7267 197.503 83.6606 197.574C83.5968 197.642 83.5046 197.676 83.3838 197.676C83.2607 197.676 83.1673 197.642 83.1035 197.574C83.042 197.503 83.0112 197.419 83.0112 197.321ZM85.3423 199.091V202H84.71V198.302H85.3081L85.3423 199.091ZM85.1919 200.011L84.9287 200C84.931 199.748 84.9686 199.514 85.0415 199.3C85.1144 199.083 85.217 198.895 85.3491 198.736C85.4813 198.576 85.6385 198.453 85.8208 198.367C86.0054 198.278 86.2093 198.233 86.4326 198.233C86.6149 198.233 86.779 198.258 86.9248 198.309C87.0706 198.356 87.1948 198.434 87.2974 198.541C87.4022 198.648 87.4819 198.787 87.5366 198.958C87.5913 199.127 87.6187 199.333 87.6187 199.577V202H86.9829V199.57C86.9829 199.376 86.9544 199.221 86.8975 199.105C86.8405 198.986 86.7573 198.901 86.6479 198.849C86.5386 198.794 86.4041 198.767 86.2446 198.767C86.0874 198.767 85.9438 198.8 85.814 198.866C85.6864 198.932 85.5758 199.023 85.4824 199.139C85.3913 199.255 85.3195 199.389 85.2671 199.539C85.217 199.687 85.1919 199.844 85.1919 200.011Z" fill="black"/>
<path d="M50 197C50 195.895 50.8954 195 52 195H58C59.1046 195 60 195.895 60 197V203C60 204.105 59.1046 205 58 205H52C50.8954 205 50 204.105 50 203V197Z" fill="#DAD9D9"/>
<path fill-rule="evenodd" clip-rule="evenodd" d="M55.0258 196C55.2207 196.002 55.4157 196.016 55.6086 196.046C55.966 196.101 56.3158 196.204 56.6453 196.353C57.0406 196.533 57.4068 196.776 57.724 197.072C58.0528 197.378 58.33 197.74 58.5399 198.137C58.7192 198.476 58.849 198.842 58.9237 199.219C59.0093 199.651 59.0229 200.097 58.9645 200.534C58.9101 200.942 58.7919 201.34 58.6153 201.712C58.4122 202.14 58.1323 202.531 57.7933 202.861C57.4367 203.21 57.0155 203.491 56.5563 203.685C56.0733 203.89 55.5502 203.997 55.0258 204C54.5 204.003 53.9756 203.903 53.4885 203.704C53.0266 203.516 52.602 203.239 52.2413 202.895C51.8982 202.568 51.6136 202.181 51.405 201.755C51.225 201.386 51.1021 200.99 51.0423 200.584C50.9798 200.156 50.9866 199.718 51.0627 199.292C51.1292 198.921 51.2488 198.56 51.4159 198.223C51.6163 197.821 51.8846 197.452 52.2066 197.139C52.5279 196.824 52.9029 196.565 53.3105 196.374C53.6373 196.221 53.9851 196.113 54.3417 196.054C54.534 196.022 54.7276 196.005 54.9225 196.001C54.9572 196 54.9911 196 55.0258 196ZM54.9762 196.348C54.7982 196.35 54.6202 196.363 54.4436 196.39C54.1175 196.44 53.7983 196.535 53.498 196.671C53.1298 196.837 52.7908 197.065 52.4967 197.342C52.1985 197.623 51.9471 197.954 51.7576 198.319C51.5993 198.623 51.4845 198.95 51.4179 199.287C51.3391 199.681 51.3269 200.089 51.3806 200.488C51.4302 200.86 51.5375 201.223 51.6985 201.562C51.8873 201.96 52.1482 202.323 52.4654 202.628C52.7929 202.944 53.1794 203.199 53.5999 203.374C54.0421 203.558 54.5204 203.652 55 203.652C55.4796 203.652 55.9578 203.558 56.4 203.374C56.8205 203.199 57.2071 202.944 57.5345 202.628C57.8517 202.323 58.1126 201.96 58.3014 201.562C58.4624 201.223 58.5698 200.86 58.6194 200.488C58.673 200.089 58.6608 199.681 58.582 199.287C58.5127 198.935 58.3904 198.595 58.2213 198.279C58.0311 197.925 57.7818 197.601 57.4869 197.327C57.1969 197.056 56.8633 196.834 56.5019 196.671C56.2017 196.535 55.8824 196.44 55.5563 196.39C55.3797 196.363 55.2017 196.35 55.0237 196.348C55.0081 196.348 54.9918 196.348 54.9762 196.348ZM55.9021 200.522L54.9966 202.783L54.0904 200.522H52.7392V200.174H53.9511L53.6726 199.478H52.7392V199.13H53.5333L52.9063 197.565H53.2609L54.3043 200.174H55.6956L56.739 197.565H57.0868L56.4598 199.13H57.2607V199.478H56.3206L56.0414 200.174H57.2607V200.522H55.9021ZM55.5563 200.522H54.4436L55 201.913L55.5563 200.522Z" fill="black"/>
<path d="M32.9297 48.5323V60.662C32.9297 61.5522 33.5067 62.3473 34.3709 62.6507L49.033 67.7857C50.4578 68.2847 51.9624 67.2634 51.9624 65.797V43.263C51.9624 41.7892 50.4436 40.7679 49.0166 41.2806L34.3545 46.5499C33.4979 46.8587 32.9297 47.6484 32.9297 48.5323Z" fill="#21A366"/>
<g filter="url(#filter21_d_816_23)">
<rect x="30" y="45" width="90" height="28" rx="4" fill="#F9F9F9"/>
</g>
<g filter="url(#filter22_d_816_23)">
<path d="M93.6884 61.3438V62H90.3524V61.436L91.9726 59.6689C92.1503 59.4684 92.2904 59.2952 92.393 59.1494C92.4955 59.0036 92.5673 58.8726 92.6083 58.7563C92.6516 58.6379 92.6732 58.5228 92.6732 58.4111C92.6732 58.2539 92.6436 58.116 92.5844 57.9976C92.5274 57.8768 92.4431 57.7822 92.3314 57.7139C92.2198 57.6432 92.0842 57.6079 91.9247 57.6079C91.7401 57.6079 91.5852 57.6478 91.4599 57.7275C91.3345 57.8073 91.24 57.9178 91.1762 58.0591C91.1124 58.1981 91.0805 58.3576 91.0805 58.5376H90.2567C90.2567 58.2482 90.3228 57.9839 90.455 57.7446C90.5871 57.5031 90.7785 57.3117 91.0292 57.1704C91.2798 57.0269 91.5818 56.9551 91.935 56.9551C92.2676 56.9551 92.5502 57.0109 92.7826 57.1226C93.015 57.2342 93.1916 57.3926 93.3124 57.5977C93.4354 57.8027 93.497 58.0454 93.497 58.3257C93.497 58.4806 93.4719 58.6344 93.4218 58.7871C93.3716 58.9398 93.2999 59.0924 93.2064 59.2451C93.1153 59.3955 93.0071 59.547 92.8817 59.6997C92.7564 59.8501 92.6185 60.0028 92.4682 60.1577L91.3915 61.3438H93.6884ZM95.1513 61.207L95.1478 61.7949C95.1478 62.0273 95.0897 62.2666 94.9735 62.5127C94.8573 62.7588 94.7035 62.9616 94.5121 63.1211L94.0712 62.8647C94.135 62.7622 94.1931 62.6585 94.2455 62.5537C94.2979 62.4489 94.3401 62.3372 94.372 62.2188C94.4039 62.1003 94.4198 61.9692 94.4198 61.8257V61.207H95.1513ZM96.8637 59.1392H97.3559C97.5473 59.1392 97.7056 59.1061 97.8309 59.04C97.9586 58.974 98.0531 58.8828 98.1146 58.7666C98.1762 58.6504 98.2069 58.5171 98.2069 58.3667C98.2069 58.2095 98.1784 58.075 98.1215 57.9634C98.0668 57.8494 97.9825 57.7617 97.8685 57.7002C97.7569 57.6387 97.6145 57.6079 97.4413 57.6079C97.2955 57.6079 97.1633 57.6375 97.0448 57.6968C96.9286 57.7537 96.8363 57.8358 96.768 57.9429C96.6996 58.0477 96.6654 58.173 96.6654 58.3188H95.8383C95.8383 58.0545 95.9078 57.8198 96.0468 57.6147C96.1858 57.4097 96.3749 57.249 96.6142 57.1328C96.8557 57.0143 97.1268 56.9551 97.4276 56.9551C97.7489 56.9551 98.0292 57.0086 98.2684 57.1157C98.51 57.2205 98.698 57.3778 98.8324 57.5874C98.9669 57.797 99.0341 58.0568 99.0341 58.3667C99.0341 58.508 99.001 58.6515 98.935 58.7974C98.8689 58.9432 98.7709 59.0765 98.641 59.1973C98.5111 59.3158 98.3493 59.4126 98.1557 59.4878C97.962 59.5607 97.7375 59.5972 97.4823 59.5972H96.8637V59.1392ZM96.8637 59.7817V59.3306H97.4823C97.774 59.3306 98.0224 59.3647 98.2274 59.4331C98.4348 59.5015 98.6034 59.596 98.7333 59.7168C98.8632 59.8353 98.9577 59.9709 99.017 60.1235C99.0785 60.2762 99.1093 60.438 99.1093 60.6089C99.1093 60.8413 99.0671 61.0487 98.9828 61.231C98.9008 61.411 98.7834 61.5636 98.6308 61.689C98.4781 61.8143 98.2992 61.9089 98.0941 61.9727C97.8913 62.0365 97.6703 62.0684 97.431 62.0684C97.2169 62.0684 97.0118 62.0387 96.8158 61.9795C96.6198 61.9202 96.4444 61.8325 96.2894 61.7163C96.1345 61.5978 96.0115 61.4508 95.9203 61.2754C95.8314 61.0977 95.787 60.8926 95.787 60.6602H96.6107C96.6107 60.8083 96.6449 60.9393 96.7133 61.0532C96.7839 61.1649 96.8819 61.2526 97.0072 61.3164C97.1348 61.3802 97.2807 61.4121 97.4447 61.4121C97.6179 61.4121 97.7671 61.3813 97.8925 61.3198C98.0178 61.2583 98.1135 61.1672 98.1796 61.0464C98.2479 60.9256 98.2821 60.7798 98.2821 60.6089C98.2821 60.4152 98.2445 60.258 98.1693 60.1372C98.0941 60.0164 97.987 59.9276 97.848 59.8706C97.709 59.8114 97.545 59.7817 97.3559 59.7817H96.8637ZM103.303 60.2261V60.8823H99.7142L99.6869 60.3867L101.833 57.0234H102.493L101.779 58.2471L100.545 60.2261H103.303ZM102.681 57.0234V62H101.857V57.0234H102.681ZM103.819 58.2437V57.9805C103.819 57.7913 103.86 57.6193 103.942 57.4644C104.024 57.3094 104.144 57.1852 104.301 57.0918C104.458 56.9984 104.648 56.9517 104.869 56.9517C105.096 56.9517 105.288 56.9984 105.443 57.0918C105.6 57.1852 105.72 57.3094 105.802 57.4644C105.884 57.6193 105.925 57.7913 105.925 57.9805V58.2437C105.925 58.4282 105.884 58.598 105.802 58.7529C105.722 58.9079 105.603 59.0321 105.446 59.1255C105.291 59.2189 105.101 59.2656 104.875 59.2656C104.652 59.2656 104.461 59.2189 104.301 59.1255C104.144 59.0321 104.024 58.9079 103.942 58.7529C103.86 58.598 103.819 58.4282 103.819 58.2437ZM104.39 57.9805V58.2437C104.39 58.3348 104.407 58.4214 104.441 58.5034C104.478 58.5854 104.532 58.6515 104.605 58.7017C104.678 58.7518 104.768 58.7769 104.875 58.7769C104.985 58.7769 105.074 58.7518 105.142 58.7017C105.213 58.6515 105.265 58.5854 105.299 58.5034C105.333 58.4214 105.35 58.3348 105.35 58.2437V57.9805C105.35 57.887 105.332 57.7993 105.296 57.7173C105.262 57.633 105.209 57.5658 105.139 57.5156C105.068 57.4655 104.978 57.4404 104.869 57.4404C104.764 57.4404 104.675 57.4655 104.602 57.5156C104.531 57.5658 104.478 57.633 104.441 57.7173C104.407 57.7993 104.39 57.887 104.39 57.9805ZM106.219 61.0464V60.7798C106.219 60.5929 106.26 60.422 106.342 60.2671C106.426 60.1121 106.547 59.988 106.704 59.8945C106.861 59.8011 107.05 59.7544 107.271 59.7544C107.499 59.7544 107.691 59.8011 107.846 59.8945C108.003 59.988 108.121 60.1121 108.201 60.2671C108.283 60.422 108.324 60.5929 108.324 60.7798V61.0464C108.324 61.2332 108.283 61.4041 108.201 61.5591C108.121 61.714 108.004 61.8382 107.849 61.9316C107.694 62.0251 107.505 62.0718 107.282 62.0718C107.056 62.0718 106.864 62.0251 106.704 61.9316C106.547 61.8382 106.426 61.714 106.342 61.5591C106.26 61.4041 106.219 61.2332 106.219 61.0464ZM106.793 60.7798V61.0464C106.793 61.1375 106.811 61.2241 106.848 61.3062C106.886 61.3882 106.942 61.4554 107.015 61.5078C107.088 61.5579 107.176 61.583 107.278 61.583C107.394 61.583 107.488 61.5579 107.558 61.5078C107.629 61.4554 107.679 61.3893 107.709 61.3096C107.741 61.2275 107.757 61.1398 107.757 61.0464V60.7798C107.757 60.6864 107.739 60.5986 107.702 60.5166C107.668 60.4346 107.614 60.3685 107.541 60.3184C107.471 60.2682 107.381 60.2432 107.271 60.2432C107.164 60.2432 107.075 60.2682 107.005 60.3184C106.934 60.3685 106.881 60.4346 106.844 60.5166C106.81 60.5986 106.793 60.6864 106.793 60.7798ZM107.476 57.7344L105.046 61.624L104.626 61.3813L107.056 57.4917L107.476 57.7344Z" fill="#20EEBC"/>
</g>
<g filter="url(#filter23_d_816_23)">
<path d="M56.7531 59.751H55.485L55.4782 59.1255H56.5856C56.7724 59.1255 56.9308 59.0981 57.0607 59.0435C57.1928 58.9865 57.2931 58.9056 57.3615 58.8008C57.4298 58.6937 57.464 58.5649 57.464 58.4146C57.464 58.2482 57.4321 58.1126 57.3683 58.0078C57.3045 57.903 57.2065 57.8267 57.0744 57.7788C56.9445 57.731 56.7781 57.707 56.5753 57.707H55.7448V62H54.8869V57.0234H56.5753C56.8488 57.0234 57.0926 57.0496 57.3068 57.1021C57.5233 57.1545 57.7067 57.2365 57.8571 57.3481C58.0097 57.4575 58.1248 57.5965 58.2023 57.7651C58.282 57.9338 58.3219 58.1343 58.3219 58.3667C58.3219 58.5718 58.2729 58.7598 58.1749 58.9307C58.077 59.0993 57.9323 59.2371 57.7409 59.3442C57.5495 59.4513 57.3113 59.5151 57.0265 59.5356L56.7531 59.751ZM56.7155 62H55.215L55.6012 61.3198H56.7155C56.9092 61.3198 57.0709 61.2879 57.2008 61.2241C57.3307 61.158 57.4275 61.068 57.4913 60.9541C57.5574 60.8379 57.5905 60.7023 57.5905 60.5474C57.5905 60.3856 57.562 60.2454 57.505 60.127C57.4481 60.0062 57.358 59.9139 57.235 59.8501C57.112 59.784 56.9513 59.751 56.7531 59.751H55.7892L55.796 59.1255H57.0504L57.2453 59.3613C57.5187 59.3704 57.7431 59.4308 57.9186 59.5425C58.0963 59.6541 58.2285 59.7988 58.3151 59.9766C58.4017 60.1543 58.445 60.3457 58.445 60.5508C58.445 60.8675 58.3755 61.133 58.2365 61.3472C58.0997 61.5614 57.9026 61.7243 57.6452 61.8359C57.3877 61.9453 57.0778 62 56.7155 62ZM61.2614 57.0234V62H60.4103V57.0234H61.2614ZM62.8234 57.0234V57.707H58.862V57.0234H62.8234ZM66.3234 60.3799H67.1779C67.1505 60.7057 67.0594 60.9963 66.9044 61.2515C66.7495 61.5044 66.5319 61.7038 66.2516 61.8496C65.9713 61.9954 65.6307 62.0684 65.2296 62.0684C64.922 62.0684 64.6452 62.0137 64.3991 61.9043C64.153 61.7926 63.9422 61.6354 63.7667 61.4326C63.5913 61.2275 63.4568 60.9803 63.3634 60.6909C63.2723 60.4015 63.2267 60.078 63.2267 59.7202V59.3066C63.2267 58.9489 63.2734 58.6253 63.3668 58.3359C63.4625 58.0465 63.5993 57.7993 63.777 57.5942C63.9547 57.3869 64.1678 57.2285 64.4162 57.1191C64.6668 57.0098 64.9482 56.9551 65.2604 56.9551C65.6569 56.9551 65.9918 57.028 66.2653 57.1738C66.5387 57.3197 66.7506 57.5213 66.901 57.7788C67.0537 58.0363 67.1471 58.3314 67.1813 58.6641H66.3268C66.304 58.4499 66.2539 58.2664 66.1764 58.1138C66.1012 57.9611 65.9896 57.8449 65.8414 57.7651C65.6933 57.6831 65.4997 57.6421 65.2604 57.6421C65.0644 57.6421 64.8935 57.6785 64.7477 57.7515C64.6019 57.8244 64.48 57.9315 64.382 58.0728C64.284 58.214 64.2099 58.3883 64.1598 58.5957C64.112 58.8008 64.088 59.0355 64.088 59.2998V59.7202C64.088 59.9709 64.1097 60.1987 64.153 60.4038C64.1985 60.6066 64.2669 60.7809 64.358 60.9268C64.4515 61.0726 64.57 61.1854 64.7135 61.2651C64.8571 61.3449 65.0291 61.3848 65.2296 61.3848C65.4734 61.3848 65.6705 61.346 65.8209 61.2686C65.9736 61.1911 66.0887 61.0783 66.1662 60.9302C66.2459 60.7798 66.2983 60.5964 66.3234 60.3799Z" fill="black"/>
</g>
<g filter="url(#filter24_d_816_23)">
<path d="M44.7652 54C41.4795 54 38.8156 56.6865 38.8156 60C38.8156 63.3135 41.4795 66 44.7652 66C48.051 66 50.7149 63.3135 50.7149 60C50.7149 56.6865 48.051 54 44.7652 54ZM44.2694 56.5H45.2611V57.5039C46.1833 57.5254 46.7339 57.9921 46.7339 58.7471C46.7339 59.2771 46.3459 59.7385 45.8372 59.8145V59.877C46.4937 59.9255 46.9712 60.4248 46.9712 61.0693C46.9712 61.9443 46.3166 62.4975 45.2611 62.499V63.5H44.2694V62.5H43.0299V57.5H44.2694V56.5ZM44.068 58.3008V59.5723H44.8476C45.4078 59.5723 45.7133 59.3405 45.7133 58.9385C45.7133 58.54 45.4286 58.3008 44.9337 58.3008H44.068ZM44.068 60.2793V61.6992H44.9918C45.5898 61.6992 45.9128 61.446 45.9128 60.9785C45.9128 60.521 45.579 60.2793 44.9676 60.2793H44.068Z" fill="black"/>
</g>
<path d="M17 40.8993V63.6767C17 64.4822 17.476 65.2015 18.1914 65.4786L30.2083 70.1231C31.3915 70.5806 32.6437 69.6542 32.6437 68.3211V46.6236C32.6437 45.8219 33.1152 45.1055 33.8252 44.8255L44.9272 40.461C46.5194 39.8348 46.4967 37.4449 44.8936 36.8523L34.7628 33.1074C34.3656 32.9606 33.9322 32.9645 33.5378 33.1179L18.1869 39.0992C17.4733 39.3773 17 40.0966 17 40.8993Z" fill="#33C481"/>
<defs>
<filter id="filter0_i_816_23" x="100" y="35" width="41" height="8" filterUnits="userSpaceOnUse" color-interpolation-filters="sRGB">
<feFlood flood-opacity="0" result="BackgroundImageFix"/>
<feBlend mode="normal" in="SourceGraphic" in2="BackgroundImageFix" result="shape"/>
<feColorMatrix in="SourceAlpha" type="matrix" values="0 0 0 0 0 0 0 0 0 0 0 0 0 0 0 0 0 0 127 0" result="hardAlpha"/>
<feOffset dx="1" dy="1"/>
<feGaussianBlur stdDeviation="0.5"/>
<feComposite in2="hardAlpha" operator="arithmetic" k2="-1" k3="1"/>
<feColorMatrix type="matrix" values="0 0 0 0 0 0 0 0 0 0 0 0 0 0 0 0 0 0 0.02 0"/>
<feBlend mode="normal" in2="shape" result="effect1_innerShadow_816_23"/>
</filter>
<filter id="filter1_i_816_23" x="100" y="45" width="41" height="8" filterUnits="userSpaceOnUse" color-interpolation-filters="sRGB">
<feFlood flood-opacity="0" result="BackgroundImageFix"/>
<feBlend mode="normal" in="SourceGraphic" in2="BackgroundImageFix" result="shape"/>
<feColorMatrix in="SourceAlpha" type="matrix" values="0 0 0 0 0 0 0 0 0 0 0 0 0 0 0 0 0 0 127 0" result="hardAlpha"/>
<feOffset dx="1" dy="1"/>
<feGaussianBlur stdDeviation="0.5"/>
<feComposite in2="hardAlpha" operator="arithmetic" k2="-1" k3="1"/>
<feColorMatrix type="matrix" values="0 0 0 0 0 0 0 0 0 0 0 0 0 0 0 0 0 0 0.02 0"/>
<feBlend mode="normal" in2="shape" result="effect1_innerShadow_816_23"/>
</filter>
<filter id="filter2_i_816_23" x="100" y="109" width="41" height="7" filterUnits="userSpaceOnUse" color-interpolation-filters="sRGB">
<feFlood flood-opacity="0" result="BackgroundImageFix"/>
<feBlend mode="normal" in="SourceGraphic" in2="BackgroundImageFix" result="shape"/>
<feColorMatrix in="SourceAlpha" type="matrix" values="0 0 0 0 0 0 0 0 0 0 0 0 0 0 0 0 0 0 127 0" result="hardAlpha"/>
<feOffset dx="1" dy="1"/>
<feGaussianBlur stdDeviation="0.5"/>
<feComposite in2="hardAlpha" operator="arithmetic" k2="-1" k3="1"/>
<feColorMatrix type="matrix" values="0 0 0 0 0 0 0 0 0 0 0 0 0 0 0 0 0 0 0.02 0"/>
<feBlend mode="normal" in2="shape" result="effect1_innerShadow_816_23"/>
</filter>
<filter id="filter3_i_816_23" x="160" y="35" width="41" height="51" filterUnits="userSpaceOnUse" color-interpolation-filters="sRGB">
<feFlood flood-opacity="0" result="BackgroundImageFix"/>
<feBlend mode="normal" in="SourceGraphic" in2="BackgroundImageFix" result="shape"/>
<feColorMatrix in="SourceAlpha" type="matrix" values="0 0 0 0 0 0 0 0 0 0 0 0 0 0 0 0 0 0 127 0" result="hardAlpha"/>
<feOffset dx="1" dy="1"/>
<feGaussianBlur stdDeviation="2.5"/>
<feComposite in2="hardAlpha" operator="arithmetic" k2="-1" k3="1"/>
<feColorMatrix type="matrix" values="0 0 0 0 0 0 0 0 0 0 0 0 0 0 0 0 0 0 0.02 0"/>
<feBlend mode="normal" in2="shape" result="effect1_innerShadow_816_23"/>
</filter>
<filter id="filter4_i_816_23" x="100" y="95" width="11" height="11" filterUnits="userSpaceOnUse" color-interpolation-filters="sRGB">
<feFlood flood-opacity="0" result="BackgroundImageFix"/>
<feBlend mode="normal" in="SourceGraphic" in2="BackgroundImageFix" result="shape"/>
<feColorMatrix in="SourceAlpha" type="matrix" values="0 0 0 0 0 0 0 0 0 0 0 0 0 0 0 0 0 0 127 0" result="hardAlpha"/>
<feOffset dx="1" dy="1"/>
<feGaussianBlur stdDeviation="2"/>
<feComposite in2="hardAlpha" operator="arithmetic" k2="-1" k3="1"/>
<feColorMatrix type="matrix" values="0 0 0 0 0 0 0 0 0 0 0 0 0 0 0 0 0 0 0.02 0"/>
<feBlend mode="normal" in2="shape" result="effect1_innerShadow_816_23"/>
</filter>
<filter id="filter5_i_816_23" x="130" y="95" width="11" height="11" filterUnits="userSpaceOnUse" color-interpolation-filters="sRGB">
<feFlood flood-opacity="0" result="BackgroundImageFix"/>
<feBlend mode="normal" in="SourceGraphic" in2="BackgroundImageFix" result="shape"/>
<feColorMatrix in="SourceAlpha" type="matrix" values="0 0 0 0 0 0 0 0 0 0 0 0 0 0 0 0 0 0 127 0" result="hardAlpha"/>
<feOffset dx="1" dy="1"/>
<feGaussianBlur stdDeviation="2"/>
<feComposite in2="hardAlpha" operator="arithmetic" k2="-1" k3="1"/>
<feColorMatrix type="matrix" values="0 0 0 0 0 0 0 0 0 0 0 0 0 0 0 0 0 0 0.02 0"/>
<feBlend mode="normal" in2="shape" result="effect1_innerShadow_816_23"/>
</filter>
<filter id="filter6_i_816_23" x="115" y="95" width="11" height="11" filterUnits="userSpaceOnUse" color-interpolation-filters="sRGB">
<feFlood flood-opacity="0" result="BackgroundImageFix"/>
<feBlend mode="normal" in="SourceGraphic" in2="BackgroundImageFix" result="shape"/>
<feColorMatrix in="SourceAlpha" type="matrix" values="0 0 0 0 0 0 0 0 0 0 0 0 0 0 0 0 0 0 127 0" result="hardAlpha"/>
<feOffset dx="1" dy="1"/>
<feGaussianBlur stdDeviation="2"/>
<feComposite in2="hardAlpha" operator="arithmetic" k2="-1" k3="1"/>
<feColorMatrix type="matrix" values="0 0 0 0 0 0 0 0 0 0 0 0 0 0 0 0 0 0 0.02 0"/>
<feBlend mode="normal" in2="shape" result="effect1_innerShadow_816_23"/>
</filter>
<filter id="filter7_i_816_23" x="100" y="213" width="101" height="13" filterUnits="userSpaceOnUse" color-interpolation-filters="sRGB">
<feFlood flood-opacity="0" result="BackgroundImageFix"/>
<feBlend mode="normal" in="SourceGraphic" in2="BackgroundImageFix" result="shape"/>
<feColorMatrix in="SourceAlpha" type="matrix" values="0 0 0 0 0 0 0 0 0 0 0 0 0 0 0 0 0 0 127 0" result="hardAlpha"/>
<feOffset dx="1" dy="1"/>
<feGaussianBlur stdDeviation="2"/>
<feComposite in2="hardAlpha" operator="arithmetic" k2="-1" k3="1"/>
<feColorMatrix type="matrix" values="0 0 0 0 0 0 0 0 0 0 0 0 0 0 0 0 0 0 0.03 0"/>
<feBlend mode="normal" in2="shape" result="effect1_innerShadow_816_23"/>
</filter>
<filter id="filter8_i_816_23" x="100" y="233" width="101" height="13" filterUnits="userSpaceOnUse" color-interpolation-filters="sRGB">
<feFlood flood-opacity="0" result="BackgroundImageFix"/>
<feBlend mode="normal" in="SourceGraphic" in2="BackgroundImageFix" result="shape"/>
<feColorMatrix in="SourceAlpha" type="matrix" values="0 0 0 0 0 0 0 0 0 0 0 0 0 0 0 0 0 0 127 0" result="hardAlpha"/>
<feOffset dx="1" dy="1"/>
<feGaussianBlur stdDeviation="2"/>
<feComposite in2="hardAlpha" operator="arithmetic" k2="-1" k3="1"/>
<feColorMatrix type="matrix" values="0 0 0 0 0 0 0 0 0 0 0 0 0 0 0 0 0 0 0.03 0"/>
<feBlend mode="normal" in2="shape" result="effect1_innerShadow_816_23"/>
</filter>
<filter id="filter9_d_816_23" x="190" y="90" width="110" height="49.931" filterUnits="userSpaceOnUse" color-interpolation-filters="sRGB">
<feFlood flood-opacity="0" result="BackgroundImageFix"/>
<feColorMatrix in="SourceAlpha" type="matrix" values="0 0 0 0 0 0 0 0 0 0 0 0 0 0 0 0 0 0 127 0" result="hardAlpha"/>
<feOffset dy="5"/>
<feGaussianBlur stdDeviation="5"/>
<feComposite in2="hardAlpha" operator="out"/>
<feColorMatrix type="matrix" values="0 0 0 0 0 0 0 0 0 0 0 0 0 0 0 0 0 0 0.25 0"/>
<feBlend mode="normal" in2="BackgroundImageFix" result="effect1_dropShadow_816_23"/>
<feBlend mode="normal" in="SourceGraphic" in2="effect1_dropShadow_816_23" result="shape"/>
</filter>
<filter id="filter10_d_816_23" x="255.253" y="106.952" width="29.7666" height="18.1694" filterUnits="userSpaceOnUse" color-interpolation-filters="sRGB">
<feFlood flood-opacity="0" result="BackgroundImageFix"/>
<feColorMatrix in="SourceAlpha" type="matrix" values="0 0 0 0 0 0 0 0 0 0 0 0 0 0 0 0 0 0 127 0" result="hardAlpha"/>
<feOffset dy="6"/>
<feGaussianBlur stdDeviation="3"/>
<feComposite in2="hardAlpha" operator="out"/>
<feColorMatrix type="matrix" values="0 0 0 0 0 0 0 0 0 0 0 0 0 0 0 0 0 0 0.1 0"/>
<feBlend mode="normal" in2="BackgroundImageFix" result="effect1_dropShadow_816_23"/>
<feBlend mode="normal" in="SourceGraphic" in2="effect1_dropShadow_816_23" result="shape"/>
</filter>
<filter id="filter11_d_816_23" x="218.875" y="107.023" width="24.2397" height="16.9766" filterUnits="userSpaceOnUse" color-interpolation-filters="sRGB">
<feFlood flood-opacity="0" result="BackgroundImageFix"/>
<feColorMatrix in="SourceAlpha" type="matrix" values="0 0 0 0 0 0 0 0 0 0 0 0 0 0 0 0 0 0 127 0" result="hardAlpha"/>
<feOffset dy="6"/>
<feGaussianBlur stdDeviation="3"/>
<feComposite in2="hardAlpha" operator="out"/>
<feColorMatrix type="matrix" values="0 0 0 0 0 0 0 0 0 0 0 0 0 0 0 0 0 0 0.15 0"/>
<feBlend mode="normal" in2="BackgroundImageFix" result="effect1_dropShadow_816_23"/>
<feBlend mode="normal" in="SourceGraphic" in2="effect1_dropShadow_816_23" result="shape"/>
</filter>
<filter id="filter12_d_816_23" x="205" y="100" width="20.125" height="23.0948" filterUnits="userSpaceOnUse" color-interpolation-filters="sRGB">
<feFlood flood-opacity="0" result="BackgroundImageFix"/>
<feColorMatrix in="SourceAlpha" type="matrix" values="0 0 0 0 0 0 0 0 0 0 0 0 0 0 0 0 0 0 127 0" result="hardAlpha"/>
<feOffset dy="5"/>
<feGaussianBlur stdDeviation="2.5"/>
<feComposite in2="hardAlpha" operator="out"/>
<feColorMatrix type="matrix" values="0 0 0 0 0 0 0 0 0 0 0 0 0 0 0 0 0 0 0.15 0"/>
<feBlend mode="normal" in2="BackgroundImageFix" result="effect1_dropShadow_816_23"/>
<feBlend mode="normal" in="SourceGraphic" in2="effect1_dropShadow_816_23" result="shape"/>
</filter>
<filter id="filter13_d_816_23" x="210.063" y="100" width="15.0625" height="23.0948" filterUnits="userSpaceOnUse" color-interpolation-filters="sRGB">
<feFlood flood-opacity="0" result="BackgroundImageFix"/>
<feColorMatrix in="SourceAlpha" type="matrix" values="0 0 0 0 0 0 0 0 0 0 0 0 0 0 0 0 0 0 127 0" result="hardAlpha"/>
<feOffset dy="5"/>
<feGaussianBlur stdDeviation="2.5"/>
<feComposite in2="hardAlpha" operator="out"/>
<feColorMatrix type="matrix" values="0 0 0 0 0 0 0 0 0 0 0 0 0 0 0 0 0 0 0.15 0"/>
<feBlend mode="normal" in2="BackgroundImageFix" result="effect1_dropShadow_816_23"/>
<feBlend mode="normal" in="SourceGraphic" in2="effect1_dropShadow_816_23" result="shape"/>
</filter>
<filter id="filter14_d_816_23" x="205" y="111.224" width="20.125" height="17.4828" filterUnits="userSpaceOnUse" color-interpolation-filters="sRGB">
<feFlood flood-opacity="0" result="BackgroundImageFix"/>
<feColorMatrix in="SourceAlpha" type="matrix" values="0 0 0 0 0 0 0 0 0 0 0 0 0 0 0 0 0 0 127 0" result="hardAlpha"/>
<feOffset dy="5"/>
<feGaussianBlur stdDeviation="2.5"/>
<feComposite in2="hardAlpha" operator="out"/>
<feColorMatrix type="matrix" values="0 0 0 0 0 0 0 0 0 0 0 0 0 0 0 0 0 0 0.15 0"/>
<feBlend mode="normal" in2="BackgroundImageFix" result="effect1_dropShadow_816_23"/>
<feBlend mode="normal" in="SourceGraphic" in2="effect1_dropShadow_816_23" result="shape"/>
</filter>
<filter id="filter15_d_816_23" x="205" y="107.483" width="20.125" height="21.2241" filterUnits="userSpaceOnUse" color-interpolation-filters="sRGB">
<feFlood flood-opacity="0" result="BackgroundImageFix"/>
<feColorMatrix in="SourceAlpha" type="matrix" values="0 0 0 0 0 0 0 0 0 0 0 0 0 0 0 0 0 0 127 0" result="hardAlpha"/>
<feOffset dy="5"/>
<feGaussianBlur stdDeviation="2.5"/>
<feComposite in2="hardAlpha" operator="out"/>
<feColorMatrix type="matrix" values="0 0 0 0 0 0 0 0 0 0 0 0 0 0 0 0 0 0 0.15 0"/>
<feBlend mode="normal" in2="BackgroundImageFix" result="effect1_dropShadow_816_23"/>
<feBlend mode="normal" in="SourceGraphic" in2="effect1_dropShadow_816_23" result="shape"/>
</filter>
<filter id="filter16_d_816_23" x="210.063" y="107.483" width="15.0625" height="15.6121" filterUnits="userSpaceOnUse" color-interpolation-filters="sRGB">
<feFlood flood-opacity="0" result="BackgroundImageFix"/>
<feColorMatrix in="SourceAlpha" type="matrix" values="0 0 0 0 0 0 0 0 0 0 0 0 0 0 0 0 0 0 127 0" result="hardAlpha"/>
<feOffset dy="5"/>
<feGaussianBlur stdDeviation="2.5"/>
<feComposite in2="hardAlpha" operator="out"/>
<feColorMatrix type="matrix" values="0 0 0 0 0 0 0 0 0 0 0 0 0 0 0 0 0 0 0.15 0"/>
<feBlend mode="normal" in2="BackgroundImageFix" result="effect1_dropShadow_816_23"/>
<feBlend mode="normal" in="SourceGraphic" in2="effect1_dropShadow_816_23" result="shape"/>
</filter>
<filter id="filter17_d_816_23" x="0" y="110" width="50" height="50" filterUnits="userSpaceOnUse" color-interpolation-filters="sRGB">
<feFlood flood-opacity="0" result="BackgroundImageFix"/>
<feColorMatrix in="SourceAlpha" type="matrix" values="0 0 0 0 0 0 0 0 0 0 0 0 0 0 0 0 0 0 127 0" result="hardAlpha"/>
<feOffset dy="5"/>
<feGaussianBlur stdDeviation="5"/>
<feComposite in2="hardAlpha" operator="out"/>
<feColorMatrix type="matrix" values="0 0 0 0 0 0 0 0 0 0 0 0 0 0 0 0 0 0 0.25 0"/>
<feBlend mode="normal" in2="BackgroundImageFix" result="effect1_dropShadow_816_23"/>
<feBlend mode="normal" in="SourceGraphic" in2="effect1_dropShadow_816_23" result="shape"/>
</filter>
<filter id="filter18_d_816_23" x="220" y="220" width="50" height="50" filterUnits="userSpaceOnUse" color-interpolation-filters="sRGB">
<feFlood flood-opacity="0" result="BackgroundImageFix"/>
<feColorMatrix in="SourceAlpha" type="matrix" values="0 0 0 0 0 0 0 0 0 0 0 0 0 0 0 0 0 0 127 0" result="hardAlpha"/>
<feOffset dy="5"/>
<feGaussianBlur stdDeviation="5"/>
<feComposite in2="hardAlpha" operator="out"/>
<feColorMatrix type="matrix" values="0 0 0 0 0 0 0 0 0 0 0 0 0 0 0 0 0 0 0.25 0"/>
<feBlend mode="normal" in2="BackgroundImageFix" result="effect1_dropShadow_816_23"/>
<feBlend mode="normal" in="SourceGraphic" in2="effect1_dropShadow_816_23" result="shape"/>
</filter>
<filter id="filter19_d_816_23" x="230" y="0" width="50" height="50" filterUnits="userSpaceOnUse" color-interpolation-filters="sRGB">
<feFlood flood-opacity="0" result="BackgroundImageFix"/>
<feColorMatrix in="SourceAlpha" type="matrix" values="0 0 0 0 0 0 0 0 0 0 0 0 0 0 0 0 0 0 127 0" result="hardAlpha"/>
<feOffset dy="5"/>
<feGaussianBlur stdDeviation="5"/>
<feComposite in2="hardAlpha" operator="out"/>
<feColorMatrix type="matrix" values="0 0 0 0 0 0 0 0 0 0 0 0 0 0 0 0 0 0 0.25 0"/>
<feBlend mode="normal" in2="BackgroundImageFix" result="effect1_dropShadow_816_23"/>
<feBlend mode="normal" in="SourceGraphic" in2="effect1_dropShadow_816_23" result="shape"/>
</filter>
<filter id="filter20_d_816_23" x="30" y="180" width="90.2581" height="80.1724" filterUnits="userSpaceOnUse" color-interpolation-filters="sRGB">
<feFlood flood-opacity="0" result="BackgroundImageFix"/>
<feColorMatrix in="SourceAlpha" type="matrix" values="0 0 0 0 0 0 0 0 0 0 0 0 0 0 0 0 0 0 127 0" result="hardAlpha"/>
<feOffset dy="5"/>
<feGaussianBlur stdDeviation="5"/>
<feComposite in2="hardAlpha" operator="out"/>
<feColorMatrix type="matrix" values="0 0 0 0 0 0 0 0 0 0 0 0 0 0 0 0 0 0 0.25 0"/>
<feBlend mode="normal" in2="BackgroundImageFix" result="effect1_dropShadow_816_23"/>
<feBlend mode="normal" in="SourceGraphic" in2="effect1_dropShadow_816_23" result="shape"/>
</filter>
<filter id="filter21_d_816_23" x="20" y="40" width="110" height="48" filterUnits="userSpaceOnUse" color-interpolation-filters="sRGB">
<feFlood flood-opacity="0" result="BackgroundImageFix"/>
<feColorMatrix in="SourceAlpha" type="matrix" values="0 0 0 0 0 0 0 0 0 0 0 0 0 0 0 0 0 0 127 0" result="hardAlpha"/>
<feOffset dy="5"/>
<feGaussianBlur stdDeviation="5"/>
<feComposite in2="hardAlpha" operator="out"/>
<feColorMatrix type="matrix" values="0 0 0 0 0 0 0 0 0 0 0 0 0 0 0 0 0 0 0.25 0"/>
<feBlend mode="normal" in2="BackgroundImageFix" result="effect1_dropShadow_816_23"/>
<feBlend mode="normal" in="SourceGraphic" in2="effect1_dropShadow_816_23" result="shape"/>
</filter>
<filter id="filter22_d_816_23" x="84.2567" y="56.9517" width="30.0674" height="18.1694" filterUnits="userSpaceOnUse" color-interpolation-filters="sRGB">
<feFlood flood-opacity="0" result="BackgroundImageFix"/>
<feColorMatrix in="SourceAlpha" type="matrix" values="0 0 0 0 0 0 0 0 0 0 0 0 0 0 0 0 0 0 127 0" result="hardAlpha"/>
<feOffset dy="6"/>
<feGaussianBlur stdDeviation="3"/>
<feComposite in2="hardAlpha" operator="out"/>
<feColorMatrix type="matrix" values="0 0 0 0 0 0 0 0 0 0 0 0 0 0 0 0 0 0 0.1 0"/>
<feBlend mode="normal" in2="BackgroundImageFix" result="effect1_dropShadow_816_23"/>
<feBlend mode="normal" in="SourceGraphic" in2="effect1_dropShadow_816_23" result="shape"/>
</filter>
<filter id="filter23_d_816_23" x="44.8868" y="51.9551" width="32.2944" height="25.1133" filterUnits="userSpaceOnUse" color-interpolation-filters="sRGB">
<feFlood flood-opacity="0" result="BackgroundImageFix"/>
<feColorMatrix in="SourceAlpha" type="matrix" values="0 0 0 0 0 0 0 0 0 0 0 0 0 0 0 0 0 0 127 0" result="hardAlpha"/>
<feOffset dy="5"/>
<feGaussianBlur stdDeviation="5"/>
<feComposite in2="hardAlpha" operator="out"/>
<feColorMatrix type="matrix" values="0 0 0 0 0 0 0 0 0 0 0 0 0 0 0 0 0 0 0.15 0"/>
<feBlend mode="normal" in2="BackgroundImageFix" result="effect1_dropShadow_816_23"/>
<feBlend mode="normal" in="SourceGraphic" in2="effect1_dropShadow_816_23" result="shape"/>
</filter>
<filter id="filter24_d_816_23" x="28.8156" y="49" width="31.8994" height="32" filterUnits="userSpaceOnUse" color-interpolation-filters="sRGB">
<feFlood flood-opacity="0" result="BackgroundImageFix"/>
<feColorMatrix in="SourceAlpha" type="matrix" values="0 0 0 0 0 0 0 0 0 0 0 0 0 0 0 0 0 0 127 0" result="hardAlpha"/>
<feOffset dy="5"/>
<feGaussianBlur stdDeviation="5"/>
<feComposite in2="hardAlpha" operator="out"/>
<feColorMatrix type="matrix" values="0 0 0 0 0 0 0 0 0 0 0 0 0 0 0 0 0 0 0.15 0"/>
<feBlend mode="normal" in2="BackgroundImageFix" result="effect1_dropShadow_816_23"/>
<feBlend mode="normal" in="SourceGraphic" in2="effect1_dropShadow_816_23" result="shape"/>
</filter>
<linearGradient id="paint0_linear_816_23" x1="150" y1="5" x2="150" y2="275" gradientUnits="userSpaceOnUse">
<stop stop-color="#DEDEDE"/>
<stop offset="1" stop-color="#D7D5D5"/>
</linearGradient>
<linearGradient id="paint1_linear_816_23" x1="101.369" y1="161.204" x2="201.579" y2="160.82" gradientUnits="userSpaceOnUse">
<stop stop-color="#20EEBC"/>
<stop offset="1" stop-color="#00A3FF"/>
</linearGradient>
</defs>
</svg>
