<svg width="24" height="24" viewBox="0 0 24 24" fill="none" xmlns="http://www.w3.org/2000/svg">
<path d="M12 0C5.37876 0 0 5.37876 0 12C0 18.6212 5.37876 24 12 24C18.6212 24 24 18.6212 24 12C24 5.37876 18.6212 0 12 0ZM12 1.04348C18.0573 1.04348 22.9565 5.9427 22.9565 12C22.9565 18.0573 18.0573 22.9565 12 22.9565C5.9427 22.9565 1.04348 18.0573 1.04348 12C1.04348 5.9427 5.9427 1.04348 12 1.04348ZM8.32643 5.75849C8.25774 5.7585 8.18973 5.77207 8.1263 5.79841C8.06287 5.82476 8.00527 5.86338 7.95679 5.91204C7.90832 5.9607 7.86993 6.01846 7.84383 6.08199C7.81773 6.14552 7.80443 6.21358 7.80469 6.28227V6.2945C7.80468 6.29552 7.80468 6.29654 7.80469 6.29755L7.84851 17.7585C7.84874 17.8502 7.87313 17.9402 7.91921 18.0194C7.96528 18.0986 8.03142 18.1644 8.11097 18.2099C8.19052 18.2555 8.28067 18.2793 8.37234 18.2789C8.46401 18.2786 8.55396 18.2541 8.63315 18.2079L18.5238 12.4321C18.603 12.386 18.6686 12.3199 18.7142 12.2404C18.7597 12.1609 18.7835 12.0709 18.7832 11.9792C18.7829 11.8876 18.7585 11.7977 18.7124 11.7185C18.6663 11.6394 18.6002 11.5737 18.5207 11.5282L8.58628 5.82779V5.8288C8.5073 5.78304 8.4177 5.7588 8.32643 5.75849ZM8.85122 7.1841L17.2184 11.9857L8.88893 16.8495L8.85122 7.1841Z" fill="white"/>
</svg>
