<svg width="60" height="60" viewBox="0 0 60 60" fill="none" xmlns="http://www.w3.org/2000/svg">
<path d="M30 0C13.4469 0 0 13.4469 0 30C0 46.5531 13.4469 60 30 60C46.5531 60 60 46.5531 60 30C60 13.4469 46.5531 0 30 0ZM30 2.6087C45.1432 2.6087 57.3913 14.8568 57.3913 30C57.3913 45.1432 45.1432 57.3913 30 57.3913C14.8568 57.3913 2.6087 45.1432 2.6087 30C2.6087 14.8568 14.8568 2.6087 30 2.6087ZM20.8161 14.3962C20.6444 14.3962 20.4743 14.4302 20.3158 14.496C20.1572 14.5619 20.0132 14.6584 19.892 14.7801C19.7708 14.9018 19.6748 15.0461 19.6096 15.205C19.5443 15.3638 19.5111 15.534 19.5117 15.7057V15.7362C19.5117 15.7388 19.5117 15.7413 19.5117 15.7439L19.6213 44.3962C19.6219 44.6254 19.6828 44.8504 19.798 45.0485C19.9132 45.2466 20.0786 45.4109 20.2774 45.5248C20.4763 45.6387 20.7017 45.6982 20.9308 45.6973C21.16 45.6964 21.3849 45.6352 21.5829 45.5197L46.3094 31.0802C46.5074 30.965 46.6716 30.7998 46.7855 30.6011C46.8993 30.4023 46.9589 30.1771 46.9581 29.9481C46.9573 29.7191 46.8963 29.4943 46.7811 29.2964C46.6659 29.0984 46.5006 28.9343 46.3018 28.8205L21.4657 14.5695V14.572C21.2683 14.4576 21.0443 14.397 20.8161 14.3962ZM22.1281 17.9603L43.046 29.9643L22.2223 42.1238L22.1281 17.9603Z" fill="white"/>
</svg>
