<svg width="66" height="64" viewBox="0 0 66 64" fill="none" xmlns="http://www.w3.org/2000/svg">
<g filter="url(#filter0_d_591_63)">
<path d="M33 5C20.3164 5 10 14.786 10 26.8174C10 38.8488 20.3164 48.6348 33 48.6348C45.6836 48.6348 56 38.8488 56 26.8174C56 14.786 45.6836 5 33 5ZM45 27.766H23.4141L29.707 33.7353C30.0977 34.1059 30.0977 34.7062 29.707 35.0767C29.5117 35.262 29.2578 35.3546 29 35.3546C28.7422 35.3546 28.4883 35.262 28.293 35.0767L20.293 27.4881C20.1992 27.3991 20.1289 27.2954 20.0781 27.1805C19.9766 26.9471 19.9766 26.6877 20.0781 26.4542C20.1289 26.3394 20.1992 26.2356 20.293 26.1467L28.293 18.558C28.6836 18.1875 29.3164 18.1875 29.707 18.558C30.0977 18.9286 30.0977 19.5289 29.707 19.8994L23.4141 25.8688H45C45.5547 25.8688 46 26.2949 46 26.8174C46 27.3398 45.5547 27.766 45 27.766Z" fill="#3AB8FF"/>
</g>
<defs>
<filter id="filter0_d_591_63" x="0" y="0" width="66" height="63.6348" filterUnits="userSpaceOnUse" color-interpolation-filters="sRGB">
<feFlood flood-opacity="0" result="BackgroundImageFix"/>
<feColorMatrix in="SourceAlpha" type="matrix" values="0 0 0 0 0 0 0 0 0 0 0 0 0 0 0 0 0 0 127 0" result="hardAlpha"/>
<feOffset dy="5"/>
<feGaussianBlur stdDeviation="5"/>
<feComposite in2="hardAlpha" operator="out"/>
<feColorMatrix type="matrix" values="0 0 0 0 0.229167 0 0 0 0 0.7225 0 0 0 0 1 0 0 0 0.4 0"/>
<feBlend mode="normal" in2="BackgroundImageFix" result="effect1_dropShadow_591_63"/>
<feBlend mode="normal" in="SourceGraphic" in2="effect1_dropShadow_591_63" result="shape"/>
</filter>
</defs>
</svg>
