<svg width="33" height="10" viewBox="0 0 33 10" fill="none" xmlns="http://www.w3.org/2000/svg">
<path d="M30.9207 0.734863L32.7381 4.99544L28.9175 9.2581L30.9207 0.734863Z" fill="#008C44"/>
<path d="M29.6619 0.734863L31.4767 4.99544L27.6586 9.2581L29.6619 0.734863Z" fill="#F47920"/>
<path d="M0.523438 7.71355L2.33552 0H5.23257C6.13799 0 6.74281 0.169352 7.0505 0.518335C7.35601 0.864514 7.41485 1.42958 7.23071 2.22381C7.11934 2.69168 6.95005 3.08441 6.71748 3.3947C6.48683 3.70554 6.1826 3.95135 5.80798 4.13212C6.1258 4.22238 6.32799 4.40165 6.41863 4.67043C6.50881 4.93924 6.49838 5.33123 6.38889 5.84506L6.16852 6.92249L6.16788 6.95165C6.10427 7.25334 6.12312 7.41483 6.22674 7.42792L6.15998 7.71355H4.20014C4.20677 7.53203 4.21896 7.36979 4.23194 7.23352C4.24617 7.09407 4.26371 6.98603 4.28114 6.91183L4.46387 6.14153C4.55594 5.74096 4.56162 5.46148 4.47618 5.30057C4.38999 5.13532 4.19697 5.05401 3.89226 5.05401H3.06864L2.44057 7.71355H0.523438ZM3.47618 3.31582H4.35833C4.66746 3.31582 4.89559 3.26366 5.03624 3.15581C5.17753 3.04702 5.2824 2.86328 5.34394 2.59747C5.4077 2.32718 5.39204 2.13877 5.30061 2.03166C5.20931 1.92287 4.99085 1.86997 4.64736 1.86997H3.81585L3.47618 3.31582Z" fill="#1B3281"/>
<path d="M12.6093 2.02051L11.2734 7.71249H9.65007L9.84956 6.87862C9.56384 7.21021 9.27147 7.462 8.97673 7.62295C8.68438 7.78669 8.37586 7.86726 8.05108 7.86726C7.7826 7.86726 7.55211 7.8097 7.36651 7.69547C7.17873 7.58163 7.03887 7.40855 6.94474 7.18031C6.86121 6.9805 6.82482 6.73376 6.83908 6.43898C6.8541 6.14888 6.94078 5.65952 7.10154 4.97425L7.79382 2.02051H9.56953L8.87864 4.96044C8.77773 5.3907 8.75368 5.69314 8.80287 5.85785C8.85413 6.02403 8.99099 6.10981 9.21309 6.10981C9.43681 6.10981 9.6249 6.01412 9.78027 5.81879C9.93782 5.62514 10.0595 5.33632 10.1509 4.95203L10.8361 2.02051H12.6093Z" fill="#1B3281"/>
<path d="M11.9652 7.71355L13.7754 0H16.2656C16.815 0 17.2402 0.038319 17.5435 0.122434C17.8462 0.202997 18.0835 0.333843 18.2599 0.518335C18.4809 0.759651 18.6163 1.05835 18.672 1.41669C18.7244 1.77502 18.6934 2.19241 18.5787 2.68252C18.3758 3.5448 18.0203 4.20557 17.5138 4.66728C17.0056 5.12298 16.3769 5.35198 15.6266 5.35198H14.4612L13.9077 7.71355H11.9652ZM14.9024 3.46816H15.5286C15.9335 3.46816 16.2181 3.40909 16.3848 3.29507C16.5462 3.17955 16.6609 2.97431 16.7308 2.68252C16.8007 2.38681 16.7827 2.18008 16.677 2.06456C16.5753 1.9496 16.3154 1.89147 15.8994 1.89147H15.2745L14.9024 3.46816Z" fill="#1B3281"/>
<path d="M20.6671 7.71189L20.6851 7.17129C20.3988 7.42458 20.1088 7.61597 19.8172 7.7356C19.5269 7.85749 19.2178 7.91938 18.8867 7.91938C18.3837 7.91938 18.033 7.75786 17.8302 7.44533C17.6299 7.13222 17.597 6.68268 17.7337 6.1092C17.8645 5.54321 18.0972 5.12654 18.4329 4.86019C18.7667 4.59067 19.3243 4.39773 20.1064 4.27438C20.2056 4.25531 20.3385 4.23996 20.5049 4.21625C21.0832 4.13718 21.4078 3.95512 21.4777 3.65808C21.5141 3.49547 21.492 3.37547 21.4065 3.30182C21.3241 3.22537 21.17 3.18779 20.9476 3.18779C20.7629 3.18779 20.6144 3.23303 20.4926 3.32705C20.3709 3.42201 20.2801 3.56071 20.2186 3.75586H18.4873C18.6436 3.11508 18.9631 2.63095 19.4426 2.30721C19.9204 1.97785 20.5503 1.81934 21.3306 1.81934C21.6975 1.81934 22.0261 1.8599 22.3165 1.94794C22.6075 2.03224 22.8201 2.15243 22.9581 2.29786C23.1278 2.47936 23.2283 2.68628 23.2569 2.91508C23.29 3.14331 23.2537 3.47042 23.1525 3.89849L22.4078 7.07187C22.3839 7.1758 22.3793 7.26849 22.3923 7.35281C22.4078 7.43316 22.4376 7.50196 22.4901 7.55111L22.4501 7.71189H20.6671ZM21.0987 5.17029C20.9101 5.25984 20.665 5.34562 20.3605 5.43982C19.8822 5.59143 19.6131 5.79367 19.5549 6.04399C19.5146 6.2049 19.5309 6.32883 19.5975 6.42306C19.6631 6.51257 19.7772 6.55782 19.9379 6.55782C20.2327 6.55782 20.4693 6.46978 20.6457 6.29595C20.8226 6.11987 20.9549 5.8434 21.0474 5.46207C21.0636 5.38097 21.0778 5.32262 21.087 5.27908L21.0987 5.17029Z" fill="#1B3281"/>
<path d="M22.4641 9.95536L22.8582 8.27064H23.3664C23.5361 8.27064 23.6697 8.23101 23.7643 8.15885C23.8603 8.0839 23.9256 7.95754 23.9633 7.78743C23.9821 7.71248 23.9937 7.6336 24.0016 7.54406C24.0066 7.44911 24.0066 7.34872 24.0016 7.23246L23.7304 2.02051H25.5278L25.4999 5.47408L27.069 2.02051H28.7404L25.9665 7.68501C25.6516 8.31812 25.4229 8.75307 25.2777 8.99047C25.1343 9.22487 24.9983 9.40711 24.8662 9.53049C24.695 9.70114 24.5039 9.8221 24.2976 9.89257C24.0908 9.96452 23.776 10.0004 23.3528 10.0004C23.231 10.0004 23.0908 9.99761 22.9392 9.98827C22.7888 9.98133 22.6282 9.97071 22.4641 9.95536Z" fill="#1B3281"/>
</svg>
