<svg width="107" height="28" viewBox="0 0 107 28" fill="none" xmlns="http://www.w3.org/2000/svg">
<path d="M100.643 2.64111L106.644 13.9469L94.0283 25.2581L100.643 2.64111Z" fill="#008C44"/>
<path d="M96.4862 2.64111L102.478 13.9469L89.8712 25.2581L96.4862 2.64111Z" fill="#F47920"/>
<path d="M0.272461 21.1441L6.25586 0.691406H15.8217C18.8114 0.691406 20.8085 1.14045 21.8245 2.06578C22.8332 2.98369 23.0275 4.48198 22.4195 6.58791C22.0518 7.82847 21.4928 8.86979 20.7248 9.69253C19.9632 10.5167 18.9587 11.1685 17.7217 11.6478C18.7711 11.8872 19.4388 12.3625 19.7381 13.0752C20.0358 13.7879 20.0014 14.8273 19.6399 16.1897L18.9122 19.0466L18.9101 19.1239C18.7001 19.9238 18.7623 20.352 19.1045 20.3867L18.884 21.1441H12.4127C12.4346 20.6628 12.4749 20.2326 12.5177 19.8713C12.5647 19.5015 12.6226 19.215 12.6802 19.0183L13.2835 16.9758C13.5875 15.9137 13.6063 15.1727 13.3242 14.746C13.0396 14.3078 12.4023 14.0922 11.3961 14.0922H8.67659L6.60272 21.1441H0.272461ZM10.0223 9.48338H12.9351C13.9558 9.48338 14.7091 9.34509 15.1735 9.05912C15.64 8.77066 15.9863 8.28346 16.1895 7.57867C16.4 6.86199 16.3483 6.3624 16.0464 6.07841C15.7449 5.78994 15.0236 5.64969 13.8894 5.64969H11.1438L10.0223 9.48338Z" fill="#1B3281"/>
<path d="M40.1791 6.05176L35.7682 21.1442H30.408L31.0666 18.9332C30.1232 19.8124 29.1578 20.48 28.1846 20.9068C27.2193 21.3409 26.2006 21.5546 25.1282 21.5546C24.2417 21.5546 23.4806 21.4019 22.8678 21.0991C22.2477 20.7972 21.7859 20.3383 21.4751 19.7331C21.1993 19.2033 21.0791 18.5491 21.1262 17.7675C21.1758 16.9982 21.462 15.7007 21.9928 13.8837L24.2787 6.05176H30.142L27.8607 13.8471C27.5275 14.9879 27.4481 15.7898 27.6105 16.2266C27.7798 16.6672 28.2317 16.8947 28.9651 16.8947C29.7038 16.8947 30.3248 16.6409 30.8378 16.123C31.3581 15.6095 31.7599 14.8437 32.0618 13.8248L34.3243 6.05176H40.1791Z" fill="#1B3281"/>
<path d="M38.0521 21.1441L44.0292 0.691406H52.2516C54.0658 0.691406 55.4699 0.79301 56.4714 1.01604C57.4707 1.22966 58.2542 1.5766 58.8367 2.06578C59.5665 2.70564 60.0136 3.49766 60.1975 4.44779C60.3704 5.3979 60.268 6.50464 59.8893 7.80419C59.2196 10.0905 58.0458 11.8426 56.3731 13.0668C54.6953 14.2751 52.6193 14.8823 50.1417 14.8823H46.2937L44.4659 21.1441H38.0521ZM47.7506 9.88731H49.8183C51.155 9.88731 52.0948 9.7307 52.6454 9.42836C53.1782 9.12206 53.557 8.57786 53.7878 7.80419C54.0187 7.0201 53.9592 6.47194 53.6102 6.16564C53.2744 5.86082 52.4161 5.70669 51.0427 5.70669H48.9793L47.7506 9.88731Z" fill="#1B3281"/>
<path d="M66.7865 21.1443L66.846 19.7109C65.9005 20.3825 64.943 20.89 63.9802 21.2072C63.0216 21.5303 62.0009 21.6944 60.9076 21.6944C59.2469 21.6944 58.0888 21.2662 57.4191 20.4375C56.7578 19.6073 56.6491 18.4153 57.1004 16.8947C57.5324 15.394 58.3009 14.2892 59.4093 13.5829C60.5116 12.8683 62.3525 12.3567 64.9352 12.0296C65.2627 11.9791 65.7015 11.9384 66.2511 11.8755C68.1604 11.6659 69.2323 11.1831 69.4632 10.3955C69.5834 9.96433 69.5102 9.64614 69.2281 9.45086C68.9559 9.24814 68.4471 9.14852 67.7127 9.14852C67.103 9.14852 66.6126 9.26847 66.2103 9.51777C65.8086 9.76955 65.5087 10.1373 65.3055 10.6548H59.589C60.1052 8.95573 61.1599 7.67205 62.7432 6.81362C64.3209 5.94032 66.4009 5.52002 68.9774 5.52002C70.1888 5.52002 71.2737 5.62757 72.2329 5.86102C73.1936 6.08454 73.8956 6.40323 74.3511 6.78883C74.9116 7.27009 75.2434 7.81876 75.3379 8.4254C75.4471 9.03057 75.3275 9.89792 74.9932 11.033L72.5343 19.4473C72.4554 19.7228 72.4402 19.9686 72.4831 20.1922C72.5343 20.4052 72.6325 20.5876 72.806 20.718L72.6737 21.1443H66.7865ZM68.2116 14.4052C67.5888 14.6426 66.7797 14.8701 65.7741 15.1198C64.195 15.5218 63.3064 16.0581 63.1141 16.7218C62.9809 17.1485 63.0347 17.4771 63.2547 17.7269C63.4714 17.9642 63.8481 18.0842 64.3788 18.0842C65.352 18.0842 66.1335 17.8508 66.716 17.3899C67.3 16.923 67.7367 16.1899 68.0423 15.1788C68.0956 14.9638 68.1426 14.8091 68.1729 14.6936L68.2116 14.4052Z" fill="#1B3281"/>
<path d="M72.7197 27.0912L74.021 22.6242H75.699C76.2595 22.6242 76.7004 22.5191 77.0127 22.3277C77.3298 22.129 77.5455 21.794 77.6699 21.3429C77.7321 21.1442 77.7702 20.935 77.7963 20.6976C77.8131 20.4458 77.8131 20.1797 77.7963 19.8714L76.901 6.05176H82.8358L82.7438 15.209L87.9249 6.05176H93.4438L84.2843 21.0713C83.2448 22.75 82.4894 23.9033 82.0099 24.5328C81.5366 25.1543 81.0874 25.6375 80.6512 25.9647C80.0859 26.4172 79.4548 26.7379 78.7737 26.9247C78.091 27.1155 77.0514 27.2106 75.654 27.2106C75.2518 27.2106 74.789 27.2032 74.2885 27.1785C73.7917 27.1601 73.2615 27.1319 72.7197 27.0912Z" fill="#1B3281"/>
</svg>
