<svg width="40" height="40" viewBox="0 0 40 40" fill="none" xmlns="http://www.w3.org/2000/svg">
<path d="M20 3.33325C15.5797 3.33325 11.3405 5.0892 8.21487 8.21481C5.08926 11.3404 3.33331 15.5796 3.33331 19.9999C3.33331 24.4202 5.08926 28.6594 8.21487 31.785C11.3405 34.9106 15.5797 36.6666 20 36.6666C24.4203 36.6666 28.6595 34.9106 31.7851 31.785C34.9107 28.6594 36.6666 24.4202 36.6666 19.9999C36.6666 15.5796 34.9107 11.3404 31.7851 8.21481C28.6595 5.0892 24.4203 3.33325 20 3.33325Z" fill="#29B6F6"/>
<path d="M28.2916 12.5001L25.17 28.4384C25.17 28.4384 25.0358 29.1667 24.1325 29.1667C23.6525 29.1667 23.405 28.9384 23.405 28.9384L16.6433 23.3276L13.335 21.6601L9.08915 20.5309C9.08915 20.5309 8.33331 20.3126 8.33331 19.6876C8.33331 19.1667 9.11081 18.9184 9.11081 18.9184L26.8741 11.8618C26.8733 11.8609 27.4166 11.6659 27.8125 11.6668C28.0558 11.6668 28.3333 11.7709 28.3333 12.0834C28.3333 12.2918 28.2916 12.5001 28.2916 12.5001Z" fill="white"/>
<path d="M19.1667 25.4209L16.3117 28.2326C16.3117 28.2326 16.1875 28.3284 16.0217 28.3326C15.9642 28.3343 15.9025 28.3251 15.8392 28.2968L16.6425 23.3259L19.1667 25.4209Z" fill="#B0BEC5"/>
<path d="M24.9141 15.1632C24.7733 14.9799 24.5133 14.9466 24.33 15.0857L13.3333 21.6666C13.3333 21.6666 15.0883 26.5766 15.3558 27.4266C15.6241 28.2774 15.8391 28.2974 15.8391 28.2974L16.6425 23.3266L24.8358 15.7466C25.0191 15.6074 25.0533 15.3466 24.9141 15.1632Z" fill="#CFD8DC"/>
</svg>
