<svg width="46" height="46" viewBox="0 0 46 46" fill="none" xmlns="http://www.w3.org/2000/svg">
<path d="M23 0.5C17.0326 0.5 11.3097 2.87053 7.0901 7.0901C2.87053 11.3097 0.5 17.0326 0.5 23C0.5 28.9674 2.87053 34.6903 7.0901 38.9099C11.3097 43.1295 17.0326 45.5 23 45.5C28.9674 45.5 34.6903 43.1295 38.9099 38.9099C43.1295 34.6903 45.5 28.9674 45.5 23C45.5 17.0326 43.1295 11.3097 38.9099 7.0901C34.6903 2.87053 28.9674 0.5 23 0.5V0.5Z" fill="#29B6F6"/>
<path d="M34.1938 12.875L29.9795 34.3918C29.9795 34.3918 29.7984 35.375 28.5789 35.375C27.9309 35.375 27.5968 35.0668 27.5968 35.0668L18.4685 27.4921L14.0023 25.241L8.27037 23.7166C8.27037 23.7166 7.25 23.4219 7.25 22.5781C7.25 21.875 8.29962 21.5398 8.29962 21.5398L32.2801 12.0133C32.279 12.0121 33.0125 11.7489 33.5469 11.75C33.8754 11.75 34.25 11.8906 34.25 12.3125C34.25 12.5938 34.1938 12.875 34.1938 12.875Z" fill="white"/>
<path d="M21.875 30.318L18.0207 34.1137C18.0207 34.1137 17.8531 34.2431 17.6292 34.2487C17.5516 34.251 17.4684 34.2386 17.3829 34.2004L18.4674 27.4897L21.875 30.318Z" fill="#B0BEC5"/>
<path d="M29.6341 16.4704C29.444 16.2229 29.093 16.1779 28.8455 16.3658L14 25.2499C14 25.2499 16.3693 31.8784 16.7304 33.0259C17.0926 34.1745 17.3829 34.2015 17.3829 34.2015L18.4674 27.4909L29.5284 17.2579C29.7759 17.07 29.822 16.7179 29.6341 16.4704Z" fill="#CFD8DC"/>
</svg>
