<svg width="126" height="24" viewBox="0 0 126 24" fill="none" xmlns="http://www.w3.org/2000/svg">
<path d="M73.3357 0.951181L67.0792 15.8459L64.5257 3.25199C64.2703 1.79885 63.1211 1.07227 61.7166 1.07227H51.6297V1.67775C53.6726 2.16214 56.0986 2.76761 57.5031 3.49418C58.3968 3.97857 58.6522 4.34185 58.9076 5.43171L63.6318 22.8695H69.8883L79.5921 1.07227H73.3357V0.951181ZM82.1457 0.951181L77.1661 22.7484H83.1673L88.1469 0.951181H82.1457ZM116.364 6.88486L118.152 15.1193H113.173L116.364 6.88486ZM115.471 0.951181C114.321 0.951181 113.3 1.55666 112.917 2.52543L103.98 22.8695H110.236L111.512 19.5999H119.173L119.939 22.8695H125.43L120.578 1.07227H115.471V0.951181ZM99.8936 0.587891C94.0202 0.587891 89.8067 3.61528 89.8067 7.85362C89.8067 11.0021 92.7434 12.6975 95.0417 13.7873C97.3399 14.8771 98.1061 15.6037 98.1061 16.4514C98.1061 17.9045 96.1908 18.51 94.5309 18.6311C91.5942 18.6311 89.8067 17.9045 88.4022 17.2991L87.3807 22.1429C88.7853 22.7484 91.3388 23.2327 94.0202 23.3538C100.277 23.3538 104.362 20.4476 104.362 15.8459C104.362 10.0333 95.9354 9.79115 96.0631 7.12705C96.0631 6.40048 96.8292 5.5528 98.6168 5.31061C99.5105 5.18953 101.809 5.06842 104.491 6.27938L105.512 1.67775C103.98 1.07227 102.192 0.587891 99.8936 0.587891Z" fill="#1334CB"/>
<path d="M36.5633 11.0021L28.0086 1.43556C27.7532 1.19337 27.4978 0.951177 27.1148 0.951177C26.6041 0.951177 26.0934 1.43556 26.0934 1.91994C26.0934 2.16213 26.221 2.40432 26.4764 2.64651L34.265 11.6076L26.6041 20.4475H23.2843L30.5622 12.3341C30.8176 12.092 30.8176 11.8498 30.8176 11.6076C30.8176 11.3654 30.6899 11.1232 30.5622 10.881L21.8798 1.31446C21.6245 1.07227 21.3691 0.830078 20.9861 0.830078C20.8584 0.830078 14.8573 0.830078 14.8573 0.830078C14.3465 0.830078 13.8358 1.31446 13.8358 1.79884C13.8358 1.91994 13.8358 2.16213 13.9635 2.28323L22.0075 11.6076L15.1126 19.4787C15.1126 19.4787 14.4742 20.3265 13.4528 20.3265H5.02577C3.87663 20.3265 2.98285 19.4787 2.98285 18.3889V4.82623C2.98285 3.85747 3.87663 2.8887 5.02577 2.8887H10.2607C10.8991 2.8887 11.2822 2.52542 11.2822 1.91994C11.2822 1.31446 10.8991 0.951177 10.2607 0.951177H5.02577C2.59981 0.951177 0.939941 2.8887 0.939941 4.82623V18.5101C0.939941 20.5687 2.85517 22.3851 5.02577 22.3851H13.3251C13.7082 22.3851 14.0912 22.3851 14.4742 22.264H14.6019C15.751 21.9007 16.3895 21.1741 16.5172 21.053L24.3058 12.4553C24.6888 12.092 24.6888 11.4865 24.3058 11.0021L16.9002 2.8887H20.3476L28.0086 11.6076L19.9645 20.8108C19.8369 20.932 19.8369 21.053 19.8369 21.2952C19.8369 21.7796 20.3476 22.264 20.8584 22.264C20.8584 22.264 26.8594 22.264 26.9871 22.264C27.3702 22.264 27.7532 22.0218 27.8809 21.7796L36.5633 12.3341C36.9463 11.9709 36.9463 11.3654 36.5633 11.0021Z" fill="#151A59"/>
<path d="M44.2247 0.95166H43.5863V22.991H44.2247V0.95166Z" fill="#151A59"/>
</svg>
