<svg width="80" height="23" viewBox="0 0 80 23" fill="none" xmlns="http://www.w3.org/2000/svg">
<path d="M27.0301 22.6111L30.8864 0.965332H37.0505L33.1946 22.6111H27.0301Z" fill="#1334CB"/>
<path d="M55.5521 1.49639C54.3333 1.06196 52.4165 0.587891 50.0287 0.587891C43.9344 0.587891 39.6445 3.52566 39.6088 7.73183C39.5701 10.8429 42.6701 12.5784 45.0072 13.6125C47.4092 14.6725 48.2161 15.3508 48.2066 16.2987C48.19 17.7484 46.2894 18.4127 44.5171 18.4127C42.0493 18.4127 40.7381 18.0857 38.7109 17.2775L37.918 16.9329L37.056 21.7781C38.4934 22.3811 41.1579 22.9044 43.9234 22.9318C50.4002 22.9318 54.6087 20.0299 54.658 15.5382C54.6803 13.071 53.0377 11.2006 49.4804 9.6566C47.3263 8.65319 46.0042 7.98823 46.0194 6.9723C46.0208 6.07248 47.1363 5.10962 49.5506 5.10962C51.5668 5.08021 53.0264 5.50122 54.1637 5.94108L54.7172 6.18887L55.5521 1.49639Z" fill="#1334CB"/>
<path d="M63.7613 14.9367C64.2721 13.6926 66.2169 8.88668 66.2169 8.88668C66.181 8.9436 66.7249 7.63256 67.0362 6.82124L67.4523 8.68815C67.4523 8.68815 68.6351 13.8546 68.8787 14.9367C67.919 14.9367 64.965 14.9367 63.7613 14.9367ZM71.366 0.987305H66.6022C65.1247 0.987305 64.0187 1.37027 63.3714 2.7816L54.2173 22.6187H60.6916C60.6916 22.6187 61.7479 19.9501 61.9876 19.3644C62.6938 19.3644 68.9848 19.3756 69.8827 19.3756C70.0675 20.1311 70.6334 22.6187 70.6334 22.6187H76.3546L71.366 0.987305Z" fill="#1334CB"/>
<path d="M21.8578 0.983887L15.8245 15.7412L15.1783 12.7414C14.0539 9.28511 10.5542 5.53885 6.63934 3.66176L12.159 22.5926L18.6827 22.5891L28.39 0.983887H21.8578Z" fill="#1334CB"/>
<path d="M10.2244 0.969238H0.284048L0.201904 1.41774C7.93696 3.21076 13.0547 7.53873 15.1789 12.7414L13.0188 2.79551C12.6461 1.42381 11.563 1.01719 10.2244 0.969238Z" fill="#1334CB"/>
<path d="M78.108 21.1961H78.3999C78.6062 21.1961 78.6484 21.0867 78.6484 20.9988C78.6484 20.8476 78.5402 20.8125 78.3725 20.8125H78.108V21.1961ZM77.8559 20.6444H78.4577C78.598 20.6444 78.9059 20.6779 78.9059 20.9988C78.9059 21.0839 78.8779 21.2037 78.6767 21.2817V21.2884C78.8504 21.3153 78.8597 21.4642 78.8699 21.5841C78.8826 21.7752 78.8699 21.8094 78.9248 21.8769H78.6636C78.6139 21.8314 78.6251 21.796 78.6139 21.5955C78.6139 21.4817 78.598 21.3657 78.3153 21.3657H78.108V21.8769H77.8559V20.6444ZM78.353 22.3173C78.9714 22.3173 79.4572 21.8519 79.4572 21.2705C79.4572 20.6885 78.9714 20.2234 78.353 20.2234C77.7349 20.2234 77.2495 20.6885 77.2495 21.2705C77.2495 21.8519 77.7349 22.3173 78.353 22.3173ZM78.353 20.0361C79.1156 20.0361 79.7146 20.5894 79.7146 21.2705C79.7146 21.9513 79.1156 22.5045 78.353 22.5045C77.5908 22.5045 76.9925 21.9513 76.9925 21.2705C76.9925 20.5894 77.5908 20.0361 78.353 20.0361Z" fill="#1334CB"/>
</svg>
