<svg width="39" height="8" viewBox="0 0 39 8" fill="none" xmlns="http://www.w3.org/2000/svg">
<path d="M22.9919 0.127661L21.0693 5.3617L20.2846 0.93617C20.2061 0.425533 19.853 0.170213 19.4214 0.170213H16.3218V0.38298C16.9496 0.553193 17.695 0.765957 18.1266 1.02128C18.4013 1.19149 18.4798 1.31915 18.5582 1.70213L20.01 7.8298H21.9325L24.9144 0.170213H22.9919V0.127661ZM25.6992 0.127661L24.169 7.78723H26.0131L27.5433 0.127661H25.6992ZM36.2143 2.21277L36.7638 5.10637H35.2336L36.2143 2.21277ZM35.9398 0.127661C35.5865 0.127661 35.2728 0.340427 35.1549 0.680853L32.4086 7.8298H34.3312L34.7233 6.68087H37.0776L37.3129 7.8298H39.0002L37.5092 0.170213H35.9398V0.127661ZM31.153 0C29.3481 0 28.0533 1.06383 28.0533 2.55319C28.0533 3.65957 28.9558 4.25533 29.662 4.6383C30.3683 5.02127 30.6037 5.2766 30.6037 5.57447C30.6037 6.0851 30.0151 6.29787 29.5051 6.34043C28.6026 6.34043 28.0533 6.0851 27.6217 5.87233L27.3079 7.57447C27.7395 7.78723 28.5242 7.95743 29.3481 8C31.2707 8 32.5261 6.97873 32.5261 5.3617C32.5261 3.31915 29.9367 3.23404 29.9759 2.29787C29.9759 2.04255 30.2113 1.74468 30.7606 1.65957C31.0353 1.61702 31.7416 1.57447 32.5656 2L32.8794 0.38298C32.4086 0.170213 31.8591 0 31.153 0Z" fill="#1334CB"/>
<path d="M11.692 3.65944L9.06315 0.297727C8.98467 0.212621 8.90618 0.127515 8.78849 0.127515C8.63155 0.127515 8.47461 0.297728 8.47461 0.467941C8.47461 0.553047 8.51382 0.638154 8.59231 0.723257L10.9857 3.8722L8.63155 6.97857H7.6114L9.84784 4.1275C9.92633 4.0424 9.92633 3.9573 9.92633 3.8722C9.92633 3.7871 9.88709 3.70197 9.84784 3.61687L7.1798 0.255174C7.10135 0.170068 7.02286 0.0849609 6.90517 0.0849609C6.86592 0.0849609 5.02185 0.0849609 5.02185 0.0849609C4.86488 0.0849609 4.70794 0.255173 4.70794 0.425387C4.70794 0.467941 4.70794 0.553047 4.74718 0.595601L7.21904 3.8722L5.1003 6.63814C5.1003 6.63814 4.90412 6.93604 4.59024 6.93604H2.00067C1.64754 6.93604 1.37289 6.63814 1.37289 6.25517V1.48922C1.37289 1.14879 1.64754 0.808364 2.00067 0.808364H3.60934C3.80552 0.808364 3.92322 0.680707 3.92322 0.467941C3.92322 0.255174 3.80552 0.127515 3.60934 0.127515H2.00067C1.25518 0.127515 0.745117 0.808364 0.745117 1.48922V6.29774C0.745117 7.02114 1.33366 7.65944 2.00067 7.65944H4.551C4.66873 7.65944 4.78642 7.65944 4.90412 7.61687H4.94336C5.29648 7.4892 5.49266 7.2339 5.5319 7.19134L7.92531 4.17007C8.04301 4.0424 8.04301 3.82964 7.92531 3.65944L5.6496 0.808364H6.70899L9.06315 3.8722L6.59126 7.10624C6.55205 7.14881 6.55205 7.19134 6.55205 7.27644C6.55205 7.44667 6.70899 7.61687 6.86592 7.61687C6.86592 7.61687 8.71 7.61687 8.74925 7.61687C8.86697 7.61687 8.98467 7.53177 9.02391 7.44667L11.692 4.1275C11.8096 3.99987 11.8096 3.7871 11.692 3.65944Z" fill="#151A59"/>
<path d="M14.0463 0.12793H13.8501V7.87261H14.0463V0.12793Z" fill="#151A59"/>
</svg>
