<svg width="24" height="8" viewBox="0 0 24 8" fill="none" xmlns="http://www.w3.org/2000/svg">
<path d="M8.32922 7.88504L9.45218 0.13501H11.2472L10.1243 7.88504H8.32922Z" fill="#1334CB"/>
<path d="M16.635 0.32528C16.2801 0.169737 15.7219 0 15.0266 0C13.2519 0 12.0027 1.05184 11.9923 2.55781C11.981 3.67169 12.8837 4.29308 13.5643 4.66331C14.2638 5.04285 14.4988 5.28572 14.496 5.62507C14.4912 6.14413 13.9377 6.38197 13.4216 6.38197C12.7029 6.38197 12.3211 6.2649 11.7308 5.97554L11.4999 5.85215L11.2489 7.58694C11.6675 7.80281 12.4434 7.99018 13.2487 8C15.1348 8 16.3603 6.96101 16.3746 5.35279C16.3811 4.46945 15.9028 3.79977 14.8669 3.24695C14.2396 2.88769 13.8546 2.64961 13.8591 2.28587C13.8595 1.9637 14.1843 1.61896 14.8874 1.61896C15.4745 1.60843 15.8995 1.75917 16.2307 1.91665L16.3919 2.00537L16.635 0.32528Z" fill="#1334CB"/>
<path d="M19.0255 5.13751C19.1742 4.69205 19.7405 2.97135 19.7405 2.97135C19.7301 2.99173 19.8885 2.52233 19.9791 2.23185L20.1003 2.90027C20.1003 2.90027 20.4447 4.75006 20.5157 5.13751C20.2362 5.13751 19.376 5.13751 19.0255 5.13751ZM21.24 0.143066H19.8527C19.4225 0.143066 19.1004 0.280182 18.9119 0.785496L16.2462 7.88797H18.1316C18.1316 7.88797 18.4392 6.93249 18.509 6.7228C18.7146 6.7228 20.5466 6.72681 20.808 6.72681C20.8618 6.99729 21.0266 7.88797 21.0266 7.88797H22.6927L21.24 0.143066Z" fill="#1334CB"/>
<path d="M6.82299 0.141846L5.0661 5.42553L4.87791 4.35148C4.5505 3.11401 3.53136 1.7727 2.39136 1.10063L3.99869 7.8786L5.8984 7.87735L8.72519 0.141846H6.82299Z" fill="#1334CB"/>
<path d="M3.43541 0.13623H0.540766L0.516846 0.296935C2.76931 0.939405 4.25961 2.49019 4.87817 4.35439L4.24915 0.790614C4.14063 0.29911 3.82523 0.153412 3.43541 0.13623Z" fill="#1334CB"/>
<path d="M23.2033 7.37876H23.2883C23.3484 7.37876 23.3607 7.33957 23.3607 7.30807C23.3607 7.2539 23.3292 7.24133 23.2803 7.24133H23.2033V7.37876ZM23.1299 7.18107H23.3051C23.346 7.18107 23.4356 7.1931 23.4356 7.30807C23.4356 7.33855 23.4275 7.38151 23.3689 7.40944V7.41186C23.4195 7.42147 23.4222 7.47483 23.4252 7.51778C23.4289 7.58626 23.4252 7.59853 23.4412 7.62269H23.3651C23.3506 7.60641 23.3539 7.5937 23.3506 7.5219C23.3506 7.48112 23.346 7.43955 23.2637 7.43955H23.2033V7.62269H23.1299V7.18107ZM23.2746 7.78051C23.4547 7.78051 23.5962 7.61375 23.5962 7.40543C23.5962 7.19688 23.4547 7.03025 23.2746 7.03025C23.0947 7.03025 22.9533 7.19688 22.9533 7.40543C22.9533 7.61375 23.0947 7.78051 23.2746 7.78051ZM23.2746 6.96313C23.4967 6.96313 23.6712 7.1614 23.6712 7.40543C23.6712 7.64937 23.4967 7.8476 23.2746 7.8476C23.0527 7.8476 22.8785 7.64937 22.8785 7.40543C22.8785 7.1614 23.0527 6.96313 23.2746 6.96313Z" fill="#1334CB"/>
</svg>
