<svg width="46" height="46" viewBox="0 0 46 46" fill="none" xmlns="http://www.w3.org/2000/svg">
<path d="M23 0.5C10.5734 0.5 0.5 10.1534 0.5 22.0625C0.5 26.2897 1.77427 30.2297 3.96802 33.5579L2.375 45.5L16.8129 42.7919C18.7788 43.33 20.8531 43.625 23 43.625C35.4266 43.625 45.5 33.9716 45.5 22.0625C45.5 10.1534 35.4266 0.5 23 0.5ZM23 3.71533C28.4394 3.66002 33.867 6.06668 37.4745 10.1954C41.1157 14.3017 42.7129 20.1409 41.6694 25.5653C40.671 31.0197 36.9904 35.819 32.1388 38.4449C27.3988 40.9865 21.5796 41.4706 16.4796 39.6791L7.30969 41.717L5.87598 42.0356L6.14697 40.6093V40.6074L7.41223 32.9005C6.60411 31.6068 5.92021 30.2503 5.3999 28.8356C4.82615 27.2006 4.44547 25.5066 4.30859 23.7928C4.24109 22.936 4.22734 22.0779 4.29578 21.2239C4.31171 20.3651 4.45808 19.5188 4.60339 18.675C4.97089 17.0072 5.484 15.3548 6.30994 13.8539C7.10025 12.3426 8.07178 10.9126 9.26709 9.69006C9.82584 9.04131 10.502 8.5106 11.1329 7.93591C11.8248 7.43623 12.4868 6.88902 13.2386 6.47839C16.1486 4.66714 19.5819 3.78283 23 3.71533ZM22.9963 6.125C20.0029 6.1475 16.9841 6.87034 14.4032 8.42847C13.7348 8.77815 13.1515 9.25613 12.5337 9.68457C11.9759 10.1861 11.3641 10.6388 10.8748 11.2135C9.81444 12.2832 8.95853 13.5399 8.25635 14.8646C6.85947 17.5318 6.32207 20.6067 6.62488 23.5823C6.96425 26.5532 8.27775 29.3899 10.2943 31.5217V31.5236L10.7301 32.0582L10.558 32.6716L8.78003 38.9814L16.3514 36.526L16.3533 36.5242L16.7634 36.3923L17.1992 36.5645C21.5286 38.2698 26.5798 37.9596 30.7179 35.8174C34.8382 33.6508 38.0091 29.6382 38.91 25.0398C39.8485 20.4545 38.5749 15.4768 35.4896 11.8983C32.4296 8.30488 27.7607 6.14094 22.9963 6.125ZM15.868 12.92C16.3987 12.9219 17.9023 12.92 17.9023 12.92L19.9366 18.0049C19.2129 19.1383 18.4689 19.7711 17.9298 20.3889C18.2307 21.122 19.4639 22.9507 20.9236 24.2341C22.8051 25.8841 24.4357 26.655 25.6001 26.8818C26.2095 26.4281 27.7467 24.5934 28.0739 24.1078L33.1587 26.1421C33.1587 27.1593 33.0274 27.6957 32.613 28.8282C32.2062 29.9607 30.2439 30.9958 29.2952 31.1317C28.4495 31.2592 27.381 31.3078 26.2007 30.9413C25.491 30.7182 24.5747 30.4221 23.4028 29.9196C18.4753 27.8149 15.2549 22.9189 15.0074 22.5917C14.7684 22.2729 13.0061 19.9605 13.0061 17.5764C13.0061 15.1924 14.2726 14.0127 14.7273 13.5261C15.1735 13.0396 15.5418 12.9182 15.868 12.92Z" fill="#3AB8FF"/>
</svg>
